<svg width="22" height="22" viewBox="0 0 20 20" fill="none" xmlns="http://www.w3.org/2000/svg">
<path fill-rule="evenodd" clip-rule="evenodd" d="M10 2.41602C5.81186 2.41602 2.41669 5.81119 2.41669 9.99935C2.41669 11.5742 2.89613 13.0361 3.71775 14.2482C4.63714 12.9636 5.91583 11.9829 7.33689 11.4282C6.46729 10.6793 5.91669 9.5703 5.91669 8.33268C5.91669 6.07752 7.74486 4.24935 10 4.24935C12.2552 4.24935 14.0834 6.07752 14.0834 8.33268C14.0834 9.57029 13.5328 10.6793 12.6632 11.4281C14.0842 11.9829 15.3629 12.9636 16.2823 14.2482C17.1039 13.036 17.5834 11.5741 17.5834 9.99935C17.5834 5.81119 14.1882 2.41602 10 2.41602ZM15.279 15.4436C14.1054 13.5749 12.0349 12.416 10.0001 12.416C7.96518 12.416 5.89468 13.575 4.7211 15.4436C6.08706 16.7684 7.94786 17.5827 10 17.5827C12.0522 17.5827 13.913 16.7684 15.279 15.4436ZM0.916687 9.99935C0.916687 4.98276 4.98343 0.916016 10 0.916016C15.0166 0.916016 19.0834 4.98276 19.0834 9.99935C19.0834 12.4513 18.1108 14.6776 16.5321 16.3111C14.8814 18.0192 12.5643 19.0827 10 19.0827C7.43579 19.0827 5.11865 18.0192 3.46792 16.3111C1.88919 14.6776 0.916687 12.4513 0.916687 9.99935ZM10 5.74935C8.57328 5.74935 7.41669 6.90595 7.41669 8.33268C7.41669 9.75942 8.57328 10.916 10 10.916C11.4268 10.916 12.5834 9.75942 12.5834 8.33268C12.5834 6.90595 11.4268 5.74935 10 5.74935Z" fill="#3E5970"/>
</svg>
