<svg width="15" height="15" viewBox="0 0 15 15" fill="none" xmlns="http://www.w3.org/2000/svg">
<path d="M7.5 0L9.03706 0.765686L10.7541 0.742733L11.8068 2.0995L13.3637 2.82383L13.7234 4.50295L14.812 5.83109L14.4075 7.5L14.812 9.16891L13.7234 10.4971L13.3637 12.1762L11.8068 12.9005L10.7541 14.2573L9.03706 14.2343L7.5 15L5.96294 14.2343L4.24587 14.2573L3.19324 12.9005L1.63626 12.1762L1.27656 10.4971L0.188041 9.16891L0.5925 7.5L0.188041 5.83109L1.27656 4.50295L1.63626 2.82383L3.19324 2.0995L4.24587 0.742733L5.96294 0.765686L7.5 0Z" fill="#72A9FC"/>
<path d="M4 8.31818L6.91667 10.5L11 4.5" stroke="white" stroke-width="1.3"/>
</svg>
