<svg width="326" height="172" viewBox="0 0 326 172" fill="none" xmlns="http://www.w3.org/2000/svg">
<path fill-rule="evenodd" clip-rule="evenodd" d="M228.65 169.117C176.452 179.877 142.586 148.892 73.6453 148.892C50.0866 148.892 -6.8579 162.159 1.95903 80.1792C6.9623 33.659 60.8878 12.5462 111.282 39.7369C126.111 45.5361 137.819 43.7388 150.531 37.9767C163.242 32.2146 179.591 6.49104 210.403 1.19905C303.126 -14.7263 405.785 132.604 228.65 169.117Z" fill="#E9FDEA"/>
<path fill-rule="evenodd" clip-rule="evenodd" d="M226.75 63.9726C230.384 66.3655 234.033 68.897 238.215 70.0988C242.396 71.3005 247.311 70.933 250.531 68.0071C263.526 56.1997 284.454 54.2255 299.428 63.3943C314.402 72.5632 322.157 92.1007 317.548 109.043C312.939 125.985 296.355 138.901 278.8 139.221C269.704 139.387 261.293 143.735 252.601 146.422C243.91 149.109 233.456 149.799 226.659 143.752C219.334 137.235 220.17 123.806 228.247 118.249C215.554 119.2 202.86 120.151 190.166 121.102C192.958 122.234 195.931 123.514 197.531 126.066C199.132 128.618 198.398 132.794 195.482 133.553C184.624 136.377 173.505 131.23 163.083 127.075C152.66 122.921 140.101 119.87 130.807 126.155C109.861 140.322 82.1899 137.97 57.2432 133.839C51.2584 132.848 44.0591 130.668 42.8147 124.731C31.3601 126.887 19.6789 127.837 8.02639 127.561C5.18201 127.494 1.82422 127.046 0.494898 124.53C-1.22752 121.271 1.86442 117.573 4.87561 115.446C14.071 108.952 25.2979 105.378 36.5556 105.363C39.7623 105.359 41.9032 102.008 42.7195 98.9066C43.5359 95.8056 43.7646 92.3549 45.8468 89.9162C38.7661 88.8534 31.2648 91.0149 25.8354 95.6827C24.8277 96.549 23.1267 95.6792 22.7037 94.4194C22.2808 93.1597 22.7165 91.7893 23.1639 90.538C25.6691 83.5313 28.8102 76.4123 34.5038 71.6215C40.1975 66.8307 49.0934 65.1027 55.0956 69.5008C56.9786 70.8805 60.1756 72.6515 64.6868 74.8139C69.312 74.1144 72.7512 73.5577 75.0042 73.1435C81.8276 71.8892 88.1541 68.7905 94.3392 65.6479C115.892 54.6971 137.99 42.5054 162.155 41.8175C185.273 41.1596 207.435 51.2531 226.75 63.9726ZM251.207 82.9566L253.375 88.4185C253.481 88.6862 253.596 88.9661 253.82 89.1472C254.092 89.3669 254.464 89.3963 254.81 89.4461C257.461 89.8278 259.538 91.8404 261.416 93.7489C263.823 96.1935 266.229 98.6381 268.635 101.083C269.356 101.815 270.555 101.023 271.245 100.262C272.797 98.5494 274.377 96.7931 275.273 94.6632C276.169 92.5333 276.266 89.9212 274.93 88.0355C274.137 86.915 272.928 86.1593 271.69 85.5671C269.645 84.5895 267.427 83.9764 265.17 83.765C262.97 83.5589 260.754 83.7321 258.544 83.7158C256.082 83.6976 253.621 83.443 251.207 82.9566Z" fill="white"/>
<path fill-rule="evenodd" clip-rule="evenodd" d="M42.8147 124.73C31.3601 126.886 19.6789 127.836 8.02638 127.56C4.67305 122.674 40.9603 113.67 42.2761 119.605C43.3165 124.299 43.3642 127.351 42.8147 124.73Z" fill="#E7EAEE"/>
<path fill-rule="evenodd" clip-rule="evenodd" d="M218.546 108.899C219.77 108.768 224.634 107.575 229.741 108.128C232.486 106.719 245.639 107.826 253.49 109.364C258.53 110.351 271.303 111.007 275.941 113.373C283.992 117.48 284.177 120.019 282.965 120.563C279.524 122.107 275.378 122.869 273.15 122.909C269.137 122.982 261.066 119.274 252.212 116.951C248.258 115.913 245.353 115.032 243.063 114.177L243.437 114.013C238.484 116.249 233.361 116.605 228.247 118.249C215.553 119.2 202.859 120.151 190.166 121.102C192.958 122.234 150.95 106.939 163.082 104.708C163.83 104.57 164.655 104.487 165.549 104.449C176.911 103.973 199.486 110.935 218.546 108.899Z" fill="#E7EAEE"/>
<path fill-rule="evenodd" clip-rule="evenodd" d="M105.182 90.0171C105.337 90.2938 105.219 90.6616 104.987 90.8772C104.754 91.0927 104.435 91.1857 104.123 91.2442C101.828 91.675 99.3212 90.4232 98.2865 88.3301C98.1711 88.0967 98.0706 87.8405 98.1058 87.5825C98.141 87.3246 98.3576 87.075 98.6175 87.0905C99.2855 87.8275 99.9632 88.5729 100.795 89.1183C101.627 89.6638 102.644 89.9962 103.622 89.8165C104.177 89.7145 104.906 89.5246 105.182 90.0171Z" fill="#45423E"/>
<path fill-rule="evenodd" clip-rule="evenodd" d="M106.685 118.571C106.718 117.925 107.528 117.655 108.174 117.631C111.071 117.523 113.768 118.943 116.444 120.059C119.119 121.175 122.235 121.998 124.848 120.742C125.393 120.48 125.965 120.122 126.557 120.249C125.575 122.152 123.229 123.017 121.09 122.899C118.952 122.782 116.948 121.878 114.976 121.041C113.004 120.205 110.93 119.41 108.791 119.529C108.352 119.553 107.903 119.616 107.481 119.496C107.058 119.377 106.663 119.01 106.685 118.571Z" fill="#45423E"/>
<path fill-rule="evenodd" clip-rule="evenodd" d="M111.757 123.992C109.759 123.409 107.423 123.701 105.782 122.42C105.581 122.264 105.383 122.059 105.375 121.804C105.364 121.448 105.748 121.187 106.105 121.178C106.461 121.169 106.796 121.331 107.13 121.454C108.352 121.903 109.697 121.843 110.973 122.103C112.887 122.493 114.572 123.584 116.374 124.336C118.177 125.088 120.338 125.472 122.017 124.474C122.694 124.071 123.584 123.47 124.145 124.023C122.318 126.104 119.224 126.971 116.582 126.143C114.899 125.616 113.45 124.486 111.757 123.992Z" fill="#45423E"/>
<path fill-rule="evenodd" clip-rule="evenodd" d="M54.1704 102.919C53.8492 102.508 53.8518 101.912 54.0569 101.433C54.2619 100.953 54.6382 100.569 55.0271 100.222C56.8737 98.5726 59.4291 97.456 61.8261 98.0759C63.6227 98.5405 65.044 99.8873 66.3018 101.252C66.8404 101.836 67.3961 102.672 66.9929 103.357C66.5623 104.088 65.4813 103.933 64.6624 103.711C62.1206 103.022 59.4266 102.616 56.8579 103.197C55.9261 103.408 54.7589 103.672 54.1704 102.919Z" fill="#45423E"/>
<path fill-rule="evenodd" clip-rule="evenodd" d="M95.8018 127.686C96.156 127.9 96.1071 128.471 95.812 128.761C95.5169 129.052 95.0819 129.135 94.674 129.205C92.3872 129.597 90.1004 129.989 87.8136 130.381C87.3363 130.463 86.8026 130.534 86.4045 130.258C86.0064 129.982 85.9949 129.215 86.4689 129.115C89.3359 128.51 92.2256 128.012 95.1299 127.623C95.3574 127.593 95.6053 127.567 95.8018 127.686Z" fill="#45423E"/>
<path fill-rule="evenodd" clip-rule="evenodd" d="M89.9661 103.792C89.463 103.978 88.9073 103.492 88.8395 102.96C88.7716 102.428 89.0469 101.913 89.3656 101.481C90.8489 99.4727 93.4922 98.4444 95.9698 98.7533C98.4475 99.0623 100.698 100.632 102 102.763C102.2 103.091 102.386 103.469 102.31 103.847C102.228 104.256 101.846 104.552 101.441 104.653C101.036 104.754 100.61 104.696 100.199 104.625C98.4885 104.33 96.8204 103.817 95.1082 103.529C93.396 103.241 91.5939 103.188 89.9661 103.792Z" fill="#45423E"/>
<path fill-rule="evenodd" clip-rule="evenodd" d="M57.6316 90.0464C57.8262 89.4764 58.6504 89.6174 59.2412 89.7346C61.0829 90.1 62.8841 89.0733 64.4818 88.0871C64.6951 87.9554 64.979 88.2056 64.9744 88.4562C64.9696 88.7068 64.7892 88.9157 64.6129 89.0938C63.0201 90.7036 60.6382 91.8049 58.4847 91.1043C58.0034 90.9477 57.4681 90.5254 57.6316 90.0464Z" fill="#45423E"/>
<path fill-rule="evenodd" clip-rule="evenodd" d="M121.6 99.8038C120.979 99.6854 120.657 98.9313 120.773 98.3096C120.889 97.6879 121.312 97.1749 121.71 96.6836C123.215 94.8278 124.586 92.8542 125.667 90.7235C126.596 88.891 127.308 86.9476 128.353 85.1785C131.343 80.1165 137.143 76.844 143.021 76.9014C140.666 75.215 137.881 74.2175 135.06 73.5575C126.334 71.5159 116.906 72.6237 108.891 76.6323C107.624 77.2659 106.388 77.9705 105.067 78.4814C104.458 78.7171 103.784 78.9117 103.16 78.7186C102.535 78.5254 102.045 77.7904 102.336 77.205C102.503 76.8676 102.864 76.6789 103.201 76.5123C106.616 74.8273 110.045 73.1365 113.664 71.9537C121.761 69.3076 130.707 69.3342 138.789 72.0286C141.5 72.9326 144.334 74.3373 145.508 76.9433C145.688 77.3431 145.704 77.9822 145.271 78.0476C140.614 78.7493 135.876 80.3609 132.662 83.8026C128.499 88.2601 127.491 95.1044 122.976 99.2057C122.592 99.5549 122.111 99.901 121.6 99.8038Z" fill="#45423E"/>
<path fill-rule="evenodd" clip-rule="evenodd" d="M190.166 121.102C192.958 122.234 195.931 123.514 197.531 126.066C199.132 128.618 198.398 132.794 195.482 133.553C184.624 136.377 173.505 131.23 163.083 127.075C152.66 122.921 140.101 119.87 130.807 126.155C109.861 140.322 82.1899 137.97 57.2432 133.839C51.2584 132.848 44.0591 130.668 42.8147 124.731C31.3601 126.887 19.6789 127.837 8.02639 127.561C5.18201 127.494 1.82422 127.046 0.494898 124.53C-1.22752 121.271 1.86442 117.573 4.87561 115.446C14.071 108.952 25.2979 105.378 36.5556 105.363C39.7623 105.359 41.9032 102.008 42.7195 98.9066C43.5359 95.8056 43.7646 92.3549 45.8468 89.9162C38.7661 88.8534 31.2648 91.0149 25.8354 95.6827C24.8277 96.549 23.1267 95.6792 22.7037 94.4194C22.2808 93.1597 22.7165 91.7893 23.1639 90.538C25.6691 83.5313 28.8102 76.4123 34.5038 71.6215C40.1975 66.8307 46.4995 65.0123 55.0567 68.9091C57.2976 69.9295 60.4982 71.7428 64.6585 74.3488C69.2563 73.9679 72.7048 73.5662 75.0042 73.1435C81.8276 71.8892 88.1541 68.7905 94.3392 65.6479C115.892 54.6971 137.99 42.5054 162.155 41.8175C185.273 41.1596 207.435 51.2531 226.75 63.9726C230.384 66.3655 234.033 68.897 238.215 70.0988C242.396 71.3005 247.311 70.933 250.531 68.0071C263.526 56.1997 284.454 54.2255 299.428 63.3943C314.402 72.5632 322.157 92.1007 317.548 109.043C312.939 125.985 296.355 138.901 278.8 139.221C269.704 139.387 261.293 143.735 252.601 146.422C243.91 149.109 233.456 149.799 226.659 143.752C219.334 137.235 220.17 123.806 228.247 118.249C215.554 119.2 202.86 120.151 190.166 121.102ZM263.644 97.6836C257.238 91.2402 247.681 88.0894 238.699 89.46C243.048 88.1087 247.708 87.7682 252.207 88.4729C239.454 70.0555 218.872 58.552 197.893 50.693C187.699 46.8738 177.082 43.7344 166.198 43.4941C152.029 43.1813 138.219 47.7865 125.132 53.2253C110.767 59.1946 96.8725 66.2258 82.9933 73.2498C87.2757 73.0309 91.6161 74.9127 94.3836 78.1879C82.7586 73.3942 68.9887 74.1333 57.9436 80.1439C57.9964 77.948 59.7513 75.9125 61.9155 75.5369C55.5953 69.9682 45.8856 68.6165 38.2847 72.2473C30.6838 75.8781 25.6334 84.2804 25.9934 92.6963C32.4124 87.3875 41.6707 85.7459 49.5237 88.5239C44.8495 96.3234 42.4365 105.461 42.6501 114.551C45.1064 113.516 48.133 114.003 50.1411 115.755C47.8975 115.997 45.6539 116.238 43.4103 116.479C43.5051 117.503 43.5999 118.527 43.6947 119.551C46.0688 119.201 48.4428 118.851 50.8169 118.501C49.2891 120.258 47.1346 121.459 44.8364 121.835C44.5478 124.76 46.5779 127.519 49.1248 128.985C51.6718 130.451 54.6629 130.888 57.5729 131.298C64.8258 132.32 72.0787 133.342 79.3316 134.363C77.6495 132.466 77.3741 129.412 76.276 127.3C74.8536 124.565 72.7999 123.451 71.7703 119.822C71.4151 118.57 70.5963 116.808 71.7421 116.012C72.2233 115.677 72.8502 115.664 73.4361 115.664C75.8304 115.661 78.2246 115.659 80.6188 115.656C81.3924 115.655 82.2016 115.663 82.8854 116.025C84.9576 117.121 84.3031 120.358 82.7556 122.119C81.2081 123.879 78.9952 125.286 78.4667 127.569C77.9237 129.915 79.5032 132.347 81.6008 133.53C83.6985 134.712 86.1944 134.913 88.6009 134.995C93.6731 135.168 98.7592 134.933 103.794 134.293C116.468 132.68 129.971 127.516 135.854 116.174C135.498 119.033 134.004 121.734 131.772 123.555C141.006 120.154 151.463 120.192 160.672 123.661C169.405 126.95 177.692 133.303 186.954 132.163C186.558 131.841 186.404 131.285 186.007 130.963C184.926 130.086 183.603 129.444 182.522 128.568C185.825 129.776 189.127 130.984 192.429 132.192C192.054 131.643 192.429 131.089 191.731 130.248C191.032 129.408 189.507 127.909 188.608 126.592C191.109 127.32 193.3 129.055 194.582 131.323C195.651 131.062 196.72 130.8 197.788 130.539C192.362 123.214 184.861 117.445 176.389 114.081C172.279 112.449 167.183 110.496 166.669 106.103C175.908 115.025 189.147 118.831 201.988 119.103C214.828 119.374 227.498 116.457 240.01 113.557C237.145 112.109 234.563 110.106 232.447 107.692C246.5 115.566 262.222 120.441 278.264 121.899C277.354 120.357 276.444 118.815 275.534 117.273C277.524 117.329 279.384 118.839 279.849 120.774C280.846 120.381 281.844 119.988 282.842 119.595C281.454 118.235 280.066 116.874 278.678 115.513C280.911 114.975 283.416 116.697 283.714 118.974C284.648 118.488 285.419 117.695 285.878 116.747C284.218 115.491 282.558 114.234 280.898 112.978C283.414 112.926 285.94 113.768 287.922 115.319C285.577 109.618 277.643 109.482 272.372 106.285C268.867 104.159 266.535 100.591 263.644 97.6836ZM251.712 81.3041C254.847 82.064 258.13 81.4754 261.356 81.485C264.698 81.495 268.027 82.158 271.159 83.3256C273.092 84.0464 275.024 85.0148 276.281 86.6509C278.273 89.2444 278.1 93.0065 276.71 95.9669C275.32 98.9272 272.915 101.267 270.561 103.537C275.503 105.742 280.445 107.947 285.387 110.151C286.784 110.774 288.293 111.506 288.932 112.895C290.036 115.297 287.893 117.933 285.691 119.397C278.823 123.965 269.483 124.525 262.118 120.811C257.393 118.428 252.155 117.292 246.982 116.177C244.158 115.569 241.216 114.961 238.41 115.65C236.419 116.138 234.541 117.27 232.492 117.201C230.661 117.138 229.238 118.72 228.165 120.205C224.634 125.091 221.723 131.335 223.79 136.998C225.212 140.892 228.813 143.697 232.739 145.028C236.664 146.359 240.907 146.397 245.043 146.133C250.221 145.804 255.495 144.982 260.041 142.483C263.002 140.856 265.651 138.525 268.926 137.695C272.854 136.699 276.994 138.035 281.036 137.74C284.255 137.505 287.302 136.245 290.249 134.929C297.448 131.716 304.649 127.923 309.755 121.917C317.37 112.96 319.181 99.8354 315.543 88.6563C311.904 77.4772 303.306 68.286 293.016 62.6011C290.187 61.0381 287.208 59.7101 284.071 58.93C276.541 57.0574 268.299 58.532 261.719 62.6434C258.331 64.7603 255.388 67.5185 252.068 69.7408C248.748 71.9631 244.846 73.6748 240.87 73.2865C243.934 76.6728 247.274 80.2282 251.712 81.3041ZM14.7071 111.923C10.0947 113.721 5.47956 116.107 2.55633 120.103C3.90133 119.361 5.5902 119.279 7.00086 119.886C5.97253 120.394 4.9442 120.902 3.91588 121.41C3.33981 121.695 2.74433 121.995 2.34423 122.498C1.94413 123.001 1.79945 123.768 2.18679 124.281C2.57414 124.793 3.55378 124.746 3.74116 124.132C4.42868 121.877 7.08358 120.435 9.34931 121.087C7.64759 122.056 5.78942 123.224 5.31855 125.125C5.57301 125.982 6.82706 126.122 7.56412 125.617C8.30118 125.112 8.669 124.238 9.09288 123.451C9.51677 122.664 10.1324 121.859 11.0164 121.73C11.203 121.703 11.4163 121.717 11.5458 121.854C11.7717 122.093 11.5852 122.483 11.3727 122.734C10.8913 123.302 10.2769 123.8 10.0402 124.506C9.80346 125.212 10.2265 126.199 10.9698 126.153C21.407 125.516 31.8246 124.557 42.2027 123.277C42.5777 122.465 41.4383 121.805 40.5518 121.685C38.3016 121.38 35.9868 121.56 33.8108 122.209C34.2128 120.872 35.5634 119.996 36.9372 119.745C38.311 119.495 39.7208 119.753 41.0933 120.01C41.104 119.046 40.9241 118.08 40.5669 117.185C38.3847 117.139 36.2216 116.41 34.4567 115.126C35.9319 114.574 37.6456 114.7 39.0244 115.461C39.6829 115.825 40.1735 114.761 40.1843 114.009C40.2197 111.565 40.255 109.121 40.2903 106.677C31.548 106.963 22.8567 108.746 14.7071 111.923ZM254.81 89.4461C257.461 89.8278 259.538 91.8404 261.416 93.7489C263.823 96.1935 266.229 98.6381 268.635 101.083C269.356 101.815 270.555 101.023 271.245 100.262C272.797 98.5494 274.377 96.7931 275.273 94.6632C276.169 92.5333 276.266 89.9212 274.93 88.0355C274.137 86.915 272.928 86.1593 271.69 85.5671C269.645 84.5895 267.427 83.9764 265.17 83.765C262.97 83.5589 260.754 83.7321 258.544 83.7158C256.082 83.6976 253.621 83.443 251.207 82.9566C251.93 84.7772 252.652 86.5978 253.375 88.4185C253.481 88.6862 253.596 88.9661 253.82 89.1472C254.092 89.3669 254.464 89.3963 254.81 89.4461Z" fill="#45423E"/>
</svg>
