<svg width="14" height="18" viewBox="0 0 14 18" fill="#03182A" xmlns="http://www.w3.org/2000/svg">
    <path d="M13.6663 6.4513C13.6577 6.37475 13.6409 6.29933 13.6163 6.2263V6.1513C13.5763 6.06562 13.5228 5.98686 13.458 5.91797L8.45801 0.917969C8.38912 0.853149 8.31036 0.799703 8.22467 0.759635H8.14134C8.06031 0.716305 7.97323 0.685404 7.88301 0.667969H2.83301C2.16997 0.667969 1.53408 0.931361 1.06524 1.4002C0.5964 1.86904 0.333008 2.50493 0.333008 3.16797V14.8346C0.333008 15.4977 0.5964 16.1336 1.06524 16.6024C1.53408 17.0712 2.16997 17.3346 2.83301 17.3346H11.1663C11.8294 17.3346 12.4653 17.0712 12.9341 16.6024C13.4029 16.1336 13.6663 15.4977 13.6663 14.8346V6.5013C13.6663 6.5013 13.6663 6.5013 13.6663 6.4513ZM8.66634 3.50964L10.8247 5.66797H9.49967C9.27866 5.66797 9.0667 5.58017 8.91042 5.42389C8.75414 5.26761 8.66634 5.05565 8.66634 4.83464V3.50964ZM11.9997 14.8346C11.9997 15.0556 11.9119 15.2676 11.7556 15.4239C11.5993 15.5802 11.3874 15.668 11.1663 15.668H2.83301C2.61199 15.668 2.40003 15.5802 2.24375 15.4239C2.08747 15.2676 1.99967 15.0556 1.99967 14.8346V3.16797C1.99967 2.94695 2.08747 2.73499 2.24375 2.57871C2.40003 2.42243 2.61199 2.33464 2.83301 2.33464H6.99967V4.83464C6.99967 5.49768 7.26307 6.13356 7.73191 6.6024C8.20075 7.07124 8.83663 7.33464 9.49967 7.33464H11.9997V14.8346ZM8.07467 10.9096L7.83301 11.1596V9.0013C7.83301 8.78029 7.74521 8.56833 7.58893 8.41205C7.43265 8.25577 7.22069 8.16797 6.99967 8.16797C6.77866 8.16797 6.5667 8.25577 6.41042 8.41205C6.25414 8.56833 6.16634 8.78029 6.16634 9.0013V11.1596L5.92467 10.9096C5.76775 10.7527 5.55493 10.6646 5.33301 10.6646C5.11109 10.6646 4.89826 10.7527 4.74134 10.9096C4.58442 11.0666 4.49626 11.2794 4.49626 11.5013C4.49626 11.7232 4.58442 11.936 4.74134 12.093L6.40801 13.7596C6.48726 13.8355 6.58071 13.895 6.68301 13.9346C6.78276 13.9787 6.89062 14.0015 6.99967 14.0015C7.10873 14.0015 7.21659 13.9787 7.31634 13.9346C7.41863 13.895 7.51209 13.8355 7.59134 13.7596L9.25801 12.093C9.41493 11.936 9.50308 11.7232 9.50308 11.5013C9.50308 11.2794 9.41493 11.0666 9.25801 10.9096C9.10109 10.7527 8.88826 10.6646 8.66634 10.6646C8.44442 10.6646 8.23159 10.7527 8.07467 10.9096Z"/>
</svg>
