<svg width="44" height="44" viewBox="0 0 22 21" fill="none" xmlns="http://www.w3.org/2000/svg">
<path d="M17 12.0009C16.7348 12.0009 16.4804 12.1062 16.2929 12.2938C16.1054 12.4813 16 12.7357 16 13.0009V13.3809L14.52 11.9009C13.9974 11.3824 13.2911 11.0915 12.555 11.0915C11.8189 11.0915 11.1126 11.3824 10.59 11.9009L9.89 12.6009L7.41 10.1209C6.88012 9.61648 6.17657 9.33516 5.445 9.33516C4.71343 9.33516 4.00988 9.61648 3.48 10.1209L2 11.6009V6.00087C2 5.73566 2.10536 5.4813 2.29289 5.29377C2.48043 5.10623 2.73478 5.00087 3 5.00087H10C10.2652 5.00087 10.5196 4.89552 10.7071 4.70798C10.8946 4.52044 11 4.26609 11 4.00087C11 3.73566 10.8946 3.4813 10.7071 3.29377C10.5196 3.10623 10.2652 3.00087 10 3.00087H3C2.20435 3.00087 1.44129 3.31694 0.87868 3.87955C0.316071 4.44216 0 5.20522 0 6.00087V18.0009C0 18.7965 0.316071 19.5596 0.87868 20.1222C1.44129 20.6848 2.20435 21.0009 3 21.0009H15C15.7956 21.0009 16.5587 20.6848 17.1213 20.1222C17.6839 19.5596 18 18.7965 18 18.0009V13.0009C18 12.7357 17.8946 12.4813 17.7071 12.2938C17.5196 12.1062 17.2652 12.0009 17 12.0009ZM3 19.0009C2.73478 19.0009 2.48043 18.8955 2.29289 18.708C2.10536 18.5204 2 18.2661 2 18.0009V14.4309L4.9 11.5309C5.04691 11.3909 5.24206 11.3128 5.445 11.3128C5.64794 11.3128 5.84309 11.3909 5.99 11.5309L9.16 14.7009L13.46 19.0009H3ZM16 18.0009C15.9986 18.1923 15.9354 18.3782 15.82 18.5309L11.31 14.0009L12.01 13.3009C12.0817 13.2277 12.1673 13.1696 12.2617 13.1299C12.3561 13.0902 12.4576 13.0698 12.56 13.0698C12.6624 13.0698 12.7639 13.0902 12.8583 13.1299C12.9527 13.1696 13.0383 13.2277 13.11 13.3009L16 16.2109V18.0009ZM20.71 3.29087L17.71 0.290873C17.6149 0.199832 17.5028 0.128467 17.38 0.0808729C17.1365 -0.0191451 16.8635 -0.0191451 16.62 0.0808729C16.4972 0.128467 16.3851 0.199832 16.29 0.290873L13.29 3.29087C13.1968 3.38411 13.1228 3.4948 13.0723 3.61662C13.0219 3.73845 12.9959 3.86901 12.9959 4.00087C12.9959 4.26717 13.1017 4.52257 13.29 4.71087C13.4783 4.89918 13.7337 5.00496 14 5.00496C14.2663 5.00496 14.5217 4.89918 14.71 4.71087L16 3.41087V9.00087C16 9.26609 16.1054 9.52044 16.2929 9.70798C16.4804 9.89552 16.7348 10.0009 17 10.0009C17.2652 10.0009 17.5196 9.89552 17.7071 9.70798C17.8946 9.52044 18 9.26609 18 9.00087V3.41087L19.29 4.71087C19.383 4.8046 19.4936 4.87899 19.6154 4.92976C19.7373 4.98053 19.868 5.00667 20 5.00667C20.132 5.00667 20.2627 4.98053 20.3846 4.92976C20.5064 4.87899 20.617 4.8046 20.71 4.71087C20.8037 4.61791 20.8781 4.50731 20.9289 4.38545C20.9797 4.26359 21.0058 4.13288 21.0058 4.00087C21.0058 3.86886 20.9797 3.73816 20.9289 3.6163C20.8781 3.49444 20.8037 3.38384 20.71 3.29087Z" fill="#BDBDBD"/>
</svg>
