<svg width="264" height="192" viewBox="0 0 264 192" fill="none" xmlns="http://www.w3.org/2000/svg">
<path fill-rule="evenodd" clip-rule="evenodd" d="M262.82 72.8188C259.571 97.0427 255.904 109.838 234.498 135.206C213.093 160.575 115.14 177.263 78.9275 177.263C42.7146 177.263 -1.91371 149.339 0.902911 116.985C3.71954 84.6301 18.4143 58.1858 53.5868 54.9305C89.5313 51.6037 121.105 67.0095 156.394 58.747C186.903 51.6036 196.238 24.3756 217.192 15.7853C259.571 -1.58797 265.03 56.3393 262.82 72.8188Z" fill="#E9FDEA"/>
<path d="M241.017 84.6511C239.82 86.6805 224.664 96.9492 215.47 98.469C213.691 98.7631 211.748 98.864 210.203 97.9351C209.29 97.3863 208.609 96.5305 207.963 95.6838C206.486 93.7478 205.076 91.76 203.738 89.7252C203.035 88.6559 202.338 87.5397 202.099 86.2824C201.466 82.9531 204.15 79.9627 206.802 77.8531C212.899 73.0039 220.038 69.4713 227.591 67.5656C228.928 67.2282 230.346 66.9425 231.67 67.3257C233.82 67.9477 235.106 70.1231 235.926 72.2055C236.746 74.2878 237.386 76.5654 239.026 78.0888C239.4 78.4367 242.215 82.6217 241.017 84.6511Z" fill="white"/>
<path fill-rule="evenodd" clip-rule="evenodd" d="M159.577 173.12C144.867 175.635 151.878 164.944 153.906 151.563C157.24 129.575 161.35 96.1602 161.35 96.1602C161.35 96.1602 164.031 147.076 164.031 159.474C164.031 171.871 161.35 172.816 159.577 173.12Z" fill="white"/>
<path d="M143.859 161.005C144.235 164.546 144.631 168.161 146.135 171.388C145.314 164.081 144.493 156.774 143.672 149.466C143.571 148.564 143.601 147.415 144.431 147.047C145.134 155.299 146.181 163.521 147.569 171.685C147.734 172.654 146.278 173.208 145.461 172.662C144.643 172.116 144.382 171.053 144.196 170.087C142.841 163.052 142.096 155.9 141.972 148.737C140.247 149.077 139.037 150.749 138.688 152.472C138.339 154.195 138.676 155.975 139.012 157.7C140.094 163.255 141.175 168.81 142.257 174.364C142.763 176.962 143.269 179.647 142.711 182.234C140.564 172.432 138.838 162.537 137.539 152.587C121.065 162.66 99.8376 164.534 81.854 157.501C77.9262 155.965 74.0256 153.929 71.4313 150.604C69.3878 147.985 68.2973 144.733 67.726 141.46C65.697 129.837 69.8548 117.981 75.4982 107.619C77.6395 103.687 80.0781 99.5923 79.9053 95.1187C79.8458 93.5785 79.5137 91.8731 80.4131 90.6213C80.5405 90.8531 74.5251 47.8237 76.9382 38.3057C82.7476 15.3919 101.62 12.2887 113.703 12.5713C121.81 12.761 173.2 22.9738 180.625 36.862C190.383 55.1152 188.311 70.4614 186.578 80.5804C186.062 83.5936 161.357 95.9375 161.35 95.9998C159.938 109.13 150.459 137.74 142.51 148.285C142.96 152.525 143.41 156.765 143.859 161.005Z" fill="white"/>
<path fill-rule="evenodd" clip-rule="evenodd" d="M25.2392 107.579C20.6061 105.73 15.0848 106.278 10.9078 109.003C10.5034 109.267 9.922 108.973 9.72181 108.534C9.52162 108.095 9.5965 107.584 9.6989 107.113C11.033 100.974 16.3475 96.2763 22.2577 94.1175C28.1679 91.9588 34.6327 91.9527 40.9154 92.3218C41.5387 92.3584 42.1903 92.407 42.7221 92.7339C43.2538 93.0607 43.6116 93.7595 43.3466 94.3239C40.8751 99.5866 39.0134 105.134 37.8104 110.821C37.6153 111.743 36.6598 112.355 35.7187 112.432C34.7777 112.509 33.8556 112.162 33.0016 111.76C30.3401 110.507 27.9714 108.67 25.2392 107.579Z" fill="white"/>
<path fill-rule="evenodd" clip-rule="evenodd" d="M167.648 14.8992C167.878 11.3774 167.612 7.8236 166.861 4.37511L166.845 4.30161C166.718 3.71852 166.587 3.11874 166.704 2.53518C166.964 1.24457 168.397 0.467732 169.714 0.494827C171.03 0.521921 172.249 1.15022 173.414 1.7638C179 4.70633 184.686 7.72314 189.084 12.2528C189.222 15.9198 188.358 19.5387 187.505 23.1111L187.505 23.1112L187.424 23.4468C183.863 38.3782 180.946 53.4634 178.686 68.6463C178.469 70.1016 178.058 71.8183 176.678 72.3279C175.688 72.6935 174.537 72.2263 173.833 71.4394C173.13 70.6525 172.794 69.6077 172.559 68.5786C171.98 66.0397 171.911 63.3858 172.355 60.8201C172.627 59.2511 173.087 57.725 173.547 56.1984L173.547 56.1981C173.96 54.8275 174.373 53.4566 174.65 52.0541C174.927 50.6516 175.067 49.2261 175.203 47.8029C175.923 40.2352 176.535 32.657 177.037 25.0716C177.108 23.9997 177.172 22.8941 176.821 21.8788C176.196 20.0731 174.377 18.9318 172.54 18.4085C172.223 18.3183 171.901 18.2416 171.58 18.1649C170.831 17.9864 170.083 17.808 169.4 17.46C168.423 16.9625 167.576 15.9927 167.648 14.8992ZM171.061 14.6105C173.658 15.1586 176.197 15.9863 178.618 17.0747C179.106 17.2938 179.618 17.5503 179.882 18.0154C180.097 18.3953 180.109 18.8528 180.116 19.2893C180.192 24.4162 180.208 29.5566 179.665 34.6552C179.34 37.708 178.815 40.7342 178.291 43.7601L178.291 43.7608L178.291 43.7631L178.29 43.7655L178.29 43.7678L178.289 43.7702L178.289 43.7722C178.124 44.7263 177.958 45.6803 177.799 46.6351C177.009 51.3789 176.374 56.1482 175.893 60.9332C175.545 64.4051 175.289 67.9935 176.369 71.3115C176.924 71.2103 177.137 70.543 177.242 69.9896L187.222 17.3843C187.464 16.1098 187.706 14.792 187.421 13.5264C186.922 11.3106 184.955 9.76985 183.059 8.51972C179.409 6.11312 175.523 4.06346 171.476 2.40944C171.139 6.46649 171 10.54 171.061 14.6105ZM176.193 49.159C178.02 39.7776 178.846 30.2013 178.651 20.6455C178.637 19.9238 178.598 19.1482 178.156 18.577C177.833 18.1585 177.339 17.9134 176.856 17.6971C175.043 16.885 173.137 16.2808 171.187 15.8999C170.623 15.7897 169.793 15.9091 169.818 16.4836L176.826 19.3794C177.237 19.5493 177.675 19.7414 177.907 20.1207C178.135 20.4927 178.113 20.96 178.083 21.3952L176.193 49.159ZM169.672 1.48091C169.094 1.09792 168.259 1.49272 167.938 2.10663C167.616 2.72053 167.665 3.45546 167.738 4.14475C167.845 5.15609 167.986 6.16794 168.127 7.17995L168.127 7.18007C168.517 9.98772 168.909 12.7965 168.576 15.5983C169.106 15.7802 169.698 15.4066 169.955 14.9088C170.212 14.4109 170.219 13.8261 170.22 13.2658L170.237 3.16191C170.238 2.54439 170.187 1.82213 169.672 1.48091ZM174.861 71.0826C174.543 68.5856 174.459 66.0588 174.612 63.5463C174.694 62.2028 174.843 60.8641 174.992 59.5256V59.5254V59.5252V59.525V59.5248V59.5245V59.5243V59.5241C175.189 57.7545 175.386 55.9854 175.427 54.2063C173.972 58.5384 173.422 63.1726 173.824 67.7249C173.929 68.9091 174.123 70.1508 174.861 71.0826ZM175.662 51.6474C175.896 51.5424 175.994 51.2134 175.856 50.9971C175.618 51.1144 175.517 51.4464 175.65 51.6763L175.662 51.6474ZM173.486 29.9517C161.902 22.8083 148.805 18.5284 135.707 14.8353C131.52 13.6547 127.298 12.5235 122.975 12.0392C110.165 10.6041 97.1788 15.0238 86.5275 22.2833C82.2557 25.1948 78.1343 28.776 76.2886 33.6049C74.9192 37.1878 74.9287 41.1321 75.0608 44.9655C75.5162 58.1863 77.2127 71.3293 78.9071 84.449C80.2318 84.21 80.3627 82.3778 80.1709 81.0455C78.4089 68.8104 77.421 56.4639 77.2151 44.1043C77.1573 40.6386 77.1754 37.0854 78.3748 33.8333C80.546 27.9462 86.1457 24.0961 91.6404 21.0662C98.561 17.2498 106.084 14.0418 113.985 13.8715C123.556 13.6652 132.628 17.9107 140.989 22.5734C145.65 25.1728 150.377 28.0756 153.342 32.5131C156.034 36.5424 157.013 41.453 157.719 46.2474C159.962 61.4639 160.044 76.9058 160.122 92.2865C160.125 92.9087 160.087 93.6217 159.599 94.0085C159.266 94.2729 158.811 94.306 158.386 94.3281L142.771 95.1409C150.048 97.2329 158.119 96.4078 164.821 92.8868L182.171 83.7723C183.79 82.9216 185.462 82.028 186.578 80.5789C188.114 78.5846 188.334 75.9016 188.406 73.3853C188.674 64.0919 187.745 54.7646 185.649 45.7067C186.375 55.5052 186.476 65.3501 185.95 75.1614C185.861 76.8369 185.726 78.5948 184.815 80.0037C183.842 81.5087 182.15 82.361 180.538 83.1444L161.814 92.2449C162.589 77.6967 161.988 63.0755 160.022 48.6399C159.36 43.7846 158.516 38.8614 156.295 34.494C151.044 24.1729 139.421 19.0674 128.68 14.7412C144.739 19.4395 160.982 24.2156 175.429 32.6559C175.617 31.4899 174.491 30.5717 173.486 29.9517ZM233.325 74.3616C234.157 76.5072 235.327 78.7943 237.479 79.612C237.988 79.6514 238.293 78.9756 238.125 78.4927C237.986 78.0893 237.657 77.7955 237.335 77.5069C237.271 77.45 237.208 77.3933 237.146 77.336C235.777 76.0641 235.105 74.2665 234.443 72.4958C234.312 72.1456 234.182 71.7964 234.046 71.4526C233.226 69.3703 231.94 67.1949 229.79 66.5729C228.466 66.1897 227.048 66.4754 225.711 66.8127C218.158 68.7185 211.019 72.2511 204.922 77.1003C202.27 79.2099 199.586 82.2003 200.219 85.5296C200.458 86.7869 201.155 87.9031 201.858 88.9724C203.196 91.0072 204.606 92.995 206.083 94.9309C206.729 95.7777 207.41 96.6335 208.323 97.1822C209.868 98.1112 211.811 98.0102 213.59 97.7162C222.784 96.1964 230.653 90.4827 238.14 84.9355C238.53 84.6468 238.935 84.3393 239.137 83.8983C239.339 83.4573 239.253 82.8439 238.825 82.6163C238.334 82.3553 237.755 82.7157 237.317 83.0584C230.349 88.5137 222.906 93.8445 214.267 95.7609C212.629 96.1242 210.824 96.3381 209.35 95.5362C208.248 94.9362 207.503 93.8575 206.8 92.8176L202.442 86.3689C202.075 85.8257 201.694 85.242 201.681 84.5865C201.667 83.9311 202.197 83.2222 202.847 83.3067C208.956 84.1013 215.094 84.6724 221.245 85.0185C221.735 85.0461 222.247 85.0682 222.693 84.8645C223.268 84.602 223.618 84.0208 223.925 83.4683C226.529 78.774 228.518 73.7391 229.825 68.5325C231.563 69.7788 232.374 71.8897 233.148 73.9039C233.207 74.0572 233.266 74.2099 233.325 74.3616ZM227.948 68.12C226.784 72.4743 225.062 76.6791 222.838 80.5992C222.465 81.2562 222.051 81.9331 221.399 82.3148C220.569 82.8006 219.537 82.709 218.582 82.6024L203.364 80.9044C205.889 77.568 209.639 75.4027 213.387 73.5422C216.934 71.7811 220.576 70.2101 224.291 68.8382C225.468 68.4039 226.701 67.9832 227.948 68.12ZM143.859 161.003C144.235 164.543 144.63 168.159 146.135 171.386L143.672 149.464C143.571 148.561 143.601 147.413 144.431 147.045C145.134 155.296 146.181 163.518 147.569 171.682C147.734 172.651 146.278 173.205 145.461 172.659C144.643 172.113 144.381 171.05 144.196 170.085C142.841 163.05 142.096 155.898 141.972 148.734C140.247 149.074 139.037 150.746 138.688 152.469C138.339 154.193 138.676 155.972 139.012 157.698L142.257 174.362C142.763 176.96 143.269 179.644 142.711 182.232C140.564 172.429 138.838 162.535 137.539 152.584C121.065 162.658 99.8376 164.531 81.8539 157.498C77.9262 155.962 74.0255 153.927 71.4313 150.602C69.3877 147.982 68.2972 144.73 67.7259 141.458C65.697 129.834 69.8548 117.978 75.4981 107.617C75.6451 107.347 75.7936 107.076 75.9424 106.804C77.962 103.121 80.0662 99.2827 79.9053 95.1162C79.8946 94.8409 79.8753 94.5603 79.8558 94.278C79.7664 92.9808 79.6744 91.6469 80.413 90.6189C81.4038 92.4213 81.7811 94.5539 81.469 96.5868C98.5239 95.8527 115.604 95.7049 132.669 96.1436C132.868 96.9282 131.732 97.2927 130.922 97.2806C114.997 97.0431 99.0637 97.3144 83.1555 98.094C82.6517 98.1187 82.1229 98.1515 81.6958 98.4197C81.2465 98.7019 80.9847 99.197 80.7433 99.6694C76.2283 108.504 71.6986 117.466 69.5162 127.144C68.3939 132.121 67.9641 137.568 70.2643 142.122C71.1369 143.85 72.371 145.375 73.749 146.735C81.1465 154.031 92.2238 156.268 102.613 156.094C109.244 155.982 115.86 155.029 122.252 153.264C129.029 151.393 135.788 148.444 140.414 143.15C143.13 140.041 144.976 136.276 146.593 132.477C149.681 125.223 152.049 117.664 153.651 109.945C154.655 110.157 154.669 111.576 154.437 112.575C151.572 124.936 148.242 138.112 138.804 146.594C130.28 154.255 118.269 156.63 106.826 157.271C100.217 157.642 93.5029 157.526 87.1009 155.841C80.6988 154.156 74.586 150.785 70.5217 145.56C71.7071 150.079 75.7225 153.305 79.9028 155.393C90.8789 160.874 103.84 160.584 115.96 158.679C124.033 157.409 132.32 155.327 138.603 150.1C143.973 145.633 147.396 139.253 149.972 132.76C152.824 125.572 154.802 118.039 155.849 110.377C156.501 109.965 156.985 111.118 156.902 111.885C155.49 125.015 150.459 137.737 142.51 148.283L143.859 161.003ZM136.226 183.455C135.526 182.273 135.075 180.943 134.911 179.579L133.905 182.988L131.366 173.304C131.169 172.553 130.689 171.612 129.93 171.774C129.191 171.931 129.108 172.944 129.218 173.691C129.771 177.448 130.827 181.131 132.347 184.611L129.646 182.242C129.515 183.37 129.812 184.542 130.464 185.472C129.058 184.436 127.171 184.083 125.485 184.54C126.69 186.214 128.325 187.575 130.19 188.456L127.909 185.271C129.753 186.335 131.685 187.248 133.68 187.995L131.746 185.571L134.135 186.233C132.307 182.075 130.445 177.757 130.489 173.215C131.181 176.91 132.194 180.545 133.513 184.066C133.736 184.662 133.984 185.279 134.461 185.703C134.937 186.126 135.71 186.285 136.209 185.889C136.597 185.581 136.71 185.049 136.798 184.562L137.874 178.595L139.056 185.995C139.952 183.732 142.866 183.164 145.3 183.149C148.514 183.129 151.753 183.483 154.983 183.837C160.805 184.473 166.601 185.107 172.18 183.541C172.016 184.403 171.729 185.242 171.331 186.025C175.833 185.37 180.388 185.082 184.936 185.166C186.857 185.201 188.784 185.303 190.711 185.404H190.711H190.711H190.711H190.711H190.712H190.712H190.712H190.712H190.712C195.805 185.671 200.899 185.938 205.89 184.993L172.768 184.702C173.39 184.665 173.867 183.942 173.655 183.356C173.443 182.77 172.613 182.519 172.112 182.89C171.786 181.854 170.322 181.394 169.462 182.056C169.961 180.519 170.947 179.144 172.242 178.179C170.78 178.101 169.295 178.548 168.119 179.422L171.682 162.934C171.381 162.675 170.878 162.849 170.656 163.178C170.435 163.504 170.411 163.918 170.388 164.311V164.311L170.387 164.324C170.053 169.954 168.068 175.476 164.74 180.03L163.434 176.249L161.561 180.765C160.712 180.108 159.508 179.942 158.513 180.345C158.767 181.311 159.54 182.123 160.491 182.426L160.934 181.238L163.86 183.198C162.742 182.026 162.499 180.109 163.291 178.696L165.061 181.666L168.493 174.878C168.513 177.603 167.345 180.179 166.2 182.652C167.444 181.678 168.514 180.481 169.343 179.135C170.143 180.552 169.269 182.452 167.877 183.296C166.485 184.139 164.764 184.185 163.138 184.116C160.658 184.012 158.158 183.7 155.661 183.389C150.054 182.69 144.463 181.993 139.137 183.644L138.369 176.562C137.196 178.682 136.462 181.044 136.226 183.455ZM169.643 183.645C169.522 183.501 169.523 183.271 169.644 183.127L169.741 183.164C169.904 182.775 170.588 182.807 170.714 183.209C170.398 183.437 170.027 183.588 169.643 183.645ZM187.738 108.407C183.881 106.457 179.29 106.984 175.008 107.57C173.798 107.736 172.565 107.91 171.469 108.449C170.373 108.988 169.418 109.963 169.229 111.17C158.771 109.864 148.75 105.261 140.945 98.1786C139.252 96.6414 137.523 94.4526 138.285 92.2958C138.524 91.6178 138.99 91.0458 139.475 90.5145C143.113 86.5252 148.13 84.126 153.014 81.823C147.479 82.3084 142.168 85.0006 138.504 89.1781C137.665 90.1355 136.891 91.2052 136.602 92.4453C135.888 95.5074 138.266 98.3801 140.646 100.434C148.241 106.989 157.794 111.246 167.747 112.51C168.344 112.586 168.375 113.425 168.32 114.024C168.078 116.69 169.53 119.29 171.544 121.053C173.557 122.816 176.079 123.874 178.582 124.822C186.332 127.758 194.375 129.92 202.552 131.266C203.093 131.355 203.835 131.313 203.949 130.777C202.061 129.529 199.79 129.053 197.569 128.588L197.569 128.588L197.21 128.513C191.579 127.327 186.024 125.784 180.589 123.894C178.359 123.118 176.124 122.272 174.18 120.932C172.236 119.593 170.585 117.702 169.963 115.424C169.656 114.3 170.073 112.621 171.23 112.763C175.941 113.339 180.782 113.908 185.383 112.739C186.424 112.475 187.509 112.076 188.144 111.209C188.778 110.343 188.697 108.892 187.738 108.407ZM175.854 111.521C174.237 111.242 172.585 111.168 170.949 111.299C171.744 109.789 173.685 109.392 175.376 109.162C179.05 108.661 182.877 108.174 186.398 109.339C186.63 109.415 186.878 109.514 187.004 109.724C187.17 110.001 187.049 110.377 186.814 110.598C186.578 110.818 186.258 110.918 185.947 111.005C182.676 111.919 179.201 112.097 175.854 111.521ZM122.337 187.689C125.044 187.614 127.767 188.212 130.192 189.415C129.544 190.347 128.241 190.478 127.107 190.521L97.4591 191.646C97.1874 191.612 97.1362 191.193 97.3287 190.998C97.5212 190.803 97.822 190.778 98.0955 190.765L127.037 189.353C125.365 189.2 123.734 188.622 122.337 187.689ZM65.2816 89.6375C64.8591 91.6581 66.5685 93.8138 68.6271 93.9666C65.2608 99.0398 59.197 101.543 53.3708 103.311C49.7345 104.414 45.7008 105.32 42.2343 103.763C41.8041 104.026 42.2628 104.673 42.717 104.892C46.0905 106.518 50.0901 105.612 53.6784 104.541C58.9408 102.971 64.365 100.941 67.9458 96.7772C68.0924 96.6068 68.2384 96.4313 68.3855 96.2545L68.3857 96.2543C69.3073 95.1466 70.2683 93.9916 71.654 93.7353C76.1151 92.9102 79.8307 90.1161 83.5021 87.3551C84.3348 86.7289 85.1653 86.1043 86.0017 85.5049C91.0851 81.8615 96.7231 78.9935 102.661 77.0305C103.186 76.8571 103.823 76.5353 103.777 75.9849C96.4147 76.6607 89.9795 81.051 84.0458 85.4611L83.8479 85.6082C79.8152 88.6062 75.6011 91.739 70.6391 92.482C72.26 91.2037 71.9178 88.2497 70.0891 87.2921C68.2605 86.3344 65.7041 87.617 65.2816 89.6375ZM66.6554 90.8718C66.3245 89.8917 66.8353 88.7257 67.7429 88.2292C68.0006 88.0883 68.2888 87.9945 68.5825 87.9942C69.5518 87.9932 70.2597 89.0299 70.266 89.9992C70.2724 90.9684 69.7811 91.8624 69.3035 92.7059C68.1865 92.5349 67.0169 91.9425 66.6554 90.8718ZM176.82 69.2741C176.546 68.9686 176.63 68.5571 176.718 68.1308C176.779 67.8295 176.843 67.5209 176.782 67.2372C176.729 66.9911 176.586 66.7815 176.442 66.5713C176.314 66.3854 176.187 66.1989 176.121 65.9861C176.136 65.7048 176.512 65.5605 176.768 65.6772C177.025 65.7938 177.168 66.069 177.258 66.3361C177.584 67.3106 177.416 68.437 176.82 69.2741ZM152.002 47.8894C152.688 46.263 154.048 44.8208 155.782 44.4906C156.343 44.3838 156.325 43.4587 155.834 43.1679C155.342 42.8771 154.711 43.049 154.195 43.2945C151.793 44.438 150.276 46.955 149.681 49.5485C149.087 52.1419 149.284 54.8428 149.484 57.4959L150.546 71.5983C150.582 72.0779 150.626 72.5813 150.893 72.9813C151.437 73.7958 152.603 73.8214 153.58 73.7593L158.528 73.445C157.428 72.5834 155.952 72.2206 154.579 72.4743C153.777 72.6225 152.971 72.0933 152.546 71.397C152.12 70.7007 151.996 69.8675 151.891 69.0585C151.201 63.7659 150.948 58.4165 151.135 53.0824C151.197 51.3183 151.316 49.5158 152.002 47.8894ZM164.634 173.066C164.353 173.27 164.071 172.806 164.03 172.461C162.119 156.39 161.83 140.175 161.544 123.993L161.351 113.084C161.346 112.774 161.35 112.433 161.55 112.195C161.894 111.785 162.617 111.973 162.917 112.416C163.217 112.859 163.218 113.432 163.208 113.967C162.913 129.891 163.107 145.846 164.631 161.699C164.65 161.892 164.669 162.085 164.687 162.278C165.037 165.88 165.392 169.535 164.634 173.066ZM148.739 71.7646C148.32 71.5346 147.803 71.6649 147.345 71.8004C126.149 78.0693 105.002 84.5333 84.1658 91.9112C83.7758 92.0493 83.3297 92.2482 83.2402 92.6522C83.1455 93.08 83.5482 93.4887 83.9792 93.568C84.4101 93.6473 84.846 93.4933 85.2572 93.342C106.138 85.6605 127.334 78.8334 148.772 72.8836C149.233 72.7558 149.158 71.9946 148.739 71.7646Z" fill="#00160A"/>
<path fill-rule="evenodd" clip-rule="evenodd" d="M224.258 167.658C223.764 167.875 223.23 168.077 222.699 167.985C222.167 167.894 221.671 167.395 221.777 166.867C222.753 162.037 221.528 156.806 218.509 152.91C217.451 151.545 216.192 150.344 215.161 148.958C214.511 148.085 213.934 146.987 214.263 145.95C214.732 144.474 216.62 144.115 218.165 144.01C221.756 143.765 225.348 143.52 228.94 143.275C230.595 143.162 232.501 143.146 233.605 144.383C236.681 147.828 242.675 148.059 246.006 144.862C246.522 144.367 247.171 145.352 247.15 146.066C247.086 148.312 246.16 150.522 244.605 152.144C244.238 152.526 243.769 152.901 243.242 152.846C242.715 152.792 242.326 152.034 242.746 151.712C243.648 151.019 244.567 150.309 245.199 149.363C245.831 148.418 246.138 147.179 245.707 146.127C243.387 149.062 241.044 151.98 238.68 154.879C234.581 159.907 230.197 165.049 224.258 167.658ZM230.736 152.863C230.146 153.027 229.517 152.901 228.927 152.735C224.688 151.537 220.783 148.225 216.446 149C221.503 153.072 224.187 159.9 223.259 166.326C226.59 165.612 229.221 163.125 231.58 160.667C235.073 157.03 238.389 153.223 241.513 149.264C239.268 149.246 237.031 148.598 235.122 147.414C232.765 147.997 233.076 152.216 230.736 152.863ZM233.815 146.176C232.41 144.521 229.887 144.572 227.724 144.762C224.903 145.01 222.083 145.257 219.262 145.505C218.117 145.606 216.801 145.807 216.204 146.789C221.086 147.811 225.846 149.416 230.35 151.56C230.929 149.741 232.09 148.111 233.621 146.97C233.793 146.841 233.99 146.676 233.967 146.463C233.955 146.354 233.886 146.26 233.815 146.176V146.176Z" fill="#FFB61D"/>
<path fill-rule="evenodd" clip-rule="evenodd" d="M24.6926 106.698C20.4441 104.999 15.3812 105.503 11.5509 108.006C11.18 108.248 10.6469 107.978 10.4633 107.575C10.2798 107.172 10.3484 106.703 10.4423 106.27C11.6656 100.63 16.539 96.3147 21.9586 94.3316C27.3782 92.3484 33.3064 92.3428 39.0675 92.6819C39.6391 92.7155 40.2366 92.7602 40.7242 93.0604C41.2118 93.3607 41.5399 94.0026 41.2969 94.5211C39.0306 99.3558 37.3234 104.452 36.2202 109.676C36.0414 110.524 35.1652 111.086 34.3022 111.156C33.4393 111.227 32.5938 110.908 31.8106 110.539C29.37 109.388 27.198 107.7 24.6926 106.698ZM25.1783 100.992C24.7997 101.299 24.2078 101.137 23.8516 100.803C23.4953 100.47 23.2923 100.009 23.0122 99.6094C21.51 97.4666 18.0629 97.6444 16.0195 99.2794C13.9762 100.914 12.9874 103.498 12.0871 105.955C18.0817 103.351 25.4651 104.285 30.622 108.3C31.3261 108.849 32.0248 109.466 32.8918 109.677C33.7588 109.888 34.8511 109.509 35.0707 108.644C36.2439 104.024 37.6896 99.4726 39.3979 95.0221C36.1202 99.0962 29.2367 97.6943 25.1783 100.992ZM23.8739 98.5288C24.2105 98.9517 24.8217 99.064 25.3538 98.9685C25.8858 98.8731 26.3692 98.608 26.865 98.3926C28.5718 97.6507 30.4622 97.4851 32.2921 97.1459C34.122 96.8066 36.0094 96.2325 37.2976 94.8893C34.3911 94.8806 31.4847 94.8718 28.5782 94.8631C25.6573 94.8543 22.5098 94.9161 20.1633 96.6556C21.5917 96.7077 22.9837 97.4104 23.8739 98.5288Z" fill="#FFB61D"/>
<path fill-rule="evenodd" clip-rule="evenodd" d="M161.188 106.31C161.181 103.753 161.174 101.197 161.167 98.6403C161.165 97.9061 161.163 97.1719 161.161 96.4378C161.16 95.9315 161.245 95.298 161.726 95.1405C162.09 95.0214 162.49 95.283 162.661 95.626C162.831 95.9691 162.829 96.3688 162.823 96.7517C162.77 100.319 162.717 103.887 162.664 107.455C162.656 107.968 162.57 108.599 162.09 108.779C161.289 108.325 161.19 107.231 161.188 106.31H161.188Z" fill="#00160A"/>
<path fill-rule="evenodd" clip-rule="evenodd" d="M156.084 103.943C155.714 104.105 155.523 103.495 155.58 103.095C155.785 101.664 155.99 100.229 156.338 98.8258C156.555 97.9519 156.867 97.0324 157.589 96.4943C158.311 95.9561 159.55 96.0503 159.903 96.8784C160.074 97.2796 160.003 97.7379 159.925 98.1669C159.439 100.823 158.784 103.448 157.967 106.021C157.932 106.13 157.894 106.244 157.811 106.323C157.61 106.516 157.247 106.386 157.108 106.145C156.968 105.903 156.986 105.606 157.009 105.328C157.341 105.304 157.496 104.913 157.576 104.589C157.901 103.268 158.227 101.947 158.553 100.626C158.807 99.5978 159.038 98.4271 158.448 97.548C157.842 97.9212 157.614 98.6763 157.434 99.365C157.071 100.751 156.708 102.136 156.345 103.522C156.301 103.687 156.241 103.874 156.084 103.943L156.084 103.943Z" fill="#00160A"/>
</svg>
