<svg width="36" height="39" viewBox="0 0 36 39" fill="none" xmlns="http://www.w3.org/2000/svg">
<path d="M15.0186 36.7523L15.7195 35L19.5746 35.7009L19.9251 38.5047L15.0186 36.7523Z" fill="#B3B7C3"/>
<path d="M5.55605 34.2981L3.80371 32.1953L11.1635 34.6486L13.6168 37.1019L5.55605 34.2981Z" fill="#B3B7C3"/>
<path d="M4.85523 13.6206C5.13561 13.6206 9.64495 15.2561 11.8646 16.0739L11.1636 14.672L4.1543 12.2188C4.27112 12.686 4.57486 13.6206 4.85523 13.6206Z" fill="#D7D7D7"/>
<path d="M3.45312 26.2344C3.46782 26.2344 3.48386 26.2395 3.50112 26.2494L9.0606 27.9867L11.1634 27.6362C11.6307 28.9213 12.5653 31.5615 12.5653 31.8419C12.5653 32.1222 7.42509 30.0895 4.85499 29.0381C4.52289 28.1525 3.81316 26.4277 3.50112 26.2494L3.45312 26.2344Z" fill="#B3B7C3"/>
<path d="M11.514 21.6776L12.5654 16.4206M11.514 21.6776L9.06075 22.729M11.514 21.6776L3.45327 18.8738M12.5654 16.4206L11.1636 14.6682M12.5654 16.4206L4.85514 13.6168M11.1636 14.6682L13.9673 10.1121M11.1636 14.6682L3.45327 11.8645M13.9673 10.1121L16.0701 10.8131L19.5748 7.65888M13.9673 10.1121L8.00935 8.29886M19.5748 7.65888L19.9252 4.85514M19.5748 7.65888L11.8645 5.20561M19.9252 4.85514L23.7804 3.80374M19.9252 4.85514L12.215 2.0514M23.7804 3.80374L24.4813 6.60748L27.6355 7.30841L29.7383 5.20561M23.7804 3.80374L15.7196 1L12.215 2.0514M29.7383 5.20561L32.1916 8.00935L31.1402 10.4626L32.5421 14.6682L34.6449 14.3178V19.5748L32.8925 20.2757L30.7897 26.2336L32.5421 27.6355L29.7383 32.1916L27.986 31.1402L24.1308 34.2944V37.4486L19.9252 38.5M29.7383 5.20561L22.028 2.0514L20.6262 2.75234M19.9252 38.5L19.5748 35.6963L15.7196 34.9953L14.799 36.6064M19.9252 38.5L14.799 36.6064M14.3178 37.4486L11.1636 34.6449M14.3178 37.4486L5.55607 34.2944L3.45327 31.8411M14.3178 37.4486L14.799 36.6064M11.1636 34.6449L12.5654 31.8411M11.1636 34.6449L3.45327 31.8411M12.5654 31.8411L11.1636 27.6355L9.06075 27.986M12.5654 31.8411L4.85514 29.0374M9.06075 27.986V22.729M9.06075 27.986L1 25.1822V20.2757M9.06075 22.729L1 19.9252L3.45327 18.8738M3.45327 11.8645L5.90654 7.65888L8.00935 8.29886M3.45327 11.8645L4.85514 13.6168M11.8645 5.20561L8.00935 8.29886M11.8645 5.20561L12.215 2.0514M4.85514 13.6168L3.45327 18.8738M3.45327 26.2336L4.85514 29.0374M4.85514 29.0374L3.45327 31.8411" stroke="#85929D" stroke-linejoin="round"/>
<path fill-rule="evenodd" clip-rule="evenodd" d="M15.3692 26.5852C20.9767 29.7394 27.2851 20.6272 23.7804 11.8655L23.8945 11.5234C24.3017 11.5538 24.7042 11.6341 25.0976 11.7676C28.7297 12.9995 30.2174 18.2933 28.4203 23.5916C26.6233 28.8899 22.2221 32.1864 18.5899 30.9544C16.9052 30.383 15.6819 28.9378 15.0337 27.0235C15.1549 26.8628 15.2683 26.7149 15.3692 26.5852Z" fill="#B3B7C3"/>
<path d="M27.9468 23.4331C27.0765 25.9991 25.5818 28.0593 23.8935 29.3238C22.203 30.5899 20.3651 31.0307 18.7505 30.483C17.1359 29.9354 15.9453 28.4675 15.3739 26.4341C14.8033 24.4035 14.8703 21.8591 15.7407 19.2931C16.611 16.7271 18.1057 14.6669 19.7939 13.4024C21.4845 12.1363 23.3223 11.6955 24.937 12.2432C26.5516 12.7908 27.7421 14.2587 28.3135 16.2921C28.8842 18.3227 28.8171 20.8671 27.9468 23.4331Z" stroke="#85929D"/>
</svg>
