<svg width="25" height="26" viewBox="0 0 25 26" fill="none" xmlns="http://www.w3.org/2000/svg">
<path d="M21.32 9.55L19.43 8.92L20.32 7.14C20.4102 6.95369 20.4404 6.74397 20.4064 6.53978C20.3723 6.33558 20.2758 6.14699 20.13 6L18 3.87C17.8522 3.72209 17.6618 3.62421 17.4555 3.59013C17.2493 3.55605 17.0375 3.58748 16.85 3.68L15.07 4.57L14.44 2.68C14.3735 2.483 14.2472 2.31163 14.0787 2.18975C13.9102 2.06787 13.7079 2.00155 13.5 2H10.5C10.2904 1.99946 10.0858 2.06482 9.91537 2.18685C9.7449 2.30887 9.61709 2.48138 9.55 2.68L8.92 4.57L7.14 3.68C6.95369 3.58978 6.74397 3.55961 6.53978 3.59364C6.33558 3.62767 6.14699 3.72423 6 3.87L3.87 6C3.72209 6.14777 3.62421 6.33818 3.59013 6.54446C3.55605 6.75074 3.58748 6.96251 3.68 7.15L4.57 8.93L2.68 9.56C2.483 9.62654 2.31163 9.75283 2.18975 9.92131C2.06787 10.0898 2.00155 10.2921 2 10.5V13.5C1.99946 13.7096 2.06482 13.9142 2.18685 14.0846C2.30887 14.2551 2.48138 14.3829 2.68 14.45L4.57 15.08L3.68 16.86C3.58978 17.0463 3.55961 17.256 3.59364 17.4602C3.62767 17.6644 3.72423 17.853 3.87 18L6 20.13C6.14777 20.2779 6.33818 20.3758 6.54446 20.4099C6.75074 20.444 6.96251 20.4125 7.15 20.32L8.93 19.43L9.56 21.32C9.62709 21.5186 9.7549 21.6911 9.92537 21.8132C10.0958 21.9352 10.3004 22.0005 10.51 22H13.51C13.7196 22.0005 13.9242 21.9352 14.0946 21.8132C14.2651 21.6911 14.3929 21.5186 14.46 21.32L15.09 19.43L16.87 20.32C17.0551 20.4079 17.2628 20.4369 17.4649 20.4029C17.667 20.3689 17.8538 20.2737 18 20.13L20.13 18C20.2779 17.8522 20.3758 17.6618 20.4099 17.4555C20.444 17.2493 20.4125 17.0375 20.32 16.85L19.43 15.07L21.32 14.44C21.517 14.3735 21.6884 14.2472 21.8103 14.0787C21.9321 13.9102 21.9985 13.7079 22 13.5V10.5C22.0005 10.2904 21.9352 10.0858 21.8132 9.91537C21.6911 9.7449 21.5186 9.61709 21.32 9.55ZM20 12.78L18.8 13.18C18.5241 13.2695 18.2709 13.418 18.0581 13.6151C17.8452 13.8122 17.6778 14.0533 17.5675 14.3216C17.4571 14.5899 17.4064 14.879 17.419 15.1688C17.4315 15.4586 17.5069 15.7422 17.64 16L18.21 17.14L17.11 18.24L16 17.64C15.7436 17.5122 15.4627 17.4411 15.1763 17.4313C14.89 17.4215 14.6049 17.4734 14.3403 17.5834C14.0758 17.6934 13.8379 17.8589 13.6429 18.0688C13.4479 18.2787 13.3003 18.5281 13.21 18.8L12.81 20H11.22L10.82 18.8C10.7305 18.5241 10.582 18.2709 10.3849 18.0581C10.1878 17.8452 9.94671 17.6778 9.67842 17.5675C9.41014 17.4571 9.12105 17.4064 8.83123 17.419C8.5414 17.4315 8.25777 17.5069 8 17.64L6.86 18.21L5.76 17.11L6.36 16C6.4931 15.7422 6.56852 15.4586 6.58105 15.1688C6.59358 14.879 6.5429 14.5899 6.43254 14.3216C6.32218 14.0533 6.15478 13.8122 5.94195 13.6151C5.72912 13.418 5.47595 13.2695 5.2 13.18L4 12.78V11.22L5.2 10.82C5.47595 10.7305 5.72912 10.582 5.94195 10.3849C6.15478 10.1878 6.32218 9.94671 6.43254 9.67842C6.5429 9.41014 6.59358 9.12105 6.58105 8.83123C6.56852 8.5414 6.4931 8.25777 6.36 8L5.79 6.89L6.89 5.79L8 6.36C8.25777 6.4931 8.5414 6.56852 8.83123 6.58105C9.12105 6.59358 9.41014 6.5429 9.67842 6.43254C9.94671 6.32218 10.1878 6.15478 10.3849 5.94195C10.582 5.72912 10.7305 5.47595 10.82 5.2L11.22 4H12.78L13.18 5.2C13.2695 5.47595 13.418 5.72912 13.6151 5.94195C13.8122 6.15478 14.0533 6.32218 14.3216 6.43254C14.5899 6.5429 14.879 6.59358 15.1688 6.58105C15.4586 6.56852 15.7422 6.4931 16 6.36L17.14 5.79L18.24 6.89L17.64 8C17.5122 8.25645 17.4411 8.53735 17.4313 8.82369C17.4215 9.11003 17.4734 9.39513 17.5834 9.65969C17.6934 9.92424 17.8589 10.1621 18.0688 10.3571C18.2787 10.5521 18.5281 10.6997 18.8 10.79L20 11.19V12.78ZM12 8C11.2089 8 10.4355 8.2346 9.77772 8.67413C9.11993 9.11365 8.60724 9.73836 8.30448 10.4693C8.00173 11.2002 7.92252 12.0044 8.07686 12.7804C8.2312 13.5563 8.61217 14.269 9.17158 14.8284C9.73099 15.3878 10.4437 15.7688 11.2196 15.9231C11.9956 16.0775 12.7998 15.9983 13.5307 15.6955C14.2616 15.3928 14.8864 14.8801 15.3259 14.2223C15.7654 13.5645 16 12.7911 16 12C16 10.9391 15.5786 9.92172 14.8284 9.17158C14.0783 8.42143 13.0609 8 12 8ZM12 14C11.6044 14 11.2178 13.8827 10.8889 13.6629C10.56 13.4432 10.3036 13.1308 10.1522 12.7654C10.0009 12.3999 9.96126 11.9978 10.0384 11.6098C10.1156 11.2219 10.3061 10.8655 10.5858 10.5858C10.8655 10.3061 11.2219 10.1156 11.6098 10.0384C11.9978 9.96126 12.3999 10.0009 12.7654 10.1522C13.1308 10.3036 13.4432 10.56 13.6629 10.8889C13.8827 11.2178 14 11.6044 14 12C14 12.5304 13.7893 13.0391 13.4142 13.4142C13.0391 13.7893 12.5304 14 12 14Z" fill="#989898"/>
<rect x="13" y="14" width="12" height="12" rx="2" fill="white"/>
<path d="M15 22.1396L15.8646 22.6421C15.9533 22.4895 16 22.3162 16 22.1396H15ZM23 22H22C22 22.1552 22.0361 22.3084 22.1056 22.4472L23 22ZM23.5 23H24.5C24.5 22.8448 24.4639 22.6916 24.3944 22.5528L23.5 23ZM14.5 23L13.6354 22.4975C13.5467 22.6501 13.5 22.8235 13.5 23H14.5ZM14.5 24H13.5C13.5 24.3853 13.7214 24.7363 14.0691 24.9024L14.5 24ZM16.5941 25L16.1632 25.9024C16.2977 25.9666 16.445 26 16.5941 26V25ZM21.5 25V26C21.6552 26 21.8084 25.9639 21.9472 25.8944L21.5 25ZM23.5 24L23.9472 24.8944C24.286 24.725 24.5 24.3788 24.5 24H23.5ZM16 22.1396V18H14V22.1396H16ZM16 18C16 17.8267 16.0602 17.5445 16.2115 17.3343C16.3261 17.1751 16.5259 17 17 17V15C15.8741 15 15.0739 15.4915 14.5885 16.1657C14.1398 16.7889 14 17.5066 14 18H16ZM17 17C17.0031 17 17.0063 17 17.0094 17C17.0125 17 17.0156 17 17.0188 17C17.0219 17 17.025 17 17.0281 17C17.0313 17 17.0344 17 17.0375 17C17.0407 17 17.0438 17 17.0469 17C17.05 17 17.0532 17 17.0563 17C17.0594 17 17.0626 17 17.0657 17C17.0688 17 17.072 17 17.0751 17C17.0782 17 17.0814 17 17.0845 17C17.0876 17 17.0908 17 17.0939 17C17.097 17 17.1002 17 17.1033 17C17.1064 17 17.1096 17 17.1127 17C17.1158 17 17.119 17 17.1221 17C17.1252 17 17.1284 17 17.1315 17C17.1347 17 17.1378 17 17.1409 17C17.1441 17 17.1472 17 17.1504 17C17.1535 17 17.1566 17 17.1598 17C17.1629 17 17.1661 17 17.1692 17C17.1723 17 17.1755 17 17.1786 17C17.1818 17 17.1849 17 17.188 17C17.1912 17 17.1943 17 17.1975 17C17.2006 17 17.2038 17 17.2069 17C17.21 17 17.2132 17 17.2163 17C17.2195 17 17.2226 17 17.2258 17C17.2289 17 17.232 17 17.2352 17C17.2383 17 17.2415 17 17.2446 17C17.2478 17 17.2509 17 17.2541 17C17.2572 17 17.2604 17 17.2635 17C17.2666 17 17.2698 17 17.2729 17C17.2761 17 17.2792 17 17.2824 17C17.2855 17 17.2887 17 17.2918 17C17.295 17 17.2981 17 17.3013 17C17.3044 17 17.3076 17 17.3107 17C17.3139 17 17.317 17 17.3202 17C17.3233 17 17.3265 17 17.3296 17C17.3328 17 17.3359 17 17.3391 17C17.3422 17 17.3454 17 17.3485 17C17.3517 17 17.3548 17 17.358 17C17.3611 17 17.3643 17 17.3674 17C17.3706 17 17.3737 17 17.3769 17C17.38 17 17.3832 17 17.3863 17C17.3895 17 17.3926 17 17.3958 17C17.3989 17 17.4021 17 17.4052 17C17.4084 17 17.4115 17 17.4147 17C17.4178 17 17.421 17 17.4242 17C17.4273 17 17.4305 17 17.4336 17C17.4368 17 17.4399 17 17.4431 17C17.4462 17 17.4494 17 17.4525 17C17.4557 17 17.4588 17 17.462 17C17.4651 17 17.4683 17 17.4714 17C17.4746 17 17.4778 17 17.4809 17C17.4841 17 17.4872 17 17.4904 17C17.4935 17 17.4967 17 17.4998 17C17.503 17 17.5061 17 17.5093 17C17.5124 17 17.5156 17 17.5188 17C17.5219 17 17.5251 17 17.5282 17C17.5314 17 17.5345 17 17.5377 17C17.5408 17 17.544 17 17.5471 17C17.5503 17 17.5534 17 17.5566 17C17.5598 17 17.5629 17 17.5661 17C17.5692 17 17.5724 17 17.5755 17C17.5787 17 17.5818 17 17.585 17C17.5881 17 17.5913 17 17.5944 17C17.5976 17 17.6008 17 17.6039 17C17.6071 17 17.6102 17 17.6134 17C17.6165 17 17.6197 17 17.6228 17C17.626 17 17.6291 17 17.6323 17C17.6354 17 17.6386 17 17.6417 17C17.6449 17 17.6481 17 17.6512 17C17.6544 17 17.6575 17 17.6607 17C17.6638 17 17.667 17 17.6701 17C17.6733 17 17.6764 17 17.6796 17C17.6827 17 17.6859 17 17.689 17C17.6922 17 17.6953 17 17.6985 17C17.7016 17 17.7048 17 17.7079 17C17.7111 17 17.7142 17 17.7174 17C17.7205 17 17.7237 17 17.7268 17C17.73 17 17.7331 17 17.7363 17C17.7394 17 17.7426 17 17.7457 17C17.7489 17 17.752 17 17.7552 17C17.7583 17 17.7615 17 17.7646 17C17.7678 17 17.7709 17 17.7741 17C17.7772 17 17.7804 17 17.7835 17C17.7867 17 17.7898 17 17.793 17C17.7961 17 17.7993 17 17.8024 17C17.8056 17 17.8087 17 17.8118 17C17.815 17 17.8181 17 17.8213 17C17.8244 17 17.8276 17 17.8307 17C17.8339 17 17.837 17 17.8402 17C17.8433 17 17.8464 17 17.8496 17C17.8527 17 17.8559 17 17.859 17C17.8622 17 17.8653 17 17.8685 17C17.8716 17 17.8747 17 17.8779 17C17.881 17 17.8842 17 17.8873 17C17.8904 17 17.8936 17 17.8967 17C17.8999 17 17.903 17 17.9062 17C17.9093 17 17.9124 17 17.9156 17C17.9187 17 17.9219 17 17.925 17C17.9281 17 17.9313 17 17.9344 17C17.9375 17 17.9407 17 17.9438 17C17.947 17 17.9501 17 17.9532 17C17.9564 17 17.9595 17 17.9626 17C17.9658 17 17.9689 17 17.972 17C17.9752 17 17.9783 17 17.9814 17C17.9846 17 17.9877 17 17.9908 17C17.994 17 17.9971 17 18.0002 17C18.0034 17 18.0065 17 18.0096 17C18.0128 17 18.0159 17 18.019 17C18.0222 17 18.0253 17 18.0284 17C18.0316 17 18.0347 17 18.0378 17C18.0409 17 18.0441 17 18.0472 17C18.0503 17 18.0535 17 18.0566 17C18.0597 17 18.0628 17 18.066 17C18.0691 17 18.0722 17 18.0753 17C18.0785 17 18.0816 17 18.0847 17C18.0878 17 18.091 17 18.0941 17C18.0972 17 18.1003 17 18.1034 17C18.1066 17 18.1097 17 18.1128 17C18.1159 17 18.119 17 18.1222 17C18.1253 17 18.1284 17 18.1315 17C18.1346 17 18.1378 17 18.1409 17C18.144 17 18.1471 17 18.1502 17C18.1533 17 18.1565 17 18.1596 17C18.1627 17 18.1658 17 18.1689 17C18.172 17 18.1751 17 18.1783 17C18.1814 17 18.1845 17 18.1876 17C18.1907 17 18.1938 17 18.1969 17C18.2 17 18.2031 17 18.2062 17C18.2094 17 18.2125 17 18.2156 17C18.2187 17 18.2218 17 18.2249 17C18.228 17 18.2311 17 18.2342 17C18.2373 17 18.2404 17 18.2435 17C18.2466 17 18.2497 17 18.2528 17C18.2559 17 18.259 17 18.2621 17C18.2652 17 18.2683 17 18.2714 17C18.2745 17 18.2776 17 18.2807 17C18.2838 17 18.2869 17 18.29 17C18.2931 17 18.2962 17 18.2993 17C18.3024 17 18.3055 17 18.3086 17C18.3117 17 18.3148 17 18.3179 17C18.321 17 18.3241 17 18.3271 17C18.3302 17 18.3333 17 18.3364 17C18.3395 17 18.3426 17 18.3457 17C18.3488 17 18.3519 17 18.3549 17C18.358 17 18.3611 17 18.3642 17C18.3673 17 18.3704 17 18.3735 17C18.3765 17 18.3796 17 18.3827 17C18.3858 17 18.3889 17 18.3919 17C18.395 17 18.3981 17 18.4012 17C18.4043 17 18.4073 17 18.4104 17C18.4135 17 18.4166 17 18.4196 17C18.4227 17 18.4258 17 18.4289 17C18.4319 17 18.435 17 18.4381 17C18.4411 17 18.4442 17 18.4473 17C18.4504 17 18.4534 17 18.4565 17C18.4596 17 18.4626 17 18.4657 17C18.4688 17 18.4718 17 18.4749 17C18.478 17 18.481 17 18.4841 17C18.4871 17 18.4902 17 18.4933 17C18.4963 17 18.4994 17 18.5024 17C18.5055 17 18.5086 17 18.5116 17C18.5147 17 18.5177 17 18.5208 17C18.5238 17 18.5269 17 18.5299 17C18.533 17 18.5361 17 18.5391 17C18.5422 17 18.5452 17 18.5483 17C18.5513 17 18.5544 17 18.5574 17C18.5604 17 18.5635 17 18.5665 17C18.5696 17 18.5726 17 18.5757 17C18.5787 17 18.5818 17 18.5848 17C18.5878 17 18.5909 17 18.5939 17C18.597 17 18.6 17 18.603 17C18.6061 17 18.6091 17 18.6121 17C18.6152 17 18.6182 17 18.6213 17C18.6243 17 18.6273 17 18.6303 17C18.6334 17 18.6364 17 18.6394 17C18.6425 17 18.6455 17 18.6485 17C18.6515 17 18.6546 17 18.6576 17C18.6606 17 18.6637 17 18.6667 17C18.6697 17 18.6727 17 18.6757 17C18.6788 17 18.6818 17 18.6848 17C18.6878 17 18.6908 17 18.6938 17C18.6969 17 18.6999 17 18.7029 17C18.7059 17 18.7089 17 18.7119 17C18.7149 17 18.718 17 18.721 17C18.724 17 18.727 17 18.73 17C18.733 17 18.736 17 18.739 17C18.742 17 18.745 17 18.748 17C18.751 17 18.754 17 18.757 17C18.76 17 18.763 17 18.766 17C18.769 17 18.772 17 18.775 17C18.778 17 18.781 17 18.784 17C18.787 17 18.79 17 18.793 17C18.796 17 18.7989 17 18.8019 17C18.8049 17 18.8079 17 18.8109 17C18.8139 17 18.8169 17 18.8199 17C18.8228 17 18.8258 17 18.8288 17C18.8318 17 18.8348 17 18.8377 17C18.8407 17 18.8437 17 18.8467 17C18.8496 17 18.8526 17 18.8556 17C18.8586 17 18.8615 17 18.8645 17C18.8675 17 18.8705 17 18.8734 17C18.8764 17 18.8794 17 18.8823 17C18.8853 17 18.8882 17 18.8912 17C18.8942 17 18.8971 17 18.9001 17C18.9031 17 18.906 17 18.909 17C18.9119 17 18.9149 17 18.9178 17C18.9208 17 18.9238 17 18.9267 17C18.9297 17 18.9326 17 18.9356 17C18.9385 17 18.9415 17 18.9444 17C18.9474 17 18.9503 17 18.9532 17C18.9562 17 18.9591 17 18.9621 17C18.965 17 18.968 17 18.9709 17C18.9738 17 18.9768 17 18.9797 17C18.9826 17 18.9856 17 18.9885 17C18.9914 17 18.9944 17 18.9973 17C19.0002 17 19.0032 17 19.0061 17C19.009 17 19.0119 17 19.0149 17C19.0178 17 19.0207 17 19.0236 17C19.0266 17 19.0295 17 19.0324 17C19.0353 17 19.0382 17 19.0412 17C19.0441 17 19.047 17 19.0499 17C19.0528 17 19.0557 17 19.0586 17C19.0615 17 19.0644 17 19.0674 17C19.0703 17 19.0732 17 19.0761 17C19.079 17 19.0819 17 19.0848 17C19.0877 17 19.0906 17 19.0935 17C19.0964 17 19.0993 17 19.1022 17C19.1051 17 19.108 17 19.1109 17C19.1137 17 19.1166 17 19.1195 17C19.1224 17 19.1253 17 19.1282 17C19.1311 17 19.134 17 19.1368 17C19.1397 17 19.1426 17 19.1455 17C19.1484 17 19.1512 17 19.1541 17C19.157 17 19.1599 17 19.1627 17C19.1656 17 19.1685 17 19.1714 17C19.1742 17 19.1771 17 19.18 17C19.1828 17 19.1857 17 19.1886 17C19.1914 17 19.1943 17 19.1971 17C19.2 17 19.2029 17 19.2057 17C19.2086 17 19.2114 17 19.2143 17C19.2171 17 19.22 17 19.2229 17C19.2257 17 19.2286 17 19.2314 17C19.2342 17 19.2371 17 19.2399 17C19.2428 17 19.2456 17 19.2485 17C19.2513 17 19.2541 17 19.257 17C19.2598 17 19.2627 17 19.2655 17C19.2683 17 19.2712 17 19.274 17C19.2768 17 19.2796 17 19.2825 17C19.2853 17 19.2881 17 19.291 17C19.2938 17 19.2966 17 19.2994 17C19.3022 17 19.3051 17 19.3079 17C19.3107 17 19.3135 17 19.3163 17C19.3191 17 19.3219 17 19.3248 17C19.3276 17 19.3304 17 19.3332 17C19.336 17 19.3388 17 19.3416 17C19.3444 17 19.3472 17 19.35 17C19.3528 17 19.3556 17 19.3584 17C19.3612 17 19.364 17 19.3668 17C19.3696 17 19.3724 17 19.3751 17C19.3779 17 19.3807 17 19.3835 17C19.3863 17 19.3891 17 19.3919 17C19.3946 17 19.3974 17 19.4002 17C19.403 17 19.4058 17 19.4085 17C19.4113 17 19.4141 17 19.4168 17C19.4196 17 19.4224 17 19.4251 17C19.4279 17 19.4307 17 19.4334 17C19.4362 17 19.439 17 19.4417 17C19.4445 17 19.4472 17 19.45 17C19.4528 17 19.4555 17 19.4583 17C19.461 17 19.4638 17 19.4665 17C19.4693 17 19.472 17 19.4747 17C19.4775 17 19.4802 17 19.483 17C19.4857 17 19.4884 17 19.4912 17C19.4939 17 19.4967 17 19.4994 17C19.5021 17 19.5049 17 19.5076 17C19.5103 17 19.513 17 19.5158 17C19.5185 17 19.5212 17 19.5239 17C19.5266 17 19.5294 17 19.5321 17C19.5348 17 19.5375 17 19.5402 17C19.5429 17 19.5457 17 19.5484 17C19.5511 17 19.5538 17 19.5565 17C19.5592 17 19.5619 17 19.5646 17C19.5673 17 19.57 17 19.5727 17C19.5754 17 19.5781 17 19.5808 17C19.5835 17 19.5862 17 19.5888 17C19.5915 17 19.5942 17 19.5969 17C19.5996 17 19.6023 17 19.605 17C19.6076 17 19.6103 17 19.613 17C19.6157 17 19.6183 17 19.621 17C19.6237 17 19.6264 17 19.629 17C19.6317 17 19.6344 17 19.637 17C19.6397 17 19.6423 17 19.645 17C19.6477 17 19.6503 17 19.653 17C19.6556 17 19.6583 17 19.6609 17C19.6636 17 19.6662 17 19.6689 17C19.6715 17 19.6742 17 19.6768 17C19.6795 17 19.6821 17 19.6847 17C19.6874 17 19.69 17 19.6927 17C19.6953 17 19.6979 17 19.7005 17C19.7032 17 19.7058 17 19.7084 17C19.7111 17 19.7137 17 19.7163 17C19.7189 17 19.7215 17 19.7242 17C19.7268 17 19.7294 17 19.732 17C19.7346 17 19.7372 17 19.7398 17C19.7424 17 19.745 17 19.7476 17C19.7503 17 19.7529 17 19.7555 17C19.7581 17 19.7606 17 19.7632 17C19.7658 17 19.7684 17 19.771 17C19.7736 17 19.7762 17 19.7788 17C19.7814 17 19.784 17 19.7865 17C19.7891 17 19.7917 17 19.7943 17C19.7968 17 19.7994 17 19.802 17C19.8046 17 19.8071 17 19.8097 17C19.8123 17 19.8148 17 19.8174 17C19.82 17 19.8225 17 19.8251 17C19.8276 17 19.8302 17 19.8327 17C19.8353 17 19.8379 17 19.8404 17C19.843 17 19.8455 17 19.848 17C19.8506 17 19.8531 17 19.8557 17C19.8582 17 19.8607 17 19.8633 17C19.8658 17 19.8683 17 19.8709 17C19.8734 17 19.8759 17 19.8785 17C19.881 17 19.8835 17 19.886 17C19.8886 17 19.8911 17 19.8936 17C19.8961 17 19.8986 17 19.9011 17C19.9036 17 19.9061 17 19.9087 17C19.9112 17 19.9137 17 19.9162 17C19.9187 17 19.9212 17 19.9237 17C19.9262 17 19.9287 17 19.9311 17C19.9336 17 19.9361 17 19.9386 17C19.9411 17 19.9436 17 19.9461 17C19.9486 17 19.951 17 19.9535 17C19.956 17 19.9585 17 19.9609 17C19.9634 17 19.9659 17 19.9683 17C19.9708 17 19.9733 17 19.9757 17C19.9782 17 19.9807 17 19.9831 17C19.9856 17 19.988 17 19.9905 17C19.9929 17 19.9954 17 19.9978 17C20.0003 17 20.0027 17 20.0052 17C20.0076 17 20.01 17 20.0125 17C20.0149 17 20.0174 17 20.0198 17C20.0222 17 20.0247 17 20.0271 17C20.0295 17 20.0319 17 20.0344 17C20.0368 17 20.0392 17 20.0416 17C20.044 17 20.0464 17 20.0489 17C20.0513 17 20.0537 17 20.0561 17C20.0585 17 20.0609 17 20.0633 17C20.0657 17 20.0681 17 20.0705 17C20.0729 17 20.0753 17 20.0777 17C20.0801 17 20.0825 17 20.0848 17C20.0872 17 20.0896 17 20.092 17C20.0944 17 20.0967 17 20.0991 17C20.1015 17 20.1039 17 20.1062 17C20.1086 17 20.111 17 20.1133 17C20.1157 17 20.1181 17 20.1204 17C20.1228 17 20.1251 17 20.1275 17C20.1299 17 20.1322 17 20.1346 17C20.1369 17 20.1392 17 20.1416 17C20.1439 17 20.1463 17 20.1486 17C20.1509 17 20.1533 17 20.1556 17C20.1579 17 20.1603 17 20.1626 17C20.1649 17 20.1673 17 20.1696 17C20.1719 17 20.1742 17 20.1765 17C20.1789 17 20.1812 17 20.1835 17C20.1858 17 20.1881 17 20.1904 17C20.1927 17 20.195 17 20.1973 17C20.1996 17 20.2019 17 20.2042 17C20.2065 17 20.2088 17 20.2111 17C20.2134 17 20.2156 17 20.2179 17C20.2202 17 20.2225 17 20.2248 17C20.227 17 20.2293 17 20.2316 17C20.2339 17 20.2361 17 20.2384 17C20.2407 17 20.2429 17 20.2452 17C20.2475 17 20.2497 17 20.252 17C20.2542 17 20.2565 17 20.2587 17C20.261 17 20.2632 17 20.2655 17C20.2677 17 20.2699 17 20.2722 17C20.2744 17 20.2767 17 20.2789 17C20.2811 17 20.2833 17 20.2856 17C20.2878 17 20.29 17 20.2922 17C20.2945 17 20.2967 17 20.2989 17C20.3011 17 20.3033 17 20.3055 17C20.3077 17 20.3099 17 20.3121 17C20.3144 17 20.3166 17 20.3187 17C20.3209 17 20.3231 17 20.3253 17C20.3275 17 20.3297 17 20.3319 17C20.3341 17 20.3363 17 20.3384 17C20.3406 17 20.3428 17 20.345 17C20.3471 17 20.3493 17 20.3515 17C20.3537 17 20.3558 17 20.358 17C20.3601 17 20.3623 17 20.3645 17C20.3666 17 20.3688 17 20.3709 17C20.3731 17 20.3752 17 20.3774 17C20.3795 17 20.3816 17 20.3838 17C20.3859 17 20.3881 17 20.3902 17C20.3923 17 20.3944 17 20.3966 17C20.3987 17 20.4008 17 20.4029 17C20.4051 17 20.4072 17 20.4093 17C20.4114 17 20.4135 17 20.4156 17C20.4177 17 20.4198 17 20.4219 17C20.424 17 20.4261 17 20.4282 17C20.4303 17 20.4324 17 20.4345 17C20.4366 17 20.4387 17 20.4408 17C20.4428 17 20.4449 17 20.447 17C20.4491 17 20.4512 17 20.4532 17C20.4553 17 20.4574 17 20.4594 17C20.4615 17 20.4636 17 20.4656 17C20.4677 17 20.4697 17 20.4718 17C20.4738 17 20.4759 17 20.4779 17C20.48 17 20.482 17 20.484 17C20.4861 17 20.4881 17 20.4902 17C20.4922 17 20.4942 17 20.4962 17C20.4983 17 20.5003 17 20.5023 17C20.5043 17 20.5064 17 20.5084 17C20.5104 17 20.5124 17 20.5144 17C20.5164 17 20.5184 17 20.5204 17C20.5224 17 20.5244 17 20.5264 17C20.5284 17 20.5304 17 20.5324 17C20.5344 17 20.5364 17 20.5383 17C20.5403 17 20.5423 17 20.5443 17C20.5462 17 20.5482 17 20.5502 17C20.5522 17 20.5541 17 20.5561 17C20.558 17 20.56 17 20.562 17C20.5639 17 20.5659 17 20.5678 17C20.5698 17 20.5717 17 20.5736 17C20.5756 17 20.5775 17 20.5795 17C20.5814 17 20.5833 17 20.5853 17C20.5872 17 20.5891 17 20.591 17C20.593 17 20.5949 17 20.5968 17C20.5987 17 20.6006 17 20.6025 17C20.6044 17 20.6064 17 20.6083 17C20.6102 17 20.6121 17 20.614 17C20.6158 17 20.6177 17 20.6196 17C20.6215 17 20.6234 17 20.6253 17C20.6272 17 20.629 17 20.6309 17C20.6328 17 20.6347 17 20.6365 17C20.6384 17 20.6403 17 20.6421 17C20.644 17 20.6459 17 20.6477 17C20.6496 17 20.6514 17 20.6533 17C20.6551 17 20.657 17 20.6588 17C20.6606 17 20.6625 17 20.6643 17C20.6662 17 20.668 17 20.6698 17C20.6716 17 20.6735 17 20.6753 17C20.6771 17 20.6789 17 20.6807 17C20.6826 17 20.6844 17 20.6862 17C20.688 17 20.6898 17 20.6916 17C20.6934 17 20.6952 17 20.697 17C20.6988 17 20.7006 17 20.7023 17C20.7041 17 20.7059 17 20.7077 17C20.7095 17 20.7112 17 20.713 17C20.7148 17 20.7166 17 20.7183 17C20.7201 17 20.7219 17 20.7236 17C20.7254 17 20.7271 17 20.7289 17C20.7306 17 20.7324 17 20.7341 17C20.7359 17 20.7376 17 20.7393 17C20.7411 17 20.7428 17 20.7445 17C20.7463 17 20.748 17 20.7497 17C20.7514 17 20.7532 17 20.7549 17C20.7566 17 20.7583 17 20.76 17C20.7617 17 20.7634 17 20.7651 17C20.7668 17 20.7685 17 20.7702 17C20.7719 17 20.7736 17 20.7753 17C20.777 17 20.7787 17 20.7803 17C20.782 17 20.7837 17 20.7854 17C20.787 17 20.7887 17 20.7904 17C20.792 17 20.7937 17 20.7954 17C20.797 17 20.7987 17 20.8003 17C20.802 17 20.8036 17 20.8053 17C20.8069 17 20.8085 17 20.8102 17C20.8118 17 20.8134 17 20.8151 17C20.8167 17 20.8183 17 20.8199 17C20.8216 17 20.8232 17 20.8248 17C20.8264 17 20.828 17 20.8296 17C20.8312 17 20.8328 17 20.8344 17C20.836 17 20.8376 17 20.8392 17C20.8408 17 20.8424 17 20.844 17C20.8456 17 20.8471 17 20.8487 17C20.8503 17 20.8519 17 20.8534 17C20.855 17 20.8566 17 20.8581 17C20.8597 17 20.8612 17 20.8628 17C20.8643 17 20.8659 17 20.8674 17C20.869 17 20.8705 17 20.8721 17C20.8736 17 20.8751 17 20.8767 17C20.8782 17 20.8797 17 20.8813 17C20.8828 17 20.8843 17 20.8858 17C20.8873 17 20.8888 17 20.8903 17C20.8919 17 20.8934 17 20.8949 17C20.8964 17 20.8979 17 20.8993 17C20.9008 17 20.9023 17 20.9038 17C20.9053 17 20.9068 17 20.9082 17C20.9097 17 20.9112 17 20.9127 17C20.9141 17 20.9156 17 20.9171 17C20.9185 17 20.92 17 20.9214 17C20.9229 17 20.9243 17 20.9258 17C20.9272 17 20.9287 17 20.9301 17C20.9315 17 20.933 17 20.9344 17C20.9358 17 20.9373 17 20.9387 17C20.9401 17 20.9415 17 20.9429 17C20.9444 17 20.9458 17 20.9472 17C20.9486 17 20.95 17 20.9514 17C20.9528 17 20.9542 17 20.9556 17C20.957 17 20.9583 17 20.9597 17C20.9611 17 20.9625 17 20.9639 17C20.9652 17 20.9666 17 20.968 17C20.9693 17 20.9707 17 20.9721 17C20.9734 17 20.9748 17 20.9761 17C20.9775 17 20.9788 17 20.9802 17C20.9815 17 20.9828 17 20.9842 17C20.9855 17 20.9868 17 20.9882 17C20.9895 17 20.9908 17 20.9921 17C20.9935 17 20.9948 17 20.9961 17C20.9974 17 20.9987 17 21 17V15C20.9987 15 20.9974 15 20.9961 15C20.9948 15 20.9935 15 20.9921 15C20.9908 15 20.9895 15 20.9882 15C20.9868 15 20.9855 15 20.9842 15C20.9828 15 20.9815 15 20.9802 15C20.9788 15 20.9775 15 20.9761 15C20.9748 15 20.9734 15 20.9721 15C20.9707 15 20.9693 15 20.968 15C20.9666 15 20.9652 15 20.9639 15C20.9625 15 20.9611 15 20.9597 15C20.9583 15 20.957 15 20.9556 15C20.9542 15 20.9528 15 20.9514 15C20.95 15 20.9486 15 20.9472 15C20.9458 15 20.9444 15 20.9429 15C20.9415 15 20.9401 15 20.9387 15C20.9373 15 20.9358 15 20.9344 15C20.933 15 20.9315 15 20.9301 15C20.9287 15 20.9272 15 20.9258 15C20.9243 15 20.9229 15 20.9214 15C20.92 15 20.9185 15 20.9171 15C20.9156 15 20.9141 15 20.9127 15C20.9112 15 20.9097 15 20.9082 15C20.9068 15 20.9053 15 20.9038 15C20.9023 15 20.9008 15 20.8993 15C20.8979 15 20.8964 15 20.8949 15C20.8934 15 20.8919 15 20.8903 15C20.8888 15 20.8873 15 20.8858 15C20.8843 15 20.8828 15 20.8813 15C20.8797 15 20.8782 15 20.8767 15C20.8751 15 20.8736 15 20.8721 15C20.8705 15 20.869 15 20.8674 15C20.8659 15 20.8643 15 20.8628 15C20.8612 15 20.8597 15 20.8581 15C20.8566 15 20.855 15 20.8534 15C20.8519 15 20.8503 15 20.8487 15C20.8471 15 20.8456 15 20.844 15C20.8424 15 20.8408 15 20.8392 15C20.8376 15 20.836 15 20.8344 15C20.8328 15 20.8312 15 20.8296 15C20.828 15 20.8264 15 20.8248 15C20.8232 15 20.8216 15 20.8199 15C20.8183 15 20.8167 15 20.8151 15C20.8134 15 20.8118 15 20.8102 15C20.8085 15 20.8069 15 20.8053 15C20.8036 15 20.802 15 20.8003 15C20.7987 15 20.797 15 20.7954 15C20.7937 15 20.792 15 20.7904 15C20.7887 15 20.787 15 20.7854 15C20.7837 15 20.782 15 20.7803 15C20.7787 15 20.777 15 20.7753 15C20.7736 15 20.7719 15 20.7702 15C20.7685 15 20.7668 15 20.7651 15C20.7634 15 20.7617 15 20.76 15C20.7583 15 20.7566 15 20.7549 15C20.7532 15 20.7514 15 20.7497 15C20.748 15 20.7463 15 20.7445 15C20.7428 15 20.7411 15 20.7393 15C20.7376 15 20.7359 15 20.7341 15C20.7324 15 20.7306 15 20.7289 15C20.7271 15 20.7254 15 20.7236 15C20.7219 15 20.7201 15 20.7183 15C20.7166 15 20.7148 15 20.713 15C20.7112 15 20.7095 15 20.7077 15C20.7059 15 20.7041 15 20.7023 15C20.7006 15 20.6988 15 20.697 15C20.6952 15 20.6934 15 20.6916 15C20.6898 15 20.688 15 20.6862 15C20.6844 15 20.6826 15 20.6807 15C20.6789 15 20.6771 15 20.6753 15C20.6735 15 20.6716 15 20.6698 15C20.668 15 20.6662 15 20.6643 15C20.6625 15 20.6606 15 20.6588 15C20.657 15 20.6551 15 20.6533 15C20.6514 15 20.6496 15 20.6477 15C20.6459 15 20.644 15 20.6421 15C20.6403 15 20.6384 15 20.6365 15C20.6347 15 20.6328 15 20.6309 15C20.629 15 20.6272 15 20.6253 15C20.6234 15 20.6215 15 20.6196 15C20.6177 15 20.6158 15 20.614 15C20.6121 15 20.6102 15 20.6083 15C20.6064 15 20.6044 15 20.6025 15C20.6006 15 20.5987 15 20.5968 15C20.5949 15 20.593 15 20.591 15C20.5891 15 20.5872 15 20.5853 15C20.5833 15 20.5814 15 20.5795 15C20.5775 15 20.5756 15 20.5736 15C20.5717 15 20.5698 15 20.5678 15C20.5659 15 20.5639 15 20.562 15C20.56 15 20.558 15 20.5561 15C20.5541 15 20.5522 15 20.5502 15C20.5482 15 20.5462 15 20.5443 15C20.5423 15 20.5403 15 20.5383 15C20.5364 15 20.5344 15 20.5324 15C20.5304 15 20.5284 15 20.5264 15C20.5244 15 20.5224 15 20.5204 15C20.5184 15 20.5164 15 20.5144 15C20.5124 15 20.5104 15 20.5084 15C20.5064 15 20.5043 15 20.5023 15C20.5003 15 20.4983 15 20.4962 15C20.4942 15 20.4922 15 20.4902 15C20.4881 15 20.4861 15 20.484 15C20.482 15 20.48 15 20.4779 15C20.4759 15 20.4738 15 20.4718 15C20.4697 15 20.4677 15 20.4656 15C20.4636 15 20.4615 15 20.4594 15C20.4574 15 20.4553 15 20.4532 15C20.4512 15 20.4491 15 20.447 15C20.4449 15 20.4428 15 20.4408 15C20.4387 15 20.4366 15 20.4345 15C20.4324 15 20.4303 15 20.4282 15C20.4261 15 20.424 15 20.4219 15C20.4198 15 20.4177 15 20.4156 15C20.4135 15 20.4114 15 20.4093 15C20.4072 15 20.4051 15 20.4029 15C20.4008 15 20.3987 15 20.3966 15C20.3944 15 20.3923 15 20.3902 15C20.3881 15 20.3859 15 20.3838 15C20.3816 15 20.3795 15 20.3774 15C20.3752 15 20.3731 15 20.3709 15C20.3688 15 20.3666 15 20.3645 15C20.3623 15 20.3601 15 20.358 15C20.3558 15 20.3537 15 20.3515 15C20.3493 15 20.3471 15 20.345 15C20.3428 15 20.3406 15 20.3384 15C20.3363 15 20.3341 15 20.3319 15C20.3297 15 20.3275 15 20.3253 15C20.3231 15 20.3209 15 20.3187 15C20.3166 15 20.3144 15 20.3121 15C20.3099 15 20.3077 15 20.3055 15C20.3033 15 20.3011 15 20.2989 15C20.2967 15 20.2945 15 20.2922 15C20.29 15 20.2878 15 20.2856 15C20.2833 15 20.2811 15 20.2789 15C20.2767 15 20.2744 15 20.2722 15C20.2699 15 20.2677 15 20.2655 15C20.2632 15 20.261 15 20.2587 15C20.2565 15 20.2542 15 20.252 15C20.2497 15 20.2475 15 20.2452 15C20.2429 15 20.2407 15 20.2384 15C20.2361 15 20.2339 15 20.2316 15C20.2293 15 20.227 15 20.2248 15C20.2225 15 20.2202 15 20.2179 15C20.2156 15 20.2134 15 20.2111 15C20.2088 15 20.2065 15 20.2042 15C20.2019 15 20.1996 15 20.1973 15C20.195 15 20.1927 15 20.1904 15C20.1881 15 20.1858 15 20.1835 15C20.1812 15 20.1789 15 20.1765 15C20.1742 15 20.1719 15 20.1696 15C20.1673 15 20.1649 15 20.1626 15C20.1603 15 20.1579 15 20.1556 15C20.1533 15 20.1509 15 20.1486 15C20.1463 15 20.1439 15 20.1416 15C20.1392 15 20.1369 15 20.1346 15C20.1322 15 20.1299 15 20.1275 15C20.1251 15 20.1228 15 20.1204 15C20.1181 15 20.1157 15 20.1133 15C20.111 15 20.1086 15 20.1062 15C20.1039 15 20.1015 15 20.0991 15C20.0967 15 20.0944 15 20.092 15C20.0896 15 20.0872 15 20.0848 15C20.0825 15 20.0801 15 20.0777 15C20.0753 15 20.0729 15 20.0705 15C20.0681 15 20.0657 15 20.0633 15C20.0609 15 20.0585 15 20.0561 15C20.0537 15 20.0513 15 20.0489 15C20.0464 15 20.044 15 20.0416 15C20.0392 15 20.0368 15 20.0344 15C20.0319 15 20.0295 15 20.0271 15C20.0247 15 20.0222 15 20.0198 15C20.0174 15 20.0149 15 20.0125 15C20.01 15 20.0076 15 20.0052 15C20.0027 15 20.0003 15 19.9978 15C19.9954 15 19.9929 15 19.9905 15C19.988 15 19.9856 15 19.9831 15C19.9807 15 19.9782 15 19.9757 15C19.9733 15 19.9708 15 19.9683 15C19.9659 15 19.9634 15 19.9609 15C19.9585 15 19.956 15 19.9535 15C19.951 15 19.9486 15 19.9461 15C19.9436 15 19.9411 15 19.9386 15C19.9361 15 19.9336 15 19.9311 15C19.9287 15 19.9262 15 19.9237 15C19.9212 15 19.9187 15 19.9162 15C19.9137 15 19.9112 15 19.9087 15C19.9061 15 19.9036 15 19.9011 15C19.8986 15 19.8961 15 19.8936 15C19.8911 15 19.8886 15 19.886 15C19.8835 15 19.881 15 19.8785 15C19.8759 15 19.8734 15 19.8709 15C19.8683 15 19.8658 15 19.8633 15C19.8607 15 19.8582 15 19.8557 15C19.8531 15 19.8506 15 19.848 15C19.8455 15 19.843 15 19.8404 15C19.8379 15 19.8353 15 19.8327 15C19.8302 15 19.8276 15 19.8251 15C19.8225 15 19.82 15 19.8174 15C19.8148 15 19.8123 15 19.8097 15C19.8071 15 19.8046 15 19.802 15C19.7994 15 19.7968 15 19.7943 15C19.7917 15 19.7891 15 19.7865 15C19.784 15 19.7814 15 19.7788 15C19.7762 15 19.7736 15 19.771 15C19.7684 15 19.7658 15 19.7632 15C19.7606 15 19.7581 15 19.7555 15C19.7529 15 19.7503 15 19.7476 15C19.745 15 19.7424 15 19.7398 15C19.7372 15 19.7346 15 19.732 15C19.7294 15 19.7268 15 19.7242 15C19.7215 15 19.7189 15 19.7163 15C19.7137 15 19.7111 15 19.7084 15C19.7058 15 19.7032 15 19.7005 15C19.6979 15 19.6953 15 19.6927 15C19.69 15 19.6874 15 19.6847 15C19.6821 15 19.6795 15 19.6768 15C19.6742 15 19.6715 15 19.6689 15C19.6662 15 19.6636 15 19.6609 15C19.6583 15 19.6556 15 19.653 15C19.6503 15 19.6477 15 19.645 15C19.6423 15 19.6397 15 19.637 15C19.6344 15 19.6317 15 19.629 15C19.6264 15 19.6237 15 19.621 15C19.6183 15 19.6157 15 19.613 15C19.6103 15 19.6076 15 19.605 15C19.6023 15 19.5996 15 19.5969 15C19.5942 15 19.5915 15 19.5888 15C19.5862 15 19.5835 15 19.5808 15C19.5781 15 19.5754 15 19.5727 15C19.57 15 19.5673 15 19.5646 15C19.5619 15 19.5592 15 19.5565 15C19.5538 15 19.5511 15 19.5484 15C19.5457 15 19.5429 15 19.5402 15C19.5375 15 19.5348 15 19.5321 15C19.5294 15 19.5266 15 19.5239 15C19.5212 15 19.5185 15 19.5158 15C19.513 15 19.5103 15 19.5076 15C19.5049 15 19.5021 15 19.4994 15C19.4967 15 19.4939 15 19.4912 15C19.4884 15 19.4857 15 19.483 15C19.4802 15 19.4775 15 19.4747 15C19.472 15 19.4693 15 19.4665 15C19.4638 15 19.461 15 19.4583 15C19.4555 15 19.4528 15 19.45 15C19.4472 15 19.4445 15 19.4417 15C19.439 15 19.4362 15 19.4334 15C19.4307 15 19.4279 15 19.4251 15C19.4224 15 19.4196 15 19.4168 15C19.4141 15 19.4113 15 19.4085 15C19.4058 15 19.403 15 19.4002 15C19.3974 15 19.3946 15 19.3919 15C19.3891 15 19.3863 15 19.3835 15C19.3807 15 19.3779 15 19.3751 15C19.3724 15 19.3696 15 19.3668 15C19.364 15 19.3612 15 19.3584 15C19.3556 15 19.3528 15 19.35 15C19.3472 15 19.3444 15 19.3416 15C19.3388 15 19.336 15 19.3332 15C19.3304 15 19.3276 15 19.3248 15C19.3219 15 19.3191 15 19.3163 15C19.3135 15 19.3107 15 19.3079 15C19.3051 15 19.3022 15 19.2994 15C19.2966 15 19.2938 15 19.291 15C19.2881 15 19.2853 15 19.2825 15C19.2796 15 19.2768 15 19.274 15C19.2712 15 19.2683 15 19.2655 15C19.2627 15 19.2598 15 19.257 15C19.2541 15 19.2513 15 19.2485 15C19.2456 15 19.2428 15 19.2399 15C19.2371 15 19.2342 15 19.2314 15C19.2286 15 19.2257 15 19.2229 15C19.22 15 19.2171 15 19.2143 15C19.2114 15 19.2086 15 19.2057 15C19.2029 15 19.2 15 19.1971 15C19.1943 15 19.1914 15 19.1886 15C19.1857 15 19.1828 15 19.18 15C19.1771 15 19.1742 15 19.1714 15C19.1685 15 19.1656 15 19.1627 15C19.1599 15 19.157 15 19.1541 15C19.1512 15 19.1484 15 19.1455 15C19.1426 15 19.1397 15 19.1368 15C19.134 15 19.1311 15 19.1282 15C19.1253 15 19.1224 15 19.1195 15C19.1166 15 19.1137 15 19.1109 15C19.108 15 19.1051 15 19.1022 15C19.0993 15 19.0964 15 19.0935 15C19.0906 15 19.0877 15 19.0848 15C19.0819 15 19.079 15 19.0761 15C19.0732 15 19.0703 15 19.0674 15C19.0644 15 19.0615 15 19.0586 15C19.0557 15 19.0528 15 19.0499 15C19.047 15 19.0441 15 19.0412 15C19.0382 15 19.0353 15 19.0324 15C19.0295 15 19.0266 15 19.0236 15C19.0207 15 19.0178 15 19.0149 15C19.0119 15 19.009 15 19.0061 15C19.0032 15 19.0002 15 18.9973 15C18.9944 15 18.9914 15 18.9885 15C18.9856 15 18.9826 15 18.9797 15C18.9768 15 18.9738 15 18.9709 15C18.968 15 18.965 15 18.9621 15C18.9591 15 18.9562 15 18.9532 15C18.9503 15 18.9474 15 18.9444 15C18.9415 15 18.9385 15 18.9356 15C18.9326 15 18.9297 15 18.9267 15C18.9238 15 18.9208 15 18.9178 15C18.9149 15 18.9119 15 18.909 15C18.906 15 18.9031 15 18.9001 15C18.8971 15 18.8942 15 18.8912 15C18.8882 15 18.8853 15 18.8823 15C18.8794 15 18.8764 15 18.8734 15C18.8705 15 18.8675 15 18.8645 15C18.8615 15 18.8586 15 18.8556 15C18.8526 15 18.8496 15 18.8467 15C18.8437 15 18.8407 15 18.8377 15C18.8348 15 18.8318 15 18.8288 15C18.8258 15 18.8228 15 18.8199 15C18.8169 15 18.8139 15 18.8109 15C18.8079 15 18.8049 15 18.8019 15C18.7989 15 18.796 15 18.793 15C18.79 15 18.787 15 18.784 15C18.781 15 18.778 15 18.775 15C18.772 15 18.769 15 18.766 15C18.763 15 18.76 15 18.757 15C18.754 15 18.751 15 18.748 15C18.745 15 18.742 15 18.739 15C18.736 15 18.733 15 18.73 15C18.727 15 18.724 15 18.721 15C18.718 15 18.7149 15 18.7119 15C18.7089 15 18.7059 15 18.7029 15C18.6999 15 18.6969 15 18.6938 15C18.6908 15 18.6878 15 18.6848 15C18.6818 15 18.6788 15 18.6757 15C18.6727 15 18.6697 15 18.6667 15C18.6637 15 18.6606 15 18.6576 15C18.6546 15 18.6515 15 18.6485 15C18.6455 15 18.6425 15 18.6394 15C18.6364 15 18.6334 15 18.6303 15C18.6273 15 18.6243 15 18.6213 15C18.6182 15 18.6152 15 18.6121 15C18.6091 15 18.6061 15 18.603 15C18.6 15 18.597 15 18.5939 15C18.5909 15 18.5878 15 18.5848 15C18.5818 15 18.5787 15 18.5757 15C18.5726 15 18.5696 15 18.5665 15C18.5635 15 18.5604 15 18.5574 15C18.5544 15 18.5513 15 18.5483 15C18.5452 15 18.5422 15 18.5391 15C18.5361 15 18.533 15 18.5299 15C18.5269 15 18.5238 15 18.5208 15C18.5177 15 18.5147 15 18.5116 15C18.5086 15 18.5055 15 18.5024 15C18.4994 15 18.4963 15 18.4933 15C18.4902 15 18.4871 15 18.4841 15C18.481 15 18.478 15 18.4749 15C18.4718 15 18.4688 15 18.4657 15C18.4626 15 18.4596 15 18.4565 15C18.4534 15 18.4504 15 18.4473 15C18.4442 15 18.4411 15 18.4381 15C18.435 15 18.4319 15 18.4289 15C18.4258 15 18.4227 15 18.4196 15C18.4166 15 18.4135 15 18.4104 15C18.4073 15 18.4043 15 18.4012 15C18.3981 15 18.395 15 18.3919 15C18.3889 15 18.3858 15 18.3827 15C18.3796 15 18.3765 15 18.3735 15C18.3704 15 18.3673 15 18.3642 15C18.3611 15 18.358 15 18.3549 15C18.3519 15 18.3488 15 18.3457 15C18.3426 15 18.3395 15 18.3364 15C18.3333 15 18.3302 15 18.3271 15C18.3241 15 18.321 15 18.3179 15C18.3148 15 18.3117 15 18.3086 15C18.3055 15 18.3024 15 18.2993 15C18.2962 15 18.2931 15 18.29 15C18.2869 15 18.2838 15 18.2807 15C18.2776 15 18.2745 15 18.2714 15C18.2683 15 18.2652 15 18.2621 15C18.259 15 18.2559 15 18.2528 15C18.2497 15 18.2466 15 18.2435 15C18.2404 15 18.2373 15 18.2342 15C18.2311 15 18.228 15 18.2249 15C18.2218 15 18.2187 15 18.2156 15C18.2125 15 18.2094 15 18.2062 15C18.2031 15 18.2 15 18.1969 15C18.1938 15 18.1907 15 18.1876 15C18.1845 15 18.1814 15 18.1783 15C18.1751 15 18.172 15 18.1689 15C18.1658 15 18.1627 15 18.1596 15C18.1565 15 18.1533 15 18.1502 15C18.1471 15 18.144 15 18.1409 15C18.1378 15 18.1346 15 18.1315 15C18.1284 15 18.1253 15 18.1222 15C18.119 15 18.1159 15 18.1128 15C18.1097 15 18.1066 15 18.1034 15C18.1003 15 18.0972 15 18.0941 15C18.091 15 18.0878 15 18.0847 15C18.0816 15 18.0785 15 18.0753 15C18.0722 15 18.0691 15 18.066 15C18.0628 15 18.0597 15 18.0566 15C18.0535 15 18.0503 15 18.0472 15C18.0441 15 18.0409 15 18.0378 15C18.0347 15 18.0316 15 18.0284 15C18.0253 15 18.0222 15 18.019 15C18.0159 15 18.0128 15 18.0096 15C18.0065 15 18.0034 15 18.0002 15C17.9971 15 17.994 15 17.9908 15C17.9877 15 17.9846 15 17.9814 15C17.9783 15 17.9752 15 17.972 15C17.9689 15 17.9658 15 17.9626 15C17.9595 15 17.9564 15 17.9532 15C17.9501 15 17.947 15 17.9438 15C17.9407 15 17.9375 15 17.9344 15C17.9313 15 17.9281 15 17.925 15C17.9219 15 17.9187 15 17.9156 15C17.9124 15 17.9093 15 17.9062 15C17.903 15 17.8999 15 17.8967 15C17.8936 15 17.8904 15 17.8873 15C17.8842 15 17.881 15 17.8779 15C17.8747 15 17.8716 15 17.8685 15C17.8653 15 17.8622 15 17.859 15C17.8559 15 17.8527 15 17.8496 15C17.8464 15 17.8433 15 17.8402 15C17.837 15 17.8339 15 17.8307 15C17.8276 15 17.8244 15 17.8213 15C17.8181 15 17.815 15 17.8118 15C17.8087 15 17.8056 15 17.8024 15C17.7993 15 17.7961 15 17.793 15C17.7898 15 17.7867 15 17.7835 15C17.7804 15 17.7772 15 17.7741 15C17.7709 15 17.7678 15 17.7646 15C17.7615 15 17.7583 15 17.7552 15C17.752 15 17.7489 15 17.7457 15C17.7426 15 17.7394 15 17.7363 15C17.7331 15 17.73 15 17.7268 15C17.7237 15 17.7205 15 17.7174 15C17.7142 15 17.7111 15 17.7079 15C17.7048 15 17.7016 15 17.6985 15C17.6953 15 17.6922 15 17.689 15C17.6859 15 17.6827 15 17.6796 15C17.6764 15 17.6733 15 17.6701 15C17.667 15 17.6638 15 17.6607 15C17.6575 15 17.6544 15 17.6512 15C17.6481 15 17.6449 15 17.6417 15C17.6386 15 17.6354 15 17.6323 15C17.6291 15 17.626 15 17.6228 15C17.6197 15 17.6165 15 17.6134 15C17.6102 15 17.6071 15 17.6039 15C17.6008 15 17.5976 15 17.5944 15C17.5913 15 17.5881 15 17.585 15C17.5818 15 17.5787 15 17.5755 15C17.5724 15 17.5692 15 17.5661 15C17.5629 15 17.5598 15 17.5566 15C17.5534 15 17.5503 15 17.5471 15C17.544 15 17.5408 15 17.5377 15C17.5345 15 17.5314 15 17.5282 15C17.5251 15 17.5219 15 17.5188 15C17.5156 15 17.5124 15 17.5093 15C17.5061 15 17.503 15 17.4998 15C17.4967 15 17.4935 15 17.4904 15C17.4872 15 17.4841 15 17.4809 15C17.4778 15 17.4746 15 17.4714 15C17.4683 15 17.4651 15 17.462 15C17.4588 15 17.4557 15 17.4525 15C17.4494 15 17.4462 15 17.4431 15C17.4399 15 17.4368 15 17.4336 15C17.4305 15 17.4273 15 17.4242 15C17.421 15 17.4178 15 17.4147 15C17.4115 15 17.4084 15 17.4052 15C17.4021 15 17.3989 15 17.3958 15C17.3926 15 17.3895 15 17.3863 15C17.3832 15 17.38 15 17.3769 15C17.3737 15 17.3706 15 17.3674 15C17.3643 15 17.3611 15 17.358 15C17.3548 15 17.3517 15 17.3485 15C17.3454 15 17.3422 15 17.3391 15C17.3359 15 17.3328 15 17.3296 15C17.3265 15 17.3233 15 17.3202 15C17.317 15 17.3139 15 17.3107 15C17.3076 15 17.3044 15 17.3013 15C17.2981 15 17.295 15 17.2918 15C17.2887 15 17.2855 15 17.2824 15C17.2792 15 17.2761 15 17.2729 15C17.2698 15 17.2666 15 17.2635 15C17.2604 15 17.2572 15 17.2541 15C17.2509 15 17.2478 15 17.2446 15C17.2415 15 17.2383 15 17.2352 15C17.232 15 17.2289 15 17.2258 15C17.2226 15 17.2195 15 17.2163 15C17.2132 15 17.21 15 17.2069 15C17.2038 15 17.2006 15 17.1975 15C17.1943 15 17.1912 15 17.188 15C17.1849 15 17.1818 15 17.1786 15C17.1755 15 17.1723 15 17.1692 15C17.1661 15 17.1629 15 17.1598 15C17.1566 15 17.1535 15 17.1504 15C17.1472 15 17.1441 15 17.1409 15C17.1378 15 17.1347 15 17.1315 15C17.1284 15 17.1252 15 17.1221 15C17.119 15 17.1158 15 17.1127 15C17.1096 15 17.1064 15 17.1033 15C17.1002 15 17.097 15 17.0939 15C17.0908 15 17.0876 15 17.0845 15C17.0814 15 17.0782 15 17.0751 15C17.072 15 17.0688 15 17.0657 15C17.0626 15 17.0594 15 17.0563 15C17.0532 15 17.05 15 17.0469 15C17.0438 15 17.0407 15 17.0375 15C17.0344 15 17.0313 15 17.0281 15C17.025 15 17.0219 15 17.0188 15C17.0156 15 17.0125 15 17.0094 15C17.0063 15 17.0031 15 17 15V17ZM21 17C21.1733 17 21.4555 17.0602 21.6657 17.2115C21.8249 17.3261 22 17.5259 22 18H24C24 16.8741 23.5085 16.0739 22.8343 15.5885C22.2111 15.1398 21.4934 15 21 15V17ZM22 18C22 18.0031 22 18.0063 22 18.0094C22 18.0125 22 18.0156 22 18.0188C22 18.0219 22 18.025 22 18.0281C22 18.0313 22 18.0344 22 18.0375C22 18.0407 22 18.0438 22 18.0469C22 18.05 22 18.0532 22 18.0563C22 18.0594 22 18.0626 22 18.0657C22 18.0688 22 18.072 22 18.0751C22 18.0782 22 18.0814 22 18.0845C22 18.0876 22 18.0908 22 18.0939C22 18.097 22 18.1002 22 18.1033C22 18.1064 22 18.1096 22 18.1127C22 18.1158 22 18.119 22 18.1221C22 18.1252 22 18.1284 22 18.1315C22 18.1347 22 18.1378 22 18.1409C22 18.1441 22 18.1472 22 18.1504C22 18.1535 22 18.1566 22 18.1598C22 18.1629 22 18.1661 22 18.1692C22 18.1723 22 18.1755 22 18.1786C22 18.1818 22 18.1849 22 18.188C22 18.1912 22 18.1943 22 18.1975C22 18.2006 22 18.2038 22 18.2069C22 18.21 22 18.2132 22 18.2163C22 18.2195 22 18.2226 22 18.2258C22 18.2289 22 18.232 22 18.2352C22 18.2383 22 18.2415 22 18.2446C22 18.2478 22 18.2509 22 18.2541C22 18.2572 22 18.2604 22 18.2635C22 18.2666 22 18.2698 22 18.2729C22 18.2761 22 18.2792 22 18.2824C22 18.2855 22 18.2887 22 18.2918C22 18.295 22 18.2981 22 18.3013C22 18.3044 22 18.3076 22 18.3107C22 18.3139 22 18.317 22 18.3202C22 18.3233 22 18.3265 22 18.3296C22 18.3328 22 18.3359 22 18.3391C22 18.3422 22 18.3454 22 18.3485C22 18.3517 22 18.3548 22 18.358C22 18.3611 22 18.3643 22 18.3674C22 18.3706 22 18.3737 22 18.3769C22 18.38 22 18.3832 22 18.3863C22 18.3895 22 18.3926 22 18.3958C22 18.3989 22 18.4021 22 18.4052C22 18.4084 22 18.4115 22 18.4147C22 18.4178 22 18.421 22 18.4242C22 18.4273 22 18.4305 22 18.4336C22 18.4368 22 18.4399 22 18.4431C22 18.4462 22 18.4494 22 18.4525C22 18.4557 22 18.4588 22 18.462C22 18.4651 22 18.4683 22 18.4714C22 18.4746 22 18.4778 22 18.4809C22 18.4841 22 18.4872 22 18.4904C22 18.4935 22 18.4967 22 18.4998C22 18.503 22 18.5061 22 18.5093C22 18.5124 22 18.5156 22 18.5188C22 18.5219 22 18.5251 22 18.5282C22 18.5314 22 18.5345 22 18.5377C22 18.5408 22 18.544 22 18.5471C22 18.5503 22 18.5534 22 18.5566C22 18.5598 22 18.5629 22 18.5661C22 18.5692 22 18.5724 22 18.5755C22 18.5787 22 18.5818 22 18.585C22 18.5881 22 18.5913 22 18.5944C22 18.5976 22 18.6008 22 18.6039C22 18.6071 22 18.6102 22 18.6134C22 18.6165 22 18.6197 22 18.6228C22 18.626 22 18.6291 22 18.6323C22 18.6354 22 18.6386 22 18.6417C22 18.6449 22 18.6481 22 18.6512C22 18.6544 22 18.6575 22 18.6607C22 18.6638 22 18.667 22 18.6701C22 18.6733 22 18.6764 22 18.6796C22 18.6827 22 18.6859 22 18.689C22 18.6922 22 18.6953 22 18.6985C22 18.7016 22 18.7048 22 18.7079C22 18.7111 22 18.7142 22 18.7174C22 18.7205 22 18.7237 22 18.7268C22 18.73 22 18.7331 22 18.7363C22 18.7394 22 18.7426 22 18.7457C22 18.7489 22 18.752 22 18.7552C22 18.7583 22 18.7615 22 18.7646C22 18.7678 22 18.7709 22 18.7741C22 18.7772 22 18.7804 22 18.7835C22 18.7867 22 18.7898 22 18.793C22 18.7961 22 18.7993 22 18.8024C22 18.8056 22 18.8087 22 18.8118C22 18.815 22 18.8181 22 18.8213C22 18.8244 22 18.8276 22 18.8307C22 18.8339 22 18.837 22 18.8402C22 18.8433 22 18.8464 22 18.8496C22 18.8527 22 18.8559 22 18.859C22 18.8622 22 18.8653 22 18.8685C22 18.8716 22 18.8747 22 18.8779C22 18.881 22 18.8842 22 18.8873C22 18.8904 22 18.8936 22 18.8967C22 18.8999 22 18.903 22 18.9062C22 18.9093 22 18.9124 22 18.9156C22 18.9187 22 18.9219 22 18.925C22 18.9281 22 18.9313 22 18.9344C22 18.9375 22 18.9407 22 18.9438C22 18.947 22 18.9501 22 18.9532C22 18.9564 22 18.9595 22 18.9626C22 18.9658 22 18.9689 22 18.972C22 18.9752 22 18.9783 22 18.9814C22 18.9846 22 18.9877 22 18.9908C22 18.994 22 18.9971 22 19.0002C22 19.0034 22 19.0065 22 19.0096C22 19.0128 22 19.0159 22 19.019C22 19.0222 22 19.0253 22 19.0284C22 19.0316 22 19.0347 22 19.0378C22 19.0409 22 19.0441 22 19.0472C22 19.0503 22 19.0535 22 19.0566C22 19.0597 22 19.0628 22 19.066C22 19.0691 22 19.0722 22 19.0753C22 19.0785 22 19.0816 22 19.0847C22 19.0878 22 19.091 22 19.0941C22 19.0972 22 19.1003 22 19.1034C22 19.1066 22 19.1097 22 19.1128C22 19.1159 22 19.119 22 19.1222C22 19.1253 22 19.1284 22 19.1315C22 19.1346 22 19.1378 22 19.1409C22 19.144 22 19.1471 22 19.1502C22 19.1533 22 19.1565 22 19.1596C22 19.1627 22 19.1658 22 19.1689C22 19.172 22 19.1751 22 19.1783C22 19.1814 22 19.1845 22 19.1876C22 19.1907 22 19.1938 22 19.1969C22 19.2 22 19.2031 22 19.2062C22 19.2094 22 19.2125 22 19.2156C22 19.2187 22 19.2218 22 19.2249C22 19.228 22 19.2311 22 19.2342C22 19.2373 22 19.2404 22 19.2435C22 19.2466 22 19.2497 22 19.2528C22 19.2559 22 19.259 22 19.2621C22 19.2652 22 19.2683 22 19.2714C22 19.2745 22 19.2776 22 19.2807C22 19.2838 22 19.2869 22 19.29C22 19.2931 22 19.2962 22 19.2993C22 19.3024 22 19.3055 22 19.3086C22 19.3117 22 19.3148 22 19.3179C22 19.321 22 19.3241 22 19.3271C22 19.3302 22 19.3333 22 19.3364C22 19.3395 22 19.3426 22 19.3457C22 19.3488 22 19.3519 22 19.3549C22 19.358 22 19.3611 22 19.3642C22 19.3673 22 19.3704 22 19.3735C22 19.3765 22 19.3796 22 19.3827C22 19.3858 22 19.3889 22 19.3919C22 19.395 22 19.3981 22 19.4012C22 19.4043 22 19.4073 22 19.4104C22 19.4135 22 19.4166 22 19.4196C22 19.4227 22 19.4258 22 19.4289C22 19.4319 22 19.435 22 19.4381C22 19.4411 22 19.4442 22 19.4473C22 19.4504 22 19.4534 22 19.4565C22 19.4596 22 19.4626 22 19.4657C22 19.4688 22 19.4718 22 19.4749C22 19.478 22 19.481 22 19.4841C22 19.4871 22 19.4902 22 19.4933C22 19.4963 22 19.4994 22 19.5024C22 19.5055 22 19.5086 22 19.5116C22 19.5147 22 19.5177 22 19.5208C22 19.5238 22 19.5269 22 19.5299C22 19.533 22 19.5361 22 19.5391C22 19.5422 22 19.5452 22 19.5483C22 19.5513 22 19.5544 22 19.5574C22 19.5604 22 19.5635 22 19.5665C22 19.5696 22 19.5726 22 19.5757C22 19.5787 22 19.5818 22 19.5848C22 19.5878 22 19.5909 22 19.5939C22 19.597 22 19.6 22 19.603C22 19.6061 22 19.6091 22 19.6121C22 19.6152 22 19.6182 22 19.6213C22 19.6243 22 19.6273 22 19.6303C22 19.6334 22 19.6364 22 19.6394C22 19.6425 22 19.6455 22 19.6485C22 19.6516 22 19.6546 22 19.6576C22 19.6606 22 19.6636 22 19.6667C22 19.6697 22 19.6727 22 19.6757C22 19.6788 22 19.6818 22 19.6848C22 19.6878 22 19.6908 22 19.6938C22 19.6969 22 19.6999 22 19.7029C22 19.7059 22 19.7089 22 19.7119C22 19.7149 22 19.718 22 19.721C22 19.724 22 19.727 22 19.73C22 19.733 22 19.736 22 19.739C22 19.742 22 19.745 22 19.748C22 19.751 22 19.754 22 19.757C22 19.76 22 19.763 22 19.766C22 19.769 22 19.772 22 19.775C22 19.778 22 19.781 22 19.784C22 19.787 22 19.79 22 19.793C22 19.796 22 19.7989 22 19.8019C22 19.8049 22 19.8079 22 19.8109C22 19.8139 22 19.8169 22 19.8199C22 19.8228 22 19.8258 22 19.8288C22 19.8318 22 19.8348 22 19.8377C22 19.8407 22 19.8437 22 19.8467C22 19.8496 22 19.8526 22 19.8556C22 19.8586 22 19.8615 22 19.8645C22 19.8675 22 19.8705 22 19.8734C22 19.8764 22 19.8794 22 19.8823C22 19.8853 22 19.8882 22 19.8912C22 19.8942 22 19.8971 22 19.9001C22 19.9031 22 19.906 22 19.909C22 19.9119 22 19.9149 22 19.9178C22 19.9208 22 19.9238 22 19.9267C22 19.9297 22 19.9326 22 19.9356C22 19.9385 22 19.9415 22 19.9444C22 19.9474 22 19.9503 22 19.9532C22 19.9562 22 19.9591 22 19.9621C22 19.965 22 19.968 22 19.9709C22 19.9738 22 19.9768 22 19.9797C22 19.9826 22 19.9856 22 19.9885C22 19.9914 22 19.9944 22 19.9973C22 20.0002 22 20.0032 22 20.0061C22 20.009 22 20.0119 22 20.0149C22 20.0178 22 20.0207 22 20.0236C22 20.0266 22 20.0295 22 20.0324C22 20.0353 22 20.0382 22 20.0412C22 20.0441 22 20.047 22 20.0499C22 20.0528 22 20.0557 22 20.0586C22 20.0615 22 20.0644 22 20.0674C22 20.0703 22 20.0732 22 20.0761C22 20.079 22 20.0819 22 20.0848C22 20.0877 22 20.0906 22 20.0935C22 20.0964 22 20.0993 22 20.1022C22 20.1051 22 20.108 22 20.1109C22 20.1137 22 20.1166 22 20.1195C22 20.1224 22 20.1253 22 20.1282C22 20.1311 22 20.134 22 20.1368C22 20.1397 22 20.1426 22 20.1455C22 20.1484 22 20.1512 22 20.1541C22 20.157 22 20.1599 22 20.1627C22 20.1656 22 20.1685 22 20.1714C22 20.1742 22 20.1771 22 20.18C22 20.1828 22 20.1857 22 20.1886C22 20.1914 22 20.1943 22 20.1971C22 20.2 22 20.2029 22 20.2057C22 20.2086 22 20.2114 22 20.2143C22 20.2171 22 20.22 22 20.2229C22 20.2257 22 20.2286 22 20.2314C22 20.2342 22 20.2371 22 20.2399C22 20.2428 22 20.2456 22 20.2485C22 20.2513 22 20.2541 22 20.257C22 20.2598 22 20.2627 22 20.2655C22 20.2683 22 20.2712 22 20.274C22 20.2768 22 20.2796 22 20.2825C22 20.2853 22 20.2881 22 20.291C22 20.2938 22 20.2966 22 20.2994C22 20.3022 22 20.3051 22 20.3079C22 20.3107 22 20.3135 22 20.3163C22 20.3191 22 20.3219 22 20.3248C22 20.3276 22 20.3304 22 20.3332C22 20.336 22 20.3388 22 20.3416C22 20.3444 22 20.3472 22 20.35C22 20.3528 22 20.3556 22 20.3584C22 20.3612 22 20.364 22 20.3668C22 20.3696 22 20.3724 22 20.3751C22 20.3779 22 20.3807 22 20.3835C22 20.3863 22 20.3891 22 20.3919C22 20.3946 22 20.3974 22 20.4002C22 20.403 22 20.4058 22 20.4085C22 20.4113 22 20.4141 22 20.4168C22 20.4196 22 20.4224 22 20.4251C22 20.4279 22 20.4307 22 20.4334C22 20.4362 22 20.439 22 20.4417C22 20.4445 22 20.4472 22 20.45C22 20.4528 22 20.4555 22 20.4583C22 20.461 22 20.4638 22 20.4665C22 20.4693 22 20.472 22 20.4747C22 20.4775 22 20.4802 22 20.483C22 20.4857 22 20.4884 22 20.4912C22 20.4939 22 20.4967 22 20.4994C22 20.5021 22 20.5049 22 20.5076C22 20.5103 22 20.513 22 20.5158C22 20.5185 22 20.5212 22 20.5239C22 20.5266 22 20.5294 22 20.5321C22 20.5348 22 20.5375 22 20.5402C22 20.5429 22 20.5457 22 20.5484C22 20.5511 22 20.5538 22 20.5565C22 20.5592 22 20.5619 22 20.5646C22 20.5673 22 20.57 22 20.5727C22 20.5754 22 20.5781 22 20.5808C22 20.5835 22 20.5862 22 20.5888C22 20.5915 22 20.5942 22 20.5969C22 20.5996 22 20.6023 22 20.605C22 20.6076 22 20.6103 22 20.613C22 20.6157 22 20.6183 22 20.621C22 20.6237 22 20.6264 22 20.629C22 20.6317 22 20.6344 22 20.637C22 20.6397 22 20.6423 22 20.645C22 20.6477 22 20.6503 22 20.653C22 20.6556 22 20.6583 22 20.6609C22 20.6636 22 20.6662 22 20.6689C22 20.6715 22 20.6742 22 20.6768C22 20.6795 22 20.6821 22 20.6847C22 20.6874 22 20.69 22 20.6927C22 20.6953 22 20.6979 22 20.7005C22 20.7032 22 20.7058 22 20.7084C22 20.7111 22 20.7137 22 20.7163C22 20.7189 22 20.7215 22 20.7242C22 20.7268 22 20.7294 22 20.732C22 20.7346 22 20.7372 22 20.7398C22 20.7424 22 20.745 22 20.7476C22 20.7503 22 20.7529 22 20.7555C22 20.7581 22 20.7606 22 20.7632C22 20.7658 22 20.7684 22 20.771C22 20.7736 22 20.7762 22 20.7788C22 20.7814 22 20.784 22 20.7865C22 20.7891 22 20.7917 22 20.7943C22 20.7968 22 20.7994 22 20.802C22 20.8046 22 20.8071 22 20.8097C22 20.8123 22 20.8148 22 20.8174C22 20.82 22 20.8225 22 20.8251C22 20.8276 22 20.8302 22 20.8327C22 20.8353 22 20.8379 22 20.8404C22 20.843 22 20.8455 22 20.848C22 20.8506 22 20.8531 22 20.8557C22 20.8582 22 20.8607 22 20.8633C22 20.8658 22 20.8683 22 20.8709C22 20.8734 22 20.8759 22 20.8785C22 20.881 22 20.8835 22 20.886C22 20.8886 22 20.8911 22 20.8936C22 20.8961 22 20.8986 22 20.9011C22 20.9036 22 20.9061 22 20.9087C22 20.9112 22 20.9137 22 20.9162C22 20.9187 22 20.9212 22 20.9237C22 20.9262 22 20.9287 22 20.9311C22 20.9336 22 20.9361 22 20.9386C22 20.9411 22 20.9436 22 20.9461C22 20.9486 22 20.951 22 20.9535C22 20.956 22 20.9585 22 20.9609C22 20.9634 22 20.9659 22 20.9683C22 20.9708 22 20.9733 22 20.9757C22 20.9782 22 20.9807 22 20.9831C22 20.9856 22 20.988 22 20.9905C22 20.9929 22 20.9954 22 20.9978C22 21.0003 22 21.0027 22 21.0052C22 21.0076 22 21.01 22 21.0125C22 21.0149 22 21.0174 22 21.0198C22 21.0222 22 21.0247 22 21.0271C22 21.0295 22 21.0319 22 21.0344C22 21.0368 22 21.0392 22 21.0416C22 21.044 22 21.0464 22 21.0489C22 21.0513 22 21.0537 22 21.0561C22 21.0585 22 21.0609 22 21.0633C22 21.0657 22 21.0681 22 21.0705C22 21.0729 22 21.0753 22 21.0777C22 21.0801 22 21.0825 22 21.0848C22 21.0872 22 21.0896 22 21.092C22 21.0944 22 21.0967 22 21.0991C22 21.1015 22 21.1039 22 21.1062C22 21.1086 22 21.111 22 21.1133C22 21.1157 22 21.1181 22 21.1204C22 21.1228 22 21.1251 22 21.1275C22 21.1299 22 21.1322 22 21.1346C22 21.1369 22 21.1392 22 21.1416C22 21.1439 22 21.1463 22 21.1486C22 21.1509 22 21.1533 22 21.1556C22 21.1579 22 21.1603 22 21.1626C22 21.1649 22 21.1673 22 21.1696C22 21.1719 22 21.1742 22 21.1765C22 21.1789 22 21.1812 22 21.1835C22 21.1858 22 21.1881 22 21.1904C22 21.1927 22 21.195 22 21.1973C22 21.1996 22 21.2019 22 21.2042C22 21.2065 22 21.2088 22 21.2111C22 21.2134 22 21.2156 22 21.2179C22 21.2202 22 21.2225 22 21.2248C22 21.227 22 21.2293 22 21.2316C22 21.2339 22 21.2361 22 21.2384C22 21.2407 22 21.2429 22 21.2452C22 21.2475 22 21.2497 22 21.252C22 21.2542 22 21.2565 22 21.2587C22 21.261 22 21.2632 22 21.2655C22 21.2677 22 21.2699 22 21.2722C22 21.2744 22 21.2767 22 21.2789C22 21.2811 22 21.2833 22 21.2856C22 21.2878 22 21.29 22 21.2922C22 21.2945 22 21.2967 22 21.2989C22 21.3011 22 21.3033 22 21.3055C22 21.3077 22 21.3099 22 21.3121C22 21.3144 22 21.3166 22 21.3187C22 21.3209 22 21.3231 22 21.3253C22 21.3275 22 21.3297 22 21.3319C22 21.3341 22 21.3363 22 21.3384C22 21.3406 22 21.3428 22 21.345C22 21.3471 22 21.3493 22 21.3515C22 21.3537 22 21.3558 22 21.358C22 21.3601 22 21.3623 22 21.3645C22 21.3666 22 21.3688 22 21.3709C22 21.3731 22 21.3752 22 21.3774C22 21.3795 22 21.3816 22 21.3838C22 21.3859 22 21.3881 22 21.3902C22 21.3923 22 21.3944 22 21.3966C22 21.3987 22 21.4008 22 21.4029C22 21.4051 22 21.4072 22 21.4093C22 21.4114 22 21.4135 22 21.4156C22 21.4177 22 21.4198 22 21.4219C22 21.424 22 21.4261 22 21.4282C22 21.4303 22 21.4324 22 21.4345C22 21.4366 22 21.4387 22 21.4408C22 21.4428 22 21.4449 22 21.447C22 21.4491 22 21.4512 22 21.4532C22 21.4553 22 21.4574 22 21.4594C22 21.4615 22 21.4636 22 21.4656C22 21.4677 22 21.4697 22 21.4718C22 21.4738 22 21.4759 22 21.4779C22 21.48 22 21.482 22 21.484C22 21.4861 22 21.4881 22 21.4902C22 21.4922 22 21.4942 22 21.4962C22 21.4983 22 21.5003 22 21.5023C22 21.5043 22 21.5064 22 21.5084C22 21.5104 22 21.5124 22 21.5144C22 21.5164 22 21.5184 22 21.5204C22 21.5224 22 21.5244 22 21.5264C22 21.5284 22 21.5304 22 21.5324C22 21.5344 22 21.5364 22 21.5383C22 21.5403 22 21.5423 22 21.5443C22 21.5462 22 21.5482 22 21.5502C22 21.5522 22 21.5541 22 21.5561C22 21.558 22 21.56 22 21.562C22 21.5639 22 21.5659 22 21.5678C22 21.5698 22 21.5717 22 21.5736C22 21.5756 22 21.5775 22 21.5795C22 21.5814 22 21.5833 22 21.5853C22 21.5872 22 21.5891 22 21.591C22 21.593 22 21.5949 22 21.5968C22 21.5987 22 21.6006 22 21.6025C22 21.6044 22 21.6064 22 21.6083C22 21.6102 22 21.6121 22 21.614C22 21.6158 22 21.6177 22 21.6196C22 21.6215 22 21.6234 22 21.6253C22 21.6272 22 21.629 22 21.6309C22 21.6328 22 21.6347 22 21.6365C22 21.6384 22 21.6403 22 21.6421C22 21.644 22 21.6459 22 21.6477C22 21.6496 22 21.6514 22 21.6533C22 21.6551 22 21.657 22 21.6588C22 21.6606 22 21.6625 22 21.6643C22 21.6662 22 21.668 22 21.6698C22 21.6716 22 21.6735 22 21.6753C22 21.6771 22 21.6789 22 21.6807C22 21.6826 22 21.6844 22 21.6862C22 21.688 22 21.6898 22 21.6916C22 21.6934 22 21.6952 22 21.697C22 21.6988 22 21.7006 22 21.7023C22 21.7041 22 21.7059 22 21.7077C22 21.7095 22 21.7112 22 21.713C22 21.7148 22 21.7166 22 21.7183C22 21.7201 22 21.7219 22 21.7236C22 21.7254 22 21.7271 22 21.7289C22 21.7306 22 21.7324 22 21.7341C22 21.7359 22 21.7376 22 21.7393C22 21.7411 22 21.7428 22 21.7445C22 21.7463 22 21.748 22 21.7497C22 21.7514 22 21.7532 22 21.7549C22 21.7566 22 21.7583 22 21.76C22 21.7617 22 21.7634 22 21.7651C22 21.7668 22 21.7685 22 21.7702C22 21.7719 22 21.7736 22 21.7753C22 21.777 22 21.7787 22 21.7803C22 21.782 22 21.7837 22 21.7854C22 21.787 22 21.7887 22 21.7904C22 21.792 22 21.7937 22 21.7954C22 21.797 22 21.7987 22 21.8003C22 21.802 22 21.8036 22 21.8053C22 21.8069 22 21.8085 22 21.8102C22 21.8118 22 21.8134 22 21.8151C22 21.8167 22 21.8183 22 21.8199C22 21.8216 22 21.8232 22 21.8248C22 21.8264 22 21.828 22 21.8296C22 21.8312 22 21.8328 22 21.8344C22 21.836 22 21.8376 22 21.8392C22 21.8408 22 21.8424 22 21.844C22 21.8456 22 21.8471 22 21.8487C22 21.8503 22 21.8519 22 21.8534C22 21.855 22 21.8566 22 21.8581C22 21.8597 22 21.8612 22 21.8628C22 21.8643 22 21.8659 22 21.8674C22 21.869 22 21.8705 22 21.8721C22 21.8736 22 21.8751 22 21.8767C22 21.8782 22 21.8797 22 21.8813C22 21.8828 22 21.8843 22 21.8858C22 21.8873 22 21.8888 22 21.8903C22 21.8919 22 21.8934 22 21.8949C22 21.8964 22 21.8979 22 21.8993C22 21.9008 22 21.9023 22 21.9038C22 21.9053 22 21.9068 22 21.9082C22 21.9097 22 21.9112 22 21.9127C22 21.9141 22 21.9156 22 21.9171C22 21.9185 22 21.92 22 21.9214C22 21.9229 22 21.9243 22 21.9258C22 21.9272 22 21.9287 22 21.9301C22 21.9315 22 21.933 22 21.9344C22 21.9358 22 21.9373 22 21.9387C22 21.9401 22 21.9415 22 21.9429C22 21.9444 22 21.9458 22 21.9472C22 21.9486 22 21.95 22 21.9514C22 21.9528 22 21.9542 22 21.9556C22 21.957 22 21.9583 22 21.9597C22 21.9611 22 21.9625 22 21.9639C22 21.9652 22 21.9666 22 21.968C22 21.9693 22 21.9707 22 21.9721C22 21.9734 22 21.9748 22 21.9761C22 21.9775 22 21.9788 22 21.9802C22 21.9815 22 21.9828 22 21.9842C22 21.9855 22 21.9868 22 21.9882C22 21.9895 22 21.9908 22 21.9921C22 21.9935 22 21.9948 22 21.9961C22 21.9974 22 21.9987 22 22H24C24 21.9987 24 21.9974 24 21.9961C24 21.9948 24 21.9935 24 21.9921C24 21.9908 24 21.9895 24 21.9882C24 21.9868 24 21.9855 24 21.9842C24 21.9828 24 21.9815 24 21.9802C24 21.9788 24 21.9775 24 21.9761C24 21.9748 24 21.9734 24 21.9721C24 21.9707 24 21.9693 24 21.968C24 21.9666 24 21.9652 24 21.9639C24 21.9625 24 21.9611 24 21.9597C24 21.9583 24 21.957 24 21.9556C24 21.9542 24 21.9528 24 21.9514C24 21.95 24 21.9486 24 21.9472C24 21.9458 24 21.9444 24 21.9429C24 21.9415 24 21.9401 24 21.9387C24 21.9373 24 21.9358 24 21.9344C24 21.933 24 21.9315 24 21.9301C24 21.9287 24 21.9272 24 21.9258C24 21.9243 24 21.9229 24 21.9214C24 21.92 24 21.9185 24 21.9171C24 21.9156 24 21.9141 24 21.9127C24 21.9112 24 21.9097 24 21.9082C24 21.9068 24 21.9053 24 21.9038C24 21.9023 24 21.9008 24 21.8993C24 21.8979 24 21.8964 24 21.8949C24 21.8934 24 21.8919 24 21.8903C24 21.8888 24 21.8873 24 21.8858C24 21.8843 24 21.8828 24 21.8813C24 21.8797 24 21.8782 24 21.8767C24 21.8751 24 21.8736 24 21.8721C24 21.8705 24 21.869 24 21.8674C24 21.8659 24 21.8643 24 21.8628C24 21.8612 24 21.8597 24 21.8581C24 21.8566 24 21.855 24 21.8534C24 21.8519 24 21.8503 24 21.8487C24 21.8471 24 21.8456 24 21.844C24 21.8424 24 21.8408 24 21.8392C24 21.8376 24 21.836 24 21.8344C24 21.8328 24 21.8312 24 21.8296C24 21.828 24 21.8264 24 21.8248C24 21.8232 24 21.8216 24 21.8199C24 21.8183 24 21.8167 24 21.8151C24 21.8134 24 21.8118 24 21.8102C24 21.8085 24 21.8069 24 21.8053C24 21.8036 24 21.802 24 21.8003C24 21.7987 24 21.797 24 21.7954C24 21.7937 24 21.792 24 21.7904C24 21.7887 24 21.787 24 21.7854C24 21.7837 24 21.782 24 21.7803C24 21.7787 24 21.777 24 21.7753C24 21.7736 24 21.7719 24 21.7702C24 21.7685 24 21.7668 24 21.7651C24 21.7634 24 21.7617 24 21.76C24 21.7583 24 21.7566 24 21.7549C24 21.7532 24 21.7514 24 21.7497C24 21.748 24 21.7463 24 21.7445C24 21.7428 24 21.7411 24 21.7393C24 21.7376 24 21.7359 24 21.7341C24 21.7324 24 21.7306 24 21.7289C24 21.7271 24 21.7254 24 21.7236C24 21.7219 24 21.7201 24 21.7183C24 21.7166 24 21.7148 24 21.713C24 21.7112 24 21.7095 24 21.7077C24 21.7059 24 21.7041 24 21.7023C24 21.7006 24 21.6988 24 21.697C24 21.6952 24 21.6934 24 21.6916C24 21.6898 24 21.688 24 21.6862C24 21.6844 24 21.6826 24 21.6807C24 21.6789 24 21.6771 24 21.6753C24 21.6735 24 21.6716 24 21.6698C24 21.668 24 21.6662 24 21.6643C24 21.6625 24 21.6606 24 21.6588C24 21.657 24 21.6551 24 21.6533C24 21.6514 24 21.6496 24 21.6477C24 21.6459 24 21.644 24 21.6421C24 21.6403 24 21.6384 24 21.6365C24 21.6347 24 21.6328 24 21.6309C24 21.629 24 21.6272 24 21.6253C24 21.6234 24 21.6215 24 21.6196C24 21.6177 24 21.6158 24 21.614C24 21.6121 24 21.6102 24 21.6083C24 21.6064 24 21.6044 24 21.6025C24 21.6006 24 21.5987 24 21.5968C24 21.5949 24 21.593 24 21.591C24 21.5891 24 21.5872 24 21.5853C24 21.5833 24 21.5814 24 21.5795C24 21.5775 24 21.5756 24 21.5736C24 21.5717 24 21.5698 24 21.5678C24 21.5659 24 21.5639 24 21.562C24 21.56 24 21.558 24 21.5561C24 21.5541 24 21.5522 24 21.5502C24 21.5482 24 21.5462 24 21.5443C24 21.5423 24 21.5403 24 21.5383C24 21.5364 24 21.5344 24 21.5324C24 21.5304 24 21.5284 24 21.5264C24 21.5244 24 21.5224 24 21.5204C24 21.5184 24 21.5164 24 21.5144C24 21.5124 24 21.5104 24 21.5084C24 21.5064 24 21.5043 24 21.5023C24 21.5003 24 21.4983 24 21.4962C24 21.4942 24 21.4922 24 21.4902C24 21.4881 24 21.4861 24 21.484C24 21.482 24 21.48 24 21.4779C24 21.4759 24 21.4738 24 21.4718C24 21.4697 24 21.4677 24 21.4656C24 21.4636 24 21.4615 24 21.4594C24 21.4574 24 21.4553 24 21.4532C24 21.4512 24 21.4491 24 21.447C24 21.4449 24 21.4428 24 21.4408C24 21.4387 24 21.4366 24 21.4345C24 21.4324 24 21.4303 24 21.4282C24 21.4261 24 21.424 24 21.4219C24 21.4198 24 21.4177 24 21.4156C24 21.4135 24 21.4114 24 21.4093C24 21.4072 24 21.4051 24 21.4029C24 21.4008 24 21.3987 24 21.3966C24 21.3944 24 21.3923 24 21.3902C24 21.3881 24 21.3859 24 21.3838C24 21.3816 24 21.3795 24 21.3774C24 21.3752 24 21.3731 24 21.3709C24 21.3688 24 21.3666 24 21.3645C24 21.3623 24 21.3601 24 21.358C24 21.3558 24 21.3537 24 21.3515C24 21.3493 24 21.3471 24 21.345C24 21.3428 24 21.3406 24 21.3384C24 21.3363 24 21.3341 24 21.3319C24 21.3297 24 21.3275 24 21.3253C24 21.3231 24 21.3209 24 21.3187C24 21.3166 24 21.3144 24 21.3121C24 21.3099 24 21.3077 24 21.3055C24 21.3033 24 21.3011 24 21.2989C24 21.2967 24 21.2945 24 21.2922C24 21.29 24 21.2878 24 21.2856C24 21.2833 24 21.2811 24 21.2789C24 21.2767 24 21.2744 24 21.2722C24 21.2699 24 21.2677 24 21.2655C24 21.2632 24 21.261 24 21.2587C24 21.2565 24 21.2542 24 21.252C24 21.2497 24 21.2475 24 21.2452C24 21.2429 24 21.2407 24 21.2384C24 21.2361 24 21.2339 24 21.2316C24 21.2293 24 21.227 24 21.2248C24 21.2225 24 21.2202 24 21.2179C24 21.2156 24 21.2134 24 21.2111C24 21.2088 24 21.2065 24 21.2042C24 21.2019 24 21.1996 24 21.1973C24 21.195 24 21.1927 24 21.1904C24 21.1881 24 21.1858 24 21.1835C24 21.1812 24 21.1789 24 21.1765C24 21.1742 24 21.1719 24 21.1696C24 21.1673 24 21.1649 24 21.1626C24 21.1603 24 21.1579 24 21.1556C24 21.1533 24 21.1509 24 21.1486C24 21.1463 24 21.1439 24 21.1416C24 21.1392 24 21.1369 24 21.1346C24 21.1322 24 21.1299 24 21.1275C24 21.1251 24 21.1228 24 21.1204C24 21.1181 24 21.1157 24 21.1133C24 21.111 24 21.1086 24 21.1062C24 21.1039 24 21.1015 24 21.0991C24 21.0967 24 21.0944 24 21.092C24 21.0896 24 21.0872 24 21.0848C24 21.0825 24 21.0801 24 21.0777C24 21.0753 24 21.0729 24 21.0705C24 21.0681 24 21.0657 24 21.0633C24 21.0609 24 21.0585 24 21.0561C24 21.0537 24 21.0513 24 21.0489C24 21.0464 24 21.044 24 21.0416C24 21.0392 24 21.0368 24 21.0344C24 21.0319 24 21.0295 24 21.0271C24 21.0247 24 21.0222 24 21.0198C24 21.0174 24 21.0149 24 21.0125C24 21.01 24 21.0076 24 21.0052C24 21.0027 24 21.0003 24 20.9978C24 20.9954 24 20.9929 24 20.9905C24 20.988 24 20.9856 24 20.9831C24 20.9807 24 20.9782 24 20.9757C24 20.9733 24 20.9708 24 20.9683C24 20.9659 24 20.9634 24 20.9609C24 20.9585 24 20.956 24 20.9535C24 20.951 24 20.9486 24 20.9461C24 20.9436 24 20.9411 24 20.9386C24 20.9361 24 20.9336 24 20.9311C24 20.9287 24 20.9262 24 20.9237C24 20.9212 24 20.9187 24 20.9162C24 20.9137 24 20.9112 24 20.9087C24 20.9061 24 20.9036 24 20.9011C24 20.8986 24 20.8961 24 20.8936C24 20.8911 24 20.8886 24 20.886C24 20.8835 24 20.881 24 20.8785C24 20.8759 24 20.8734 24 20.8709C24 20.8683 24 20.8658 24 20.8633C24 20.8607 24 20.8582 24 20.8557C24 20.8531 24 20.8506 24 20.848C24 20.8455 24 20.843 24 20.8404C24 20.8379 24 20.8353 24 20.8327C24 20.8302 24 20.8276 24 20.8251C24 20.8225 24 20.82 24 20.8174C24 20.8148 24 20.8123 24 20.8097C24 20.8071 24 20.8046 24 20.802C24 20.7994 24 20.7968 24 20.7943C24 20.7917 24 20.7891 24 20.7865C24 20.784 24 20.7814 24 20.7788C24 20.7762 24 20.7736 24 20.771C24 20.7684 24 20.7658 24 20.7632C24 20.7606 24 20.7581 24 20.7555C24 20.7529 24 20.7503 24 20.7476C24 20.745 24 20.7424 24 20.7398C24 20.7372 24 20.7346 24 20.732C24 20.7294 24 20.7268 24 20.7242C24 20.7215 24 20.7189 24 20.7163C24 20.7137 24 20.7111 24 20.7084C24 20.7058 24 20.7032 24 20.7005C24 20.6979 24 20.6953 24 20.6927C24 20.69 24 20.6874 24 20.6847C24 20.6821 24 20.6795 24 20.6768C24 20.6742 24 20.6715 24 20.6689C24 20.6662 24 20.6636 24 20.6609C24 20.6583 24 20.6556 24 20.653C24 20.6503 24 20.6477 24 20.645C24 20.6423 24 20.6397 24 20.637C24 20.6344 24 20.6317 24 20.629C24 20.6264 24 20.6237 24 20.621C24 20.6183 24 20.6157 24 20.613C24 20.6103 24 20.6076 24 20.605C24 20.6023 24 20.5996 24 20.5969C24 20.5942 24 20.5915 24 20.5888C24 20.5862 24 20.5835 24 20.5808C24 20.5781 24 20.5754 24 20.5727C24 20.57 24 20.5673 24 20.5646C24 20.5619 24 20.5592 24 20.5565C24 20.5538 24 20.5511 24 20.5484C24 20.5457 24 20.5429 24 20.5402C24 20.5375 24 20.5348 24 20.5321C24 20.5294 24 20.5266 24 20.5239C24 20.5212 24 20.5185 24 20.5158C24 20.513 24 20.5103 24 20.5076C24 20.5049 24 20.5021 24 20.4994C24 20.4967 24 20.4939 24 20.4912C24 20.4884 24 20.4857 24 20.483C24 20.4802 24 20.4775 24 20.4747C24 20.472 24 20.4693 24 20.4665C24 20.4638 24 20.461 24 20.4583C24 20.4555 24 20.4528 24 20.45C24 20.4472 24 20.4445 24 20.4417C24 20.439 24 20.4362 24 20.4334C24 20.4307 24 20.4279 24 20.4251C24 20.4224 24 20.4196 24 20.4168C24 20.4141 24 20.4113 24 20.4085C24 20.4058 24 20.403 24 20.4002C24 20.3974 24 20.3946 24 20.3919C24 20.3891 24 20.3863 24 20.3835C24 20.3807 24 20.3779 24 20.3751C24 20.3724 24 20.3696 24 20.3668C24 20.364 24 20.3612 24 20.3584C24 20.3556 24 20.3528 24 20.35C24 20.3472 24 20.3444 24 20.3416C24 20.3388 24 20.336 24 20.3332C24 20.3304 24 20.3276 24 20.3248C24 20.3219 24 20.3191 24 20.3163C24 20.3135 24 20.3107 24 20.3079C24 20.3051 24 20.3022 24 20.2994C24 20.2966 24 20.2938 24 20.291C24 20.2881 24 20.2853 24 20.2825C24 20.2796 24 20.2768 24 20.274C24 20.2712 24 20.2683 24 20.2655C24 20.2627 24 20.2598 24 20.257C24 20.2541 24 20.2513 24 20.2485C24 20.2456 24 20.2428 24 20.2399C24 20.2371 24 20.2342 24 20.2314C24 20.2286 24 20.2257 24 20.2229C24 20.22 24 20.2171 24 20.2143C24 20.2114 24 20.2086 24 20.2057C24 20.2029 24 20.2 24 20.1971C24 20.1943 24 20.1914 24 20.1886C24 20.1857 24 20.1828 24 20.18C24 20.1771 24 20.1742 24 20.1714C24 20.1685 24 20.1656 24 20.1627C24 20.1599 24 20.157 24 20.1541C24 20.1512 24 20.1484 24 20.1455C24 20.1426 24 20.1397 24 20.1368C24 20.134 24 20.1311 24 20.1282C24 20.1253 24 20.1224 24 20.1195C24 20.1166 24 20.1137 24 20.1109C24 20.108 24 20.1051 24 20.1022C24 20.0993 24 20.0964 24 20.0935C24 20.0906 24 20.0877 24 20.0848C24 20.0819 24 20.079 24 20.0761C24 20.0732 24 20.0703 24 20.0674C24 20.0644 24 20.0615 24 20.0586C24 20.0557 24 20.0528 24 20.0499C24 20.047 24 20.0441 24 20.0412C24 20.0382 24 20.0353 24 20.0324C24 20.0295 24 20.0266 24 20.0236C24 20.0207 24 20.0178 24 20.0149C24 20.0119 24 20.009 24 20.0061C24 20.0032 24 20.0002 24 19.9973C24 19.9944 24 19.9914 24 19.9885C24 19.9856 24 19.9826 24 19.9797C24 19.9768 24 19.9738 24 19.9709C24 19.968 24 19.965 24 19.9621C24 19.9591 24 19.9562 24 19.9532C24 19.9503 24 19.9474 24 19.9444C24 19.9415 24 19.9385 24 19.9356C24 19.9326 24 19.9297 24 19.9267C24 19.9238 24 19.9208 24 19.9178C24 19.9149 24 19.9119 24 19.909C24 19.906 24 19.9031 24 19.9001C24 19.8971 24 19.8942 24 19.8912C24 19.8882 24 19.8853 24 19.8823C24 19.8794 24 19.8764 24 19.8734C24 19.8705 24 19.8675 24 19.8645C24 19.8615 24 19.8586 24 19.8556C24 19.8526 24 19.8496 24 19.8467C24 19.8437 24 19.8407 24 19.8377C24 19.8348 24 19.8318 24 19.8288C24 19.8258 24 19.8228 24 19.8199C24 19.8169 24 19.8139 24 19.8109C24 19.8079 24 19.8049 24 19.8019C24 19.7989 24 19.796 24 19.793C24 19.79 24 19.787 24 19.784C24 19.781 24 19.778 24 19.775C24 19.772 24 19.769 24 19.766C24 19.763 24 19.76 24 19.757C24 19.754 24 19.751 24 19.748C24 19.745 24 19.742 24 19.739C24 19.736 24 19.733 24 19.73C24 19.727 24 19.724 24 19.721C24 19.718 24 19.7149 24 19.7119C24 19.7089 24 19.7059 24 19.7029C24 19.6999 24 19.6969 24 19.6938C24 19.6908 24 19.6878 24 19.6848C24 19.6818 24 19.6788 24 19.6757C24 19.6727 24 19.6697 24 19.6667C24 19.6636 24 19.6606 24 19.6576C24 19.6546 24 19.6516 24 19.6485C24 19.6455 24 19.6425 24 19.6394C24 19.6364 24 19.6334 24 19.6303C24 19.6273 24 19.6243 24 19.6213C24 19.6182 24 19.6152 24 19.6121C24 19.6091 24 19.6061 24 19.603C24 19.6 24 19.597 24 19.5939C24 19.5909 24 19.5878 24 19.5848C24 19.5818 24 19.5787 24 19.5757C24 19.5726 24 19.5696 24 19.5665C24 19.5635 24 19.5604 24 19.5574C24 19.5544 24 19.5513 24 19.5483C24 19.5452 24 19.5422 24 19.5391C24 19.5361 24 19.533 24 19.5299C24 19.5269 24 19.5238 24 19.5208C24 19.5177 24 19.5147 24 19.5116C24 19.5086 24 19.5055 24 19.5024C24 19.4994 24 19.4963 24 19.4933C24 19.4902 24 19.4871 24 19.4841C24 19.481 24 19.478 24 19.4749C24 19.4718 24 19.4688 24 19.4657C24 19.4626 24 19.4596 24 19.4565C24 19.4534 24 19.4504 24 19.4473C24 19.4442 24 19.4411 24 19.4381C24 19.435 24 19.4319 24 19.4289C24 19.4258 24 19.4227 24 19.4196C24 19.4166 24 19.4135 24 19.4104C24 19.4073 24 19.4043 24 19.4012C24 19.3981 24 19.395 24 19.3919C24 19.3889 24 19.3858 24 19.3827C24 19.3796 24 19.3765 24 19.3735C24 19.3704 24 19.3673 24 19.3642C24 19.3611 24 19.358 24 19.3549C24 19.3519 24 19.3488 24 19.3457C24 19.3426 24 19.3395 24 19.3364C24 19.3333 24 19.3302 24 19.3271C24 19.3241 24 19.321 24 19.3179C24 19.3148 24 19.3117 24 19.3086C24 19.3055 24 19.3024 24 19.2993C24 19.2962 24 19.2931 24 19.29C24 19.2869 24 19.2838 24 19.2807C24 19.2776 24 19.2745 24 19.2714C24 19.2683 24 19.2652 24 19.2621C24 19.259 24 19.2559 24 19.2528C24 19.2497 24 19.2466 24 19.2435C24 19.2404 24 19.2373 24 19.2342C24 19.2311 24 19.228 24 19.2249C24 19.2218 24 19.2187 24 19.2156C24 19.2125 24 19.2094 24 19.2062C24 19.2031 24 19.2 24 19.1969C24 19.1938 24 19.1907 24 19.1876C24 19.1845 24 19.1814 24 19.1783C24 19.1751 24 19.172 24 19.1689C24 19.1658 24 19.1627 24 19.1596C24 19.1565 24 19.1533 24 19.1502C24 19.1471 24 19.144 24 19.1409C24 19.1378 24 19.1346 24 19.1315C24 19.1284 24 19.1253 24 19.1222C24 19.119 24 19.1159 24 19.1128C24 19.1097 24 19.1066 24 19.1034C24 19.1003 24 19.0972 24 19.0941C24 19.091 24 19.0878 24 19.0847C24 19.0816 24 19.0785 24 19.0753C24 19.0722 24 19.0691 24 19.066C24 19.0628 24 19.0597 24 19.0566C24 19.0535 24 19.0503 24 19.0472C24 19.0441 24 19.0409 24 19.0378C24 19.0347 24 19.0316 24 19.0284C24 19.0253 24 19.0222 24 19.019C24 19.0159 24 19.0128 24 19.0096C24 19.0065 24 19.0034 24 19.0002C24 18.9971 24 18.994 24 18.9908C24 18.9877 24 18.9846 24 18.9814C24 18.9783 24 18.9752 24 18.972C24 18.9689 24 18.9658 24 18.9626C24 18.9595 24 18.9564 24 18.9532C24 18.9501 24 18.947 24 18.9438C24 18.9407 24 18.9375 24 18.9344C24 18.9313 24 18.9281 24 18.925C24 18.9219 24 18.9187 24 18.9156C24 18.9124 24 18.9093 24 18.9062C24 18.903 24 18.8999 24 18.8967C24 18.8936 24 18.8904 24 18.8873C24 18.8842 24 18.881 24 18.8779C24 18.8747 24 18.8716 24 18.8685C24 18.8653 24 18.8622 24 18.859C24 18.8559 24 18.8527 24 18.8496C24 18.8464 24 18.8433 24 18.8402C24 18.837 24 18.8339 24 18.8307C24 18.8276 24 18.8244 24 18.8213C24 18.8181 24 18.815 24 18.8118C24 18.8087 24 18.8056 24 18.8024C24 18.7993 24 18.7961 24 18.793C24 18.7898 24 18.7867 24 18.7835C24 18.7804 24 18.7772 24 18.7741C24 18.7709 24 18.7678 24 18.7646C24 18.7615 24 18.7583 24 18.7552C24 18.752 24 18.7489 24 18.7457C24 18.7426 24 18.7394 24 18.7363C24 18.7331 24 18.73 24 18.7268C24 18.7237 24 18.7205 24 18.7174C24 18.7142 24 18.7111 24 18.7079C24 18.7048 24 18.7016 24 18.6985C24 18.6953 24 18.6922 24 18.689C24 18.6859 24 18.6827 24 18.6796C24 18.6764 24 18.6733 24 18.6701C24 18.667 24 18.6638 24 18.6607C24 18.6575 24 18.6544 24 18.6512C24 18.6481 24 18.6449 24 18.6417C24 18.6386 24 18.6354 24 18.6323C24 18.6291 24 18.626 24 18.6228C24 18.6197 24 18.6165 24 18.6134C24 18.6102 24 18.6071 24 18.6039C24 18.6008 24 18.5976 24 18.5944C24 18.5913 24 18.5881 24 18.585C24 18.5818 24 18.5787 24 18.5755C24 18.5724 24 18.5692 24 18.5661C24 18.5629 24 18.5598 24 18.5566C24 18.5534 24 18.5503 24 18.5471C24 18.544 24 18.5408 24 18.5377C24 18.5345 24 18.5314 24 18.5282C24 18.5251 24 18.5219 24 18.5188C24 18.5156 24 18.5124 24 18.5093C24 18.5061 24 18.503 24 18.4998C24 18.4967 24 18.4935 24 18.4904C24 18.4872 24 18.4841 24 18.4809C24 18.4778 24 18.4746 24 18.4714C24 18.4683 24 18.4651 24 18.462C24 18.4588 24 18.4557 24 18.4525C24 18.4494 24 18.4462 24 18.4431C24 18.4399 24 18.4368 24 18.4336C24 18.4305 24 18.4273 24 18.4242C24 18.421 24 18.4178 24 18.4147C24 18.4115 24 18.4084 24 18.4052C24 18.4021 24 18.3989 24 18.3958C24 18.3926 24 18.3895 24 18.3863C24 18.3832 24 18.38 24 18.3769C24 18.3737 24 18.3706 24 18.3674C24 18.3643 24 18.3611 24 18.358C24 18.3548 24 18.3517 24 18.3485C24 18.3454 24 18.3422 24 18.3391C24 18.3359 24 18.3328 24 18.3296C24 18.3265 24 18.3233 24 18.3202C24 18.317 24 18.3139 24 18.3107C24 18.3076 24 18.3044 24 18.3013C24 18.2981 24 18.295 24 18.2918C24 18.2887 24 18.2855 24 18.2824C24 18.2792 24 18.2761 24 18.2729C24 18.2698 24 18.2666 24 18.2635C24 18.2604 24 18.2572 24 18.2541C24 18.2509 24 18.2478 24 18.2446C24 18.2415 24 18.2383 24 18.2352C24 18.232 24 18.2289 24 18.2258C24 18.2226 24 18.2195 24 18.2163C24 18.2132 24 18.21 24 18.2069C24 18.2038 24 18.2006 24 18.1975C24 18.1943 24 18.1912 24 18.188C24 18.1849 24 18.1818 24 18.1786C24 18.1755 24 18.1723 24 18.1692C24 18.1661 24 18.1629 24 18.1598C24 18.1566 24 18.1535 24 18.1504C24 18.1472 24 18.1441 24 18.1409C24 18.1378 24 18.1347 24 18.1315C24 18.1284 24 18.1252 24 18.1221C24 18.119 24 18.1158 24 18.1127C24 18.1096 24 18.1064 24 18.1033C24 18.1002 24 18.097 24 18.0939C24 18.0908 24 18.0876 24 18.0845C24 18.0814 24 18.0782 24 18.0751C24 18.072 24 18.0688 24 18.0657C24 18.0626 24 18.0594 24 18.0563C24 18.0532 24 18.05 24 18.0469C24 18.0438 24 18.0407 24 18.0375C24 18.0344 24 18.0313 24 18.0281C24 18.025 24 18.0219 24 18.0188C24 18.0156 24 18.0125 24 18.0094C24 18.0063 24 18.0031 24 18H22ZM22.1056 22.4472L22.6056 23.4472L24.3944 22.5528L23.8944 21.5528L22.1056 22.4472ZM14.1354 21.6372L13.6354 22.4975L15.3646 23.5025L15.8646 22.6421L14.1354 21.6372ZM13.5 23V24H15.5V23H13.5ZM14.0691 24.9024L16.1632 25.9024L17.025 24.0976L14.9309 23.0976L14.0691 24.9024ZM16.5941 26H21.5V24H16.5941V26ZM21.9472 25.8944L23.9472 24.8944L23.0528 23.1056L21.0528 24.1056L21.9472 25.8944ZM24.5 24V23H22.5V24H24.5Z" fill="#989898"/>
<path d="M20 15C20 14.4477 19.5523 14 19 14C18.4477 14 18 14.4477 18 15H20ZM20 16V15H18V16H20Z" fill="#989898"/>
</svg>
