<svg width="35" height="42" viewBox="0 0 35 42" fill="none" xmlns="http://www.w3.org/2000/svg">
<path d="M19.2889 38.0349L9.38232 20.8543H13.1926L15.0977 18.9453L19.2889 38.0349Z" fill="#CDD0D8" stroke="#85929D" stroke-width="0.770925"/>
<path d="M20.8132 21.9969L19.2891 38.0322L29.1957 20.8516H22.3373L20.8132 21.9969Z" fill="#B3B7C4" stroke="#85929D" stroke-width="0.770925"/>
<path d="M22.3373 20.8525L20.8132 22.3797L19.2891 3.67188L29.1957 20.8525H22.3373Z" fill="#CDD0D8" stroke="#85929D" stroke-width="0.770925"/>
<path d="M17.7647 20.8525L15.8595 18.5617L15.4785 18.18L19.2888 3.67188L20.8129 21.9979L19.2888 20.8525H17.7647Z" fill="#B5B7BE" stroke="#85929D" stroke-width="0.770925"/>
<path d="M18.5268 20.4678L20.813 22.3768V23.1404L19.2889 37.6484L15.4787 18.9407L17.0027 20.4678H18.5268Z" fill="#B5B7BE" stroke="#85929D" stroke-width="0.770925"/>
<path d="M18.9078 4.8125L9.76318 20.8477H13.1924L15.4785 18.557L18.9078 4.8125Z" fill="white" stroke="#85929D" stroke-width="0.770925" stroke-linejoin="round"/>
<path d="M19.2889 38.4139L9.38232 20.8515M19.2889 38.4139L29.1956 20.8515M19.2889 38.4139L20.813 22.3786M19.2889 38.4139L15.4787 18.5607M9.38232 20.8515L19.2889 3.28906M9.38232 20.8515H13.1926L15.4787 18.5607M19.2889 3.28906L29.1956 20.8515M19.2889 3.28906L15.4787 18.5607M19.2889 3.28906L20.813 22.3786M29.1956 20.8515H22.3371L20.813 22.3786M15.4787 18.5607L17.7649 20.8515H19.2889L20.813 22.3786" stroke="#85929D" stroke-width="0.770925" stroke-linejoin="round"/>
<path d="M29.693 16.1045L25.3857 8.63467H27.0424L27.8707 7.80469L29.693 16.1045Z" fill="#CDD0D8" stroke="#85929D" stroke-width="0.335185"/>
<path d="M30.3555 9.1308L29.6929 16.1026L34.0001 8.63281H31.0182L30.3555 9.1308Z" fill="#B3B7C4" stroke="#85929D" stroke-width="0.335185"/>
<path d="M31.0182 8.6339L30.3555 9.29788L29.6929 1.16406L34.0001 8.6339H31.0182Z" fill="#CDD0D8" stroke="#85929D" stroke-width="0.335185"/>
<path d="M29.0301 8.6339L28.2018 7.63792L28.0361 7.47192L29.6928 1.16406L30.3554 9.13189L29.6928 8.6339H29.0301Z" fill="#B5B7BE" stroke="#85929D" stroke-width="0.335185"/>
<path d="M29.3615 8.46767L30.3555 9.29765V9.62964L29.6928 15.9375L28.0362 7.80368L28.6988 8.46767H29.3615Z" fill="#B5B7BE" stroke="#85929D" stroke-width="0.335185"/>
<path d="M29.5272 1.66406L25.5513 8.63591H27.0422L28.0362 7.63993L29.5272 1.66406Z" fill="white" stroke="#85929D" stroke-width="0.335185" stroke-linejoin="round"/>
<path d="M29.693 16.2717L25.3857 8.63583M29.693 16.2717L34.0002 8.63583M29.693 16.2717L30.3556 9.29981M29.693 16.2717L28.0363 7.63985M25.3857 8.63583L29.693 1M25.3857 8.63583H27.0424L28.0363 7.63985M29.693 1L34.0002 8.63583M29.693 1L28.0363 7.63985M29.693 1L30.3556 9.29981M34.0002 8.63583H31.0183L30.3556 9.29981M28.0363 7.63985L29.0303 8.63583H29.693L30.3556 9.29981" stroke="#85929D" stroke-width="0.335185" stroke-linejoin="round"/>
<path d="M5.30723 35.9561L1 28.4862H2.65663L3.48494 27.6562L5.30723 35.9561Z" fill="#CDD0D8" stroke="#85929D" stroke-width="0.335185"/>
<path d="M5.96978 28.9824L5.30713 35.9542L9.61436 28.4844H6.63243L5.96978 28.9824Z" fill="#B3B7C4" stroke="#85929D" stroke-width="0.335185"/>
<path d="M6.63243 28.4855L5.96978 29.1494L5.30713 21.0156L9.61436 28.4855H6.63243Z" fill="#CDD0D8" stroke="#85929D" stroke-width="0.335185"/>
<path d="M4.64485 28.4855L3.81654 27.4895L3.65088 27.3235L5.30751 21.0156L5.97016 28.9834L5.30751 28.4855H4.64485Z" fill="#B5B7BE" stroke="#85929D" stroke-width="0.335185"/>
<path d="M4.97575 28.3192L5.96973 29.1492V29.4812L5.30708 35.7891L3.65045 27.6552L4.3131 28.3192H4.97575Z" fill="#B5B7BE" stroke="#85929D" stroke-width="0.335185"/>
<path d="M5.14143 21.5156L1.16553 28.4875H2.65649L3.65047 27.4915L5.14143 21.5156Z" fill="white" stroke="#85929D" stroke-width="0.335185" stroke-linejoin="round"/>
<path d="M5.30723 36.1232L1 28.4874M5.30723 36.1232L9.61446 28.4874M5.30723 36.1232L5.96988 29.1514M5.30723 36.1232L3.6506 27.4914M1 28.4874L5.30723 20.8516M1 28.4874H2.65663L3.6506 27.4914M5.30723 20.8516L9.61446 28.4874M5.30723 20.8516L3.6506 27.4914M5.30723 20.8516L5.96988 29.1514M9.61446 28.4874H6.63253L5.96988 29.1514M3.6506 27.4914L4.64458 28.4874H5.30723L5.96988 29.1514" stroke="#85929D" stroke-width="0.335185" stroke-linejoin="round"/>
<path d="M27.9368 40.8688L24.6235 35.1228H25.8979L26.535 34.4844L27.9368 40.8688Z" fill="#CDD0D8" stroke="#85929D" stroke-width="0.257834"/>
<path d="M28.4467 35.5081L27.937 40.871L31.2503 35.125H28.9565L28.4467 35.5081Z" fill="#B3B7C4" stroke="#85929D" stroke-width="0.257834"/>
<path d="M28.9565 35.121L28.4467 35.6318L27.937 29.375L31.2503 35.121H28.9565Z" fill="#CDD0D8" stroke="#85929D" stroke-width="0.257834"/>
<path d="M27.4272 35.121L26.79 34.3549L26.6626 34.2272L27.9369 29.375L28.4467 35.5041L27.9369 35.121H27.4272Z" fill="#B5B7BE" stroke="#85929D" stroke-width="0.257834"/>
<path d="M27.6822 34.9962L28.4468 35.6346V35.89L27.937 40.7422L26.6627 34.4854L27.1724 34.9962H27.6822Z" fill="#B5B7BE" stroke="#85929D" stroke-width="0.257834"/>
<path d="M27.8094 29.7578L24.751 35.1208H25.8979L26.6625 34.3546L27.8094 29.7578Z" fill="white" stroke="#85929D" stroke-width="0.257834" stroke-linejoin="round"/>
<path d="M27.9368 40.9974L24.6235 35.1237M27.9368 40.9974L31.25 35.1237M27.9368 40.9974L28.4465 35.6345M27.9368 40.9974L26.6625 34.3576M24.6235 35.1237L27.9368 29.25M24.6235 35.1237H25.8979L26.6625 34.3576M27.9368 29.25L31.25 35.1237M27.9368 29.25L26.6625 34.3576M27.9368 29.25L28.4465 35.6345M31.25 35.1237H28.9563L28.4465 35.6345M26.6625 34.3576L27.4271 35.1237H27.9368L28.4465 35.6345" stroke="#85929D" stroke-width="0.257834" stroke-linejoin="round"/>
</svg>
