<svg width="20" height="20" viewBox="0 0 20 20" fill="none" xmlns="http://www.w3.org/2000/svg">
<g clip-path="url(#clip0_1820_45349)">
<path d="M14.1668 6.66683V4.16683C14.1668 3.94582 14.079 3.73385 13.9228 3.57757C13.7665 3.42129 13.5545 3.3335 13.3335 3.3335H5.00016C4.55814 3.3335 4.13421 3.50909 3.82165 3.82165C3.50909 4.13421 3.3335 4.55814 3.3335 5.00016C3.3335 5.44219 3.50909 5.86611 3.82165 6.17867C4.13421 6.49123 4.55814 6.66683 5.00016 6.66683H15.0002C15.2212 6.66683 15.4331 6.75463 15.5894 6.91091C15.7457 7.06719 15.8335 7.27915 15.8335 7.50016V10.0002M15.8335 13.3335V15.8335C15.8335 16.0545 15.7457 16.2665 15.5894 16.4228C15.4331 16.579 15.2212 16.6668 15.0002 16.6668H5.00016C4.55814 16.6668 4.13421 16.4912 3.82165 16.1787C3.50909 15.8661 3.3335 15.4422 3.3335 15.0002V5.00016" stroke="#03182A" stroke-width="2" stroke-linecap="round" stroke-linejoin="round"/>
<path d="M16.6665 10V13.3333H13.3332C12.8911 13.3333 12.4672 13.1577 12.1547 12.8452C11.8421 12.5326 11.6665 12.1087 11.6665 11.6667C11.6665 11.2246 11.8421 10.8007 12.1547 10.4882C12.4672 10.1756 12.8911 10 13.3332 10H16.6665Z" stroke="#03182A" stroke-width="2" stroke-linecap="round" stroke-linejoin="round"/>
</g>
<defs>
<clipPath id="clip0_1820_45349">
<rect width="20" height="20" fill="white"/>
</clipPath>
</defs>
</svg>
