<svg width="20" height="20" viewBox="0 0 20 20" fill="none" xmlns="http://www.w3.org/2000/svg">
<g clip-path="url(#clip0_1820_45348)">
<path d="M11.6665 2.5V5.83333C11.6665 6.05435 11.7543 6.26631 11.9106 6.42259C12.0669 6.57887 12.2788 6.66667 12.4998 6.66667H15.8332" stroke="#03182A" stroke-width="2" stroke-linecap="round" stroke-linejoin="round"/>
<path d="M4.1665 6.66667V4.16667C4.1665 3.72464 4.3421 3.30072 4.65466 2.98816C4.96722 2.67559 5.39114 2.5 5.83317 2.5H11.6665L15.8332 6.66667V15.8333C15.8332 16.2754 15.6576 16.6993 15.345 17.0118C15.0325 17.3244 14.6085 17.5 14.1665 17.5H9.99984" stroke="#03182A" stroke-width="2" stroke-linecap="round" stroke-linejoin="round"/>
<path d="M5 14.1665C6.38071 14.1665 7.5 13.0472 7.5 11.6665C7.5 10.2858 6.38071 9.1665 5 9.1665C3.61929 9.1665 2.5 10.2858 2.5 11.6665C2.5 13.0472 3.61929 14.1665 5 14.1665Z" stroke="#03182A" stroke-width="2" stroke-linecap="round" stroke-linejoin="round"/>
<path d="M3.75 14.1665L2.5 18.3332L5 17.0832L7.5 18.3332L6.25 14.1665" stroke="#03182A" stroke-width="2" stroke-linecap="round" stroke-linejoin="round"/>
</g>
<defs>
<clipPath id="clip0_1820_45348">
<rect width="20" height="20" fill="white"/>
</clipPath>
</defs>
</svg>
