<svg width="200" height="120" viewBox="0 0 200 120" fill="none" xmlns="http://www.w3.org/2000/svg">
<rect width="200" height="120" rx="3" fill="#E3E3E3"/>
<rect x="14" y="15" width="56" height="64" rx="2" fill="#EFEFEF"/>
<rect x="78" y="15" width="49" height="10" rx="3" fill="#C4C4C4"/>
<rect x="78" y="55" width="49" height="10" rx="3" fill="#C4C4C4"/>
<rect x="78" y="83" width="99" height="10" rx="3" fill="#C4C4C4"/>
<rect x="78" y="69" width="49" height="10" rx="3" fill="#C4C4C4"/>
<rect x="14" y="83" width="56" height="10" rx="3" fill="#C4C4C4"/>
<rect x="14" y="97" width="56" height="10" rx="3" fill="#C4C4C4"/>
<rect x="78" y="97" width="99" height="10" rx="3" fill="#C4C4C4"/>
<rect x="78" y="28" width="80" height="10" rx="3" fill="#C4C4C4"/>
<rect x="78" y="41" width="66" height="10" rx="3" fill="#C4C4C4"/>
<path d="M56 43H55.36L52.86 36.76C52.4135 35.6505 51.6456 34.6998 50.6549 34.0298C49.6643 33.3599 48.496 33.0013 47.3 33H35.3C33.9106 32.996 32.5628 33.4744 31.4868 34.3535C30.4108 35.2325 29.6732 36.4577 29.4 37.82L28.36 43H28C26.4087 43 24.8826 43.6322 23.7574 44.7574C22.6321 45.8826 22 47.4087 22 49V55C22 55.5305 22.2107 56.0392 22.5858 56.4142C22.9609 56.7893 23.4696 57 24 57H26C26 58.5913 26.6321 60.1174 27.7574 61.2427C28.8826 62.3679 30.4087 63 32 63C33.5913 63 35.1174 62.3679 36.2426 61.2427C37.3679 60.1174 38 58.5913 38 57H46C46 58.5913 46.6321 60.1174 47.7574 61.2427C48.8826 62.3679 50.4087 63 52 63C53.5913 63 55.1174 62.3679 56.2426 61.2427C57.3679 60.1174 58 58.5913 58 57H60C60.5304 57 61.0391 56.7893 61.4142 56.4142C61.7893 56.0392 62 55.5305 62 55V49C62 47.4087 61.3679 45.8826 60.2426 44.7574C59.1174 43.6322 57.5913 43 56 43ZM44 37H47.3C47.6971 37.0036 48.0842 37.1254 48.4119 37.3498C48.7396 37.5742 48.9931 37.891 49.14 38.26L51.04 43H44V37ZM33.32 38.6C33.4135 38.1415 33.6648 37.7302 34.0303 37.4379C34.3957 37.1455 34.8521 36.9906 35.32 37H40V43H32.44L33.32 38.6ZM32 59C31.6044 59 31.2178 58.8827 30.8889 58.663C30.56 58.4432 30.3036 58.1308 30.1522 57.7654C30.0009 57.3999 29.9613 56.9978 30.0384 56.6098C30.1156 56.2219 30.3061 55.8655 30.5858 55.5858C30.8655 55.3061 31.2219 55.1156 31.6098 55.0385C31.9978 54.9613 32.3999 55.0009 32.7654 55.1523C33.1308 55.3036 33.4432 55.56 33.6629 55.8889C33.8827 56.2178 34 56.6045 34 57C34 57.5305 33.7893 58.0392 33.4142 58.4142C33.0391 58.7893 32.5304 59 32 59ZM52 59C51.6044 59 51.2178 58.8827 50.8889 58.663C50.56 58.4432 50.3036 58.1308 50.1522 57.7654C50.0009 57.3999 49.9613 56.9978 50.0384 56.6098C50.1156 56.2219 50.3061 55.8655 50.5858 55.5858C50.8655 55.3061 51.2219 55.1156 51.6098 55.0385C51.9978 54.9613 52.3999 55.0009 52.7654 55.1523C53.1308 55.3036 53.4432 55.56 53.6629 55.8889C53.8827 56.2178 54 56.6045 54 57C54 57.5305 53.7893 58.0392 53.4142 58.4142C53.0391 58.7893 52.5304 59 52 59ZM58 53H56.44C55.8776 52.3813 55.1922 51.887 54.4276 51.5487C53.663 51.2104 52.8361 51.0357 52 51.0357C51.1639 51.0357 50.337 51.2104 49.5724 51.5487C48.8078 51.887 48.1224 52.3813 47.56 53H36.44C35.8776 52.3813 35.1922 51.887 34.4276 51.5487C33.663 51.2104 32.8361 51.0357 32 51.0357C31.1639 51.0357 30.337 51.2104 29.5724 51.5487C28.8078 51.887 28.1224 52.3813 27.56 53H26V49C26 48.4696 26.2107 47.9609 26.5858 47.5858C26.9609 47.2107 27.4696 47 28 47H56C56.5304 47 57.0391 47.2107 57.4142 47.5858C57.7893 47.9609 58 48.4696 58 49V53Z" fill="#B2B2B2"/>
</svg>
