<svg width="24" height="24" viewBox="0 0 24 24" fill="none" xmlns="http://www.w3.org/2000/svg">
<path d="M19.43 8.92L21.32 9.55C21.5186 9.61709 21.6911 9.7449 21.8132 9.91537C21.9352 10.0858 22.0005 10.2904 22 10.5V10.99H19.4L18.8 10.79C18.5281 10.6997 18.2787 10.5521 18.0688 10.3571C17.8589 10.1621 17.6934 9.92424 17.5834 9.65969C17.4734 9.39513 17.4215 9.11003 17.4313 8.82369C17.4411 8.53735 17.5122 8.25645 17.64 8L18.24 6.89L17.14 5.79L16 6.36C15.7422 6.4931 15.4586 6.56852 15.1688 6.58105C14.879 6.59358 14.5899 6.5429 14.3216 6.43254C14.0533 6.32218 13.8122 6.15478 13.6151 5.94195C13.418 5.72912 13.2695 5.47595 13.18 5.2L12.78 4H11.22L10.82 5.2C10.7305 5.47595 10.582 5.72912 10.3849 5.94195C10.1878 6.15478 9.94671 6.32218 9.67842 6.43254C9.41014 6.5429 9.12105 6.59358 8.83123 6.58105C8.5414 6.56852 8.25777 6.4931 8 6.36L6.89 5.79L5.79 6.89L6.36 8C6.4931 8.25777 6.56852 8.5414 6.58105 8.83123C6.59358 9.12105 6.5429 9.41014 6.43254 9.67842C6.32218 9.94671 6.15478 10.1878 5.94195 10.3849C5.72912 10.582 5.47595 10.7305 5.2 10.82L4 11.22V12.78L5.2 13.18C5.47595 13.2695 5.72912 13.418 5.94195 13.6151C6.15478 13.8122 6.32218 14.0533 6.43254 14.3216C6.5429 14.5899 6.59358 14.879 6.58105 15.1688C6.56852 15.4586 6.4931 15.7422 6.36 16L5.76 17.11L6.86 18.21L8 17.64C8.25777 17.5069 8.5414 17.4315 8.83123 17.419C9.12105 17.4064 9.41014 17.4571 9.67842 17.5675C9.94671 17.6778 10.1878 17.8452 10.3849 18.0581C10.582 18.2709 10.7305 18.5241 10.82 18.8L11 19.34V22H10.51C10.3004 22.0005 10.0958 21.9352 9.92537 21.8132C9.7549 21.6911 9.62709 21.5186 9.56 21.32L8.93 19.43L7.15 20.32C6.96251 20.4125 6.75074 20.444 6.54446 20.4099C6.33818 20.3758 6.14777 20.2779 6 20.13L3.87 18C3.72423 17.853 3.62767 17.6644 3.59364 17.4602C3.55961 17.256 3.58978 17.0463 3.68 16.86L4.57 15.08L2.68 14.45C2.48138 14.3829 2.30887 14.2551 2.18685 14.0846C2.06482 13.9142 1.99946 13.7096 2 13.5V10.5C2.00155 10.2921 2.06787 10.0898 2.18975 9.92131C2.31163 9.75283 2.483 9.62654 2.68 9.56L4.57 8.93L3.68 7.15C3.58748 6.96251 3.55605 6.75074 3.59013 6.54446C3.62421 6.33818 3.72209 6.14777 3.87 6L6 3.87C6.14699 3.72423 6.33558 3.62767 6.53978 3.59364C6.74397 3.55961 6.95369 3.58978 7.14 3.68L8.92 4.57L9.55 2.68C9.61709 2.48138 9.7449 2.30887 9.91537 2.18685C10.0858 2.06482 10.2904 1.99946 10.5 2H13.5C13.7079 2.00155 13.9102 2.06787 14.0787 2.18975C14.2472 2.31163 14.3735 2.483 14.44 2.68L15.07 4.57L16.85 3.68C17.0375 3.58748 17.2493 3.55605 17.4555 3.59013C17.6618 3.62421 17.8522 3.72209 18 3.87L20.13 6C20.2758 6.14699 20.3723 6.33558 20.4064 6.53978C20.4404 6.74397 20.4102 6.95369 20.32 7.14L19.43 8.92Z" fill="#889097"/>
<path d="M13.5 19.6396L14.3646 20.1421C14.4533 19.9895 14.5 19.8162 14.5 19.6396H13.5ZM21.5 19.5H20.5C20.5 19.6552 20.5361 19.8084 20.6056 19.9472L21.5 19.5ZM22 20.5H23C23 20.3448 22.9639 20.1916 22.8944 20.0528L22 20.5ZM13 20.5L12.1354 19.9975C12.0467 20.1501 12 20.3235 12 20.5H13ZM13 21.5H12C12 21.8853 12.2214 22.2363 12.5691 22.4024L13 21.5ZM15.0941 22.5L14.6632 23.4024C14.7977 23.4666 14.945 23.5 15.0941 23.5V22.5ZM20 22.5V23.5C20.1552 23.5 20.3084 23.4639 20.4472 23.3944L20 22.5ZM22 21.5L22.4472 22.3944C22.786 22.225 23 21.8788 23 21.5H22ZM14.5 19.6396V15.5H12.5V19.6396H14.5ZM14.5 15.5C14.5 15.3267 14.5602 15.0445 14.7115 14.8343C14.8261 14.6751 15.0259 14.5 15.5 14.5V12.5C14.3741 12.5 13.5739 12.9915 13.0885 13.6657C12.6398 14.2889 12.5 15.0066 12.5 15.5H14.5ZM15.5 14.5C15.5031 14.5 15.5063 14.5 15.5094 14.5C15.5125 14.5 15.5156 14.5 15.5188 14.5C15.5219 14.5 15.525 14.5 15.5281 14.5C15.5313 14.5 15.5344 14.5 15.5375 14.5C15.5407 14.5 15.5438 14.5 15.5469 14.5C15.55 14.5 15.5532 14.5 15.5563 14.5C15.5594 14.5 15.5626 14.5 15.5657 14.5C15.5688 14.5 15.572 14.5 15.5751 14.5C15.5782 14.5 15.5814 14.5 15.5845 14.5C15.5876 14.5 15.5908 14.5 15.5939 14.5C15.597 14.5 15.6002 14.5 15.6033 14.5C15.6064 14.5 15.6096 14.5 15.6127 14.5C15.6158 14.5 15.619 14.5 15.6221 14.5C15.6252 14.5 15.6284 14.5 15.6315 14.5C15.6347 14.5 15.6378 14.5 15.6409 14.5C15.6441 14.5 15.6472 14.5 15.6504 14.5C15.6535 14.5 15.6566 14.5 15.6598 14.5C15.6629 14.5 15.6661 14.5 15.6692 14.5C15.6723 14.5 15.6755 14.5 15.6786 14.5C15.6818 14.5 15.6849 14.5 15.688 14.5C15.6912 14.5 15.6943 14.5 15.6975 14.5C15.7006 14.5 15.7038 14.5 15.7069 14.5C15.71 14.5 15.7132 14.5 15.7163 14.5C15.7195 14.5 15.7226 14.5 15.7258 14.5C15.7289 14.5 15.732 14.5 15.7352 14.5C15.7383 14.5 15.7415 14.5 15.7446 14.5C15.7478 14.5 15.7509 14.5 15.7541 14.5C15.7572 14.5 15.7604 14.5 15.7635 14.5C15.7666 14.5 15.7698 14.5 15.7729 14.5C15.7761 14.5 15.7792 14.5 15.7824 14.5C15.7855 14.5 15.7887 14.5 15.7918 14.5C15.795 14.5 15.7981 14.5 15.8013 14.5C15.8044 14.5 15.8076 14.5 15.8107 14.5C15.8139 14.5 15.817 14.5 15.8202 14.5C15.8233 14.5 15.8265 14.5 15.8296 14.5C15.8328 14.5 15.8359 14.5 15.8391 14.5C15.8422 14.5 15.8454 14.5 15.8485 14.5C15.8517 14.5 15.8548 14.5 15.858 14.5C15.8611 14.5 15.8643 14.5 15.8674 14.5C15.8706 14.5 15.8737 14.5 15.8769 14.5C15.88 14.5 15.8832 14.5 15.8863 14.5C15.8895 14.5 15.8926 14.5 15.8958 14.5C15.8989 14.5 15.9021 14.5 15.9052 14.5C15.9084 14.5 15.9115 14.5 15.9147 14.5C15.9178 14.5 15.921 14.5 15.9242 14.5C15.9273 14.5 15.9305 14.5 15.9336 14.5C15.9368 14.5 15.9399 14.5 15.9431 14.5C15.9462 14.5 15.9494 14.5 15.9525 14.5C15.9557 14.5 15.9588 14.5 15.962 14.5C15.9651 14.5 15.9683 14.5 15.9714 14.5C15.9746 14.5 15.9778 14.5 15.9809 14.5C15.9841 14.5 15.9872 14.5 15.9904 14.5C15.9935 14.5 15.9967 14.5 15.9998 14.5C16.003 14.5 16.0061 14.5 16.0093 14.5C16.0124 14.5 16.0156 14.5 16.0188 14.5C16.0219 14.5 16.0251 14.5 16.0282 14.5C16.0314 14.5 16.0345 14.5 16.0377 14.5C16.0408 14.5 16.044 14.5 16.0471 14.5C16.0503 14.5 16.0534 14.5 16.0566 14.5C16.0598 14.5 16.0629 14.5 16.0661 14.5C16.0692 14.5 16.0724 14.5 16.0755 14.5C16.0787 14.5 16.0818 14.5 16.085 14.5C16.0881 14.5 16.0913 14.5 16.0944 14.5C16.0976 14.5 16.1008 14.5 16.1039 14.5C16.1071 14.5 16.1102 14.5 16.1134 14.5C16.1165 14.5 16.1197 14.5 16.1228 14.5C16.126 14.5 16.1291 14.5 16.1323 14.5C16.1354 14.5 16.1386 14.5 16.1417 14.5C16.1449 14.5 16.148 14.5 16.1512 14.5C16.1544 14.5 16.1575 14.5 16.1607 14.5C16.1638 14.5 16.167 14.5 16.1701 14.5C16.1733 14.5 16.1764 14.5 16.1796 14.5C16.1827 14.5 16.1859 14.5 16.189 14.5C16.1922 14.5 16.1953 14.5 16.1985 14.5C16.2016 14.5 16.2048 14.5 16.2079 14.5C16.2111 14.5 16.2142 14.5 16.2174 14.5C16.2205 14.5 16.2237 14.5 16.2268 14.5C16.23 14.5 16.2331 14.5 16.2363 14.5C16.2394 14.5 16.2426 14.5 16.2457 14.5C16.2489 14.5 16.252 14.5 16.2552 14.5C16.2583 14.5 16.2615 14.5 16.2646 14.5C16.2678 14.5 16.2709 14.5 16.2741 14.5C16.2772 14.5 16.2804 14.5 16.2835 14.5C16.2867 14.5 16.2898 14.5 16.293 14.5C16.2961 14.5 16.2993 14.5 16.3024 14.5C16.3056 14.5 16.3087 14.5 16.3118 14.5C16.315 14.5 16.3181 14.5 16.3213 14.5C16.3244 14.5 16.3276 14.5 16.3307 14.5C16.3339 14.5 16.337 14.5 16.3402 14.5C16.3433 14.5 16.3464 14.5 16.3496 14.5C16.3527 14.5 16.3559 14.5 16.359 14.5C16.3622 14.5 16.3653 14.5 16.3685 14.5C16.3716 14.5 16.3747 14.5 16.3779 14.5C16.381 14.5 16.3842 14.5 16.3873 14.5C16.3904 14.5 16.3936 14.5 16.3967 14.5C16.3999 14.5 16.403 14.5 16.4062 14.5C16.4093 14.5 16.4124 14.5 16.4156 14.5C16.4187 14.5 16.4219 14.5 16.425 14.5C16.4281 14.5 16.4313 14.5 16.4344 14.5C16.4375 14.5 16.4407 14.5 16.4438 14.5C16.447 14.5 16.4501 14.5 16.4532 14.5C16.4564 14.5 16.4595 14.5 16.4626 14.5C16.4658 14.5 16.4689 14.5 16.472 14.5C16.4752 14.5 16.4783 14.5 16.4814 14.5C16.4846 14.5 16.4877 14.5 16.4908 14.5C16.494 14.5 16.4971 14.5 16.5002 14.5C16.5034 14.5 16.5065 14.5 16.5096 14.5C16.5128 14.5 16.5159 14.5 16.519 14.5C16.5222 14.5 16.5253 14.5 16.5284 14.5C16.5316 14.5 16.5347 14.5 16.5378 14.5C16.5409 14.5 16.5441 14.5 16.5472 14.5C16.5503 14.5 16.5535 14.5 16.5566 14.5C16.5597 14.5 16.5628 14.5 16.566 14.5C16.5691 14.5 16.5722 14.5 16.5753 14.5C16.5785 14.5 16.5816 14.5 16.5847 14.5C16.5878 14.5 16.591 14.5 16.5941 14.5C16.5972 14.5 16.6003 14.5 16.6034 14.5C16.6066 14.5 16.6097 14.5 16.6128 14.5C16.6159 14.5 16.619 14.5 16.6222 14.5C16.6253 14.5 16.6284 14.5 16.6315 14.5C16.6346 14.5 16.6378 14.5 16.6409 14.5C16.644 14.5 16.6471 14.5 16.6502 14.5C16.6533 14.5 16.6565 14.5 16.6596 14.5C16.6627 14.5 16.6658 14.5 16.6689 14.5C16.672 14.5 16.6751 14.5 16.6783 14.5C16.6814 14.5 16.6845 14.5 16.6876 14.5C16.6907 14.5 16.6938 14.5 16.6969 14.5C16.7 14.5 16.7031 14.5 16.7063 14.5C16.7094 14.5 16.7125 14.5 16.7156 14.5C16.7187 14.5 16.7218 14.5 16.7249 14.5C16.728 14.5 16.7311 14.5 16.7342 14.5C16.7373 14.5 16.7404 14.5 16.7435 14.5C16.7466 14.5 16.7497 14.5 16.7528 14.5C16.7559 14.5 16.759 14.5 16.7621 14.5C16.7652 14.5 16.7683 14.5 16.7714 14.5C16.7745 14.5 16.7776 14.5 16.7807 14.5C16.7838 14.5 16.7869 14.5 16.79 14.5C16.7931 14.5 16.7962 14.5 16.7993 14.5C16.8024 14.5 16.8055 14.5 16.8086 14.5C16.8117 14.5 16.8148 14.5 16.8179 14.5C16.821 14.5 16.8241 14.5 16.8271 14.5C16.8302 14.5 16.8333 14.5 16.8364 14.5C16.8395 14.5 16.8426 14.5 16.8457 14.5C16.8488 14.5 16.8519 14.5 16.8549 14.5C16.858 14.5 16.8611 14.5 16.8642 14.5C16.8673 14.5 16.8704 14.5 16.8735 14.5C16.8765 14.5 16.8796 14.5 16.8827 14.5C16.8858 14.5 16.8889 14.5 16.8919 14.5C16.895 14.5 16.8981 14.5 16.9012 14.5C16.9043 14.5 16.9073 14.5 16.9104 14.5C16.9135 14.5 16.9166 14.5 16.9196 14.5C16.9227 14.5 16.9258 14.5 16.9289 14.5C16.9319 14.5 16.935 14.5 16.9381 14.5C16.9411 14.5 16.9442 14.5 16.9473 14.5C16.9504 14.5 16.9534 14.5 16.9565 14.5C16.9596 14.5 16.9626 14.5 16.9657 14.5C16.9688 14.5 16.9718 14.5 16.9749 14.5C16.978 14.5 16.981 14.5 16.9841 14.5C16.9871 14.5 16.9902 14.5 16.9933 14.5C16.9963 14.5 16.9994 14.5 17.0024 14.5C17.0055 14.5 17.0086 14.5 17.0116 14.5C17.0147 14.5 17.0177 14.5 17.0208 14.5C17.0238 14.5 17.0269 14.5 17.0299 14.5C17.033 14.5 17.0361 14.5 17.0391 14.5C17.0422 14.5 17.0452 14.5 17.0483 14.5C17.0513 14.5 17.0544 14.5 17.0574 14.5C17.0604 14.5 17.0635 14.5 17.0665 14.5C17.0696 14.5 17.0726 14.5 17.0757 14.5C17.0787 14.5 17.0818 14.5 17.0848 14.5C17.0878 14.5 17.0909 14.5 17.0939 14.5C17.097 14.5 17.1 14.5 17.103 14.5C17.1061 14.5 17.1091 14.5 17.1121 14.5C17.1152 14.5 17.1182 14.5 17.1213 14.5C17.1243 14.5 17.1273 14.5 17.1303 14.5C17.1334 14.5 17.1364 14.5 17.1394 14.5C17.1425 14.5 17.1455 14.5 17.1485 14.5C17.1516 14.5 17.1546 14.5 17.1576 14.5C17.1606 14.5 17.1636 14.5 17.1667 14.5C17.1697 14.5 17.1727 14.5 17.1757 14.5C17.1788 14.5 17.1818 14.5 17.1848 14.5C17.1878 14.5 17.1908 14.5 17.1938 14.5C17.1969 14.5 17.1999 14.5 17.2029 14.5C17.2059 14.5 17.2089 14.5 17.2119 14.5C17.2149 14.5 17.218 14.5 17.221 14.5C17.224 14.5 17.227 14.5 17.23 14.5C17.233 14.5 17.236 14.5 17.239 14.5C17.242 14.5 17.245 14.5 17.248 14.5C17.251 14.5 17.254 14.5 17.257 14.5C17.26 14.5 17.263 14.5 17.266 14.5C17.269 14.5 17.272 14.5 17.275 14.5C17.278 14.5 17.281 14.5 17.284 14.5C17.287 14.5 17.29 14.5 17.293 14.5C17.296 14.5 17.2989 14.5 17.3019 14.5C17.3049 14.5 17.3079 14.5 17.3109 14.5C17.3139 14.5 17.3169 14.5 17.3199 14.5C17.3228 14.5 17.3258 14.5 17.3288 14.5C17.3318 14.5 17.3348 14.5 17.3377 14.5C17.3407 14.5 17.3437 14.5 17.3467 14.5C17.3496 14.5 17.3526 14.5 17.3556 14.5C17.3586 14.5 17.3615 14.5 17.3645 14.5C17.3675 14.5 17.3704 14.5 17.3734 14.5C17.3764 14.5 17.3794 14.5 17.3823 14.5C17.3853 14.5 17.3882 14.5 17.3912 14.5C17.3942 14.5 17.3971 14.5 17.4001 14.5C17.4031 14.5 17.406 14.5 17.409 14.5C17.4119 14.5 17.4149 14.5 17.4178 14.5C17.4208 14.5 17.4238 14.5 17.4267 14.5C17.4297 14.5 17.4326 14.5 17.4356 14.5C17.4385 14.5 17.4415 14.5 17.4444 14.5C17.4474 14.5 17.4503 14.5 17.4532 14.5C17.4562 14.5 17.4591 14.5 17.4621 14.5C17.465 14.5 17.468 14.5 17.4709 14.5C17.4738 14.5 17.4768 14.5 17.4797 14.5C17.4826 14.5 17.4856 14.5 17.4885 14.5C17.4914 14.5 17.4944 14.5 17.4973 14.5C17.5002 14.5 17.5032 14.5 17.5061 14.5C17.509 14.5 17.5119 14.5 17.5149 14.5C17.5178 14.5 17.5207 14.5 17.5236 14.5C17.5266 14.5 17.5295 14.5 17.5324 14.5C17.5353 14.5 17.5382 14.5 17.5412 14.5C17.5441 14.5 17.547 14.5 17.5499 14.5C17.5528 14.5 17.5557 14.5 17.5586 14.5C17.5615 14.5 17.5644 14.5 17.5674 14.5C17.5703 14.5 17.5732 14.5 17.5761 14.5C17.579 14.5 17.5819 14.5 17.5848 14.5C17.5877 14.5 17.5906 14.5 17.5935 14.5C17.5964 14.5 17.5993 14.5 17.6022 14.5C17.6051 14.5 17.608 14.5 17.6109 14.5C17.6137 14.5 17.6166 14.5 17.6195 14.5C17.6224 14.5 17.6253 14.5 17.6282 14.5C17.6311 14.5 17.634 14.5 17.6368 14.5C17.6397 14.5 17.6426 14.5 17.6455 14.5C17.6484 14.5 17.6512 14.5 17.6541 14.5C17.657 14.5 17.6599 14.5 17.6627 14.5C17.6656 14.5 17.6685 14.5 17.6714 14.5C17.6742 14.5 17.6771 14.5 17.68 14.5C17.6828 14.5 17.6857 14.5 17.6886 14.5C17.6914 14.5 17.6943 14.5 17.6971 14.5C17.7 14.5 17.7029 14.5 17.7057 14.5C17.7086 14.5 17.7114 14.5 17.7143 14.5C17.7171 14.5 17.72 14.5 17.7229 14.5C17.7257 14.5 17.7286 14.5 17.7314 14.5C17.7342 14.5 17.7371 14.5 17.7399 14.5C17.7428 14.5 17.7456 14.5 17.7485 14.5C17.7513 14.5 17.7541 14.5 17.757 14.5C17.7598 14.5 17.7627 14.5 17.7655 14.5C17.7683 14.5 17.7712 14.5 17.774 14.5C17.7768 14.5 17.7796 14.5 17.7825 14.5C17.7853 14.5 17.7881 14.5 17.791 14.5C17.7938 14.5 17.7966 14.5 17.7994 14.5C17.8022 14.5 17.8051 14.5 17.8079 14.5C17.8107 14.5 17.8135 14.5 17.8163 14.5C17.8191 14.5 17.8219 14.5 17.8248 14.5C17.8276 14.5 17.8304 14.5 17.8332 14.5C17.836 14.5 17.8388 14.5 17.8416 14.5C17.8444 14.5 17.8472 14.5 17.85 14.5C17.8528 14.5 17.8556 14.5 17.8584 14.5C17.8612 14.5 17.864 14.5 17.8668 14.5C17.8696 14.5 17.8724 14.5 17.8751 14.5C17.8779 14.5 17.8807 14.5 17.8835 14.5C17.8863 14.5 17.8891 14.5 17.8919 14.5C17.8946 14.5 17.8974 14.5 17.9002 14.5C17.903 14.5 17.9058 14.5 17.9085 14.5C17.9113 14.5 17.9141 14.5 17.9168 14.5C17.9196 14.5 17.9224 14.5 17.9251 14.5C17.9279 14.5 17.9307 14.5 17.9334 14.5C17.9362 14.5 17.939 14.5 17.9417 14.5C17.9445 14.5 17.9472 14.5 17.95 14.5C17.9528 14.5 17.9555 14.5 17.9583 14.5C17.961 14.5 17.9638 14.5 17.9665 14.5C17.9693 14.5 17.972 14.5 17.9747 14.5C17.9775 14.5 17.9802 14.5 17.983 14.5C17.9857 14.5 17.9884 14.5 17.9912 14.5C17.9939 14.5 17.9967 14.5 17.9994 14.5C18.0021 14.5 18.0049 14.5 18.0076 14.5C18.0103 14.5 18.013 14.5 18.0158 14.5C18.0185 14.5 18.0212 14.5 18.0239 14.5C18.0266 14.5 18.0294 14.5 18.0321 14.5C18.0348 14.5 18.0375 14.5 18.0402 14.5C18.0429 14.5 18.0457 14.5 18.0484 14.5C18.0511 14.5 18.0538 14.5 18.0565 14.5C18.0592 14.5 18.0619 14.5 18.0646 14.5C18.0673 14.5 18.07 14.5 18.0727 14.5C18.0754 14.5 18.0781 14.5 18.0808 14.5C18.0835 14.5 18.0862 14.5 18.0888 14.5C18.0915 14.5 18.0942 14.5 18.0969 14.5C18.0996 14.5 18.1023 14.5 18.105 14.5C18.1076 14.5 18.1103 14.5 18.113 14.5C18.1157 14.5 18.1183 14.5 18.121 14.5C18.1237 14.5 18.1264 14.5 18.129 14.5C18.1317 14.5 18.1344 14.5 18.137 14.5C18.1397 14.5 18.1423 14.5 18.145 14.5C18.1477 14.5 18.1503 14.5 18.153 14.5C18.1556 14.5 18.1583 14.5 18.1609 14.5C18.1636 14.5 18.1662 14.5 18.1689 14.5C18.1715 14.5 18.1742 14.5 18.1768 14.5C18.1795 14.5 18.1821 14.5 18.1847 14.5C18.1874 14.5 18.19 14.5 18.1927 14.5C18.1953 14.5 18.1979 14.5 18.2005 14.5C18.2032 14.5 18.2058 14.5 18.2084 14.5C18.2111 14.5 18.2137 14.5 18.2163 14.5C18.2189 14.5 18.2215 14.5 18.2242 14.5C18.2268 14.5 18.2294 14.5 18.232 14.5C18.2346 14.5 18.2372 14.5 18.2398 14.5C18.2424 14.5 18.245 14.5 18.2476 14.5C18.2503 14.5 18.2529 14.5 18.2555 14.5C18.2581 14.5 18.2606 14.5 18.2632 14.5C18.2658 14.5 18.2684 14.5 18.271 14.5C18.2736 14.5 18.2762 14.5 18.2788 14.5C18.2814 14.5 18.284 14.5 18.2865 14.5C18.2891 14.5 18.2917 14.5 18.2943 14.5C18.2968 14.5 18.2994 14.5 18.302 14.5C18.3046 14.5 18.3071 14.5 18.3097 14.5C18.3123 14.5 18.3148 14.5 18.3174 14.5C18.32 14.5 18.3225 14.5 18.3251 14.5C18.3276 14.5 18.3302 14.5 18.3327 14.5C18.3353 14.5 18.3379 14.5 18.3404 14.5C18.343 14.5 18.3455 14.5 18.348 14.5C18.3506 14.5 18.3531 14.5 18.3557 14.5C18.3582 14.5 18.3607 14.5 18.3633 14.5C18.3658 14.5 18.3683 14.5 18.3709 14.5C18.3734 14.5 18.3759 14.5 18.3785 14.5C18.381 14.5 18.3835 14.5 18.386 14.5C18.3886 14.5 18.3911 14.5 18.3936 14.5C18.3961 14.5 18.3986 14.5 18.4011 14.5C18.4036 14.5 18.4061 14.5 18.4087 14.5C18.4112 14.5 18.4137 14.5 18.4162 14.5C18.4187 14.5 18.4212 14.5 18.4237 14.5C18.4262 14.5 18.4287 14.5 18.4311 14.5C18.4336 14.5 18.4361 14.5 18.4386 14.5C18.4411 14.5 18.4436 14.5 18.4461 14.5C18.4486 14.5 18.451 14.5 18.4535 14.5C18.456 14.5 18.4585 14.5 18.4609 14.5C18.4634 14.5 18.4659 14.5 18.4683 14.5C18.4708 14.5 18.4733 14.5 18.4757 14.5C18.4782 14.5 18.4807 14.5 18.4831 14.5C18.4856 14.5 18.488 14.5 18.4905 14.5C18.4929 14.5 18.4954 14.5 18.4978 14.5C18.5003 14.5 18.5027 14.5 18.5052 14.5C18.5076 14.5 18.51 14.5 18.5125 14.5C18.5149 14.5 18.5174 14.5 18.5198 14.5C18.5222 14.5 18.5247 14.5 18.5271 14.5C18.5295 14.5 18.5319 14.5 18.5344 14.5C18.5368 14.5 18.5392 14.5 18.5416 14.5C18.544 14.5 18.5464 14.5 18.5489 14.5C18.5513 14.5 18.5537 14.5 18.5561 14.5C18.5585 14.5 18.5609 14.5 18.5633 14.5C18.5657 14.5 18.5681 14.5 18.5705 14.5C18.5729 14.5 18.5753 14.5 18.5777 14.5C18.5801 14.5 18.5825 14.5 18.5848 14.5C18.5872 14.5 18.5896 14.5 18.592 14.5C18.5944 14.5 18.5967 14.5 18.5991 14.5C18.6015 14.5 18.6039 14.5 18.6062 14.5C18.6086 14.5 18.611 14.5 18.6133 14.5C18.6157 14.5 18.6181 14.5 18.6204 14.5C18.6228 14.5 18.6251 14.5 18.6275 14.5C18.6299 14.5 18.6322 14.5 18.6346 14.5C18.6369 14.5 18.6392 14.5 18.6416 14.5C18.6439 14.5 18.6463 14.5 18.6486 14.5C18.6509 14.5 18.6533 14.5 18.6556 14.5C18.6579 14.5 18.6603 14.5 18.6626 14.5C18.6649 14.5 18.6673 14.5 18.6696 14.5C18.6719 14.5 18.6742 14.5 18.6765 14.5C18.6789 14.5 18.6812 14.5 18.6835 14.5C18.6858 14.5 18.6881 14.5 18.6904 14.5C18.6927 14.5 18.695 14.5 18.6973 14.5C18.6996 14.5 18.7019 14.5 18.7042 14.5C18.7065 14.5 18.7088 14.5 18.7111 14.5C18.7134 14.5 18.7156 14.5 18.7179 14.5C18.7202 14.5 18.7225 14.5 18.7248 14.5C18.727 14.5 18.7293 14.5 18.7316 14.5C18.7339 14.5 18.7361 14.5 18.7384 14.5C18.7407 14.5 18.7429 14.5 18.7452 14.5C18.7475 14.5 18.7497 14.5 18.752 14.5C18.7542 14.5 18.7565 14.5 18.7587 14.5C18.761 14.5 18.7632 14.5 18.7655 14.5C18.7677 14.5 18.7699 14.5 18.7722 14.5C18.7744 14.5 18.7767 14.5 18.7789 14.5C18.7811 14.5 18.7833 14.5 18.7856 14.5C18.7878 14.5 18.79 14.5 18.7922 14.5C18.7945 14.5 18.7967 14.5 18.7989 14.5C18.8011 14.5 18.8033 14.5 18.8055 14.5C18.8077 14.5 18.8099 14.5 18.8121 14.5C18.8144 14.5 18.8166 14.5 18.8187 14.5C18.8209 14.5 18.8231 14.5 18.8253 14.5C18.8275 14.5 18.8297 14.5 18.8319 14.5C18.8341 14.5 18.8363 14.5 18.8384 14.5C18.8406 14.5 18.8428 14.5 18.845 14.5C18.8471 14.5 18.8493 14.5 18.8515 14.5C18.8537 14.5 18.8558 14.5 18.858 14.5C18.8601 14.5 18.8623 14.5 18.8645 14.5C18.8666 14.5 18.8688 14.5 18.8709 14.5C18.8731 14.5 18.8752 14.5 18.8774 14.5C18.8795 14.5 18.8816 14.5 18.8838 14.5C18.8859 14.5 18.8881 14.5 18.8902 14.5C18.8923 14.5 18.8944 14.5 18.8966 14.5C18.8987 14.5 18.9008 14.5 18.9029 14.5C18.9051 14.5 18.9072 14.5 18.9093 14.5C18.9114 14.5 18.9135 14.5 18.9156 14.5C18.9177 14.5 18.9198 14.5 18.9219 14.5C18.924 14.5 18.9261 14.5 18.9282 14.5C18.9303 14.5 18.9324 14.5 18.9345 14.5C18.9366 14.5 18.9387 14.5 18.9408 14.5C18.9428 14.5 18.9449 14.5 18.947 14.5C18.9491 14.5 18.9512 14.5 18.9532 14.5C18.9553 14.5 18.9574 14.5 18.9594 14.5C18.9615 14.5 18.9636 14.5 18.9656 14.5C18.9677 14.5 18.9697 14.5 18.9718 14.5C18.9738 14.5 18.9759 14.5 18.9779 14.5C18.98 14.5 18.982 14.5 18.984 14.5C18.9861 14.5 18.9881 14.5 18.9902 14.5C18.9922 14.5 18.9942 14.5 18.9962 14.5C18.9983 14.5 19.0003 14.5 19.0023 14.5C19.0043 14.5 19.0064 14.5 19.0084 14.5C19.0104 14.5 19.0124 14.5 19.0144 14.5C19.0164 14.5 19.0184 14.5 19.0204 14.5C19.0224 14.5 19.0244 14.5 19.0264 14.5C19.0284 14.5 19.0304 14.5 19.0324 14.5C19.0344 14.5 19.0364 14.5 19.0383 14.5C19.0403 14.5 19.0423 14.5 19.0443 14.5C19.0462 14.5 19.0482 14.5 19.0502 14.5C19.0522 14.5 19.0541 14.5 19.0561 14.5C19.058 14.5 19.06 14.5 19.062 14.5C19.0639 14.5 19.0659 14.5 19.0678 14.5C19.0698 14.5 19.0717 14.5 19.0736 14.5C19.0756 14.5 19.0775 14.5 19.0795 14.5C19.0814 14.5 19.0833 14.5 19.0853 14.5C19.0872 14.5 19.0891 14.5 19.091 14.5C19.093 14.5 19.0949 14.5 19.0968 14.5C19.0987 14.5 19.1006 14.5 19.1025 14.5C19.1044 14.5 19.1064 14.5 19.1083 14.5C19.1102 14.5 19.1121 14.5 19.114 14.5C19.1158 14.5 19.1177 14.5 19.1196 14.5C19.1215 14.5 19.1234 14.5 19.1253 14.5C19.1272 14.5 19.129 14.5 19.1309 14.5C19.1328 14.5 19.1347 14.5 19.1365 14.5C19.1384 14.5 19.1403 14.5 19.1421 14.5C19.144 14.5 19.1459 14.5 19.1477 14.5C19.1496 14.5 19.1514 14.5 19.1533 14.5C19.1551 14.5 19.157 14.5 19.1588 14.5C19.1606 14.5 19.1625 14.5 19.1643 14.5C19.1662 14.5 19.168 14.5 19.1698 14.5C19.1716 14.5 19.1735 14.5 19.1753 14.5C19.1771 14.5 19.1789 14.5 19.1807 14.5C19.1826 14.5 19.1844 14.5 19.1862 14.5C19.188 14.5 19.1898 14.5 19.1916 14.5C19.1934 14.5 19.1952 14.5 19.197 14.5C19.1988 14.5 19.2006 14.5 19.2023 14.5C19.2041 14.5 19.2059 14.5 19.2077 14.5C19.2095 14.5 19.2112 14.5 19.213 14.5C19.2148 14.5 19.2166 14.5 19.2183 14.5C19.2201 14.5 19.2219 14.5 19.2236 14.5C19.2254 14.5 19.2271 14.5 19.2289 14.5C19.2306 14.5 19.2324 14.5 19.2341 14.5C19.2359 14.5 19.2376 14.5 19.2393 14.5C19.2411 14.5 19.2428 14.5 19.2445 14.5C19.2463 14.5 19.248 14.5 19.2497 14.5C19.2514 14.5 19.2532 14.5 19.2549 14.5C19.2566 14.5 19.2583 14.5 19.26 14.5C19.2617 14.5 19.2634 14.5 19.2651 14.5C19.2668 14.5 19.2685 14.5 19.2702 14.5C19.2719 14.5 19.2736 14.5 19.2753 14.5C19.277 14.5 19.2787 14.5 19.2803 14.5C19.282 14.5 19.2837 14.5 19.2854 14.5C19.287 14.5 19.2887 14.5 19.2904 14.5C19.292 14.5 19.2937 14.5 19.2954 14.5C19.297 14.5 19.2987 14.5 19.3003 14.5C19.302 14.5 19.3036 14.5 19.3053 14.5C19.3069 14.5 19.3085 14.5 19.3102 14.5C19.3118 14.5 19.3134 14.5 19.3151 14.5C19.3167 14.5 19.3183 14.5 19.3199 14.5C19.3216 14.5 19.3232 14.5 19.3248 14.5C19.3264 14.5 19.328 14.5 19.3296 14.5C19.3312 14.5 19.3328 14.5 19.3344 14.5C19.336 14.5 19.3376 14.5 19.3392 14.5C19.3408 14.5 19.3424 14.5 19.344 14.5C19.3456 14.5 19.3471 14.5 19.3487 14.5C19.3503 14.5 19.3519 14.5 19.3534 14.5C19.355 14.5 19.3566 14.5 19.3581 14.5C19.3597 14.5 19.3612 14.5 19.3628 14.5C19.3643 14.5 19.3659 14.5 19.3674 14.5C19.369 14.5 19.3705 14.5 19.3721 14.5C19.3736 14.5 19.3751 14.5 19.3767 14.5C19.3782 14.5 19.3797 14.5 19.3813 14.5C19.3828 14.5 19.3843 14.5 19.3858 14.5C19.3873 14.5 19.3888 14.5 19.3903 14.5C19.3919 14.5 19.3934 14.5 19.3949 14.5C19.3964 14.5 19.3979 14.5 19.3993 14.5C19.4008 14.5 19.4023 14.5 19.4038 14.5C19.4053 14.5 19.4068 14.5 19.4082 14.5C19.4097 14.5 19.4112 14.5 19.4127 14.5C19.4141 14.5 19.4156 14.5 19.4171 14.5C19.4185 14.5 19.42 14.5 19.4214 14.5C19.4229 14.5 19.4243 14.5 19.4258 14.5C19.4272 14.5 19.4287 14.5 19.4301 14.5C19.4315 14.5 19.433 14.5 19.4344 14.5C19.4358 14.5 19.4373 14.5 19.4387 14.5C19.4401 14.5 19.4415 14.5 19.4429 14.5C19.4444 14.5 19.4458 14.5 19.4472 14.5C19.4486 14.5 19.45 14.5 19.4514 14.5C19.4528 14.5 19.4542 14.5 19.4556 14.5C19.457 14.5 19.4583 14.5 19.4597 14.5C19.4611 14.5 19.4625 14.5 19.4639 14.5C19.4652 14.5 19.4666 14.5 19.468 14.5C19.4693 14.5 19.4707 14.5 19.4721 14.5C19.4734 14.5 19.4748 14.5 19.4761 14.5C19.4775 14.5 19.4788 14.5 19.4802 14.5C19.4815 14.5 19.4828 14.5 19.4842 14.5C19.4855 14.5 19.4868 14.5 19.4882 14.5C19.4895 14.5 19.4908 14.5 19.4921 14.5C19.4935 14.5 19.4948 14.5 19.4961 14.5C19.4974 14.5 19.4987 14.5 19.5 14.5V12.5C19.4987 12.5 19.4974 12.5 19.4961 12.5C19.4948 12.5 19.4935 12.5 19.4921 12.5C19.4908 12.5 19.4895 12.5 19.4882 12.5C19.4868 12.5 19.4855 12.5 19.4842 12.5C19.4828 12.5 19.4815 12.5 19.4802 12.5C19.4788 12.5 19.4775 12.5 19.4761 12.5C19.4748 12.5 19.4734 12.5 19.4721 12.5C19.4707 12.5 19.4693 12.5 19.468 12.5C19.4666 12.5 19.4652 12.5 19.4639 12.5C19.4625 12.5 19.4611 12.5 19.4597 12.5C19.4583 12.5 19.457 12.5 19.4556 12.5C19.4542 12.5 19.4528 12.5 19.4514 12.5C19.45 12.5 19.4486 12.5 19.4472 12.5C19.4458 12.5 19.4444 12.5 19.4429 12.5C19.4415 12.5 19.4401 12.5 19.4387 12.5C19.4373 12.5 19.4358 12.5 19.4344 12.5C19.433 12.5 19.4315 12.5 19.4301 12.5C19.4287 12.5 19.4272 12.5 19.4258 12.5C19.4243 12.5 19.4229 12.5 19.4214 12.5C19.42 12.5 19.4185 12.5 19.4171 12.5C19.4156 12.5 19.4141 12.5 19.4127 12.5C19.4112 12.5 19.4097 12.5 19.4082 12.5C19.4068 12.5 19.4053 12.5 19.4038 12.5C19.4023 12.5 19.4008 12.5 19.3993 12.5C19.3979 12.5 19.3964 12.5 19.3949 12.5C19.3934 12.5 19.3919 12.5 19.3903 12.5C19.3888 12.5 19.3873 12.5 19.3858 12.5C19.3843 12.5 19.3828 12.5 19.3813 12.5C19.3797 12.5 19.3782 12.5 19.3767 12.5C19.3751 12.5 19.3736 12.5 19.3721 12.5C19.3705 12.5 19.369 12.5 19.3674 12.5C19.3659 12.5 19.3643 12.5 19.3628 12.5C19.3612 12.5 19.3597 12.5 19.3581 12.5C19.3566 12.5 19.355 12.5 19.3534 12.5C19.3519 12.5 19.3503 12.5 19.3487 12.5C19.3471 12.5 19.3456 12.5 19.344 12.5C19.3424 12.5 19.3408 12.5 19.3392 12.5C19.3376 12.5 19.336 12.5 19.3344 12.5C19.3328 12.5 19.3312 12.5 19.3296 12.5C19.328 12.5 19.3264 12.5 19.3248 12.5C19.3232 12.5 19.3216 12.5 19.3199 12.5C19.3183 12.5 19.3167 12.5 19.3151 12.5C19.3134 12.5 19.3118 12.5 19.3102 12.5C19.3085 12.5 19.3069 12.5 19.3053 12.5C19.3036 12.5 19.302 12.5 19.3003 12.5C19.2987 12.5 19.297 12.5 19.2954 12.5C19.2937 12.5 19.292 12.5 19.2904 12.5C19.2887 12.5 19.287 12.5 19.2854 12.5C19.2837 12.5 19.282 12.5 19.2803 12.5C19.2787 12.5 19.277 12.5 19.2753 12.5C19.2736 12.5 19.2719 12.5 19.2702 12.5C19.2685 12.5 19.2668 12.5 19.2651 12.5C19.2634 12.5 19.2617 12.5 19.26 12.5C19.2583 12.5 19.2566 12.5 19.2549 12.5C19.2532 12.5 19.2514 12.5 19.2497 12.5C19.248 12.5 19.2463 12.5 19.2445 12.5C19.2428 12.5 19.2411 12.5 19.2393 12.5C19.2376 12.5 19.2359 12.5 19.2341 12.5C19.2324 12.5 19.2306 12.5 19.2289 12.5C19.2271 12.5 19.2254 12.5 19.2236 12.5C19.2219 12.5 19.2201 12.5 19.2183 12.5C19.2166 12.5 19.2148 12.5 19.213 12.5C19.2112 12.5 19.2095 12.5 19.2077 12.5C19.2059 12.5 19.2041 12.5 19.2023 12.5C19.2006 12.5 19.1988 12.5 19.197 12.5C19.1952 12.5 19.1934 12.5 19.1916 12.5C19.1898 12.5 19.188 12.5 19.1862 12.5C19.1844 12.5 19.1826 12.5 19.1807 12.5C19.1789 12.5 19.1771 12.5 19.1753 12.5C19.1735 12.5 19.1716 12.5 19.1698 12.5C19.168 12.5 19.1662 12.5 19.1643 12.5C19.1625 12.5 19.1606 12.5 19.1588 12.5C19.157 12.5 19.1551 12.5 19.1533 12.5C19.1514 12.5 19.1496 12.5 19.1477 12.5C19.1459 12.5 19.144 12.5 19.1421 12.5C19.1403 12.5 19.1384 12.5 19.1365 12.5C19.1347 12.5 19.1328 12.5 19.1309 12.5C19.129 12.5 19.1272 12.5 19.1253 12.5C19.1234 12.5 19.1215 12.5 19.1196 12.5C19.1177 12.5 19.1158 12.5 19.114 12.5C19.1121 12.5 19.1102 12.5 19.1083 12.5C19.1064 12.5 19.1044 12.5 19.1025 12.5C19.1006 12.5 19.0987 12.5 19.0968 12.5C19.0949 12.5 19.093 12.5 19.091 12.5C19.0891 12.5 19.0872 12.5 19.0853 12.5C19.0833 12.5 19.0814 12.5 19.0795 12.5C19.0775 12.5 19.0756 12.5 19.0736 12.5C19.0717 12.5 19.0698 12.5 19.0678 12.5C19.0659 12.5 19.0639 12.5 19.062 12.5C19.06 12.5 19.058 12.5 19.0561 12.5C19.0541 12.5 19.0522 12.5 19.0502 12.5C19.0482 12.5 19.0462 12.5 19.0443 12.5C19.0423 12.5 19.0403 12.5 19.0383 12.5C19.0364 12.5 19.0344 12.5 19.0324 12.5C19.0304 12.5 19.0284 12.5 19.0264 12.5C19.0244 12.5 19.0224 12.5 19.0204 12.5C19.0184 12.5 19.0164 12.5 19.0144 12.5C19.0124 12.5 19.0104 12.5 19.0084 12.5C19.0064 12.5 19.0043 12.5 19.0023 12.5C19.0003 12.5 18.9983 12.5 18.9962 12.5C18.9942 12.5 18.9922 12.5 18.9902 12.5C18.9881 12.5 18.9861 12.5 18.984 12.5C18.982 12.5 18.98 12.5 18.9779 12.5C18.9759 12.5 18.9738 12.5 18.9718 12.5C18.9697 12.5 18.9677 12.5 18.9656 12.5C18.9636 12.5 18.9615 12.5 18.9594 12.5C18.9574 12.5 18.9553 12.5 18.9532 12.5C18.9512 12.5 18.9491 12.5 18.947 12.5C18.9449 12.5 18.9428 12.5 18.9408 12.5C18.9387 12.5 18.9366 12.5 18.9345 12.5C18.9324 12.5 18.9303 12.5 18.9282 12.5C18.9261 12.5 18.924 12.5 18.9219 12.5C18.9198 12.5 18.9177 12.5 18.9156 12.5C18.9135 12.5 18.9114 12.5 18.9093 12.5C18.9072 12.5 18.9051 12.5 18.9029 12.5C18.9008 12.5 18.8987 12.5 18.8966 12.5C18.8944 12.5 18.8923 12.5 18.8902 12.5C18.8881 12.5 18.8859 12.5 18.8838 12.5C18.8816 12.5 18.8795 12.5 18.8774 12.5C18.8752 12.5 18.8731 12.5 18.8709 12.5C18.8688 12.5 18.8666 12.5 18.8645 12.5C18.8623 12.5 18.8601 12.5 18.858 12.5C18.8558 12.5 18.8537 12.5 18.8515 12.5C18.8493 12.5 18.8471 12.5 18.845 12.5C18.8428 12.5 18.8406 12.5 18.8384 12.5C18.8363 12.5 18.8341 12.5 18.8319 12.5C18.8297 12.5 18.8275 12.5 18.8253 12.5C18.8231 12.5 18.8209 12.5 18.8187 12.5C18.8166 12.5 18.8144 12.5 18.8121 12.5C18.8099 12.5 18.8077 12.5 18.8055 12.5C18.8033 12.5 18.8011 12.5 18.7989 12.5C18.7967 12.5 18.7945 12.5 18.7922 12.5C18.79 12.5 18.7878 12.5 18.7856 12.5C18.7833 12.5 18.7811 12.5 18.7789 12.5C18.7767 12.5 18.7744 12.5 18.7722 12.5C18.7699 12.5 18.7677 12.5 18.7655 12.5C18.7632 12.5 18.761 12.5 18.7587 12.5C18.7565 12.5 18.7542 12.5 18.752 12.5C18.7497 12.5 18.7475 12.5 18.7452 12.5C18.7429 12.5 18.7407 12.5 18.7384 12.5C18.7361 12.5 18.7339 12.5 18.7316 12.5C18.7293 12.5 18.727 12.5 18.7248 12.5C18.7225 12.5 18.7202 12.5 18.7179 12.5C18.7156 12.5 18.7134 12.5 18.7111 12.5C18.7088 12.5 18.7065 12.5 18.7042 12.5C18.7019 12.5 18.6996 12.5 18.6973 12.5C18.695 12.5 18.6927 12.5 18.6904 12.5C18.6881 12.5 18.6858 12.5 18.6835 12.5C18.6812 12.5 18.6789 12.5 18.6765 12.5C18.6742 12.5 18.6719 12.5 18.6696 12.5C18.6673 12.5 18.6649 12.5 18.6626 12.5C18.6603 12.5 18.6579 12.5 18.6556 12.5C18.6533 12.5 18.6509 12.5 18.6486 12.5C18.6463 12.5 18.6439 12.5 18.6416 12.5C18.6392 12.5 18.6369 12.5 18.6346 12.5C18.6322 12.5 18.6299 12.5 18.6275 12.5C18.6251 12.5 18.6228 12.5 18.6204 12.5C18.6181 12.5 18.6157 12.5 18.6133 12.5C18.611 12.5 18.6086 12.5 18.6062 12.5C18.6039 12.5 18.6015 12.5 18.5991 12.5C18.5967 12.5 18.5944 12.5 18.592 12.5C18.5896 12.5 18.5872 12.5 18.5848 12.5C18.5825 12.5 18.5801 12.5 18.5777 12.5C18.5753 12.5 18.5729 12.5 18.5705 12.5C18.5681 12.5 18.5657 12.5 18.5633 12.5C18.5609 12.5 18.5585 12.5 18.5561 12.5C18.5537 12.5 18.5513 12.5 18.5489 12.5C18.5464 12.5 18.544 12.5 18.5416 12.5C18.5392 12.5 18.5368 12.5 18.5344 12.5C18.5319 12.5 18.5295 12.5 18.5271 12.5C18.5247 12.5 18.5222 12.5 18.5198 12.5C18.5174 12.5 18.5149 12.5 18.5125 12.5C18.51 12.5 18.5076 12.5 18.5052 12.5C18.5027 12.5 18.5003 12.5 18.4978 12.5C18.4954 12.5 18.4929 12.5 18.4905 12.5C18.488 12.5 18.4856 12.5 18.4831 12.5C18.4807 12.5 18.4782 12.5 18.4757 12.5C18.4733 12.5 18.4708 12.5 18.4683 12.5C18.4659 12.5 18.4634 12.5 18.4609 12.5C18.4585 12.5 18.456 12.5 18.4535 12.5C18.451 12.5 18.4486 12.5 18.4461 12.5C18.4436 12.5 18.4411 12.5 18.4386 12.5C18.4361 12.5 18.4336 12.5 18.4311 12.5C18.4287 12.5 18.4262 12.5 18.4237 12.5C18.4212 12.5 18.4187 12.5 18.4162 12.5C18.4137 12.5 18.4112 12.5 18.4087 12.5C18.4061 12.5 18.4036 12.5 18.4011 12.5C18.3986 12.5 18.3961 12.5 18.3936 12.5C18.3911 12.5 18.3886 12.5 18.386 12.5C18.3835 12.5 18.381 12.5 18.3785 12.5C18.3759 12.5 18.3734 12.5 18.3709 12.5C18.3683 12.5 18.3658 12.5 18.3633 12.5C18.3607 12.5 18.3582 12.5 18.3557 12.5C18.3531 12.5 18.3506 12.5 18.348 12.5C18.3455 12.5 18.343 12.5 18.3404 12.5C18.3379 12.5 18.3353 12.5 18.3327 12.5C18.3302 12.5 18.3276 12.5 18.3251 12.5C18.3225 12.5 18.32 12.5 18.3174 12.5C18.3148 12.5 18.3123 12.5 18.3097 12.5C18.3071 12.5 18.3046 12.5 18.302 12.5C18.2994 12.5 18.2968 12.5 18.2943 12.5C18.2917 12.5 18.2891 12.5 18.2865 12.5C18.284 12.5 18.2814 12.5 18.2788 12.5C18.2762 12.5 18.2736 12.5 18.271 12.5C18.2684 12.5 18.2658 12.5 18.2632 12.5C18.2606 12.5 18.2581 12.5 18.2555 12.5C18.2529 12.5 18.2503 12.5 18.2476 12.5C18.245 12.5 18.2424 12.5 18.2398 12.5C18.2372 12.5 18.2346 12.5 18.232 12.5C18.2294 12.5 18.2268 12.5 18.2242 12.5C18.2215 12.5 18.2189 12.5 18.2163 12.5C18.2137 12.5 18.2111 12.5 18.2084 12.5C18.2058 12.5 18.2032 12.5 18.2005 12.5C18.1979 12.5 18.1953 12.5 18.1927 12.5C18.19 12.5 18.1874 12.5 18.1847 12.5C18.1821 12.5 18.1795 12.5 18.1768 12.5C18.1742 12.5 18.1715 12.5 18.1689 12.5C18.1662 12.5 18.1636 12.5 18.1609 12.5C18.1583 12.5 18.1556 12.5 18.153 12.5C18.1503 12.5 18.1477 12.5 18.145 12.5C18.1423 12.5 18.1397 12.5 18.137 12.5C18.1344 12.5 18.1317 12.5 18.129 12.5C18.1264 12.5 18.1237 12.5 18.121 12.5C18.1183 12.5 18.1157 12.5 18.113 12.5C18.1103 12.5 18.1076 12.5 18.105 12.5C18.1023 12.5 18.0996 12.5 18.0969 12.5C18.0942 12.5 18.0915 12.5 18.0888 12.5C18.0862 12.5 18.0835 12.5 18.0808 12.5C18.0781 12.5 18.0754 12.5 18.0727 12.5C18.07 12.5 18.0673 12.5 18.0646 12.5C18.0619 12.5 18.0592 12.5 18.0565 12.5C18.0538 12.5 18.0511 12.5 18.0484 12.5C18.0457 12.5 18.0429 12.5 18.0402 12.5C18.0375 12.5 18.0348 12.5 18.0321 12.5C18.0294 12.5 18.0266 12.5 18.0239 12.5C18.0212 12.5 18.0185 12.5 18.0158 12.5C18.013 12.5 18.0103 12.5 18.0076 12.5C18.0049 12.5 18.0021 12.5 17.9994 12.5C17.9967 12.5 17.9939 12.5 17.9912 12.5C17.9884 12.5 17.9857 12.5 17.983 12.5C17.9802 12.5 17.9775 12.5 17.9747 12.5C17.972 12.5 17.9693 12.5 17.9665 12.5C17.9638 12.5 17.961 12.5 17.9583 12.5C17.9555 12.5 17.9528 12.5 17.95 12.5C17.9472 12.5 17.9445 12.5 17.9417 12.5C17.939 12.5 17.9362 12.5 17.9334 12.5C17.9307 12.5 17.9279 12.5 17.9251 12.5C17.9224 12.5 17.9196 12.5 17.9168 12.5C17.9141 12.5 17.9113 12.5 17.9085 12.5C17.9058 12.5 17.903 12.5 17.9002 12.5C17.8974 12.5 17.8946 12.5 17.8919 12.5C17.8891 12.5 17.8863 12.5 17.8835 12.5C17.8807 12.5 17.8779 12.5 17.8751 12.5C17.8724 12.5 17.8696 12.5 17.8668 12.5C17.864 12.5 17.8612 12.5 17.8584 12.5C17.8556 12.5 17.8528 12.5 17.85 12.5C17.8472 12.5 17.8444 12.5 17.8416 12.5C17.8388 12.5 17.836 12.5 17.8332 12.5C17.8304 12.5 17.8276 12.5 17.8248 12.5C17.8219 12.5 17.8191 12.5 17.8163 12.5C17.8135 12.5 17.8107 12.5 17.8079 12.5C17.8051 12.5 17.8022 12.5 17.7994 12.5C17.7966 12.5 17.7938 12.5 17.791 12.5C17.7881 12.5 17.7853 12.5 17.7825 12.5C17.7796 12.5 17.7768 12.5 17.774 12.5C17.7712 12.5 17.7683 12.5 17.7655 12.5C17.7627 12.5 17.7598 12.5 17.757 12.5C17.7541 12.5 17.7513 12.5 17.7485 12.5C17.7456 12.5 17.7428 12.5 17.7399 12.5C17.7371 12.5 17.7342 12.5 17.7314 12.5C17.7286 12.5 17.7257 12.5 17.7229 12.5C17.72 12.5 17.7171 12.5 17.7143 12.5C17.7114 12.5 17.7086 12.5 17.7057 12.5C17.7029 12.5 17.7 12.5 17.6971 12.5C17.6943 12.5 17.6914 12.5 17.6886 12.5C17.6857 12.5 17.6828 12.5 17.68 12.5C17.6771 12.5 17.6742 12.5 17.6714 12.5C17.6685 12.5 17.6656 12.5 17.6627 12.5C17.6599 12.5 17.657 12.5 17.6541 12.5C17.6512 12.5 17.6484 12.5 17.6455 12.5C17.6426 12.5 17.6397 12.5 17.6368 12.5C17.634 12.5 17.6311 12.5 17.6282 12.5C17.6253 12.5 17.6224 12.5 17.6195 12.5C17.6166 12.5 17.6137 12.5 17.6109 12.5C17.608 12.5 17.6051 12.5 17.6022 12.5C17.5993 12.5 17.5964 12.5 17.5935 12.5C17.5906 12.5 17.5877 12.5 17.5848 12.5C17.5819 12.5 17.579 12.5 17.5761 12.5C17.5732 12.5 17.5703 12.5 17.5674 12.5C17.5644 12.5 17.5615 12.5 17.5586 12.5C17.5557 12.5 17.5528 12.5 17.5499 12.5C17.547 12.5 17.5441 12.5 17.5412 12.5C17.5382 12.5 17.5353 12.5 17.5324 12.5C17.5295 12.5 17.5266 12.5 17.5236 12.5C17.5207 12.5 17.5178 12.5 17.5149 12.5C17.5119 12.5 17.509 12.5 17.5061 12.5C17.5032 12.5 17.5002 12.5 17.4973 12.5C17.4944 12.5 17.4914 12.5 17.4885 12.5C17.4856 12.5 17.4826 12.5 17.4797 12.5C17.4768 12.5 17.4738 12.5 17.4709 12.5C17.468 12.5 17.465 12.5 17.4621 12.5C17.4591 12.5 17.4562 12.5 17.4532 12.5C17.4503 12.5 17.4474 12.5 17.4444 12.5C17.4415 12.5 17.4385 12.5 17.4356 12.5C17.4326 12.5 17.4297 12.5 17.4267 12.5C17.4238 12.5 17.4208 12.5 17.4178 12.5C17.4149 12.5 17.4119 12.5 17.409 12.5C17.406 12.5 17.4031 12.5 17.4001 12.5C17.3971 12.5 17.3942 12.5 17.3912 12.5C17.3882 12.5 17.3853 12.5 17.3823 12.5C17.3794 12.5 17.3764 12.5 17.3734 12.5C17.3704 12.5 17.3675 12.5 17.3645 12.5C17.3615 12.5 17.3586 12.5 17.3556 12.5C17.3526 12.5 17.3496 12.5 17.3467 12.5C17.3437 12.5 17.3407 12.5 17.3377 12.5C17.3348 12.5 17.3318 12.5 17.3288 12.5C17.3258 12.5 17.3228 12.5 17.3199 12.5C17.3169 12.5 17.3139 12.5 17.3109 12.5C17.3079 12.5 17.3049 12.5 17.3019 12.5C17.2989 12.5 17.296 12.5 17.293 12.5C17.29 12.5 17.287 12.5 17.284 12.5C17.281 12.5 17.278 12.5 17.275 12.5C17.272 12.5 17.269 12.5 17.266 12.5C17.263 12.5 17.26 12.5 17.257 12.5C17.254 12.5 17.251 12.5 17.248 12.5C17.245 12.5 17.242 12.5 17.239 12.5C17.236 12.5 17.233 12.5 17.23 12.5C17.227 12.5 17.224 12.5 17.221 12.5C17.218 12.5 17.2149 12.5 17.2119 12.5C17.2089 12.5 17.2059 12.5 17.2029 12.5C17.1999 12.5 17.1969 12.5 17.1938 12.5C17.1908 12.5 17.1878 12.5 17.1848 12.5C17.1818 12.5 17.1788 12.5 17.1757 12.5C17.1727 12.5 17.1697 12.5 17.1667 12.5C17.1636 12.5 17.1606 12.5 17.1576 12.5C17.1546 12.5 17.1516 12.5 17.1485 12.5C17.1455 12.5 17.1425 12.5 17.1394 12.5C17.1364 12.5 17.1334 12.5 17.1303 12.5C17.1273 12.5 17.1243 12.5 17.1213 12.5C17.1182 12.5 17.1152 12.5 17.1121 12.5C17.1091 12.5 17.1061 12.5 17.103 12.5C17.1 12.5 17.097 12.5 17.0939 12.5C17.0909 12.5 17.0878 12.5 17.0848 12.5C17.0818 12.5 17.0787 12.5 17.0757 12.5C17.0726 12.5 17.0696 12.5 17.0665 12.5C17.0635 12.5 17.0604 12.5 17.0574 12.5C17.0544 12.5 17.0513 12.5 17.0483 12.5C17.0452 12.5 17.0422 12.5 17.0391 12.5C17.0361 12.5 17.033 12.5 17.0299 12.5C17.0269 12.5 17.0238 12.5 17.0208 12.5C17.0177 12.5 17.0147 12.5 17.0116 12.5C17.0086 12.5 17.0055 12.5 17.0024 12.5C16.9994 12.5 16.9963 12.5 16.9933 12.5C16.9902 12.5 16.9871 12.5 16.9841 12.5C16.981 12.5 16.978 12.5 16.9749 12.5C16.9718 12.5 16.9688 12.5 16.9657 12.5C16.9626 12.5 16.9596 12.5 16.9565 12.5C16.9534 12.5 16.9504 12.5 16.9473 12.5C16.9442 12.5 16.9411 12.5 16.9381 12.5C16.935 12.5 16.9319 12.5 16.9289 12.5C16.9258 12.5 16.9227 12.5 16.9196 12.5C16.9166 12.5 16.9135 12.5 16.9104 12.5C16.9073 12.5 16.9043 12.5 16.9012 12.5C16.8981 12.5 16.895 12.5 16.8919 12.5C16.8889 12.5 16.8858 12.5 16.8827 12.5C16.8796 12.5 16.8765 12.5 16.8735 12.5C16.8704 12.5 16.8673 12.5 16.8642 12.5C16.8611 12.5 16.858 12.5 16.8549 12.5C16.8519 12.5 16.8488 12.5 16.8457 12.5C16.8426 12.5 16.8395 12.5 16.8364 12.5C16.8333 12.5 16.8302 12.5 16.8271 12.5C16.8241 12.5 16.821 12.5 16.8179 12.5C16.8148 12.5 16.8117 12.5 16.8086 12.5C16.8055 12.5 16.8024 12.5 16.7993 12.5C16.7962 12.5 16.7931 12.5 16.79 12.5C16.7869 12.5 16.7838 12.5 16.7807 12.5C16.7776 12.5 16.7745 12.5 16.7714 12.5C16.7683 12.5 16.7652 12.5 16.7621 12.5C16.759 12.5 16.7559 12.5 16.7528 12.5C16.7497 12.5 16.7466 12.5 16.7435 12.5C16.7404 12.5 16.7373 12.5 16.7342 12.5C16.7311 12.5 16.728 12.5 16.7249 12.5C16.7218 12.5 16.7187 12.5 16.7156 12.5C16.7125 12.5 16.7094 12.5 16.7063 12.5C16.7031 12.5 16.7 12.5 16.6969 12.5C16.6938 12.5 16.6907 12.5 16.6876 12.5C16.6845 12.5 16.6814 12.5 16.6783 12.5C16.6751 12.5 16.672 12.5 16.6689 12.5C16.6658 12.5 16.6627 12.5 16.6596 12.5C16.6565 12.5 16.6533 12.5 16.6502 12.5C16.6471 12.5 16.644 12.5 16.6409 12.5C16.6378 12.5 16.6346 12.5 16.6315 12.5C16.6284 12.5 16.6253 12.5 16.6222 12.5C16.619 12.5 16.6159 12.5 16.6128 12.5C16.6097 12.5 16.6066 12.5 16.6034 12.5C16.6003 12.5 16.5972 12.5 16.5941 12.5C16.591 12.5 16.5878 12.5 16.5847 12.5C16.5816 12.5 16.5785 12.5 16.5753 12.5C16.5722 12.5 16.5691 12.5 16.566 12.5C16.5628 12.5 16.5597 12.5 16.5566 12.5C16.5535 12.5 16.5503 12.5 16.5472 12.5C16.5441 12.5 16.5409 12.5 16.5378 12.5C16.5347 12.5 16.5316 12.5 16.5284 12.5C16.5253 12.5 16.5222 12.5 16.519 12.5C16.5159 12.5 16.5128 12.5 16.5096 12.5C16.5065 12.5 16.5034 12.5 16.5002 12.5C16.4971 12.5 16.494 12.5 16.4908 12.5C16.4877 12.5 16.4846 12.5 16.4814 12.5C16.4783 12.5 16.4752 12.5 16.472 12.5C16.4689 12.5 16.4658 12.5 16.4626 12.5C16.4595 12.5 16.4564 12.5 16.4532 12.5C16.4501 12.5 16.447 12.5 16.4438 12.5C16.4407 12.5 16.4375 12.5 16.4344 12.5C16.4313 12.5 16.4281 12.5 16.425 12.5C16.4219 12.5 16.4187 12.5 16.4156 12.5C16.4124 12.5 16.4093 12.5 16.4062 12.5C16.403 12.5 16.3999 12.5 16.3967 12.5C16.3936 12.5 16.3904 12.5 16.3873 12.5C16.3842 12.5 16.381 12.5 16.3779 12.5C16.3747 12.5 16.3716 12.5 16.3685 12.5C16.3653 12.5 16.3622 12.5 16.359 12.5C16.3559 12.5 16.3527 12.5 16.3496 12.5C16.3464 12.5 16.3433 12.5 16.3402 12.5C16.337 12.5 16.3339 12.5 16.3307 12.5C16.3276 12.5 16.3244 12.5 16.3213 12.5C16.3181 12.5 16.315 12.5 16.3118 12.5C16.3087 12.5 16.3056 12.5 16.3024 12.5C16.2993 12.5 16.2961 12.5 16.293 12.5C16.2898 12.5 16.2867 12.5 16.2835 12.5C16.2804 12.5 16.2772 12.5 16.2741 12.5C16.2709 12.5 16.2678 12.5 16.2646 12.5C16.2615 12.5 16.2583 12.5 16.2552 12.5C16.252 12.5 16.2489 12.5 16.2457 12.5C16.2426 12.5 16.2394 12.5 16.2363 12.5C16.2331 12.5 16.23 12.5 16.2268 12.5C16.2237 12.5 16.2205 12.5 16.2174 12.5C16.2142 12.5 16.2111 12.5 16.2079 12.5C16.2048 12.5 16.2016 12.5 16.1985 12.5C16.1953 12.5 16.1922 12.5 16.189 12.5C16.1859 12.5 16.1827 12.5 16.1796 12.5C16.1764 12.5 16.1733 12.5 16.1701 12.5C16.167 12.5 16.1638 12.5 16.1607 12.5C16.1575 12.5 16.1544 12.5 16.1512 12.5C16.148 12.5 16.1449 12.5 16.1417 12.5C16.1386 12.5 16.1354 12.5 16.1323 12.5C16.1291 12.5 16.126 12.5 16.1228 12.5C16.1197 12.5 16.1165 12.5 16.1134 12.5C16.1102 12.5 16.1071 12.5 16.1039 12.5C16.1008 12.5 16.0976 12.5 16.0944 12.5C16.0913 12.5 16.0881 12.5 16.085 12.5C16.0818 12.5 16.0787 12.5 16.0755 12.5C16.0724 12.5 16.0692 12.5 16.0661 12.5C16.0629 12.5 16.0598 12.5 16.0566 12.5C16.0534 12.5 16.0503 12.5 16.0471 12.5C16.044 12.5 16.0408 12.5 16.0377 12.5C16.0345 12.5 16.0314 12.5 16.0282 12.5C16.0251 12.5 16.0219 12.5 16.0188 12.5C16.0156 12.5 16.0124 12.5 16.0093 12.5C16.0061 12.5 16.003 12.5 15.9998 12.5C15.9967 12.5 15.9935 12.5 15.9904 12.5C15.9872 12.5 15.9841 12.5 15.9809 12.5C15.9778 12.5 15.9746 12.5 15.9714 12.5C15.9683 12.5 15.9651 12.5 15.962 12.5C15.9588 12.5 15.9557 12.5 15.9525 12.5C15.9494 12.5 15.9462 12.5 15.9431 12.5C15.9399 12.5 15.9368 12.5 15.9336 12.5C15.9305 12.5 15.9273 12.5 15.9242 12.5C15.921 12.5 15.9178 12.5 15.9147 12.5C15.9115 12.5 15.9084 12.5 15.9052 12.5C15.9021 12.5 15.8989 12.5 15.8958 12.5C15.8926 12.5 15.8895 12.5 15.8863 12.5C15.8832 12.5 15.88 12.5 15.8769 12.5C15.8737 12.5 15.8706 12.5 15.8674 12.5C15.8643 12.5 15.8611 12.5 15.858 12.5C15.8548 12.5 15.8517 12.5 15.8485 12.5C15.8454 12.5 15.8422 12.5 15.8391 12.5C15.8359 12.5 15.8328 12.5 15.8296 12.5C15.8265 12.5 15.8233 12.5 15.8202 12.5C15.817 12.5 15.8139 12.5 15.8107 12.5C15.8076 12.5 15.8044 12.5 15.8013 12.5C15.7981 12.5 15.795 12.5 15.7918 12.5C15.7887 12.5 15.7855 12.5 15.7824 12.5C15.7792 12.5 15.7761 12.5 15.7729 12.5C15.7698 12.5 15.7666 12.5 15.7635 12.5C15.7604 12.5 15.7572 12.5 15.7541 12.5C15.7509 12.5 15.7478 12.5 15.7446 12.5C15.7415 12.5 15.7383 12.5 15.7352 12.5C15.732 12.5 15.7289 12.5 15.7258 12.5C15.7226 12.5 15.7195 12.5 15.7163 12.5C15.7132 12.5 15.71 12.5 15.7069 12.5C15.7038 12.5 15.7006 12.5 15.6975 12.5C15.6943 12.5 15.6912 12.5 15.688 12.5C15.6849 12.5 15.6818 12.5 15.6786 12.5C15.6755 12.5 15.6723 12.5 15.6692 12.5C15.6661 12.5 15.6629 12.5 15.6598 12.5C15.6566 12.5 15.6535 12.5 15.6504 12.5C15.6472 12.5 15.6441 12.5 15.6409 12.5C15.6378 12.5 15.6347 12.5 15.6315 12.5C15.6284 12.5 15.6252 12.5 15.6221 12.5C15.619 12.5 15.6158 12.5 15.6127 12.5C15.6096 12.5 15.6064 12.5 15.6033 12.5C15.6002 12.5 15.597 12.5 15.5939 12.5C15.5908 12.5 15.5876 12.5 15.5845 12.5C15.5814 12.5 15.5782 12.5 15.5751 12.5C15.572 12.5 15.5688 12.5 15.5657 12.5C15.5626 12.5 15.5594 12.5 15.5563 12.5C15.5532 12.5 15.55 12.5 15.5469 12.5C15.5438 12.5 15.5407 12.5 15.5375 12.5C15.5344 12.5 15.5313 12.5 15.5281 12.5C15.525 12.5 15.5219 12.5 15.5188 12.5C15.5156 12.5 15.5125 12.5 15.5094 12.5C15.5063 12.5 15.5031 12.5 15.5 12.5V14.5ZM19.5 14.5C19.6733 14.5 19.9555 14.5602 20.1657 14.7115C20.3249 14.8261 20.5 15.0259 20.5 15.5H22.5C22.5 14.3741 22.0085 13.5739 21.3343 13.0885C20.7111 12.6398 19.9934 12.5 19.5 12.5V14.5ZM20.5 15.5C20.5 15.5031 20.5 15.5063 20.5 15.5094C20.5 15.5125 20.5 15.5156 20.5 15.5188C20.5 15.5219 20.5 15.525 20.5 15.5281C20.5 15.5313 20.5 15.5344 20.5 15.5375C20.5 15.5407 20.5 15.5438 20.5 15.5469C20.5 15.55 20.5 15.5532 20.5 15.5563C20.5 15.5594 20.5 15.5626 20.5 15.5657C20.5 15.5688 20.5 15.572 20.5 15.5751C20.5 15.5782 20.5 15.5814 20.5 15.5845C20.5 15.5876 20.5 15.5908 20.5 15.5939C20.5 15.597 20.5 15.6002 20.5 15.6033C20.5 15.6064 20.5 15.6096 20.5 15.6127C20.5 15.6158 20.5 15.619 20.5 15.6221C20.5 15.6252 20.5 15.6284 20.5 15.6315C20.5 15.6347 20.5 15.6378 20.5 15.6409C20.5 15.6441 20.5 15.6472 20.5 15.6504C20.5 15.6535 20.5 15.6566 20.5 15.6598C20.5 15.6629 20.5 15.6661 20.5 15.6692C20.5 15.6723 20.5 15.6755 20.5 15.6786C20.5 15.6818 20.5 15.6849 20.5 15.688C20.5 15.6912 20.5 15.6943 20.5 15.6975C20.5 15.7006 20.5 15.7038 20.5 15.7069C20.5 15.71 20.5 15.7132 20.5 15.7163C20.5 15.7195 20.5 15.7226 20.5 15.7258C20.5 15.7289 20.5 15.732 20.5 15.7352C20.5 15.7383 20.5 15.7415 20.5 15.7446C20.5 15.7478 20.5 15.7509 20.5 15.7541C20.5 15.7572 20.5 15.7604 20.5 15.7635C20.5 15.7666 20.5 15.7698 20.5 15.7729C20.5 15.7761 20.5 15.7792 20.5 15.7824C20.5 15.7855 20.5 15.7887 20.5 15.7918C20.5 15.795 20.5 15.7981 20.5 15.8013C20.5 15.8044 20.5 15.8076 20.5 15.8107C20.5 15.8139 20.5 15.817 20.5 15.8202C20.5 15.8233 20.5 15.8265 20.5 15.8296C20.5 15.8328 20.5 15.8359 20.5 15.8391C20.5 15.8422 20.5 15.8454 20.5 15.8485C20.5 15.8517 20.5 15.8548 20.5 15.858C20.5 15.8611 20.5 15.8643 20.5 15.8674C20.5 15.8706 20.5 15.8737 20.5 15.8769C20.5 15.88 20.5 15.8832 20.5 15.8863C20.5 15.8895 20.5 15.8926 20.5 15.8958C20.5 15.8989 20.5 15.9021 20.5 15.9052C20.5 15.9084 20.5 15.9115 20.5 15.9147C20.5 15.9178 20.5 15.921 20.5 15.9242C20.5 15.9273 20.5 15.9305 20.5 15.9336C20.5 15.9368 20.5 15.9399 20.5 15.9431C20.5 15.9462 20.5 15.9494 20.5 15.9525C20.5 15.9557 20.5 15.9588 20.5 15.962C20.5 15.9651 20.5 15.9683 20.5 15.9714C20.5 15.9746 20.5 15.9778 20.5 15.9809C20.5 15.9841 20.5 15.9872 20.5 15.9904C20.5 15.9935 20.5 15.9967 20.5 15.9998C20.5 16.003 20.5 16.0061 20.5 16.0093C20.5 16.0124 20.5 16.0156 20.5 16.0188C20.5 16.0219 20.5 16.0251 20.5 16.0282C20.5 16.0314 20.5 16.0345 20.5 16.0377C20.5 16.0408 20.5 16.044 20.5 16.0471C20.5 16.0503 20.5 16.0534 20.5 16.0566C20.5 16.0598 20.5 16.0629 20.5 16.0661C20.5 16.0692 20.5 16.0724 20.5 16.0755C20.5 16.0787 20.5 16.0818 20.5 16.085C20.5 16.0881 20.5 16.0913 20.5 16.0944C20.5 16.0976 20.5 16.1008 20.5 16.1039C20.5 16.1071 20.5 16.1102 20.5 16.1134C20.5 16.1165 20.5 16.1197 20.5 16.1228C20.5 16.126 20.5 16.1291 20.5 16.1323C20.5 16.1354 20.5 16.1386 20.5 16.1417C20.5 16.1449 20.5 16.148 20.5 16.1512C20.5 16.1544 20.5 16.1575 20.5 16.1607C20.5 16.1638 20.5 16.167 20.5 16.1701C20.5 16.1733 20.5 16.1764 20.5 16.1796C20.5 16.1827 20.5 16.1859 20.5 16.189C20.5 16.1922 20.5 16.1953 20.5 16.1985C20.5 16.2016 20.5 16.2048 20.5 16.2079C20.5 16.2111 20.5 16.2142 20.5 16.2174C20.5 16.2205 20.5 16.2237 20.5 16.2268C20.5 16.23 20.5 16.2331 20.5 16.2363C20.5 16.2394 20.5 16.2426 20.5 16.2457C20.5 16.2489 20.5 16.252 20.5 16.2552C20.5 16.2583 20.5 16.2615 20.5 16.2646C20.5 16.2678 20.5 16.2709 20.5 16.2741C20.5 16.2772 20.5 16.2804 20.5 16.2835C20.5 16.2867 20.5 16.2898 20.5 16.293C20.5 16.2961 20.5 16.2993 20.5 16.3024C20.5 16.3056 20.5 16.3087 20.5 16.3118C20.5 16.315 20.5 16.3181 20.5 16.3213C20.5 16.3244 20.5 16.3276 20.5 16.3307C20.5 16.3339 20.5 16.337 20.5 16.3402C20.5 16.3433 20.5 16.3464 20.5 16.3496C20.5 16.3527 20.5 16.3559 20.5 16.359C20.5 16.3622 20.5 16.3653 20.5 16.3685C20.5 16.3716 20.5 16.3747 20.5 16.3779C20.5 16.381 20.5 16.3842 20.5 16.3873C20.5 16.3904 20.5 16.3936 20.5 16.3967C20.5 16.3999 20.5 16.403 20.5 16.4062C20.5 16.4093 20.5 16.4124 20.5 16.4156C20.5 16.4187 20.5 16.4219 20.5 16.425C20.5 16.4281 20.5 16.4313 20.5 16.4344C20.5 16.4375 20.5 16.4407 20.5 16.4438C20.5 16.447 20.5 16.4501 20.5 16.4532C20.5 16.4564 20.5 16.4595 20.5 16.4626C20.5 16.4658 20.5 16.4689 20.5 16.472C20.5 16.4752 20.5 16.4783 20.5 16.4814C20.5 16.4846 20.5 16.4877 20.5 16.4908C20.5 16.494 20.5 16.4971 20.5 16.5002C20.5 16.5034 20.5 16.5065 20.5 16.5096C20.5 16.5128 20.5 16.5159 20.5 16.519C20.5 16.5222 20.5 16.5253 20.5 16.5284C20.5 16.5316 20.5 16.5347 20.5 16.5378C20.5 16.5409 20.5 16.5441 20.5 16.5472C20.5 16.5503 20.5 16.5535 20.5 16.5566C20.5 16.5597 20.5 16.5628 20.5 16.566C20.5 16.5691 20.5 16.5722 20.5 16.5753C20.5 16.5785 20.5 16.5816 20.5 16.5847C20.5 16.5878 20.5 16.591 20.5 16.5941C20.5 16.5972 20.5 16.6003 20.5 16.6034C20.5 16.6066 20.5 16.6097 20.5 16.6128C20.5 16.6159 20.5 16.619 20.5 16.6222C20.5 16.6253 20.5 16.6284 20.5 16.6315C20.5 16.6346 20.5 16.6378 20.5 16.6409C20.5 16.644 20.5 16.6471 20.5 16.6502C20.5 16.6533 20.5 16.6565 20.5 16.6596C20.5 16.6627 20.5 16.6658 20.5 16.6689C20.5 16.672 20.5 16.6751 20.5 16.6783C20.5 16.6814 20.5 16.6845 20.5 16.6876C20.5 16.6907 20.5 16.6938 20.5 16.6969C20.5 16.7 20.5 16.7031 20.5 16.7063C20.5 16.7094 20.5 16.7125 20.5 16.7156C20.5 16.7187 20.5 16.7218 20.5 16.7249C20.5 16.728 20.5 16.7311 20.5 16.7342C20.5 16.7373 20.5 16.7404 20.5 16.7435C20.5 16.7466 20.5 16.7497 20.5 16.7528C20.5 16.7559 20.5 16.759 20.5 16.7621C20.5 16.7652 20.5 16.7683 20.5 16.7714C20.5 16.7745 20.5 16.7776 20.5 16.7807C20.5 16.7838 20.5 16.7869 20.5 16.79C20.5 16.7931 20.5 16.7962 20.5 16.7993C20.5 16.8024 20.5 16.8055 20.5 16.8086C20.5 16.8117 20.5 16.8148 20.5 16.8179C20.5 16.821 20.5 16.8241 20.5 16.8271C20.5 16.8302 20.5 16.8333 20.5 16.8364C20.5 16.8395 20.5 16.8426 20.5 16.8457C20.5 16.8488 20.5 16.8519 20.5 16.8549C20.5 16.858 20.5 16.8611 20.5 16.8642C20.5 16.8673 20.5 16.8704 20.5 16.8735C20.5 16.8765 20.5 16.8796 20.5 16.8827C20.5 16.8858 20.5 16.8889 20.5 16.8919C20.5 16.895 20.5 16.8981 20.5 16.9012C20.5 16.9043 20.5 16.9073 20.5 16.9104C20.5 16.9135 20.5 16.9166 20.5 16.9196C20.5 16.9227 20.5 16.9258 20.5 16.9289C20.5 16.9319 20.5 16.935 20.5 16.9381C20.5 16.9411 20.5 16.9442 20.5 16.9473C20.5 16.9504 20.5 16.9534 20.5 16.9565C20.5 16.9596 20.5 16.9626 20.5 16.9657C20.5 16.9688 20.5 16.9718 20.5 16.9749C20.5 16.978 20.5 16.981 20.5 16.9841C20.5 16.9871 20.5 16.9902 20.5 16.9933C20.5 16.9963 20.5 16.9994 20.5 17.0024C20.5 17.0055 20.5 17.0086 20.5 17.0116C20.5 17.0147 20.5 17.0177 20.5 17.0208C20.5 17.0238 20.5 17.0269 20.5 17.0299C20.5 17.033 20.5 17.0361 20.5 17.0391C20.5 17.0422 20.5 17.0452 20.5 17.0483C20.5 17.0513 20.5 17.0544 20.5 17.0574C20.5 17.0604 20.5 17.0635 20.5 17.0665C20.5 17.0696 20.5 17.0726 20.5 17.0757C20.5 17.0787 20.5 17.0818 20.5 17.0848C20.5 17.0878 20.5 17.0909 20.5 17.0939C20.5 17.097 20.5 17.1 20.5 17.103C20.5 17.1061 20.5 17.1091 20.5 17.1121C20.5 17.1152 20.5 17.1182 20.5 17.1213C20.5 17.1243 20.5 17.1273 20.5 17.1303C20.5 17.1334 20.5 17.1364 20.5 17.1394C20.5 17.1425 20.5 17.1455 20.5 17.1485C20.5 17.1516 20.5 17.1546 20.5 17.1576C20.5 17.1606 20.5 17.1636 20.5 17.1667C20.5 17.1697 20.5 17.1727 20.5 17.1757C20.5 17.1788 20.5 17.1818 20.5 17.1848C20.5 17.1878 20.5 17.1908 20.5 17.1938C20.5 17.1969 20.5 17.1999 20.5 17.2029C20.5 17.2059 20.5 17.2089 20.5 17.2119C20.5 17.2149 20.5 17.218 20.5 17.221C20.5 17.224 20.5 17.227 20.5 17.23C20.5 17.233 20.5 17.236 20.5 17.239C20.5 17.242 20.5 17.245 20.5 17.248C20.5 17.251 20.5 17.254 20.5 17.257C20.5 17.26 20.5 17.263 20.5 17.266C20.5 17.269 20.5 17.272 20.5 17.275C20.5 17.278 20.5 17.281 20.5 17.284C20.5 17.287 20.5 17.29 20.5 17.293C20.5 17.296 20.5 17.2989 20.5 17.3019C20.5 17.3049 20.5 17.3079 20.5 17.3109C20.5 17.3139 20.5 17.3169 20.5 17.3199C20.5 17.3228 20.5 17.3258 20.5 17.3288C20.5 17.3318 20.5 17.3348 20.5 17.3377C20.5 17.3407 20.5 17.3437 20.5 17.3467C20.5 17.3496 20.5 17.3526 20.5 17.3556C20.5 17.3586 20.5 17.3615 20.5 17.3645C20.5 17.3675 20.5 17.3704 20.5 17.3734C20.5 17.3764 20.5 17.3794 20.5 17.3823C20.5 17.3853 20.5 17.3882 20.5 17.3912C20.5 17.3942 20.5 17.3971 20.5 17.4001C20.5 17.4031 20.5 17.406 20.5 17.409C20.5 17.4119 20.5 17.4149 20.5 17.4178C20.5 17.4208 20.5 17.4238 20.5 17.4267C20.5 17.4297 20.5 17.4326 20.5 17.4356C20.5 17.4385 20.5 17.4415 20.5 17.4444C20.5 17.4474 20.5 17.4503 20.5 17.4532C20.5 17.4562 20.5 17.4591 20.5 17.4621C20.5 17.465 20.5 17.468 20.5 17.4709C20.5 17.4738 20.5 17.4768 20.5 17.4797C20.5 17.4826 20.5 17.4856 20.5 17.4885C20.5 17.4914 20.5 17.4944 20.5 17.4973C20.5 17.5002 20.5 17.5032 20.5 17.5061C20.5 17.509 20.5 17.5119 20.5 17.5149C20.5 17.5178 20.5 17.5207 20.5 17.5236C20.5 17.5266 20.5 17.5295 20.5 17.5324C20.5 17.5353 20.5 17.5382 20.5 17.5412C20.5 17.5441 20.5 17.547 20.5 17.5499C20.5 17.5528 20.5 17.5557 20.5 17.5586C20.5 17.5615 20.5 17.5644 20.5 17.5674C20.5 17.5703 20.5 17.5732 20.5 17.5761C20.5 17.579 20.5 17.5819 20.5 17.5848C20.5 17.5877 20.5 17.5906 20.5 17.5935C20.5 17.5964 20.5 17.5993 20.5 17.6022C20.5 17.6051 20.5 17.608 20.5 17.6109C20.5 17.6137 20.5 17.6166 20.5 17.6195C20.5 17.6224 20.5 17.6253 20.5 17.6282C20.5 17.6311 20.5 17.634 20.5 17.6368C20.5 17.6397 20.5 17.6426 20.5 17.6455C20.5 17.6484 20.5 17.6512 20.5 17.6541C20.5 17.657 20.5 17.6599 20.5 17.6627C20.5 17.6656 20.5 17.6685 20.5 17.6714C20.5 17.6742 20.5 17.6771 20.5 17.68C20.5 17.6828 20.5 17.6857 20.5 17.6886C20.5 17.6914 20.5 17.6943 20.5 17.6971C20.5 17.7 20.5 17.7029 20.5 17.7057C20.5 17.7086 20.5 17.7114 20.5 17.7143C20.5 17.7171 20.5 17.72 20.5 17.7229C20.5 17.7257 20.5 17.7286 20.5 17.7314C20.5 17.7342 20.5 17.7371 20.5 17.7399C20.5 17.7428 20.5 17.7456 20.5 17.7485C20.5 17.7513 20.5 17.7541 20.5 17.757C20.5 17.7598 20.5 17.7627 20.5 17.7655C20.5 17.7683 20.5 17.7712 20.5 17.774C20.5 17.7768 20.5 17.7796 20.5 17.7825C20.5 17.7853 20.5 17.7881 20.5 17.791C20.5 17.7938 20.5 17.7966 20.5 17.7994C20.5 17.8022 20.5 17.8051 20.5 17.8079C20.5 17.8107 20.5 17.8135 20.5 17.8163C20.5 17.8191 20.5 17.8219 20.5 17.8248C20.5 17.8276 20.5 17.8304 20.5 17.8332C20.5 17.836 20.5 17.8388 20.5 17.8416C20.5 17.8444 20.5 17.8472 20.5 17.85C20.5 17.8528 20.5 17.8556 20.5 17.8584C20.5 17.8612 20.5 17.864 20.5 17.8668C20.5 17.8696 20.5 17.8724 20.5 17.8751C20.5 17.8779 20.5 17.8807 20.5 17.8835C20.5 17.8863 20.5 17.8891 20.5 17.8919C20.5 17.8946 20.5 17.8974 20.5 17.9002C20.5 17.903 20.5 17.9058 20.5 17.9085C20.5 17.9113 20.5 17.9141 20.5 17.9168C20.5 17.9196 20.5 17.9224 20.5 17.9251C20.5 17.9279 20.5 17.9307 20.5 17.9334C20.5 17.9362 20.5 17.939 20.5 17.9417C20.5 17.9445 20.5 17.9472 20.5 17.95C20.5 17.9528 20.5 17.9555 20.5 17.9583C20.5 17.961 20.5 17.9638 20.5 17.9665C20.5 17.9693 20.5 17.972 20.5 17.9747C20.5 17.9775 20.5 17.9802 20.5 17.983C20.5 17.9857 20.5 17.9884 20.5 17.9912C20.5 17.9939 20.5 17.9967 20.5 17.9994C20.5 18.0021 20.5 18.0049 20.5 18.0076C20.5 18.0103 20.5 18.013 20.5 18.0158C20.5 18.0185 20.5 18.0212 20.5 18.0239C20.5 18.0266 20.5 18.0294 20.5 18.0321C20.5 18.0348 20.5 18.0375 20.5 18.0402C20.5 18.0429 20.5 18.0457 20.5 18.0484C20.5 18.0511 20.5 18.0538 20.5 18.0565C20.5 18.0592 20.5 18.0619 20.5 18.0646C20.5 18.0673 20.5 18.07 20.5 18.0727C20.5 18.0754 20.5 18.0781 20.5 18.0808C20.5 18.0835 20.5 18.0862 20.5 18.0888C20.5 18.0915 20.5 18.0942 20.5 18.0969C20.5 18.0996 20.5 18.1023 20.5 18.105C20.5 18.1076 20.5 18.1103 20.5 18.113C20.5 18.1157 20.5 18.1183 20.5 18.121C20.5 18.1237 20.5 18.1264 20.5 18.129C20.5 18.1317 20.5 18.1344 20.5 18.137C20.5 18.1397 20.5 18.1423 20.5 18.145C20.5 18.1477 20.5 18.1503 20.5 18.153C20.5 18.1556 20.5 18.1583 20.5 18.1609C20.5 18.1636 20.5 18.1662 20.5 18.1689C20.5 18.1715 20.5 18.1742 20.5 18.1768C20.5 18.1795 20.5 18.1821 20.5 18.1847C20.5 18.1874 20.5 18.19 20.5 18.1927C20.5 18.1953 20.5 18.1979 20.5 18.2005C20.5 18.2032 20.5 18.2058 20.5 18.2084C20.5 18.2111 20.5 18.2137 20.5 18.2163C20.5 18.2189 20.5 18.2215 20.5 18.2242C20.5 18.2268 20.5 18.2294 20.5 18.232C20.5 18.2346 20.5 18.2372 20.5 18.2398C20.5 18.2424 20.5 18.245 20.5 18.2476C20.5 18.2503 20.5 18.2529 20.5 18.2555C20.5 18.2581 20.5 18.2606 20.5 18.2632C20.5 18.2658 20.5 18.2684 20.5 18.271C20.5 18.2736 20.5 18.2762 20.5 18.2788C20.5 18.2814 20.5 18.284 20.5 18.2865C20.5 18.2891 20.5 18.2917 20.5 18.2943C20.5 18.2968 20.5 18.2994 20.5 18.302C20.5 18.3046 20.5 18.3071 20.5 18.3097C20.5 18.3123 20.5 18.3148 20.5 18.3174C20.5 18.32 20.5 18.3225 20.5 18.3251C20.5 18.3276 20.5 18.3302 20.5 18.3327C20.5 18.3353 20.5 18.3379 20.5 18.3404C20.5 18.343 20.5 18.3455 20.5 18.348C20.5 18.3506 20.5 18.3531 20.5 18.3557C20.5 18.3582 20.5 18.3607 20.5 18.3633C20.5 18.3658 20.5 18.3683 20.5 18.3709C20.5 18.3734 20.5 18.3759 20.5 18.3785C20.5 18.381 20.5 18.3835 20.5 18.386C20.5 18.3886 20.5 18.3911 20.5 18.3936C20.5 18.3961 20.5 18.3986 20.5 18.4011C20.5 18.4036 20.5 18.4061 20.5 18.4087C20.5 18.4112 20.5 18.4137 20.5 18.4162C20.5 18.4187 20.5 18.4212 20.5 18.4237C20.5 18.4262 20.5 18.4287 20.5 18.4311C20.5 18.4336 20.5 18.4361 20.5 18.4386C20.5 18.4411 20.5 18.4436 20.5 18.4461C20.5 18.4486 20.5 18.451 20.5 18.4535C20.5 18.456 20.5 18.4585 20.5 18.4609C20.5 18.4634 20.5 18.4659 20.5 18.4683C20.5 18.4708 20.5 18.4733 20.5 18.4757C20.5 18.4782 20.5 18.4807 20.5 18.4831C20.5 18.4856 20.5 18.488 20.5 18.4905C20.5 18.4929 20.5 18.4954 20.5 18.4978C20.5 18.5003 20.5 18.5027 20.5 18.5052C20.5 18.5076 20.5 18.51 20.5 18.5125C20.5 18.5149 20.5 18.5174 20.5 18.5198C20.5 18.5222 20.5 18.5247 20.5 18.5271C20.5 18.5295 20.5 18.5319 20.5 18.5344C20.5 18.5368 20.5 18.5392 20.5 18.5416C20.5 18.544 20.5 18.5464 20.5 18.5489C20.5 18.5513 20.5 18.5537 20.5 18.5561C20.5 18.5585 20.5 18.5609 20.5 18.5633C20.5 18.5657 20.5 18.5681 20.5 18.5705C20.5 18.5729 20.5 18.5753 20.5 18.5777C20.5 18.5801 20.5 18.5825 20.5 18.5848C20.5 18.5872 20.5 18.5896 20.5 18.592C20.5 18.5944 20.5 18.5967 20.5 18.5991C20.5 18.6015 20.5 18.6039 20.5 18.6062C20.5 18.6086 20.5 18.611 20.5 18.6133C20.5 18.6157 20.5 18.6181 20.5 18.6204C20.5 18.6228 20.5 18.6251 20.5 18.6275C20.5 18.6299 20.5 18.6322 20.5 18.6346C20.5 18.6369 20.5 18.6392 20.5 18.6416C20.5 18.6439 20.5 18.6463 20.5 18.6486C20.5 18.6509 20.5 18.6533 20.5 18.6556C20.5 18.6579 20.5 18.6603 20.5 18.6626C20.5 18.6649 20.5 18.6673 20.5 18.6696C20.5 18.6719 20.5 18.6742 20.5 18.6765C20.5 18.6789 20.5 18.6812 20.5 18.6835C20.5 18.6858 20.5 18.6881 20.5 18.6904C20.5 18.6927 20.5 18.695 20.5 18.6973C20.5 18.6996 20.5 18.7019 20.5 18.7042C20.5 18.7065 20.5 18.7088 20.5 18.7111C20.5 18.7134 20.5 18.7156 20.5 18.7179C20.5 18.7202 20.5 18.7225 20.5 18.7248C20.5 18.727 20.5 18.7293 20.5 18.7316C20.5 18.7339 20.5 18.7361 20.5 18.7384C20.5 18.7407 20.5 18.7429 20.5 18.7452C20.5 18.7475 20.5 18.7497 20.5 18.752C20.5 18.7542 20.5 18.7565 20.5 18.7587C20.5 18.761 20.5 18.7632 20.5 18.7655C20.5 18.7677 20.5 18.7699 20.5 18.7722C20.5 18.7744 20.5 18.7767 20.5 18.7789C20.5 18.7811 20.5 18.7833 20.5 18.7856C20.5 18.7878 20.5 18.79 20.5 18.7922C20.5 18.7945 20.5 18.7967 20.5 18.7989C20.5 18.8011 20.5 18.8033 20.5 18.8055C20.5 18.8077 20.5 18.8099 20.5 18.8121C20.5 18.8144 20.5 18.8166 20.5 18.8187C20.5 18.8209 20.5 18.8231 20.5 18.8253C20.5 18.8275 20.5 18.8297 20.5 18.8319C20.5 18.8341 20.5 18.8363 20.5 18.8384C20.5 18.8406 20.5 18.8428 20.5 18.845C20.5 18.8471 20.5 18.8493 20.5 18.8515C20.5 18.8537 20.5 18.8558 20.5 18.858C20.5 18.8601 20.5 18.8623 20.5 18.8645C20.5 18.8666 20.5 18.8688 20.5 18.8709C20.5 18.8731 20.5 18.8752 20.5 18.8774C20.5 18.8795 20.5 18.8816 20.5 18.8838C20.5 18.8859 20.5 18.8881 20.5 18.8902C20.5 18.8923 20.5 18.8944 20.5 18.8966C20.5 18.8987 20.5 18.9008 20.5 18.9029C20.5 18.9051 20.5 18.9072 20.5 18.9093C20.5 18.9114 20.5 18.9135 20.5 18.9156C20.5 18.9177 20.5 18.9198 20.5 18.9219C20.5 18.924 20.5 18.9261 20.5 18.9282C20.5 18.9303 20.5 18.9324 20.5 18.9345C20.5 18.9366 20.5 18.9387 20.5 18.9408C20.5 18.9428 20.5 18.9449 20.5 18.947C20.5 18.9491 20.5 18.9512 20.5 18.9532C20.5 18.9553 20.5 18.9574 20.5 18.9594C20.5 18.9615 20.5 18.9636 20.5 18.9656C20.5 18.9677 20.5 18.9697 20.5 18.9718C20.5 18.9738 20.5 18.9759 20.5 18.9779C20.5 18.98 20.5 18.982 20.5 18.984C20.5 18.9861 20.5 18.9881 20.5 18.9902C20.5 18.9922 20.5 18.9942 20.5 18.9962C20.5 18.9983 20.5 19.0003 20.5 19.0023C20.5 19.0043 20.5 19.0064 20.5 19.0084C20.5 19.0104 20.5 19.0124 20.5 19.0144C20.5 19.0164 20.5 19.0184 20.5 19.0204C20.5 19.0224 20.5 19.0244 20.5 19.0264C20.5 19.0284 20.5 19.0304 20.5 19.0324C20.5 19.0344 20.5 19.0364 20.5 19.0383C20.5 19.0403 20.5 19.0423 20.5 19.0443C20.5 19.0462 20.5 19.0482 20.5 19.0502C20.5 19.0522 20.5 19.0541 20.5 19.0561C20.5 19.058 20.5 19.06 20.5 19.062C20.5 19.0639 20.5 19.0659 20.5 19.0678C20.5 19.0698 20.5 19.0717 20.5 19.0736C20.5 19.0756 20.5 19.0775 20.5 19.0795C20.5 19.0814 20.5 19.0833 20.5 19.0853C20.5 19.0872 20.5 19.0891 20.5 19.091C20.5 19.093 20.5 19.0949 20.5 19.0968C20.5 19.0987 20.5 19.1006 20.5 19.1025C20.5 19.1044 20.5 19.1064 20.5 19.1083C20.5 19.1102 20.5 19.1121 20.5 19.114C20.5 19.1158 20.5 19.1177 20.5 19.1196C20.5 19.1215 20.5 19.1234 20.5 19.1253C20.5 19.1272 20.5 19.129 20.5 19.1309C20.5 19.1328 20.5 19.1347 20.5 19.1365C20.5 19.1384 20.5 19.1403 20.5 19.1421C20.5 19.144 20.5 19.1459 20.5 19.1477C20.5 19.1496 20.5 19.1514 20.5 19.1533C20.5 19.1551 20.5 19.157 20.5 19.1588C20.5 19.1606 20.5 19.1625 20.5 19.1643C20.5 19.1662 20.5 19.168 20.5 19.1698C20.5 19.1716 20.5 19.1735 20.5 19.1753C20.5 19.1771 20.5 19.1789 20.5 19.1807C20.5 19.1826 20.5 19.1844 20.5 19.1862C20.5 19.188 20.5 19.1898 20.5 19.1916C20.5 19.1934 20.5 19.1952 20.5 19.197C20.5 19.1988 20.5 19.2006 20.5 19.2023C20.5 19.2041 20.5 19.2059 20.5 19.2077C20.5 19.2095 20.5 19.2112 20.5 19.213C20.5 19.2148 20.5 19.2166 20.5 19.2183C20.5 19.2201 20.5 19.2219 20.5 19.2236C20.5 19.2254 20.5 19.2271 20.5 19.2289C20.5 19.2306 20.5 19.2324 20.5 19.2341C20.5 19.2359 20.5 19.2376 20.5 19.2393C20.5 19.2411 20.5 19.2428 20.5 19.2445C20.5 19.2463 20.5 19.248 20.5 19.2497C20.5 19.2514 20.5 19.2532 20.5 19.2549C20.5 19.2566 20.5 19.2583 20.5 19.26C20.5 19.2617 20.5 19.2634 20.5 19.2651C20.5 19.2668 20.5 19.2685 20.5 19.2702C20.5 19.2719 20.5 19.2736 20.5 19.2753C20.5 19.277 20.5 19.2787 20.5 19.2803C20.5 19.282 20.5 19.2837 20.5 19.2854C20.5 19.287 20.5 19.2887 20.5 19.2904C20.5 19.292 20.5 19.2937 20.5 19.2954C20.5 19.297 20.5 19.2987 20.5 19.3003C20.5 19.302 20.5 19.3036 20.5 19.3053C20.5 19.3069 20.5 19.3085 20.5 19.3102C20.5 19.3118 20.5 19.3134 20.5 19.3151C20.5 19.3167 20.5 19.3183 20.5 19.3199C20.5 19.3216 20.5 19.3232 20.5 19.3248C20.5 19.3264 20.5 19.328 20.5 19.3296C20.5 19.3312 20.5 19.3328 20.5 19.3344C20.5 19.336 20.5 19.3376 20.5 19.3392C20.5 19.3408 20.5 19.3424 20.5 19.344C20.5 19.3456 20.5 19.3471 20.5 19.3487C20.5 19.3503 20.5 19.3519 20.5 19.3534C20.5 19.355 20.5 19.3566 20.5 19.3581C20.5 19.3597 20.5 19.3612 20.5 19.3628C20.5 19.3643 20.5 19.3659 20.5 19.3674C20.5 19.369 20.5 19.3705 20.5 19.3721C20.5 19.3736 20.5 19.3751 20.5 19.3767C20.5 19.3782 20.5 19.3797 20.5 19.3813C20.5 19.3828 20.5 19.3843 20.5 19.3858C20.5 19.3873 20.5 19.3888 20.5 19.3903C20.5 19.3919 20.5 19.3934 20.5 19.3949C20.5 19.3964 20.5 19.3979 20.5 19.3993C20.5 19.4008 20.5 19.4023 20.5 19.4038C20.5 19.4053 20.5 19.4068 20.5 19.4082C20.5 19.4097 20.5 19.4112 20.5 19.4127C20.5 19.4141 20.5 19.4156 20.5 19.4171C20.5 19.4185 20.5 19.42 20.5 19.4214C20.5 19.4229 20.5 19.4243 20.5 19.4258C20.5 19.4272 20.5 19.4287 20.5 19.4301C20.5 19.4315 20.5 19.433 20.5 19.4344C20.5 19.4358 20.5 19.4373 20.5 19.4387C20.5 19.4401 20.5 19.4415 20.5 19.4429C20.5 19.4444 20.5 19.4458 20.5 19.4472C20.5 19.4486 20.5 19.45 20.5 19.4514C20.5 19.4528 20.5 19.4542 20.5 19.4556C20.5 19.457 20.5 19.4583 20.5 19.4597C20.5 19.4611 20.5 19.4625 20.5 19.4639C20.5 19.4652 20.5 19.4666 20.5 19.468C20.5 19.4693 20.5 19.4707 20.5 19.4721C20.5 19.4734 20.5 19.4748 20.5 19.4761C20.5 19.4775 20.5 19.4788 20.5 19.4802C20.5 19.4815 20.5 19.4828 20.5 19.4842C20.5 19.4855 20.5 19.4868 20.5 19.4882C20.5 19.4895 20.5 19.4908 20.5 19.4921C20.5 19.4935 20.5 19.4948 20.5 19.4961C20.5 19.4974 20.5 19.4987 20.5 19.5H22.5C22.5 19.4987 22.5 19.4974 22.5 19.4961C22.5 19.4948 22.5 19.4935 22.5 19.4921C22.5 19.4908 22.5 19.4895 22.5 19.4882C22.5 19.4868 22.5 19.4855 22.5 19.4842C22.5 19.4828 22.5 19.4815 22.5 19.4802C22.5 19.4788 22.5 19.4775 22.5 19.4761C22.5 19.4748 22.5 19.4734 22.5 19.4721C22.5 19.4707 22.5 19.4693 22.5 19.468C22.5 19.4666 22.5 19.4652 22.5 19.4639C22.5 19.4625 22.5 19.4611 22.5 19.4597C22.5 19.4583 22.5 19.457 22.5 19.4556C22.5 19.4542 22.5 19.4528 22.5 19.4514C22.5 19.45 22.5 19.4486 22.5 19.4472C22.5 19.4458 22.5 19.4444 22.5 19.4429C22.5 19.4415 22.5 19.4401 22.5 19.4387C22.5 19.4373 22.5 19.4358 22.5 19.4344C22.5 19.433 22.5 19.4315 22.5 19.4301C22.5 19.4287 22.5 19.4272 22.5 19.4258C22.5 19.4243 22.5 19.4229 22.5 19.4214C22.5 19.42 22.5 19.4185 22.5 19.4171C22.5 19.4156 22.5 19.4141 22.5 19.4127C22.5 19.4112 22.5 19.4097 22.5 19.4082C22.5 19.4068 22.5 19.4053 22.5 19.4038C22.5 19.4023 22.5 19.4008 22.5 19.3993C22.5 19.3979 22.5 19.3964 22.5 19.3949C22.5 19.3934 22.5 19.3919 22.5 19.3903C22.5 19.3888 22.5 19.3873 22.5 19.3858C22.5 19.3843 22.5 19.3828 22.5 19.3813C22.5 19.3797 22.5 19.3782 22.5 19.3767C22.5 19.3751 22.5 19.3736 22.5 19.3721C22.5 19.3705 22.5 19.369 22.5 19.3674C22.5 19.3659 22.5 19.3643 22.5 19.3628C22.5 19.3612 22.5 19.3597 22.5 19.3581C22.5 19.3566 22.5 19.355 22.5 19.3534C22.5 19.3519 22.5 19.3503 22.5 19.3487C22.5 19.3471 22.5 19.3456 22.5 19.344C22.5 19.3424 22.5 19.3408 22.5 19.3392C22.5 19.3376 22.5 19.336 22.5 19.3344C22.5 19.3328 22.5 19.3312 22.5 19.3296C22.5 19.328 22.5 19.3264 22.5 19.3248C22.5 19.3232 22.5 19.3216 22.5 19.3199C22.5 19.3183 22.5 19.3167 22.5 19.3151C22.5 19.3134 22.5 19.3118 22.5 19.3102C22.5 19.3085 22.5 19.3069 22.5 19.3053C22.5 19.3036 22.5 19.302 22.5 19.3003C22.5 19.2987 22.5 19.297 22.5 19.2954C22.5 19.2937 22.5 19.292 22.5 19.2904C22.5 19.2887 22.5 19.287 22.5 19.2854C22.5 19.2837 22.5 19.282 22.5 19.2803C22.5 19.2787 22.5 19.277 22.5 19.2753C22.5 19.2736 22.5 19.2719 22.5 19.2702C22.5 19.2685 22.5 19.2668 22.5 19.2651C22.5 19.2634 22.5 19.2617 22.5 19.26C22.5 19.2583 22.5 19.2566 22.5 19.2549C22.5 19.2532 22.5 19.2514 22.5 19.2497C22.5 19.248 22.5 19.2463 22.5 19.2445C22.5 19.2428 22.5 19.2411 22.5 19.2393C22.5 19.2376 22.5 19.2359 22.5 19.2341C22.5 19.2324 22.5 19.2306 22.5 19.2289C22.5 19.2271 22.5 19.2254 22.5 19.2236C22.5 19.2219 22.5 19.2201 22.5 19.2183C22.5 19.2166 22.5 19.2148 22.5 19.213C22.5 19.2112 22.5 19.2095 22.5 19.2077C22.5 19.2059 22.5 19.2041 22.5 19.2023C22.5 19.2006 22.5 19.1988 22.5 19.197C22.5 19.1952 22.5 19.1934 22.5 19.1916C22.5 19.1898 22.5 19.188 22.5 19.1862C22.5 19.1844 22.5 19.1826 22.5 19.1807C22.5 19.1789 22.5 19.1771 22.5 19.1753C22.5 19.1735 22.5 19.1716 22.5 19.1698C22.5 19.168 22.5 19.1662 22.5 19.1643C22.5 19.1625 22.5 19.1606 22.5 19.1588C22.5 19.157 22.5 19.1551 22.5 19.1533C22.5 19.1514 22.5 19.1496 22.5 19.1477C22.5 19.1459 22.5 19.144 22.5 19.1421C22.5 19.1403 22.5 19.1384 22.5 19.1365C22.5 19.1347 22.5 19.1328 22.5 19.1309C22.5 19.129 22.5 19.1272 22.5 19.1253C22.5 19.1234 22.5 19.1215 22.5 19.1196C22.5 19.1177 22.5 19.1158 22.5 19.114C22.5 19.1121 22.5 19.1102 22.5 19.1083C22.5 19.1064 22.5 19.1044 22.5 19.1025C22.5 19.1006 22.5 19.0987 22.5 19.0968C22.5 19.0949 22.5 19.093 22.5 19.091C22.5 19.0891 22.5 19.0872 22.5 19.0853C22.5 19.0833 22.5 19.0814 22.5 19.0795C22.5 19.0775 22.5 19.0756 22.5 19.0736C22.5 19.0717 22.5 19.0698 22.5 19.0678C22.5 19.0659 22.5 19.0639 22.5 19.062C22.5 19.06 22.5 19.058 22.5 19.0561C22.5 19.0541 22.5 19.0522 22.5 19.0502C22.5 19.0482 22.5 19.0462 22.5 19.0443C22.5 19.0423 22.5 19.0403 22.5 19.0383C22.5 19.0364 22.5 19.0344 22.5 19.0324C22.5 19.0304 22.5 19.0284 22.5 19.0264C22.5 19.0244 22.5 19.0224 22.5 19.0204C22.5 19.0184 22.5 19.0164 22.5 19.0144C22.5 19.0124 22.5 19.0104 22.5 19.0084C22.5 19.0064 22.5 19.0043 22.5 19.0023C22.5 19.0003 22.5 18.9983 22.5 18.9962C22.5 18.9942 22.5 18.9922 22.5 18.9902C22.5 18.9881 22.5 18.9861 22.5 18.984C22.5 18.982 22.5 18.98 22.5 18.9779C22.5 18.9759 22.5 18.9738 22.5 18.9718C22.5 18.9697 22.5 18.9677 22.5 18.9656C22.5 18.9636 22.5 18.9615 22.5 18.9594C22.5 18.9574 22.5 18.9553 22.5 18.9532C22.5 18.9512 22.5 18.9491 22.5 18.947C22.5 18.9449 22.5 18.9428 22.5 18.9408C22.5 18.9387 22.5 18.9366 22.5 18.9345C22.5 18.9324 22.5 18.9303 22.5 18.9282C22.5 18.9261 22.5 18.924 22.5 18.9219C22.5 18.9198 22.5 18.9177 22.5 18.9156C22.5 18.9135 22.5 18.9114 22.5 18.9093C22.5 18.9072 22.5 18.9051 22.5 18.9029C22.5 18.9008 22.5 18.8987 22.5 18.8966C22.5 18.8944 22.5 18.8923 22.5 18.8902C22.5 18.8881 22.5 18.8859 22.5 18.8838C22.5 18.8816 22.5 18.8795 22.5 18.8774C22.5 18.8752 22.5 18.8731 22.5 18.8709C22.5 18.8688 22.5 18.8666 22.5 18.8645C22.5 18.8623 22.5 18.8601 22.5 18.858C22.5 18.8558 22.5 18.8537 22.5 18.8515C22.5 18.8493 22.5 18.8471 22.5 18.845C22.5 18.8428 22.5 18.8406 22.5 18.8384C22.5 18.8363 22.5 18.8341 22.5 18.8319C22.5 18.8297 22.5 18.8275 22.5 18.8253C22.5 18.8231 22.5 18.8209 22.5 18.8187C22.5 18.8166 22.5 18.8144 22.5 18.8121C22.5 18.8099 22.5 18.8077 22.5 18.8055C22.5 18.8033 22.5 18.8011 22.5 18.7989C22.5 18.7967 22.5 18.7945 22.5 18.7922C22.5 18.79 22.5 18.7878 22.5 18.7856C22.5 18.7833 22.5 18.7811 22.5 18.7789C22.5 18.7767 22.5 18.7744 22.5 18.7722C22.5 18.7699 22.5 18.7677 22.5 18.7655C22.5 18.7632 22.5 18.761 22.5 18.7587C22.5 18.7565 22.5 18.7542 22.5 18.752C22.5 18.7497 22.5 18.7475 22.5 18.7452C22.5 18.7429 22.5 18.7407 22.5 18.7384C22.5 18.7361 22.5 18.7339 22.5 18.7316C22.5 18.7293 22.5 18.727 22.5 18.7248C22.5 18.7225 22.5 18.7202 22.5 18.7179C22.5 18.7156 22.5 18.7134 22.5 18.7111C22.5 18.7088 22.5 18.7065 22.5 18.7042C22.5 18.7019 22.5 18.6996 22.5 18.6973C22.5 18.695 22.5 18.6927 22.5 18.6904C22.5 18.6881 22.5 18.6858 22.5 18.6835C22.5 18.6812 22.5 18.6789 22.5 18.6765C22.5 18.6742 22.5 18.6719 22.5 18.6696C22.5 18.6673 22.5 18.6649 22.5 18.6626C22.5 18.6603 22.5 18.6579 22.5 18.6556C22.5 18.6533 22.5 18.6509 22.5 18.6486C22.5 18.6463 22.5 18.6439 22.5 18.6416C22.5 18.6392 22.5 18.6369 22.5 18.6346C22.5 18.6322 22.5 18.6299 22.5 18.6275C22.5 18.6251 22.5 18.6228 22.5 18.6204C22.5 18.6181 22.5 18.6157 22.5 18.6133C22.5 18.611 22.5 18.6086 22.5 18.6062C22.5 18.6039 22.5 18.6015 22.5 18.5991C22.5 18.5967 22.5 18.5944 22.5 18.592C22.5 18.5896 22.5 18.5872 22.5 18.5848C22.5 18.5825 22.5 18.5801 22.5 18.5777C22.5 18.5753 22.5 18.5729 22.5 18.5705C22.5 18.5681 22.5 18.5657 22.5 18.5633C22.5 18.5609 22.5 18.5585 22.5 18.5561C22.5 18.5537 22.5 18.5513 22.5 18.5489C22.5 18.5464 22.5 18.544 22.5 18.5416C22.5 18.5392 22.5 18.5368 22.5 18.5344C22.5 18.5319 22.5 18.5295 22.5 18.5271C22.5 18.5247 22.5 18.5222 22.5 18.5198C22.5 18.5174 22.5 18.5149 22.5 18.5125C22.5 18.51 22.5 18.5076 22.5 18.5052C22.5 18.5027 22.5 18.5003 22.5 18.4978C22.5 18.4954 22.5 18.4929 22.5 18.4905C22.5 18.488 22.5 18.4856 22.5 18.4831C22.5 18.4807 22.5 18.4782 22.5 18.4757C22.5 18.4733 22.5 18.4708 22.5 18.4683C22.5 18.4659 22.5 18.4634 22.5 18.4609C22.5 18.4585 22.5 18.456 22.5 18.4535C22.5 18.451 22.5 18.4486 22.5 18.4461C22.5 18.4436 22.5 18.4411 22.5 18.4386C22.5 18.4361 22.5 18.4336 22.5 18.4311C22.5 18.4287 22.5 18.4262 22.5 18.4237C22.5 18.4212 22.5 18.4187 22.5 18.4162C22.5 18.4137 22.5 18.4112 22.5 18.4087C22.5 18.4061 22.5 18.4036 22.5 18.4011C22.5 18.3986 22.5 18.3961 22.5 18.3936C22.5 18.3911 22.5 18.3886 22.5 18.386C22.5 18.3835 22.5 18.381 22.5 18.3785C22.5 18.3759 22.5 18.3734 22.5 18.3709C22.5 18.3683 22.5 18.3658 22.5 18.3633C22.5 18.3607 22.5 18.3582 22.5 18.3557C22.5 18.3531 22.5 18.3506 22.5 18.348C22.5 18.3455 22.5 18.343 22.5 18.3404C22.5 18.3379 22.5 18.3353 22.5 18.3327C22.5 18.3302 22.5 18.3276 22.5 18.3251C22.5 18.3225 22.5 18.32 22.5 18.3174C22.5 18.3148 22.5 18.3123 22.5 18.3097C22.5 18.3071 22.5 18.3046 22.5 18.302C22.5 18.2994 22.5 18.2968 22.5 18.2943C22.5 18.2917 22.5 18.2891 22.5 18.2865C22.5 18.284 22.5 18.2814 22.5 18.2788C22.5 18.2762 22.5 18.2736 22.5 18.271C22.5 18.2684 22.5 18.2658 22.5 18.2632C22.5 18.2606 22.5 18.2581 22.5 18.2555C22.5 18.2529 22.5 18.2503 22.5 18.2476C22.5 18.245 22.5 18.2424 22.5 18.2398C22.5 18.2372 22.5 18.2346 22.5 18.232C22.5 18.2294 22.5 18.2268 22.5 18.2242C22.5 18.2215 22.5 18.2189 22.5 18.2163C22.5 18.2137 22.5 18.2111 22.5 18.2084C22.5 18.2058 22.5 18.2032 22.5 18.2005C22.5 18.1979 22.5 18.1953 22.5 18.1927C22.5 18.19 22.5 18.1874 22.5 18.1847C22.5 18.1821 22.5 18.1795 22.5 18.1768C22.5 18.1742 22.5 18.1715 22.5 18.1689C22.5 18.1662 22.5 18.1636 22.5 18.1609C22.5 18.1583 22.5 18.1556 22.5 18.153C22.5 18.1503 22.5 18.1477 22.5 18.145C22.5 18.1423 22.5 18.1397 22.5 18.137C22.5 18.1344 22.5 18.1317 22.5 18.129C22.5 18.1264 22.5 18.1237 22.5 18.121C22.5 18.1183 22.5 18.1157 22.5 18.113C22.5 18.1103 22.5 18.1076 22.5 18.105C22.5 18.1023 22.5 18.0996 22.5 18.0969C22.5 18.0942 22.5 18.0915 22.5 18.0888C22.5 18.0862 22.5 18.0835 22.5 18.0808C22.5 18.0781 22.5 18.0754 22.5 18.0727C22.5 18.07 22.5 18.0673 22.5 18.0646C22.5 18.0619 22.5 18.0592 22.5 18.0565C22.5 18.0538 22.5 18.0511 22.5 18.0484C22.5 18.0457 22.5 18.0429 22.5 18.0402C22.5 18.0375 22.5 18.0348 22.5 18.0321C22.5 18.0294 22.5 18.0266 22.5 18.0239C22.5 18.0212 22.5 18.0185 22.5 18.0158C22.5 18.013 22.5 18.0103 22.5 18.0076C22.5 18.0049 22.5 18.0021 22.5 17.9994C22.5 17.9967 22.5 17.9939 22.5 17.9912C22.5 17.9884 22.5 17.9857 22.5 17.983C22.5 17.9802 22.5 17.9775 22.5 17.9747C22.5 17.972 22.5 17.9693 22.5 17.9665C22.5 17.9638 22.5 17.961 22.5 17.9583C22.5 17.9555 22.5 17.9528 22.5 17.95C22.5 17.9472 22.5 17.9445 22.5 17.9417C22.5 17.939 22.5 17.9362 22.5 17.9334C22.5 17.9307 22.5 17.9279 22.5 17.9251C22.5 17.9224 22.5 17.9196 22.5 17.9168C22.5 17.9141 22.5 17.9113 22.5 17.9085C22.5 17.9058 22.5 17.903 22.5 17.9002C22.5 17.8974 22.5 17.8946 22.5 17.8919C22.5 17.8891 22.5 17.8863 22.5 17.8835C22.5 17.8807 22.5 17.8779 22.5 17.8751C22.5 17.8724 22.5 17.8696 22.5 17.8668C22.5 17.864 22.5 17.8612 22.5 17.8584C22.5 17.8556 22.5 17.8528 22.5 17.85C22.5 17.8472 22.5 17.8444 22.5 17.8416C22.5 17.8388 22.5 17.836 22.5 17.8332C22.5 17.8304 22.5 17.8276 22.5 17.8248C22.5 17.8219 22.5 17.8191 22.5 17.8163C22.5 17.8135 22.5 17.8107 22.5 17.8079C22.5 17.8051 22.5 17.8022 22.5 17.7994C22.5 17.7966 22.5 17.7938 22.5 17.791C22.5 17.7881 22.5 17.7853 22.5 17.7825C22.5 17.7796 22.5 17.7768 22.5 17.774C22.5 17.7712 22.5 17.7683 22.5 17.7655C22.5 17.7627 22.5 17.7598 22.5 17.757C22.5 17.7541 22.5 17.7513 22.5 17.7485C22.5 17.7456 22.5 17.7428 22.5 17.7399C22.5 17.7371 22.5 17.7342 22.5 17.7314C22.5 17.7286 22.5 17.7257 22.5 17.7229C22.5 17.72 22.5 17.7171 22.5 17.7143C22.5 17.7114 22.5 17.7086 22.5 17.7057C22.5 17.7029 22.5 17.7 22.5 17.6971C22.5 17.6943 22.5 17.6914 22.5 17.6886C22.5 17.6857 22.5 17.6828 22.5 17.68C22.5 17.6771 22.5 17.6742 22.5 17.6714C22.5 17.6685 22.5 17.6656 22.5 17.6627C22.5 17.6599 22.5 17.657 22.5 17.6541C22.5 17.6512 22.5 17.6484 22.5 17.6455C22.5 17.6426 22.5 17.6397 22.5 17.6368C22.5 17.634 22.5 17.6311 22.5 17.6282C22.5 17.6253 22.5 17.6224 22.5 17.6195C22.5 17.6166 22.5 17.6137 22.5 17.6109C22.5 17.608 22.5 17.6051 22.5 17.6022C22.5 17.5993 22.5 17.5964 22.5 17.5935C22.5 17.5906 22.5 17.5877 22.5 17.5848C22.5 17.5819 22.5 17.579 22.5 17.5761C22.5 17.5732 22.5 17.5703 22.5 17.5674C22.5 17.5644 22.5 17.5615 22.5 17.5586C22.5 17.5557 22.5 17.5528 22.5 17.5499C22.5 17.547 22.5 17.5441 22.5 17.5412C22.5 17.5382 22.5 17.5353 22.5 17.5324C22.5 17.5295 22.5 17.5266 22.5 17.5236C22.5 17.5207 22.5 17.5178 22.5 17.5149C22.5 17.5119 22.5 17.509 22.5 17.5061C22.5 17.5032 22.5 17.5002 22.5 17.4973C22.5 17.4944 22.5 17.4914 22.5 17.4885C22.5 17.4856 22.5 17.4826 22.5 17.4797C22.5 17.4768 22.5 17.4738 22.5 17.4709C22.5 17.468 22.5 17.465 22.5 17.4621C22.5 17.4591 22.5 17.4562 22.5 17.4532C22.5 17.4503 22.5 17.4474 22.5 17.4444C22.5 17.4415 22.5 17.4385 22.5 17.4356C22.5 17.4326 22.5 17.4297 22.5 17.4267C22.5 17.4238 22.5 17.4208 22.5 17.4178C22.5 17.4149 22.5 17.4119 22.5 17.409C22.5 17.406 22.5 17.4031 22.5 17.4001C22.5 17.3971 22.5 17.3942 22.5 17.3912C22.5 17.3882 22.5 17.3853 22.5 17.3823C22.5 17.3794 22.5 17.3764 22.5 17.3734C22.5 17.3704 22.5 17.3675 22.5 17.3645C22.5 17.3615 22.5 17.3586 22.5 17.3556C22.5 17.3526 22.5 17.3496 22.5 17.3467C22.5 17.3437 22.5 17.3407 22.5 17.3377C22.5 17.3348 22.5 17.3318 22.5 17.3288C22.5 17.3258 22.5 17.3228 22.5 17.3199C22.5 17.3169 22.5 17.3139 22.5 17.3109C22.5 17.3079 22.5 17.3049 22.5 17.3019C22.5 17.2989 22.5 17.296 22.5 17.293C22.5 17.29 22.5 17.287 22.5 17.284C22.5 17.281 22.5 17.278 22.5 17.275C22.5 17.272 22.5 17.269 22.5 17.266C22.5 17.263 22.5 17.26 22.5 17.257C22.5 17.254 22.5 17.251 22.5 17.248C22.5 17.245 22.5 17.242 22.5 17.239C22.5 17.236 22.5 17.233 22.5 17.23C22.5 17.227 22.5 17.224 22.5 17.221C22.5 17.218 22.5 17.2149 22.5 17.2119C22.5 17.2089 22.5 17.2059 22.5 17.2029C22.5 17.1999 22.5 17.1969 22.5 17.1938C22.5 17.1908 22.5 17.1878 22.5 17.1848C22.5 17.1818 22.5 17.1788 22.5 17.1757C22.5 17.1727 22.5 17.1697 22.5 17.1667C22.5 17.1636 22.5 17.1606 22.5 17.1576C22.5 17.1546 22.5 17.1516 22.5 17.1485C22.5 17.1455 22.5 17.1425 22.5 17.1394C22.5 17.1364 22.5 17.1334 22.5 17.1303C22.5 17.1273 22.5 17.1243 22.5 17.1213C22.5 17.1182 22.5 17.1152 22.5 17.1121C22.5 17.1091 22.5 17.1061 22.5 17.103C22.5 17.1 22.5 17.097 22.5 17.0939C22.5 17.0909 22.5 17.0878 22.5 17.0848C22.5 17.0818 22.5 17.0787 22.5 17.0757C22.5 17.0726 22.5 17.0696 22.5 17.0665C22.5 17.0635 22.5 17.0604 22.5 17.0574C22.5 17.0544 22.5 17.0513 22.5 17.0483C22.5 17.0452 22.5 17.0422 22.5 17.0391C22.5 17.0361 22.5 17.033 22.5 17.0299C22.5 17.0269 22.5 17.0238 22.5 17.0208C22.5 17.0177 22.5 17.0147 22.5 17.0116C22.5 17.0086 22.5 17.0055 22.5 17.0024C22.5 16.9994 22.5 16.9963 22.5 16.9933C22.5 16.9902 22.5 16.9871 22.5 16.9841C22.5 16.981 22.5 16.978 22.5 16.9749C22.5 16.9718 22.5 16.9688 22.5 16.9657C22.5 16.9626 22.5 16.9596 22.5 16.9565C22.5 16.9534 22.5 16.9504 22.5 16.9473C22.5 16.9442 22.5 16.9411 22.5 16.9381C22.5 16.935 22.5 16.9319 22.5 16.9289C22.5 16.9258 22.5 16.9227 22.5 16.9196C22.5 16.9166 22.5 16.9135 22.5 16.9104C22.5 16.9073 22.5 16.9043 22.5 16.9012C22.5 16.8981 22.5 16.895 22.5 16.8919C22.5 16.8889 22.5 16.8858 22.5 16.8827C22.5 16.8796 22.5 16.8765 22.5 16.8735C22.5 16.8704 22.5 16.8673 22.5 16.8642C22.5 16.8611 22.5 16.858 22.5 16.8549C22.5 16.8519 22.5 16.8488 22.5 16.8457C22.5 16.8426 22.5 16.8395 22.5 16.8364C22.5 16.8333 22.5 16.8302 22.5 16.8271C22.5 16.8241 22.5 16.821 22.5 16.8179C22.5 16.8148 22.5 16.8117 22.5 16.8086C22.5 16.8055 22.5 16.8024 22.5 16.7993C22.5 16.7962 22.5 16.7931 22.5 16.79C22.5 16.7869 22.5 16.7838 22.5 16.7807C22.5 16.7776 22.5 16.7745 22.5 16.7714C22.5 16.7683 22.5 16.7652 22.5 16.7621C22.5 16.759 22.5 16.7559 22.5 16.7528C22.5 16.7497 22.5 16.7466 22.5 16.7435C22.5 16.7404 22.5 16.7373 22.5 16.7342C22.5 16.7311 22.5 16.728 22.5 16.7249C22.5 16.7218 22.5 16.7187 22.5 16.7156C22.5 16.7125 22.5 16.7094 22.5 16.7063C22.5 16.7031 22.5 16.7 22.5 16.6969C22.5 16.6938 22.5 16.6907 22.5 16.6876C22.5 16.6845 22.5 16.6814 22.5 16.6783C22.5 16.6751 22.5 16.672 22.5 16.6689C22.5 16.6658 22.5 16.6627 22.5 16.6596C22.5 16.6565 22.5 16.6533 22.5 16.6502C22.5 16.6471 22.5 16.644 22.5 16.6409C22.5 16.6378 22.5 16.6346 22.5 16.6315C22.5 16.6284 22.5 16.6253 22.5 16.6222C22.5 16.619 22.5 16.6159 22.5 16.6128C22.5 16.6097 22.5 16.6066 22.5 16.6034C22.5 16.6003 22.5 16.5972 22.5 16.5941C22.5 16.591 22.5 16.5878 22.5 16.5847C22.5 16.5816 22.5 16.5785 22.5 16.5753C22.5 16.5722 22.5 16.5691 22.5 16.566C22.5 16.5628 22.5 16.5597 22.5 16.5566C22.5 16.5535 22.5 16.5503 22.5 16.5472C22.5 16.5441 22.5 16.5409 22.5 16.5378C22.5 16.5347 22.5 16.5316 22.5 16.5284C22.5 16.5253 22.5 16.5222 22.5 16.519C22.5 16.5159 22.5 16.5128 22.5 16.5096C22.5 16.5065 22.5 16.5034 22.5 16.5002C22.5 16.4971 22.5 16.494 22.5 16.4908C22.5 16.4877 22.5 16.4846 22.5 16.4814C22.5 16.4783 22.5 16.4752 22.5 16.472C22.5 16.4689 22.5 16.4658 22.5 16.4626C22.5 16.4595 22.5 16.4564 22.5 16.4532C22.5 16.4501 22.5 16.447 22.5 16.4438C22.5 16.4407 22.5 16.4375 22.5 16.4344C22.5 16.4313 22.5 16.4281 22.5 16.425C22.5 16.4219 22.5 16.4187 22.5 16.4156C22.5 16.4124 22.5 16.4093 22.5 16.4062C22.5 16.403 22.5 16.3999 22.5 16.3967C22.5 16.3936 22.5 16.3904 22.5 16.3873C22.5 16.3842 22.5 16.381 22.5 16.3779C22.5 16.3747 22.5 16.3716 22.5 16.3685C22.5 16.3653 22.5 16.3622 22.5 16.359C22.5 16.3559 22.5 16.3527 22.5 16.3496C22.5 16.3464 22.5 16.3433 22.5 16.3402C22.5 16.337 22.5 16.3339 22.5 16.3307C22.5 16.3276 22.5 16.3244 22.5 16.3213C22.5 16.3181 22.5 16.315 22.5 16.3118C22.5 16.3087 22.5 16.3056 22.5 16.3024C22.5 16.2993 22.5 16.2961 22.5 16.293C22.5 16.2898 22.5 16.2867 22.5 16.2835C22.5 16.2804 22.5 16.2772 22.5 16.2741C22.5 16.2709 22.5 16.2678 22.5 16.2646C22.5 16.2615 22.5 16.2583 22.5 16.2552C22.5 16.252 22.5 16.2489 22.5 16.2457C22.5 16.2426 22.5 16.2394 22.5 16.2363C22.5 16.2331 22.5 16.23 22.5 16.2268C22.5 16.2237 22.5 16.2205 22.5 16.2174C22.5 16.2142 22.5 16.2111 22.5 16.2079C22.5 16.2048 22.5 16.2016 22.5 16.1985C22.5 16.1953 22.5 16.1922 22.5 16.189C22.5 16.1859 22.5 16.1827 22.5 16.1796C22.5 16.1764 22.5 16.1733 22.5 16.1701C22.5 16.167 22.5 16.1638 22.5 16.1607C22.5 16.1575 22.5 16.1544 22.5 16.1512C22.5 16.148 22.5 16.1449 22.5 16.1417C22.5 16.1386 22.5 16.1354 22.5 16.1323C22.5 16.1291 22.5 16.126 22.5 16.1228C22.5 16.1197 22.5 16.1165 22.5 16.1134C22.5 16.1102 22.5 16.1071 22.5 16.1039C22.5 16.1008 22.5 16.0976 22.5 16.0944C22.5 16.0913 22.5 16.0881 22.5 16.085C22.5 16.0818 22.5 16.0787 22.5 16.0755C22.5 16.0724 22.5 16.0692 22.5 16.0661C22.5 16.0629 22.5 16.0598 22.5 16.0566C22.5 16.0534 22.5 16.0503 22.5 16.0471C22.5 16.044 22.5 16.0408 22.5 16.0377C22.5 16.0345 22.5 16.0314 22.5 16.0282C22.5 16.0251 22.5 16.0219 22.5 16.0188C22.5 16.0156 22.5 16.0124 22.5 16.0093C22.5 16.0061 22.5 16.003 22.5 15.9998C22.5 15.9967 22.5 15.9935 22.5 15.9904C22.5 15.9872 22.5 15.9841 22.5 15.9809C22.5 15.9778 22.5 15.9746 22.5 15.9714C22.5 15.9683 22.5 15.9651 22.5 15.962C22.5 15.9588 22.5 15.9557 22.5 15.9525C22.5 15.9494 22.5 15.9462 22.5 15.9431C22.5 15.9399 22.5 15.9368 22.5 15.9336C22.5 15.9305 22.5 15.9273 22.5 15.9242C22.5 15.921 22.5 15.9178 22.5 15.9147C22.5 15.9115 22.5 15.9084 22.5 15.9052C22.5 15.9021 22.5 15.8989 22.5 15.8958C22.5 15.8926 22.5 15.8895 22.5 15.8863C22.5 15.8832 22.5 15.88 22.5 15.8769C22.5 15.8737 22.5 15.8706 22.5 15.8674C22.5 15.8643 22.5 15.8611 22.5 15.858C22.5 15.8548 22.5 15.8517 22.5 15.8485C22.5 15.8454 22.5 15.8422 22.5 15.8391C22.5 15.8359 22.5 15.8328 22.5 15.8296C22.5 15.8265 22.5 15.8233 22.5 15.8202C22.5 15.817 22.5 15.8139 22.5 15.8107C22.5 15.8076 22.5 15.8044 22.5 15.8013C22.5 15.7981 22.5 15.795 22.5 15.7918C22.5 15.7887 22.5 15.7855 22.5 15.7824C22.5 15.7792 22.5 15.7761 22.5 15.7729C22.5 15.7698 22.5 15.7666 22.5 15.7635C22.5 15.7604 22.5 15.7572 22.5 15.7541C22.5 15.7509 22.5 15.7478 22.5 15.7446C22.5 15.7415 22.5 15.7383 22.5 15.7352C22.5 15.732 22.5 15.7289 22.5 15.7258C22.5 15.7226 22.5 15.7195 22.5 15.7163C22.5 15.7132 22.5 15.71 22.5 15.7069C22.5 15.7038 22.5 15.7006 22.5 15.6975C22.5 15.6943 22.5 15.6912 22.5 15.688C22.5 15.6849 22.5 15.6818 22.5 15.6786C22.5 15.6755 22.5 15.6723 22.5 15.6692C22.5 15.6661 22.5 15.6629 22.5 15.6598C22.5 15.6566 22.5 15.6535 22.5 15.6504C22.5 15.6472 22.5 15.6441 22.5 15.6409C22.5 15.6378 22.5 15.6347 22.5 15.6315C22.5 15.6284 22.5 15.6252 22.5 15.6221C22.5 15.619 22.5 15.6158 22.5 15.6127C22.5 15.6096 22.5 15.6064 22.5 15.6033C22.5 15.6002 22.5 15.597 22.5 15.5939C22.5 15.5908 22.5 15.5876 22.5 15.5845C22.5 15.5814 22.5 15.5782 22.5 15.5751C22.5 15.572 22.5 15.5688 22.5 15.5657C22.5 15.5626 22.5 15.5594 22.5 15.5563C22.5 15.5532 22.5 15.55 22.5 15.5469C22.5 15.5438 22.5 15.5407 22.5 15.5375C22.5 15.5344 22.5 15.5313 22.5 15.5281C22.5 15.525 22.5 15.5219 22.5 15.5188C22.5 15.5156 22.5 15.5125 22.5 15.5094C22.5 15.5063 22.5 15.5031 22.5 15.5H20.5ZM20.6056 19.9472L21.1056 20.9472L22.8944 20.0528L22.3944 19.0528L20.6056 19.9472ZM12.6354 19.1372L12.1354 19.9975L13.8646 21.0025L14.3646 20.1421L12.6354 19.1372ZM12 20.5V21.5H14V20.5H12ZM12.5691 22.4024L14.6632 23.4024L15.525 21.5976L13.4309 20.5976L12.5691 22.4024ZM15.0941 23.5H20V21.5H15.0941V23.5ZM20.4472 23.3944L22.4472 22.3944L21.5528 20.6056L19.5528 21.6056L20.4472 23.3944ZM23 21.5V20.5H21V21.5H23Z" fill="#889097"/>
<path d="M18.5 12.5C18.5 11.9477 18.0523 11.5 17.5 11.5C16.9477 11.5 16.5 11.9477 16.5 12.5H18.5ZM18.5 13.5V12.5H16.5V13.5H18.5Z" fill="#889097"/>
<mask id="path-5-inside-1_909_82" fill="white">
<path d="M15.7551 10.6219C15.5157 9.96969 15.1107 9.39108 14.5797 8.94303C14.0488 8.49498 13.4103 8.19293 12.7271 8.06664C12.044 7.94036 11.3397 7.99417 10.6837 8.2228C10.0276 8.45142 9.44246 8.84697 8.98576 9.37049C8.52906 9.89401 8.21658 10.5275 8.0791 11.2084C7.94162 11.8894 7.98388 12.5945 8.20171 13.2542C8.41954 13.9139 8.80544 14.5055 9.3214 14.9707C9.83736 15.4359 10.4656 15.7588 11.1442 15.9074L11.5721 13.9537C11.2328 13.8794 10.9187 13.718 10.6607 13.4854C10.4027 13.2527 10.2098 12.9569 10.1009 12.6271C9.99194 12.2972 9.97081 11.9447 10.0396 11.6042C10.1083 11.2637 10.2645 10.947 10.4929 10.6852C10.7212 10.4235 11.0138 10.2257 11.3418 10.1114C11.6699 9.99709 12.022 9.97018 12.3636 10.0333C12.7051 10.0965 13.0244 10.2475 13.2899 10.4715C13.5553 10.6955 13.7579 10.9848 13.8776 11.3109L15.7551 10.6219Z"/>
</mask>
<path d="M15.7551 10.6219C15.5157 9.96969 15.1107 9.39108 14.5797 8.94303C14.0488 8.49498 13.4103 8.19293 12.7271 8.06664C12.044 7.94036 11.3397 7.99417 10.6837 8.2228C10.0276 8.45142 9.44246 8.84697 8.98576 9.37049C8.52906 9.89401 8.21658 10.5275 8.0791 11.2084C7.94162 11.8894 7.98388 12.5945 8.20171 13.2542C8.41954 13.9139 8.80544 14.5055 9.3214 14.9707C9.83736 15.4359 10.4656 15.7588 11.1442 15.9074L11.5721 13.9537C11.2328 13.8794 10.9187 13.718 10.6607 13.4854C10.4027 13.2527 10.2098 12.9569 10.1009 12.6271C9.99194 12.2972 9.97081 11.9447 10.0396 11.6042C10.1083 11.2637 10.2645 10.947 10.4929 10.6852C10.7212 10.4235 11.0138 10.2257 11.3418 10.1114C11.6699 9.99709 12.022 9.97018 12.3636 10.0333C12.7051 10.0965 13.0244 10.2475 13.2899 10.4715C13.5553 10.6955 13.7579 10.9848 13.8776 11.3109L15.7551 10.6219Z" stroke="#889097" stroke-width="4" mask="url(#path-5-inside-1_909_82)"/>
</svg>
