<svg width="200" height="120" viewBox="0 0 200 120" fill="none" xmlns="http://www.w3.org/2000/svg">
<rect width="200" height="120" rx="3" fill="#E3E3E3"/>
<rect x="14" y="15" width="56" height="64" rx="2" fill="#EFEFEF"/>
<path d="M47.62 48.56C48.886 47.2005 49.5991 45.4175 49.62 43.56C49.62 41.555 48.8235 39.632 47.4057 38.2143C45.988 36.7965 44.065 36 42.06 36C40.055 36 38.132 36.7965 36.7143 38.2143C35.2965 39.632 34.5 41.555 34.5 43.56C34.5209 45.4175 35.234 47.2005 36.5 48.56C34.7373 49.4377 33.2204 50.7399 32.0858 52.3493C30.9512 53.9587 30.2345 55.8249 30 57.78C29.9417 58.3104 30.0964 58.8423 30.4302 59.2587C30.764 59.675 31.2496 59.9417 31.78 60C32.3104 60.0583 32.8423 59.9036 33.2586 59.5698C33.675 59.236 33.9417 58.7504 34 58.22C34.2387 56.2823 35.1777 54.4987 36.6402 53.2053C38.1027 51.9119 39.9876 51.198 41.94 51.198C43.8924 51.198 45.7773 51.9119 47.2398 53.2053C48.7023 54.4987 49.6413 56.2823 49.88 58.22C49.9356 58.7328 50.1872 59.2043 50.5823 59.536C50.9773 59.8677 51.4853 60.034 52 60H52.22C52.7443 59.9397 53.2235 59.6746 53.5531 59.2625C53.8828 58.8504 54.0362 58.3247 53.98 57.8C53.7629 55.8552 53.0688 53.9941 51.9592 52.3821C50.8497 50.7701 49.3591 49.4572 47.62 48.56ZM42 47.12C41.2959 47.12 40.6076 46.9112 40.0222 46.52C39.4367 46.1289 38.9804 45.5729 38.711 44.9224C38.4415 44.2718 38.371 43.5561 38.5084 42.8655C38.6458 42.1749 38.9848 41.5406 39.4827 41.0427C39.9806 40.5448 40.6149 40.2058 41.3055 40.0684C41.9961 39.931 42.7118 40.0015 43.3624 40.271C44.0129 40.5404 44.5689 40.9967 44.96 41.5822C45.3512 42.1676 45.56 42.8559 45.56 43.56C45.56 44.5042 45.1849 45.4097 44.5173 46.0773C43.8497 46.7449 42.9442 47.12 42 47.12ZM56 28H28C26.4087 28 24.8826 28.6321 23.7574 29.7574C22.6321 30.8826 22 32.4087 22 34V62C22 63.5913 22.6321 65.1174 23.7574 66.2426C24.8826 67.3679 26.4087 68 28 68H56C57.5913 68 59.1174 67.3679 60.2426 66.2426C61.3679 65.1174 62 63.5913 62 62V34C62 32.4087 61.3679 30.8826 60.2426 29.7574C59.1174 28.6321 57.5913 28 56 28ZM58 62C58 62.5304 57.7893 63.0391 57.4142 63.4142C57.0391 63.7893 56.5304 64 56 64H28C27.4696 64 26.9609 63.7893 26.5858 63.4142C26.2107 63.0391 26 62.5304 26 62V34C26 33.4696 26.2107 32.9609 26.5858 32.5858C26.9609 32.2107 27.4696 32 28 32H56C56.5304 32 57.0391 32.2107 57.4142 32.5858C57.7893 32.9609 58 33.4696 58 34V62Z" fill="#B3B3B3"/>
<rect x="78" y="15" width="49" height="10" rx="3" fill="#C4C4C4"/>
<rect x="78" y="55" width="49" height="10" rx="3" fill="#C4C4C4"/>
<rect x="78" y="83" width="99" height="10" rx="3" fill="#C4C4C4"/>
<rect x="78" y="69" width="49" height="10" rx="3" fill="#C4C4C4"/>
<rect x="14" y="83" width="56" height="10" rx="3" fill="#C4C4C4"/>
<rect x="14" y="97" width="56" height="10" rx="3" fill="#C4C4C4"/>
<rect x="78" y="97" width="99" height="10" rx="3" fill="#C4C4C4"/>
<rect x="78" y="28" width="80" height="10" rx="3" fill="#C4C4C4"/>
<rect x="78" y="41" width="66" height="10" rx="3" fill="#C4C4C4"/>
</svg>
