<svg width="20" height="20" viewBox="0 0 20 20" fill="none" xmlns="http://www.w3.org/2000/svg">
<path d="M10 0L12.0472 1.03066L14.3388 0.990312L15.7361 2.80715L17.8183 3.7651L18.2889 6.00827L19.7493 7.77479L19.2 10L19.7493 12.2252L18.2889 13.9917L17.8183 16.2349L15.7361 17.1929L14.3388 19.0097L12.0472 18.9693L10 20L7.95281 18.9693L5.66116 19.0097L4.26389 17.1929L2.18168 16.2349L1.71109 13.9917L0.250721 12.2252L0.8 10L0.250721 7.77479L1.71109 6.00827L2.18168 3.7651L4.26389 2.80715L5.66116 0.990312L7.95281 1.03066L10 0Z" fill="#4694DC"/>
</svg>
