<svg width="20" height="18" viewBox="0 0 20 18" fill="#FCD406" xmlns="http://www.w3.org/2000/svg">
    <path d="M19.1664 6.86369C19.1085 6.69602 19.0032 6.54875 18.8632 6.43973C18.7233 6.33072 18.5548 6.26464 18.378 6.24952L13.1622 5.48869L10.8247 0.749523C10.7496 0.594541 10.6324 0.463836 10.4865 0.372382C10.3406 0.280927 10.1719 0.232422 9.99969 0.232422C9.82749 0.232422 9.65877 0.280927 9.51286 0.372382C9.36695 0.463836 9.24975 0.594541 9.17469 0.749523L6.83719 5.47952L1.62136 6.24952C1.45171 6.27364 1.29221 6.34482 1.16097 6.455C1.02972 6.56518 0.931991 6.70994 0.878861 6.87286C0.830227 7.03206 0.825863 7.2015 0.866237 7.36299C0.90661 7.52449 0.990197 7.67194 1.10803 7.78952L4.89386 11.4562L3.97719 16.6629C3.94019 16.8356 3.95387 17.0153 4.0166 17.1804C4.07933 17.3456 4.18843 17.4891 4.33078 17.5936C4.47313 17.6982 4.64267 17.7595 4.819 17.77C4.99532 17.7805 5.17093 17.7398 5.32469 17.6529L9.99969 15.2054L14.6747 17.6529C14.8033 17.7254 14.9486 17.7633 15.0964 17.7629C15.2905 17.7635 15.4799 17.7026 15.6372 17.5887C15.7794 17.4868 15.8895 17.3464 15.9545 17.1839C16.0194 17.0215 16.0366 16.8439 16.0039 16.672L15.0872 11.4654L18.873 7.79869C19.0054 7.68656 19.1032 7.53918 19.1551 7.37368C19.207 7.20817 19.2109 7.03132 19.1664 6.86369Z"
          />
</svg>
