<svg width="24" height="24" viewBox="0 0 24 24" fill="none" xmlns="http://www.w3.org/2000/svg">
<path d="M18.4199 8.22038C17.8089 6.81639 16.7544 5.65146 15.418 4.90411C14.0815 4.15676 12.5369 3.86822 11.0209 4.08269C9.50477 4.29717 8.10082 5.00284 7.02415 6.09156C5.94747 7.18028 5.25748 8.592 5.05989 10.1104C4.10648 10.3387 3.27011 10.9092 2.70963 11.7136C2.14914 12.5179 1.90357 13.5001 2.01955 14.4736C2.13553 15.4471 2.60498 16.3441 3.33876 16.9942C4.07253 17.6444 5.01952 18.0024 5.99989 18.0004C6.26511 18.0004 6.51946 17.895 6.707 17.7075C6.89453 17.52 6.99989 17.2656 6.99989 17.0004C6.99989 16.7352 6.89453 16.4808 6.707 16.2933C6.51946 16.1057 6.26511 16.0004 5.99989 16.0004C5.46946 16.0004 4.96075 15.7897 4.58568 15.4146C4.2106 15.0395 3.99989 14.5308 3.99989 14.0004C3.99989 13.47 4.2106 12.9612 4.58568 12.5862C4.96075 12.2111 5.46946 12.0004 5.99989 12.0004C6.26511 12.0004 6.51946 11.895 6.707 11.7075C6.89453 11.52 6.99989 11.2656 6.99989 11.0004C7.00244 9.81766 7.42418 8.67414 8.19016 7.77297C8.95614 6.8718 10.0168 6.27133 11.1836 6.07826C12.3505 5.88518 13.548 6.11199 14.5635 6.71839C15.5789 7.32479 16.3465 8.27152 16.7299 9.39038C16.7871 9.56222 16.8898 9.71532 17.0272 9.83332C17.1646 9.95132 17.3314 10.0298 17.5099 10.0604C18.176 10.1863 18.7798 10.534 19.2229 11.0469C19.6661 11.5598 19.9225 12.2077 19.9503 12.885C19.9781 13.5623 19.7758 14.2291 19.3762 14.7766C18.9766 15.3242 18.4034 15.7203 17.7499 15.9004C17.4926 15.9667 17.2722 16.1325 17.1372 16.3613C17.0022 16.5901 16.9636 16.8631 17.0299 17.1204C17.0962 17.3776 17.262 17.598 17.4908 17.7331C17.7196 17.8681 17.9926 17.9067 18.2499 17.8404C19.3023 17.5623 20.2352 16.9484 20.9069 16.0918C21.5786 15.2353 21.9525 14.183 21.9717 13.0947C21.991 12.0063 21.6545 10.9414 21.0135 10.0617C20.3724 9.18198 19.4618 8.53548 18.4199 8.22038ZM12.7099 10.2904C12.6148 10.1993 12.5026 10.128 12.3799 10.0804C12.1364 9.98037 11.8634 9.98037 11.6199 10.0804C11.4971 10.128 11.385 10.1993 11.2899 10.2904L8.28989 13.2904C8.10159 13.4787 7.9958 13.7341 7.9958 14.0004C7.9958 14.2667 8.10159 14.5221 8.28989 14.7104C8.47819 14.8987 8.73359 15.0045 8.99989 15.0045C9.26619 15.0045 9.52159 14.8987 9.70989 14.7104L10.9999 13.4104V19.0004C10.9999 19.2656 11.1052 19.52 11.2928 19.7075C11.4803 19.895 11.7347 20.0004 11.9999 20.0004C12.2651 20.0004 12.5195 19.895 12.707 19.7075C12.8945 19.52 12.9999 19.2656 12.9999 19.0004V13.4104L14.2899 14.7104C14.3829 14.8041 14.4935 14.8785 14.6153 14.9293C14.7372 14.98 14.8679 15.0062 14.9999 15.0062C15.1319 15.0062 15.2626 14.98 15.3845 14.9293C15.5063 14.8785 15.6169 14.8041 15.7099 14.7104C15.8036 14.6174 15.878 14.5068 15.9288 14.385C15.9796 14.2631 16.0057 14.1324 16.0057 14.0004C16.0057 13.8684 15.9796 13.7377 15.9288 13.6158C15.878 13.4939 15.8036 13.3833 15.7099 13.2904L12.7099 10.2904Z" fill="#889097"/>
</svg>
