<svg width="32" height="32" viewBox="0 0 32 32" fill="none" xmlns="http://www.w3.org/2000/svg">
<path d="M26.6666 14.0007C26.313 14.0007 25.9738 14.1411 25.7238 14.3912C25.4737 14.6412 25.3333 14.9804 25.3333 15.334V24.6673C25.3333 25.0209 25.1928 25.3601 24.9427 25.6101C24.6927 25.8602 24.3535 26.0007 23.9999 26.0007H5.33325C4.97963 26.0007 4.64049 25.8602 4.39044 25.6101C4.14039 25.3601 3.99992 25.0209 3.99992 24.6673V14.0007C3.99992 13.647 4.14039 13.3079 4.39044 13.0578C4.64049 12.8078 4.97963 12.6673 5.33325 12.6673H7.99992C8.29067 12.6825 8.5784 12.6021 8.81916 12.4384C9.05992 12.2746 9.24048 12.0366 9.33325 11.7607L10.0533 9.57398C10.1427 9.30916 10.3131 9.07914 10.5404 8.91644C10.7677 8.75374 11.0404 8.6666 11.3199 8.66732H18.6666C19.0202 8.66732 19.3593 8.52684 19.6094 8.27679C19.8594 8.02674 19.9999 7.68761 19.9999 7.33398C19.9999 6.98036 19.8594 6.64122 19.6094 6.39118C19.3593 6.14113 19.0202 6.00065 18.6666 6.00065H11.2533C10.4153 6.00222 9.59903 6.2669 8.91961 6.75732C8.24018 7.24775 7.73193 7.93917 7.46659 8.73398L7.03992 10.0673H5.33325C4.27239 10.0673 3.25497 10.4887 2.50482 11.2389C1.75468 11.989 1.33325 13.0065 1.33325 14.0673V24.734C1.33325 25.7948 1.75468 26.8123 2.50482 27.5624C3.25497 28.3126 4.27239 28.734 5.33325 28.734H23.9999C25.0608 28.734 26.0782 28.3126 26.8283 27.5624C27.5785 26.8123 27.9999 25.7948 27.9999 24.734V15.4007C28.009 15.22 27.9812 15.0395 27.9182 14.8699C27.8553 14.7004 27.7585 14.5454 27.6338 14.4144C27.509 14.2835 27.359 14.1793 27.1927 14.1081C27.0264 14.037 26.8474 14.0004 26.6666 14.0007ZM14.6666 12.6673C13.6118 12.6673 12.5806 12.9801 11.7035 13.5661C10.8265 14.1522 10.1429 14.9851 9.73923 15.9597C9.33556 16.9342 9.22994 18.0066 9.43573 19.0411C9.64152 20.0757 10.1495 21.026 10.8953 21.7719C11.6412 22.5178 12.5915 23.0257 13.6261 23.2315C14.6607 23.4373 15.733 23.3317 16.7076 22.928C17.6821 22.5243 18.5151 21.8408 19.1011 20.9637C19.6871 20.0866 19.9999 19.0555 19.9999 18.0007C19.9999 16.5862 19.438 15.2296 18.4378 14.2294C17.4376 13.2292 16.0811 12.6673 14.6666 12.6673ZM14.6666 20.6673C14.1392 20.6673 13.6236 20.5109 13.1851 20.2179C12.7465 19.9249 12.4047 19.5084 12.2029 19.0211C12.0011 18.5339 11.9483 17.9977 12.0512 17.4804C12.1541 16.9631 12.408 16.488 12.781 16.115C13.1539 15.7421 13.6291 15.4881 14.1463 15.3852C14.6636 15.2823 15.1998 15.3351 15.6871 15.537C16.1743 15.7388 16.5908 16.0806 16.8838 16.5191C17.1769 16.9577 17.3333 17.4732 17.3333 18.0007C17.3333 18.7079 17.0523 19.3862 16.5522 19.8863C16.0521 20.3864 15.3738 20.6673 14.6666 20.6673ZM29.3333 6.00065H27.9999V4.66732C27.9999 4.3137 27.8594 3.97456 27.6094 3.72451C27.3593 3.47446 27.0202 3.33398 26.6666 3.33398C26.313 3.33398 25.9738 3.47446 25.7238 3.72451C25.4737 3.97456 25.3333 4.3137 25.3333 4.66732V6.00065H23.9999C23.6463 6.00065 23.3072 6.14113 23.0571 6.39118C22.8071 6.64122 22.6666 6.98036 22.6666 7.33398C22.6666 7.68761 22.8071 8.02674 23.0571 8.27679C23.3072 8.52684 23.6463 8.66732 23.9999 8.66732H25.3333V10.0007C25.3333 10.3543 25.4737 10.6934 25.7238 10.9435C25.9738 11.1935 26.313 11.334 26.6666 11.334C27.0202 11.334 27.3593 11.1935 27.6094 10.9435C27.8594 10.6934 27.9999 10.3543 27.9999 10.0007V8.66732H29.3333C29.6869 8.66732 30.026 8.52684 30.2761 8.27679C30.5261 8.02674 30.6666 7.68761 30.6666 7.33398C30.6666 6.98036 30.5261 6.64122 30.2761 6.39118C30.026 6.14113 29.6869 6.00065 29.3333 6.00065Z" fill="#889097"/>
</svg>
