<svg width="22" height="22" viewBox="0 0 22 22" fill="none" xmlns="http://www.w3.org/2000/svg">
  <path d="M20.1664 8.86369C20.1085 8.69602 20.0032 8.54875 19.8632 8.43973C19.7233 8.33072 19.5548 8.26464 19.378 8.24952L14.1622 7.48869L11.8247 2.74952C11.7496 2.59454 11.6324 2.46384 11.4865 2.37238C11.3406 2.28093 11.1719 2.23242 10.9997 2.23242C10.8275 2.23242 10.6588 2.28093 10.5129 2.37238C10.367 2.46384 10.2498 2.59454 10.1747 2.74952L7.83719 7.47952L2.62136 8.24952C2.45171 8.27364 2.29221 8.34482 2.16097 8.455C2.02972 8.56518 1.93199 8.70994 1.87886 8.87286C1.83023 9.03206 1.82586 9.2015 1.86624 9.36299C1.90661 9.52449 1.9902 9.67194 2.10803 9.78952L5.89386 13.4562L4.97719 18.6629C4.94019 18.8356 4.95387 19.0153 5.0166 19.1804C5.07933 19.3456 5.18843 19.4891 5.33078 19.5936C5.47313 19.6982 5.64267 19.7595 5.819 19.77C5.99532 19.7805 6.17093 19.7398 6.32469 19.6529L10.9997 17.2054L15.6747 19.6529C15.8033 19.7254 15.9486 19.7633 16.0964 19.7629C16.2905 19.7635 16.4799 19.7026 16.6372 19.5887C16.7794 19.4868 16.8895 19.3464 16.9545 19.1839C17.0194 19.0215 17.0366 18.8439 17.0039 18.672L16.0872 13.4654L19.873 9.79869C20.0054 9.68656 20.1032 9.53918 20.1551 9.37368C20.207 9.20817 20.2109 9.03132 20.1664 8.86369Z" fill="#FCD406"/>
</svg>