<svg width="40" height="40" viewBox="0 0 40 40" fill="none" xmlns="http://www.w3.org/2000/svg">
<path d="M20 40C14.6956 40 9.60865 37.8929 5.85796 34.142C2.10713 30.3915 0 25.3042 0 20C0 14.6958 2.10713 9.60865 5.85796 5.85796C9.6085 2.10713 14.6958 0 20 0C25.3042 0 30.3914 2.10713 34.142 5.85796C37.8929 9.6085 40 14.6958 40 20C39.9936 25.3024 37.8845 30.3856 34.1351 34.1349C30.386 37.8843 25.3023 39.9934 20.0002 39.9998L20 40ZM20 2.93598C15.4744 2.93598 11.1343 4.73368 7.93366 7.93401C4.73332 11.1341 2.93562 15.4747 2.93562 20.0004C2.93562 24.526 4.73332 28.866 7.93366 32.0667C11.1337 35.267 15.4743 37.0647 20 37.0647C24.5257 37.0647 28.8657 35.267 32.0663 32.0667C35.2667 28.8667 37.0644 24.526 37.0644 20.0004C37.0591 15.4764 35.2594 11.139 32.0605 7.94044C28.8616 4.74189 24.5241 2.94191 20.0006 2.93655L20 2.93598Z" fill="#889097"/>
<path d="M20 17.4316C20.9121 17.4316 21.6515 18.3438 21.6515 19.0831V29.7252C21.6515 30.6373 20.9121 31.3767 20 31.3767C19.0879 31.3767 18.3485 30.4645 18.3485 29.7252V19.0831C18.3485 18.171 19.0879 17.4316 20 17.4316Z" fill="#889097"/>
<path d="M22.3849 11.9264C22.3849 13.2436 21.3169 14.3117 19.9996 14.3117C18.6823 14.3117 17.6143 13.2436 17.6143 11.9264C17.6143 10.6089 18.6823 9.54102 19.9996 9.54102C21.3169 9.54102 22.3849 10.6088 22.3849 11.9264Z" fill="#889097"/>
</svg>
