<svg width="265" height="140" viewBox="0 0 265 140" fill="none" xmlns="http://www.w3.org/2000/svg">
<path fill-rule="evenodd" clip-rule="evenodd" d="M67.5014 131.369C67.5014 131.369 4.52437 119.571 0.255735 104.001C-4.0129 88.4319 46.5693 80.9311 46.5693 80.9311C46.5693 80.9311 70.8246 76.8295 74.5388 73.5063C78.2529 70.1831 152.191 71.465 187.915 44.966C223.64 18.467 235.439 5.02949 253.099 20.0813C270.759 35.1332 266.484 79.7617 247.013 105.565C227.543 131.369 150.085 135.669 150.085 135.669L67.5014 131.369Z" fill="#E9FDEA"/>
<path d="M158.483 44.2055C160.376 64.4356 161.954 84.6952 163.215 104.974C163.364 107.37 163.455 109.971 162.084 111.944C161.164 113.268 159.708 114.111 158.255 114.813C152.938 117.384 147.079 118.624 141.237 119.502C125.31 121.895 109.002 121.751 93.1202 119.076C89.9775 118.546 86.7889 117.896 84.018 116.325C81.2472 114.754 78.9192 112.102 78.504 108.95C75.0468 82.7022 73.1116 56.2547 72.7113 29.7842C72.6823 27.8664 72.6149 25.805 71.463 24.2693C70.2153 22.6057 67.9859 21.9633 66.5766 20.4335C64.1454 17.7946 65.06 13.2882 67.6107 10.7641C70.1615 8.24 73.8219 7.23819 77.338 6.50105C87.6106 4.34749 98.184 3.62646 108.655 4.36546C108.964 5.2079 107.693 5.68048 106.794 5.68155C96.957 5.69324 87.121 6.4966 77.413 8.08124C73.8556 8.66192 69.9771 9.5492 67.8221 12.4316C77.6248 15.6543 88.1347 15.8381 98.4558 15.917C116.905 16.0579 135.486 15.9477 153.6 12.4533C155.213 12.1422 156.961 11.7197 157.961 10.4201C158.961 9.12038 158.49 6.71343 156.859 6.52362C142.9 4.89951 128.797 4.50869 114.769 5.35723C113.686 5.42275 112.09 4.77265 112.621 3.82815C125.488 3.21831 138.398 3.50129 151.226 4.67437C154.671 4.98938 158.299 5.44034 161.055 7.52533C163.98 9.7381 165.438 13.7189 164.631 17.2913C163.824 20.8637 160.796 23.8364 157.202 24.5841" fill="white"/>
<path fill-rule="evenodd" clip-rule="evenodd" d="M106.629 1.0378C106.528 0.650059 106.675 0.184587 107.031 0C107.147 0.241558 107.263 0.483117 107.38 0.724675C107.137 0.87408 106.894 1.02349 106.652 1.17289L106.629 1.0378Z" fill="#E7EAEE"/>
<path d="M77.5825 136.449C77.7369 137.212 77.6469 138.017 77.3271 138.734C78.2192 138.826 79.1238 138.813 80.0123 138.693C79.3958 139.632 77.8155 139.895 76.9689 139.129C76.1222 138.364 76.4556 136.767 77.5825 136.449L77.5825 136.449Z" fill="white"/>
<path fill-rule="evenodd" clip-rule="evenodd" d="M180.931 42.6703C180.474 42.1288 180.016 41.5872 179.537 41.0672C178.059 39.4628 176.248 38.0001 174.093 37.6744C173.865 37.6401 173.635 37.6186 173.406 37.5971C172.942 37.5538 172.479 37.5106 172.04 37.362C171.453 37.1633 170.943 36.7871 170.471 36.3854C169.831 35.8412 169.214 35.2274 168.596 34.6123C166.778 32.8029 164.949 30.9818 162.48 30.886C159.881 30.785 157.441 33.1193 157.423 35.7232C157.408 37.9077 158.822 39.8097 160.17 41.528L183.608 71.4134L198.14 89.9427C200.016 92.3351 202.482 94.9833 205.492 94.5662C208.197 94.1913 210.014 91.0137 209.243 88.3913C208.947 87.3836 208.363 86.504 207.778 85.6226C207.268 84.8538 206.757 84.0837 206.435 83.2262C205.923 81.86 205.927 80.3928 205.932 78.919C205.935 77.791 205.939 76.6592 205.71 75.5659C205.204 73.1437 203.61 71.1098 201.987 69.2428C201.109 68.2325 200.179 66.7363 201.018 65.6938C202.017 64.4531 201.518 62.6212 200.887 61.1583C198.863 56.462 195.923 52.163 192.282 48.5741C190.723 47.0375 188.455 45.5417 186.504 46.5339C185.682 46.9522 184.699 46.4387 183.983 45.8571C182.838 44.9279 181.885 43.7995 180.931 42.6703ZM198.098 62.1235C198.254 62.9179 198.105 63.816 197.528 64.3825C197.386 64.5218 197.209 64.6425 197.01 64.6506C196.671 64.6643 196.414 64.3606 196.214 64.0861L187.133 51.6261C186.784 51.1468 187.027 50.4013 187.536 50.097C188.045 49.7927 188.71 49.8646 189.238 50.134C189.766 50.4034 190.185 50.843 190.585 51.2803C193.026 53.9454 195.212 56.8439 197.104 59.9234C197.527 60.613 197.943 61.329 198.098 62.1235Z" fill="white"/>
<path fill-rule="evenodd" clip-rule="evenodd" d="M161.873 105C161.953 106.112 162.029 107.253 161.708 108.321C161.101 110.336 159.223 111.678 157.388 112.714C148.897 117.509 138.951 119.062 129.206 119.54C114.946 120.239 100.581 118.806 86.7422 115.302C83.8305 114.564 81.6189 112.079 80.4452 109.321C79.2716 106.563 78.9748 103.525 78.6916 100.541C76.3165 75.5286 73.9393 50.4721 73.9111 25.3474C100.216 30.5568 127.573 30.4277 153.827 24.9703C155.486 24.6254 156.488 26.8262 156.396 28.5141C156.38 28.7996 156.355 29.0929 156.329 29.389L156.329 29.3893L156.329 29.3896L156.329 29.3899L156.329 29.3902C156.203 30.8445 156.071 32.3675 157.051 33.3755L157.202 24.5841C160.796 23.8364 163.824 20.8637 164.631 17.2913C165.438 13.7189 163.98 9.7381 161.055 7.52533C158.299 5.44034 154.671 4.98938 151.226 4.67437C138.398 3.50129 125.488 3.21831 112.621 3.82815C112.09 4.77265 113.686 5.42275 114.769 5.35723C128.797 4.50869 142.9 4.89951 156.859 6.52362C158.49 6.71343 158.961 9.12038 157.961 10.4201C156.961 11.7197 155.213 12.1422 153.6 12.4533C135.486 15.9477 116.905 16.0579 98.4558 15.917C88.1347 15.8381 77.6248 15.6543 67.8221 12.4316C69.9771 9.5492 73.8556 8.66192 77.413 8.08124C87.121 6.4966 96.957 5.69324 106.794 5.68155C107.693 5.68048 108.964 5.2079 108.655 4.36546C98.184 3.62646 87.6106 4.34749 77.338 6.50105C73.8219 7.23819 70.1615 8.24 67.6107 10.7641C65.06 13.2882 64.1454 17.7946 66.5766 20.4335C67.2267 21.1392 68.0514 21.6561 68.8737 22.1715C69.8339 22.7733 70.7909 23.3732 71.463 24.2693C72.6149 25.805 72.6823 27.8664 72.7113 29.7842C73.1116 56.2547 75.0468 82.7022 78.504 108.95C78.9192 112.102 81.2472 114.754 84.018 116.325C86.7889 117.896 89.9775 118.546 93.1202 119.076C109.002 121.751 125.31 121.895 141.237 119.502C147.079 118.624 152.938 117.384 158.255 114.813C159.708 114.111 161.164 113.268 162.084 111.944C163.455 109.971 163.364 107.37 163.215 104.974C161.954 84.6952 160.376 64.4356 158.483 44.2055C158.354 42.8308 158.178 41.3498 157.24 40.335L161.873 105ZM70.3901 21.7542C67.8102 19.8878 66.0266 16.5671 66.8918 13.5074C70.0254 14.9479 73.355 15.9638 76.7603 16.5185C79.324 16.9361 81.9225 17.0928 84.5167 17.2259C107.333 18.396 130.316 17.7734 152.84 13.9509C156.235 13.3747 160.147 12.3172 161.448 9.13672C162.358 11.0977 163.171 13.1526 163.301 15.3094C163.431 17.4662 162.786 19.7618 161.172 21.2023C159.715 22.5017 157.704 22.9441 155.786 23.3186C130.62 28.2329 104.543 29.5551 79.3251 24.9107C76.1909 24.3335 72.9701 23.6207 70.3901 21.7542ZM79.2156 98.0953C79.8403 97.9307 80.4108 98.4288 80.9065 98.8617L80.9742 98.9207C83.5671 101.177 87.6767 101.425 90.5182 99.4976C87.8836 99.6507 85.1695 99.7935 82.6756 98.9232C80.3801 98.1222 78.2425 96.1535 78.2091 93.7039C77.9667 75.9468 76.7591 58.2031 74.5935 40.5791C74.5199 39.9801 74.4623 39.312 74.8247 38.8316C75.4078 38.0588 76.5976 38.2949 77.5093 38.6075L84.2584 40.9218C85.2272 41.254 86.2167 41.5973 87.0209 42.2355C88.9748 43.7859 89.3265 46.5832 89.5187 49.083C90.7208 64.721 91.5869 80.3852 92.1161 96.0611C92.1751 97.8089 92.1332 99.799 90.8418 100.966C90.2663 101.486 89.5103 101.762 88.7508 101.905C86.6457 102.301 84.4885 101.755 82.4301 101.16C80.8741 100.711 78.9747 99.7096 79.2156 98.0953ZM84.0877 98.0888C86.2151 98.4759 88.5845 98.6376 90.3663 97.403C91.0246 87.7448 90.3607 78.0502 89.6969 68.3923L88.3541 48.8561C88.2497 47.337 88.1167 45.7332 87.2478 44.4878C86.2448 43.0501 84.4856 42.4002 82.8365 41.8311L75.8895 39.4336C78.0529 57.1145 79.3355 74.9051 79.731 92.7157C79.7606 94.0472 79.8244 95.4909 80.6665 96.517C81.4829 97.5118 82.8276 97.8595 84.0877 98.0888ZM113.451 101.938C115.64 102.064 117.816 102.415 119.934 102.982C120.433 103.116 120.97 103.829 120.477 103.981C120.397 104.005 120.311 103.996 120.227 103.986L110.167 102.826C108.161 102.595 107.307 100.21 106.887 98.2421C105.233 90.5057 103.574 82.7333 103.111 74.8367C103.011 73.1198 102.967 71.4001 102.923 69.6808L102.297 45.1066C102.684 44.794 103.308 45.0218 103.58 45.4375C103.853 45.8532 103.872 46.379 103.882 46.8754L104.032 54.0422C104.344 68.9232 104.671 83.9364 108.114 98.42C108.288 99.1506 108.481 99.904 108.948 100.493C109.935 101.737 111.74 101.84 113.339 101.932L113.451 101.938ZM154.801 99.2461C156.499 97.0177 156.475 93.9682 156.375 91.1686L155.144 56.5282C155.09 55.0049 155.036 53.4803 154.887 51.9633C154.611 49.1542 154.009 46.3773 153.097 43.7059C152.863 43.0227 152.592 42.3194 152.062 41.8296C151.531 41.3398 150.665 41.1371 150.08 41.5597C150.104 41.889 150.418 42.0875 150.707 42.2704C150.748 42.2959 150.788 42.3212 150.827 42.3464C151.569 42.832 152.02 43.6489 152.391 44.4549C155.161 50.4839 154.957 57.3679 154.759 64.025L154.759 64.0296L154.759 64.0337C154.749 64.3651 154.739 64.6959 154.73 65.0261C154.477 73.8873 154.597 82.7591 155.089 91.6102L155.092 91.6622C155.183 93.2941 155.276 94.9645 154.8 96.5275C154.021 99.0886 151.769 101.016 149.258 101.946C146.747 102.877 143.994 102.931 141.325 102.714C140.83 102.674 140.322 102.621 139.883 102.39C139.42 102.146 139.076 101.726 138.789 101.289C137.336 99.0813 137.057 96.3265 136.879 93.6905C136.58 89.2537 136.451 84.796 136.322 80.3395V80.3391V80.339C136.04 70.5707 135.758 60.8083 133.681 51.2846L133.655 51.1663L133.655 51.1662C133.276 49.4281 132.871 47.5749 133.545 45.9343C134.64 43.2675 137.993 42.429 140.876 42.3315C141.262 42.3184 141.654 42.3107 142.048 42.303L142.048 42.303L142.048 42.303L142.049 42.303C144.592 42.2531 147.228 42.2013 149.213 40.6858C150.207 39.9266 151.724 40.2698 152.632 41.1309C153.539 41.992 153.971 43.2297 154.316 44.4315C156.213 51.0296 156.428 57.9763 156.631 64.8381L157.406 91.0731C157.495 94.0682 157.313 97.6113 154.801 99.2461ZM139.464 43.3764C137.874 43.4734 136.104 43.6552 135.063 44.8592C133.878 46.2291 134.158 48.2894 134.507 50.0662L134.525 50.1553C135.582 55.5307 136.643 60.9199 137.08 66.3807C137.384 70.1812 137.388 74.0226 137.393 77.8593C137.401 85.1904 137.41 92.504 139.51 99.4804C139.713 100.156 139.991 100.893 140.624 101.206C141.055 101.419 141.563 101.386 142.042 101.347L145.927 101.036C147.318 100.924 148.743 100.804 150.009 100.219C151.275 99.6328 152.372 98.4752 152.479 97.0847C153.475 84.1845 153.84 71.2357 153.572 58.3C153.476 53.6605 153.267 48.8797 151.319 44.667C151.076 44.1421 150.791 43.6093 150.321 43.2726C149.634 42.7809 148.715 42.8121 147.872 42.8635L139.464 43.3764ZM127.533 93.6028C126.508 81.3298 126.182 68.9991 126.558 56.6895L126.567 56.411C126.65 53.7137 126.735 50.9759 126.028 48.3735C125.298 45.6815 123.565 43.1038 120.956 42.0867C119.44 41.496 117.771 41.4731 116.143 41.4579C111.906 41.4185 107.631 41.3824 103.48 42.2274C102.105 42.5074 100.6 42.9953 99.9394 44.2277C99.4817 45.0812 99.5378 46.1052 99.6058 47.0702L103.301 99.5654C103.372 100.573 103.463 101.639 104.056 102.46C104.671 103.312 105.712 103.738 106.713 104.068C110.96 105.468 115.529 105.893 119.963 105.299C119.559 104.727 118.778 104.595 118.081 104.511L109.419 103.464C108.546 103.358 107.647 103.244 106.885 102.809C105.039 101.755 104.666 99.3134 104.493 97.2035C103.111 80.289 101.728 63.3695 101 46.4146C100.96 45.4962 101.005 44.4073 101.776 43.9007C102.166 43.6442 102.657 43.607 103.124 43.5776L115.86 42.7737C117.298 42.683 118.785 42.5986 120.139 43.0894C122.014 43.769 123.357 45.472 124.122 47.3058C125.29 50.1043 125.314 53.2272 125.275 56.2571C125.247 58.4381 125.196 60.6215 125.144 62.8056C124.947 71.1541 124.751 79.5111 125.861 87.7755C125.914 88.1761 125.971 88.58 126.027 88.9862C126.688 93.731 127.393 98.7959 124.828 102.768L124.785 102.835C124.593 103.13 124.393 103.438 124.384 103.786C124.374 104.161 124.711 104.568 125.074 104.468C125.217 104.429 125.33 104.323 125.433 104.218C128.044 101.547 127.843 97.3164 127.533 93.6028ZM107.792 10.9604C109.452 11.0249 111.215 11.4252 112.358 12.6693C112.58 12.9113 112.779 13.184 112.977 13.456C113.389 14.0226 113.799 14.5858 114.417 14.8611C113.47 14.5213 112.437 14.4436 111.452 14.6385C111.111 14.7061 110.774 14.8058 110.439 14.9055C109.909 15.0628 109.379 15.2198 108.831 15.2496L109.927 14.288C110.318 13.9441 110.762 13.5805 111.276 13.5977C111.36 12.7244 110.685 11.8937 109.864 11.6649C109.043 11.4361 108.146 11.726 107.471 12.2593C106.796 12.7926 106.314 13.5439 105.913 14.3182C105.754 14.6262 105.537 14.9861 105.199 14.9821C104.919 14.8404 104.93 14.4149 105.066 14.1253C105.105 14.0417 105.152 13.96 105.198 13.8784C105.312 13.6775 105.427 13.4768 105.434 13.248C105.453 12.6639 104.809 12.3312 104.272 12.1464C103.737 11.9621 103.088 11.7973 102.657 12.1729C102.343 12.4459 102.27 12.907 102.218 13.3271L102.042 14.7544C101.121 15.0775 100.106 15.1066 99.1694 14.8367C100.278 14.1464 101.496 13.2946 101.702 11.9754C103.641 11.2272 105.724 10.88 107.792 10.9604ZM179.537 41.075C178.059 39.4706 176.248 38.0079 174.093 37.6822C173.865 37.6479 173.635 37.6264 173.406 37.6049C172.942 37.5617 172.479 37.5184 172.04 37.3698C171.453 37.1712 170.943 36.7949 170.471 36.3932C169.831 35.849 169.214 35.2352 168.596 34.6202C166.778 32.8107 164.949 30.9896 162.48 30.8938C159.881 30.7928 157.441 33.1271 157.423 35.731C157.408 37.9155 158.822 39.8175 160.17 41.5358L183.608 71.4212L198.14 89.9505C200.016 92.3429 202.482 94.9911 205.492 94.574C208.197 94.1991 210.014 91.0215 209.243 88.3991C208.947 87.3914 208.363 86.5118 207.778 85.6304C207.268 84.8616 206.757 84.0915 206.435 83.234C205.923 81.8678 205.927 80.4006 205.932 78.9268C205.935 77.7988 205.939 76.667 205.71 75.5737C205.204 73.1516 203.61 71.1176 201.987 69.2506C201.109 68.2403 200.179 66.7441 201.018 65.7016C202.017 64.461 201.518 62.6291 200.887 61.1661C198.863 56.4698 195.923 52.1708 192.282 48.5819C190.723 47.0453 188.455 45.5495 186.504 46.5417C185.682 46.96 184.699 46.4465 183.983 45.8649C182.838 44.9357 181.885 43.8073 180.931 42.6781C180.474 42.1367 180.016 41.595 179.537 41.075ZM159.756 33.2079C160.72 32.2644 162.177 31.8566 163.49 32.1628C164.991 32.5128 166.153 33.6758 167.168 34.8369C169.845 37.9004 172.103 41.2988 174.357 44.6901C174.608 45.0687 174.86 45.4473 175.112 45.8253C184.59 60.0383 194.956 73.6578 206.129 86.5775C207.223 87.8415 208.401 89.4004 207.974 91.0167C207.49 92.8467 205.08 93.5566 203.303 92.9086C201.527 92.2607 200.264 90.7053 199.093 89.2188L160.44 40.1344C159.672 39.1593 158.882 38.1368 158.628 36.9215C158.352 35.6004 158.792 34.1514 159.756 33.2079ZM191.088 61.8658C190.31 60.8597 189.477 59.8699 188.419 59.1637C187.909 58.8229 187.333 58.529 186.758 58.2353C185.286 57.4836 183.817 56.7337 183.457 55.2036C183.343 54.7178 183.369 54.2177 183.395 53.7163C183.415 53.325 183.435 52.933 183.389 52.5463C183.313 51.9112 183.06 51.3115 182.785 50.7342C180.698 46.3541 177.113 42.7067 172.772 40.5474C172.052 40.1894 172.498 38.9411 173.287 38.786C174.075 38.631 174.827 39.1425 175.455 39.6446C181.662 44.6097 186.198 51.1704 190.749 57.7511C193.526 61.7668 196.308 65.79 199.477 69.4627C199.782 69.8158 200.091 70.1671 200.401 70.5189C202.126 72.4773 203.864 74.451 204.899 76.833C203.539 77.076 202.361 78.1449 201.986 79.4759C199.72 77.3405 198.351 74.4932 196.99 71.6625C196.641 70.9364 196.292 70.2113 195.929 69.4995C194.557 66.8116 192.934 64.2522 191.088 61.8658ZM197.528 64.3903C197.386 64.5296 197.209 64.6504 197.01 64.6584C196.671 64.6721 196.414 64.3685 196.214 64.0939L187.133 51.6339C186.784 51.1546 187.027 50.4092 187.536 50.1048C188.045 49.8005 188.71 49.8724 189.238 50.1418C189.766 50.4112 190.185 50.8508 190.585 51.2881C193.026 53.9533 195.212 56.8517 197.104 59.9313C197.527 60.6208 197.943 61.3369 198.098 62.1313C198.254 62.9257 198.105 63.8238 197.528 64.3903ZM198.857 63.1691C199.02 62.529 198.744 61.8665 198.458 61.2711C196.403 56.9876 193.518 53.1048 190.011 49.9022C189.444 49.3839 188.705 48.8478 187.975 49.0878C187.705 49.1764 187.486 49.3593 187.266 49.5432C187.138 49.6503 187.009 49.7577 186.87 49.8469C186.492 50.0893 185.891 50.139 185.676 49.7444C185.51 49.4393 185.684 49.0566 185.916 48.7976C186.714 47.9048 188.119 47.7822 189.242 48.1969C190.365 48.6115 191.267 49.4587 192.115 50.3051C195.167 53.3536 198.014 56.7873 199.348 60.892C199.944 62.7244 200.132 64.9731 198.794 66.358C198.683 66.4731 198.558 66.5823 198.407 66.6352C197.929 66.8025 197.43 66.2924 197.419 65.7856C197.407 65.2789 197.72 64.8261 198.044 64.4372C198.079 64.3957 198.114 64.3542 198.149 64.3126C198.444 63.9643 198.745 63.6079 198.857 63.1691ZM179.15 46.2128C180.386 48.0119 181.46 49.9222 182.356 51.9132C182.479 52.1866 182.592 52.5279 182.409 52.7654C182.276 52.9379 182 52.9765 181.825 52.8469C179.249 49.715 176.927 46.3732 174.891 42.8654C175.074 42.9313 175.342 42.8341 175.324 42.6406C176.963 43.3088 178.147 44.7532 179.15 46.2128ZM188.178 61.3995C187.952 61.0706 187.759 60.545 188.102 60.3398C189.612 61.0235 190.645 62.4335 191.587 63.7989C192.959 65.7896 194.286 67.8122 195.565 69.8644C195.871 70.3559 196.135 71.0926 195.665 71.4303C194.863 71.0669 194.323 70.3082 193.823 69.5829L188.178 61.3995ZM203.187 80.0601C203.066 80.0077 202.982 79.8949 202.925 79.7762C202.582 79.0593 203.33 78.1006 204.108 78.2597C204.142 78.9577 203.947 79.6649 203.562 80.2475C203.522 80.155 203.421 80.1284 203.318 80.1014C203.273 80.0895 203.227 80.0776 203.187 80.0601ZM204.947 81.7359C204.709 81.9944 204.247 81.9938 204.011 81.7348C203.76 81.0778 204.063 80.2576 204.68 79.9219L204.947 81.7359Z" fill="#45423E"/>
</svg>
