<svg width="24" height="25" viewBox="0 0 24 25" fill="none" xmlns="http://www.w3.org/2000/svg">
<path d="M9.16994 7.26592C8.98369 7.45328 8.87915 7.70673 8.87915 7.97092C8.87915 8.23511 8.98369 8.48856 9.16994 8.67592L12.7099 12.2659L9.16994 15.8059C8.98369 15.9933 8.87915 16.2467 8.87915 16.5109C8.87915 16.7751 8.98369 17.0286 9.16994 17.2159C9.26291 17.3096 9.37351 17.384 9.49537 17.4348C9.61723 17.4856 9.74793 17.5117 9.87994 17.5117C10.012 17.5117 10.1427 17.4856 10.2645 17.4348C10.3864 17.384 10.497 17.3096 10.5899 17.2159L14.8299 12.9759C14.9237 12.883 14.9981 12.7724 15.0488 12.6505C15.0996 12.5286 15.1257 12.3979 15.1257 12.2659C15.1257 12.1339 15.0996 12.0032 15.0488 11.8813C14.9981 11.7595 14.9237 11.6489 14.8299 11.5559L10.5899 7.26592C10.497 7.17219 10.3864 7.0978 10.2645 7.04703C10.1427 6.99626 10.012 6.97012 9.87994 6.97012C9.74793 6.97012 9.61723 6.99626 9.49537 7.04703C9.37351 7.0978 9.26291 7.17219 9.16994 7.26592Z" fill="#889097"/>
</svg>
