<svg width="24" height="25" viewBox="0 0 24 25" fill="none" xmlns="http://www.w3.org/2000/svg">
<path d="M14.8301 17.2653C15.0163 17.078 15.1208 16.8245 15.1208 16.5603C15.1208 16.2961 15.0163 16.0427 14.8301 15.8553L11.2901 12.2653L14.8301 8.72533C15.0163 8.53797 15.1208 8.28452 15.1208 8.02033C15.1208 7.75614 15.0163 7.50269 14.8301 7.31533C14.7371 7.2216 14.6265 7.14721 14.5046 7.09644C14.3828 7.04567 14.2521 7.01953 14.1201 7.01953C13.988 7.01953 13.8573 7.04567 13.7355 7.09644C13.6136 7.14721 13.503 7.2216 13.4101 7.31533L9.17006 11.5553C9.07633 11.6483 9.00193 11.7589 8.95117 11.8808C8.9004 12.0026 8.87426 12.1333 8.87426 12.2653C8.87426 12.3973 8.9004 12.528 8.95117 12.6499C9.00193 12.7718 9.07633 12.8824 9.17006 12.9753L13.4101 17.2653C13.503 17.3591 13.6136 17.4335 13.7355 17.4842C13.8573 17.535 13.988 17.5611 14.1201 17.5611C14.2521 17.5611 14.3828 17.535 14.5046 17.4842C14.6265 17.4335 14.7371 17.3591 14.8301 17.2653Z" fill="#889097"/>
</svg>
