<svg width="24" height="24" viewBox="0 0 24 24" fill="none" xmlns="http://www.w3.org/2000/svg">
<mask id="mask0_4722_80424" style="mask-type:alpha" maskUnits="userSpaceOnUse" x="0" y="0" width="24" height="24">
<rect width="24" height="24" fill="#C4C4C4"/>
</mask>
<g mask="url(#mask0_4722_80424)">
<circle cx="12" cy="11" r="11" fill="#F9F9F9"/>
<path fill-rule="evenodd" clip-rule="evenodd" d="M16.597 8.90882C16.4543 7.42837 15.1763 6.93204 13.5627 6.79068L13.5627 4.73704L12.3123 4.73725L12.3124 6.73676C11.9841 6.73672 11.6482 6.74321 11.3144 6.74987L11.3146 4.73712L10.0653 4.73709L10.0648 6.79014C9.79417 6.79566 9.52839 6.80069 9.26923 6.80086L9.26907 6.79449L7.54497 6.79391L7.5453 8.12898C7.5453 8.12898 8.4684 8.11138 8.45306 8.12838C8.95939 8.12854 9.12451 8.4224 9.17211 8.67614L9.17222 11.0157C9.20716 11.0159 9.25274 11.0173 9.30435 11.0244L9.17264 11.0245L9.17199 14.302C9.14977 14.4613 9.0561 14.7154 8.70235 14.716C8.71834 14.7302 7.79367 14.7158 7.79367 14.7158L7.54538 16.209L9.17246 16.2088C9.35618 16.209 9.53812 16.211 9.71805 16.213C9.8346 16.2142 9.95031 16.2155 10.0651 16.2163L10.0657 18.2936L11.3144 18.2938L11.3147 16.2387C11.6572 16.2458 11.989 16.2486 12.313 16.2483L12.3124 18.2939L13.5625 18.2937L13.5628 16.2204C15.6644 16.0998 17.1356 15.5703 17.3177 13.5973C17.4652 12.0082 16.718 11.299 15.5249 11.0122C16.2495 10.6425 16.7026 9.99227 16.5966 8.90891L16.597 8.90882ZM14.8478 13.3546C14.8481 14.7793 12.6097 14.7479 11.5864 14.7335C11.4948 14.7322 11.4129 14.7311 11.3432 14.7311L11.3435 11.9792C11.4287 11.9792 11.5321 11.9768 11.6493 11.974L11.6493 11.974C12.6981 11.9493 14.8473 11.8985 14.8481 13.3545L14.8478 13.3546ZM11.5492 10.7221C12.4035 10.7361 14.2657 10.7666 14.2661 9.47223C14.2662 8.14809 12.4747 8.19569 11.5998 8.21893C11.5014 8.22155 11.4146 8.22385 11.3433 8.22387L11.3432 10.7197C11.4021 10.7197 11.4715 10.7209 11.5492 10.7221Z" fill="#474747"/>
</g>
</svg>
