<svg width="24" height="24" viewBox="0 0 24 24" fill="none" xmlns="http://www.w3.org/2000/svg">
<mask id="mask0_4722_80420" style="mask-type:alpha" maskUnits="userSpaceOnUse" x="0" y="0" width="24" height="24">
<rect width="24" height="24" fill="#C4C4C4"/>
</mask>
<g mask="url(#mask0_4722_80420)">
<circle cx="12" cy="12" r="11" fill="#F9F9F9"/>
<path d="M13.0947 6V8.03027H12.0352V6H13.0947ZM12.9648 17.1631V18.9951H11.9121V17.1631H12.9648ZM13.8535 14.9346C13.8535 14.6748 13.8034 14.4492 13.7031 14.2578C13.6074 14.0664 13.4456 13.8955 13.2178 13.7451C12.9945 13.5947 12.6937 13.4512 12.3154 13.3145C11.7275 13.1003 11.2126 12.8656 10.7705 12.6104C10.3285 12.3506 9.98438 12.0293 9.73828 11.6465C9.49674 11.2637 9.37598 10.7806 9.37598 10.1973C9.37598 9.63672 9.50586 9.15137 9.76562 8.74121C10.0299 8.3265 10.3968 8.00749 10.8662 7.78418C11.3356 7.55632 11.8802 7.44238 12.5 7.44238C12.9831 7.44238 13.416 7.5153 13.7988 7.66113C14.1862 7.80241 14.5166 8.00977 14.79 8.2832C15.068 8.55664 15.2799 8.89388 15.4258 9.29492C15.5762 9.69141 15.6514 10.1449 15.6514 10.6553H13.8467C13.8467 10.3727 13.8148 10.1221 13.751 9.90332C13.6872 9.68457 13.596 9.5 13.4775 9.34961C13.359 9.19466 13.2155 9.07845 13.0469 9.00098C12.8828 8.9235 12.696 8.88477 12.4863 8.88477C12.1855 8.88477 11.9372 8.94173 11.7412 9.05566C11.5498 9.1696 11.4085 9.32454 11.3174 9.52051C11.2308 9.71647 11.1875 9.94206 11.1875 10.1973C11.1875 10.4434 11.2331 10.6598 11.3242 10.8467C11.4199 11.029 11.5794 11.1953 11.8027 11.3457C12.0306 11.4961 12.3428 11.6488 12.7393 11.8037C13.3317 12.0225 13.8467 12.264 14.2842 12.5283C14.7217 12.7881 15.0612 13.1071 15.3027 13.4854C15.5443 13.8636 15.665 14.3421 15.665 14.9209C15.665 15.5133 15.5283 16.0146 15.2549 16.4248C14.986 16.835 14.6077 17.1471 14.1201 17.3613C13.6325 17.5755 13.0651 17.6826 12.418 17.6826C12.0033 17.6826 11.5931 17.6279 11.1875 17.5186C10.7819 17.4092 10.4128 17.2314 10.0801 16.9854C9.75195 16.7347 9.48991 16.4043 9.29395 15.9941C9.09798 15.5794 9 15.0713 9 14.4697H10.8115C10.8115 14.8161 10.8571 15.1032 10.9482 15.3311C11.0394 15.5589 11.1624 15.7412 11.3174 15.8779C11.4723 16.0101 11.6455 16.1035 11.8369 16.1582C12.0283 16.2129 12.222 16.2402 12.418 16.2402C12.737 16.2402 13.0013 16.1855 13.2109 16.0762C13.4251 15.9668 13.5846 15.8141 13.6895 15.6182C13.7988 15.4176 13.8535 15.1898 13.8535 14.9346Z" fill="#474747"/>
</g>
</svg>
