<svg width="40" height="40" viewBox="0 0 40 40" fill="none" xmlns="http://www.w3.org/2000/svg">
<rect width="40" height="40" rx="8" fill="#EAECF5"/>
<path d="M21 28H14C13.7348 28 13.4804 27.8946 13.2929 27.7071C13.1054 27.5196 13 27.2652 13 27V13C13 12.7348 13.1054 12.4804 13.2929 12.2929C13.4804 12.1054 13.7348 12 14 12H19V15C19 15.7956 19.3161 16.5587 19.8787 17.1213C20.4413 17.6839 21.2044 18 22 18H25V20C25 20.2652 25.1054 20.5196 25.2929 20.7071C25.4804 20.8946 25.7348 21 26 21C26.2652 21 26.5196 20.8946 26.7071 20.7071C26.8946 20.5196 27 20.2652 27 20V17C27 17 27 17 27 16.94C26.9896 16.8481 26.9695 16.7576 26.94 16.67V16.58C26.8919 16.4772 26.8278 16.3827 26.75 16.3L20.75 10.3C20.6673 10.2222 20.5728 10.1581 20.47 10.11C20.4402 10.1058 20.4099 10.1058 20.38 10.11C20.2784 10.0517 20.1662 10.0143 20.05 10H14C13.2044 10 12.4413 10.3161 11.8787 10.8787C11.3161 11.4413 11 12.2044 11 13V27C11 27.7956 11.3161 28.5587 11.8787 29.1213C12.4413 29.6839 13.2044 30 14 30H21C21.2652 30 21.5196 29.8946 21.7071 29.7071C21.8946 29.5196 22 29.2652 22 29C22 28.7348 21.8946 28.4804 21.7071 28.2929C21.5196 28.1054 21.2652 28 21 28ZM21 13.41L23.59 16H22C21.7348 16 21.4804 15.8946 21.2929 15.7071C21.1054 15.5196 21 15.2652 21 15V13.41ZM16 16C15.7348 16 15.4804 16.1054 15.2929 16.2929C15.1054 16.4804 15 16.7348 15 17C15 17.2652 15.1054 17.5196 15.2929 17.7071C15.4804 17.8946 15.7348 18 16 18H17C17.2652 18 17.5196 17.8946 17.7071 17.7071C17.8946 17.5196 18 17.2652 18 17C18 16.7348 17.8946 16.4804 17.7071 16.2929C17.5196 16.1054 17.2652 16 17 16H16ZM22 20H16C15.7348 20 15.4804 20.1054 15.2929 20.2929C15.1054 20.4804 15 20.7348 15 21C15 21.2652 15.1054 21.5196 15.2929 21.7071C15.4804 21.8946 15.7348 22 16 22H22C22.2652 22 22.5196 21.8946 22.7071 21.7071C22.8946 21.5196 23 21.2652 23 21C23 20.7348 22.8946 20.4804 22.7071 20.2929C22.5196 20.1054 22.2652 20 22 20ZM28.71 25.29L26.71 23.29C26.6149 23.199 26.5028 23.1276 26.38 23.08C26.1365 22.98 25.8635 22.98 25.62 23.08C25.4972 23.1276 25.3851 23.199 25.29 23.29L23.29 25.29C23.1017 25.4783 22.9959 25.7337 22.9959 26C22.9959 26.2663 23.1017 26.5217 23.29 26.71C23.4783 26.8983 23.7337 27.0041 24 27.0041C24.2663 27.0041 24.5217 26.8983 24.71 26.71L25 26.41V29C25 29.2652 25.1054 29.5196 25.2929 29.7071C25.4804 29.8946 25.7348 30 26 30C26.2652 30 26.5196 29.8946 26.7071 29.7071C26.8946 29.5196 27 29.2652 27 29V26.41L27.29 26.71C27.383 26.8037 27.4936 26.8781 27.6154 26.9289C27.7373 26.9797 27.868 27.0058 28 27.0058C28.132 27.0058 28.2627 26.9797 28.3846 26.9289C28.5064 26.8781 28.617 26.8037 28.71 26.71C28.8037 26.617 28.8781 26.5064 28.9289 26.3846C28.9797 26.2627 29.0058 26.132 29.0058 26C29.0058 25.868 28.9797 25.7373 28.9289 25.6154C28.8781 25.4936 28.8037 25.383 28.71 25.29ZM20 26C20.2652 26 20.5196 25.8946 20.7071 25.7071C20.8946 25.5196 21 25.2652 21 25C21 24.7348 20.8946 24.4804 20.7071 24.2929C20.5196 24.1054 20.2652 24 20 24H16C15.7348 24 15.4804 24.1054 15.2929 24.2929C15.1054 24.4804 15 24.7348 15 25C15 25.2652 15.1054 25.5196 15.2929 25.7071C15.4804 25.8946 15.7348 26 16 26H20Z" fill="#889097"/>
</svg>
