<svg width="70" height="13" viewBox="0 0 70 13" fill="none" xmlns="http://www.w3.org/2000/svg">
<g clip-path="url(#clip0_4540_62019)">
<path d="M5.69563 9.36929C5.01675 9.98232 4.13488 10.2498 2.73881 10.2498H2.15894V2.92487H2.73881C4.13488 2.92487 4.98204 3.17468 5.69563 3.82071C6.44286 4.4861 6.89241 5.5171 6.89241 6.57828C6.89241 7.64161 6.44286 8.70418 5.69563 9.36929ZM3.17162 1.04811H0V12.125H3.15488C4.83252 12.125 6.04386 11.7292 7.10723 10.8463C8.37077 9.80055 9.118 8.22445 9.118 6.59423C9.118 3.32531 6.67565 1.04811 3.17162 1.04811Z" fill="white"/>
<path d="M10.1122 12.125H12.2729V1.04811H10.1122V12.125Z" fill="white"/>
<path d="M17.556 5.30174C16.2594 4.82196 15.8787 4.50551 15.8787 3.90704C15.8787 3.20944 16.557 2.67928 17.4883 2.67928C18.1357 2.67928 18.6677 2.94519 19.2307 3.57639L20.3611 2.09601C19.4321 1.2834 18.3206 0.867932 17.1061 0.867932C15.1463 0.867932 13.6514 2.22898 13.6514 4.04188C13.6514 5.56797 14.3475 6.34927 16.3767 7.07961C17.2225 7.37793 17.653 7.57672 17.8702 7.71045C18.302 7.99234 18.5181 8.39139 18.5181 8.85656C18.5181 9.75411 17.8046 10.4191 16.8405 10.4191C15.81 10.4191 14.9799 9.90366 14.4825 8.94166L13.0865 10.2857C14.082 11.7469 15.2776 12.3945 16.9216 12.3945C19.167 12.3945 20.742 10.9016 20.742 8.75723C20.742 6.99733 20.0138 6.20067 17.556 5.30174Z" fill="white"/>
<path d="M21.4237 6.59442C21.4237 9.85033 23.9803 12.375 27.2705 12.375C28.2005 12.375 28.997 12.1921 29.9793 11.7294V9.18601C29.1156 10.0506 28.3506 10.3992 27.3709 10.3992C25.1949 10.3992 23.6504 8.82156 23.6504 6.57848C23.6504 4.45174 25.2437 2.77412 27.2705 2.77412C28.301 2.77412 29.0811 3.14187 29.9793 4.02049V1.47833C29.031 0.997165 28.2511 0.7979 27.3214 0.7979C24.048 0.7979 21.4237 3.37366 21.4237 6.59442Z" fill="white"/>
<path d="M47.1109 8.48945L44.1571 1.04906H41.7967L46.4972 12.4102H47.66L52.4454 1.04906H50.1033L47.1109 8.48945Z" fill="white"/>
<path d="M53.4225 12.125H59.55V10.2498H55.5814V7.25978H59.4036V5.38349H55.5814V2.92487H59.55V1.04811H53.4225V12.125Z" fill="white"/>
<path d="M63.7702 6.14778H63.139V2.79285H63.8043C65.1499 2.79285 65.8814 3.35661 65.8814 4.43465C65.8814 5.54824 65.1499 6.14778 63.7702 6.14778ZM68.105 4.3183C68.105 2.24457 66.6764 1.04811 64.1847 1.04811H60.981V12.125H63.139V7.67525H63.4207L66.4114 12.125H69.0686L65.5815 7.45845C67.2088 7.1276 68.105 6.01437 68.105 4.3183Z" fill="white"/>
<path d="M69.0745 1.59621H69.0352V1.34176H69.0769C69.1919 1.34176 69.2514 1.38314 69.2514 1.46696C69.2514 1.55313 69.1911 1.59621 69.0745 1.59621ZM69.4839 1.46339C69.4839 1.26925 69.3502 1.16309 69.1153 1.16309H68.8027V2.13672H69.0352V1.7591L69.3077 2.13672H69.5914L69.2712 1.73521C69.4081 1.69832 69.4839 1.59855 69.4839 1.46339Z" fill="white"/>
<path d="M69.159 2.3483C68.7869 2.3483 68.4826 2.03867 68.4826 1.65236C68.4826 1.26466 68.7829 0.955194 69.159 0.955194C69.5291 0.955194 69.831 1.27176 69.831 1.65236C69.831 2.03542 69.5291 2.3483 69.159 2.3483ZM69.1622 0.802383C68.6893 0.802383 68.314 1.17973 68.314 1.65113C68.314 2.12222 68.6937 2.5 69.1622 2.5C69.6228 2.5 70 2.11817 70 1.65113C70 1.18639 69.6228 0.802383 69.1622 0.802383Z" fill="white"/>
<circle cx="36.5" cy="6.5" r="5.5" fill="url(#paint0_linear_4540_62019)"/>
</g>
<defs>
<linearGradient id="paint0_linear_4540_62019" x1="32" y1="2" x2="39.5" y2="12" gradientUnits="userSpaceOnUse">
<stop stop-color="#FF5B15"/>
<stop offset="0.285243" stop-color="#FFAF2E"/>
<stop offset="1" stop-color="#FFEC41"/>
</linearGradient>
<clipPath id="clip0_4540_62019">
<rect width="70" height="11.7852" fill="white" transform="translate(0 0.789062)"/>
</clipPath>
</defs>
</svg>
