<svg width="46" height="26" viewBox="0 0 46 26" fill="none" xmlns="http://www.w3.org/2000/svg">
<g clip-path="url(#clip0_1222_27913)">
<path d="M29.0747 22.7734L16.9196 22.7734L16.9196 2.92064L29.0747 2.92064L29.0747 22.7734Z" fill="#FF5F00"/>
<path d="M27.8223 12.8455C27.8238 14.7572 27.3904 16.6441 26.555 18.3635C25.7196 20.083 24.504 21.5899 23.0002 22.7701C24.8627 24.2339 27.0994 25.1441 29.4547 25.3967C31.8101 25.6494 34.1889 25.2343 36.3195 24.1989C38.4501 23.1635 40.2464 21.5496 41.5031 19.5416C42.7598 17.5337 43.4263 15.2126 43.4263 12.8438C43.4263 10.475 42.7598 8.15391 41.5031 6.14593C40.2464 4.13794 38.4501 2.52403 36.3195 1.48865C34.189 0.453262 31.8101 0.0381765 29.4548 0.290833C27.0994 0.543488 24.8627 1.45369 23.0002 2.91741C24.5045 4.09806 25.7203 5.60551 26.5558 7.3256C27.3912 9.04569 27.8243 10.9333 27.8223 12.8456L27.8223 12.8455Z" fill="#F79E1B"/>
<path d="M3.77857 5.02467L3.77857 5.43143L3.60322 5.43143L3.60322 5.51562L4.02051 5.51562L4.02051 5.43143L3.85569 5.43143L3.85569 5.02461L3.77857 5.02467ZM2.96845 5.02467L2.96845 5.51556L3.09472 5.51556L3.24198 5.16492L3.38931 5.51562L3.51551 5.51562L3.51551 5.02467L3.42436 5.02467L3.42436 5.39638L3.28756 5.07721L3.19289 5.07721L3.0561 5.39638L3.0561 5.02467L2.96845 5.02467Z" fill="#F79E1B"/>
<path d="M2.57206 12.8483C2.57211 10.4793 3.23872 8.15811 4.49566 6.15006C5.75261 4.142 7.54919 2.52812 9.68003 1.49289C11.8109 0.457652 14.19 0.0428402 16.5455 0.295865C18.9009 0.548893 21.1377 1.45955 23 2.92374C21.4968 4.10507 20.2816 5.61236 19.446 7.33189C18.6103 9.05142 18.1761 10.9383 18.1761 12.8501C18.1761 14.7619 18.6103 16.6488 19.446 18.3683C20.2816 20.0878 21.4968 21.5951 23 22.7765C21.1376 24.2407 18.9009 25.1513 16.5454 25.4043C14.19 25.6574 11.8108 25.2425 9.68 24.2073C7.54916 23.1721 5.75258 21.5582 4.49564 19.5501C3.23869 17.542 2.5721 15.2208 2.57206 12.8518L2.57206 12.8483Z" fill="#EB001B"/>
</g>
<defs>
<clipPath id="clip0_1222_27913">
<rect width="46" height="25.7059" fill="white" transform="translate(46 25.7031) rotate(-180)"/>
</clipPath>
</defs>
</svg>
