<svg width="56" height="19" viewBox="0 0 56 19" fill="none" xmlns="http://www.w3.org/2000/svg">
<path d="M35.8131 0.0142422C34.566 0.0814133 33.2167 0.420195 32.1916 0.928366C30.1035 1.96223 28.9645 3.68826 28.9615 5.82316C28.9586 6.98261 29.3237 7.85584 30.1619 8.69988C30.7635 9.30442 31.3651 9.7133 32.7757 10.4785C34.2331 11.2699 34.6945 11.5883 34.9983 12.0147C35.191 12.2863 35.2523 12.479 35.2377 12.7886C35.2173 13.2004 35.0158 13.5538 34.6274 13.8546C34.1367 14.2313 33.4475 14.4387 32.5655 14.4708C31.1782 14.5234 29.5135 14.1437 28.1642 13.4662C28.0241 13.3961 27.9043 13.3406 27.8985 13.3464C27.8955 13.3523 27.7086 14.208 27.4867 15.2506C27.1128 17.0088 27.0866 17.146 27.1333 17.1811C27.2238 17.2482 28.3249 17.5987 28.8184 17.7185C30.0976 18.028 31.187 18.1478 32.4895 18.1215C33.7132 18.0981 34.6098 17.9579 35.5794 17.6454C37.948 16.8773 39.4375 15.3645 39.8726 13.2822C39.9748 12.7944 40.007 11.8745 39.9369 11.4276C39.7821 10.4493 39.3703 9.68701 38.5993 8.9452C37.9568 8.32897 37.3902 7.96098 35.5794 6.98845C34.5222 6.42187 33.9994 6.02468 33.7833 5.62749C33.6869 5.45226 33.6811 5.42305 33.6811 5.16312C33.6811 4.9032 33.6869 4.87399 33.7775 4.70752C34.2798 3.78464 35.8072 3.42833 37.7698 3.7788C38.4532 3.89854 39.16 4.10589 39.7353 4.35122C39.8843 4.41547 40.0128 4.4622 40.0216 4.45344C40.0332 4.44175 40.8218 0.831987 40.8218 0.782339C40.8218 0.753134 40.1179 0.519493 39.6828 0.405592C38.4912 0.0930958 37.066 -0.0529308 35.8131 0.0142422Z" fill="url(#paint0_linear_1222_27924)"/>
<path d="M0.0542357 0.479271C0.0367126 0.59025 0.0133484 0.712912 0.00458681 0.753799C-0.0100158 0.829733 -0.00417477 0.829733 0.24699 0.879381C1.07642 1.04293 2.1833 1.37003 3.14707 1.7351C4.69787 2.32504 5.08922 2.62293 5.38127 3.43776C5.42216 3.5575 6.27203 6.79636 7.26793 10.6368C8.26383 14.4744 9.09325 17.6665 9.10786 17.725L9.13706 17.8359H11.526C13.4127 17.8359 13.9209 17.8272 13.9326 17.798C13.9413 17.7804 15.5856 13.8465 17.5891 9.05977C19.5925 4.27303 21.2368 0.339085 21.2455 0.318642C21.2572 0.292356 20.7724 0.283596 18.8799 0.283596C16.6399 0.283596 16.4997 0.286516 16.4793 0.333244C16.453 0.406258 11.8619 12.0212 11.8181 12.1263L11.7831 12.2139L11.7597 12.1117C11.7451 12.0562 11.2982 9.72272 10.7667 6.92778C10.2352 4.13284 9.77374 1.76722 9.74161 1.67084C9.58098 1.18896 9.19547 0.742117 8.75447 0.525999C8.25506 0.280674 8.65518 0.301119 4.12252 0.292356L0.0863614 0.283596L0.0542357 0.479271Z" fill="url(#paint1_linear_1222_27924)"/>
<path d="M23.1819 0.293085C23.1819 0.298927 22.3437 4.24455 21.3186 9.06342L19.4553 17.825L21.7187 17.8337C22.9629 17.8367 23.9821 17.8367 23.988 17.8337C23.9909 17.8279 24.8232 13.9027 25.8367 9.10722C26.853 4.31173 27.6883 0.366098 27.697 0.336893C27.7116 0.290165 27.5919 0.287245 25.4482 0.287245C24.2012 0.287245 23.1819 0.290165 23.1819 0.293085Z" fill="url(#paint2_linear_1222_27924)"/>
<path d="M48.1084 0.301119C47.3753 0.455906 46.911 0.841415 46.5459 1.60367C46.4816 1.73802 44.9308 5.44124 43.1026 9.8337L39.7732 17.8213L42.1417 17.8301C43.4443 17.833 44.5161 17.8301 44.522 17.8272C44.5278 17.8213 44.7381 17.2226 44.9892 16.4954L45.4448 15.1783H48.342H51.2421L51.2567 15.2425C51.2684 15.2805 51.3794 15.8091 51.5079 16.4195C51.6364 17.0299 51.7561 17.5994 51.7736 17.6811L51.8087 17.8359H53.9114C55.582 17.8359 56.0113 17.8272 55.9996 17.798C55.9938 17.7804 55.1673 13.829 54.1655 9.02472L52.3431 0.283596L50.2549 0.286516C49.1072 0.289436 48.1405 0.295277 48.1084 0.301119ZM49.8461 8.32964C50.217 10.0644 50.5266 11.513 50.5353 11.5481L50.5528 11.6152H48.6662C47.6119 11.6152 46.7795 11.6035 46.7795 11.5889C46.7795 11.5714 48.5961 6.49847 49.0634 5.2076C49.1218 5.05281 49.1305 5.04113 49.151 5.10538C49.1627 5.14334 49.4752 6.59484 49.8461 8.32964Z" fill="url(#paint3_linear_1222_27924)"/>
<defs>
<linearGradient id="paint0_linear_1222_27924" x1="40.7641" y1="22.292" x2="25.258" y2="20.4547" gradientUnits="userSpaceOnUse">
<stop stop-color="#06289A"/>
<stop offset="1" stop-color="#191C5F"/>
</linearGradient>
<linearGradient id="paint1_linear_1222_27924" x1="21.1564" y1="21.8709" x2="-2.37109" y2="17.4081" gradientUnits="userSpaceOnUse">
<stop stop-color="#06289A"/>
<stop offset="1" stop-color="#191C5F"/>
</linearGradient>
<linearGradient id="paint2_linear_1222_27924" x1="27.6634" y1="21.87" x2="18.2579" y2="21.1777" gradientUnits="userSpaceOnUse">
<stop stop-color="#06289A"/>
<stop offset="1" stop-color="#191C5F"/>
</linearGradient>
<linearGradient id="paint3_linear_1222_27924" x1="55.9316" y1="21.8709" x2="37.6984" y2="19.2294" gradientUnits="userSpaceOnUse">
<stop stop-color="#06289A"/>
<stop offset="1" stop-color="#191C5F"/>
</linearGradient>
</defs>
</svg>
