<svg width="16" height="16" viewBox="0 0 16 16" fill="#889097" xmlns="http://www.w3.org/2000/svg">
    <path d="M13.9998 0.664062H1.99984C1.26317 0.664062 0.666504 1.26073 0.666504 1.9974V13.9974C0.666504 14.7341 1.26317 15.3307 1.99984 15.3307H8.6665V9.33073H6.6665V7.33073H8.6665V6.25673C8.6665 4.2234 9.65717 3.33073 11.3472 3.33073C12.1565 3.33073 12.5845 3.39073 12.7872 3.41806V5.33073H11.6345C10.9172 5.33073 10.6665 5.7094 10.6665 6.47606V7.33073H12.7692L12.4838 9.33073H10.6665V15.3307H13.9998C14.7365 15.3307 15.3332 14.7341 15.3332 13.9974V1.9974C15.3332 1.26073 14.7358 0.664062 13.9998 0.664062Z"
          />
</svg>
