<svg width="18" height="18" viewBox="0 0 18 18" fill="#889097" xmlns="http://www.w3.org/2000/svg">
    <path d="M2.6001 0.601562C1.50029 0.601562 0.600098 1.50176 0.600098 2.60156V15.4016C0.600098 16.5014 1.50029 17.4016 2.6001 17.4016H15.4001C16.4999 17.4016 17.4001 16.5014 17.4001 15.4016V2.60156C17.4001 1.50176 16.4999 0.601562 15.4001 0.601562H2.6001ZM2.6001 1.40156H15.4001C16.0675 1.40156 16.6001 1.93417 16.6001 2.60156V15.4016C16.6001 16.069 16.0675 16.6016 15.4001 16.6016H2.6001C1.9327 16.6016 1.4001 16.069 1.4001 15.4016V2.60156C1.4001 1.93417 1.9327 1.40156 2.6001 1.40156ZM5.4001 5.80156C3.6361 5.80156 2.2001 7.23756 2.2001 9.00156C2.2001 10.7656 3.6361 12.2016 5.4001 12.2016C7.1641 12.2016 8.6001 10.7656 8.6001 9.00156C8.6001 7.23756 7.1641 5.80156 5.4001 5.80156ZM12.6001 5.80156C10.8361 5.80156 9.4001 7.23756 9.4001 9.00156C9.4001 10.7656 10.8361 12.2016 12.6001 12.2016C14.3641 12.2016 15.8001 10.7656 15.8001 9.00156C15.8001 7.23756 14.3641 5.80156 12.6001 5.80156Z"/>
</svg>
