<svg width="16" height="15" viewBox="0 0 16 15" fill="#889097" xmlns="http://www.w3.org/2000/svg">
    <path d="M3.99984 14.6667H0.666504V4.66667H3.99984V14.6667ZM2.33384 3.33333C1.41184 3.33333 0.666504 2.586 0.666504 1.666C0.666504 0.746 1.41317 0 2.33384 0C3.2525 0 3.99984 0.747333 3.99984 1.666C3.99984 2.586 3.2525 3.33333 2.33384 3.33333ZM15.9998 14.6667H12.7952V9.8C12.7952 8.63933 12.7732 7.14667 11.1292 7.14667C9.4605 7.14667 9.20384 8.41067 9.20384 9.716V14.6667H5.99984V4.65933H9.07584V6.02667H9.11917C9.54717 5.24 10.5932 4.41067 12.1532 4.41067C15.3998 4.41067 15.9998 6.48333 15.9998 9.178V14.6667Z"/>
</svg>
