<svg width="16" height="16" viewBox="0 0 16 16" fill="#889097" xmlns="http://www.w3.org/2000/svg">
    <path d="M8 0C3.582 0 0 3.582 0 8C0 11.3893 2.10867 14.284 5.08467 15.4493C5.01467 14.8167 4.95133 13.8453 5.11267 13.1547C5.258 12.5307 6.05067 9.178 6.05067 9.178C6.05067 9.178 5.81133 8.69867 5.81133 7.99067C5.81133 6.878 6.456 6.048 7.25867 6.048C7.94133 6.048 8.27067 6.56067 8.27067 7.17467C8.27067 7.86133 7.834 8.88733 7.608 9.838C7.41933 10.6347 8.00733 11.284 8.79267 11.284C10.2147 11.284 11.3073 9.78467 11.3073 7.62067C11.3073 5.70533 9.93133 4.366 7.966 4.366C5.69 4.366 4.354 6.07333 4.354 7.838C4.354 8.52533 4.61867 9.26267 4.94933 9.664C5.01467 9.74333 5.024 9.81267 5.00467 9.89333C4.944 10.146 4.80933 10.6893 4.78267 10.8007C4.748 10.9473 4.66667 10.978 4.51533 10.9073C3.516 10.442 2.89133 8.98133 2.89133 7.808C2.89133 5.28467 4.72467 2.96667 8.17733 2.96667C10.9527 2.96667 13.1093 4.944 13.1093 7.58733C13.1093 10.3447 11.3707 12.5633 8.958 12.5633C8.14733 12.5633 7.38533 12.142 7.12467 11.6447C7.12467 11.6447 6.72333 13.172 6.626 13.5467C6.44533 14.2413 5.958 15.1127 5.63133 15.644C6.38 15.8747 7.17533 16 8 16C12.418 16 16 12.418 16 8C16 3.582 12.418 0 8 0Z"/>
</svg>
