<svg width="20" height="17" viewBox="0 0 20 17" fill="#889097" xmlns="http://www.w3.org/2000/svg">
    <path d="M11.6001 0.203125C10.7579 0.203125 9.77356 0.864063 9.62512 3.81563C9.75012 3.8125 9.87356 3.80313 10.0001 3.80313C10.1407 3.80313 10.2861 3.81094 10.4251 3.81563C10.5204 2.04219 10.9423 1.00313 11.6001 1.00313C11.8814 1.00313 12.0407 1.15625 12.3376 1.47813C12.6845 1.85469 13.1376 2.34375 14.0251 2.52813C14.0111 2.42344 14.0001 2.31094 14.0001 2.20313C14.0001 2.03438 14.0173 1.875 14.0501 1.71563C13.5001 1.56563 13.2095 1.24844 12.9251 0.940625C12.6079 0.596875 12.2439 0.203125 11.6001 0.203125ZM16.4001 0.603125C15.5173 0.603125 14.8001 1.32188 14.8001 2.20313C14.8001 3.08438 15.5173 3.80313 16.4001 3.80313C17.2829 3.80313 18.0001 3.08438 18.0001 2.20313C18.0001 1.32188 17.2829 0.603125 16.4001 0.603125ZM10.0001 4.60313C5.14699 4.60313 1.20012 7.075 1.20012 10.6031C1.20012 14.1313 5.14699 17.0031 10.0001 17.0031C14.8532 17.0031 18.8001 14.1313 18.8001 10.6031C18.8001 7.075 14.8532 4.60313 10.0001 4.60313ZM3.00012 4.97813C2.41574 4.97813 1.86105 5.21719 1.43762 5.64063C0.748554 6.32969 0.606366 7.32031 1.00012 8.14063C1.6048 6.97031 2.64543 5.97188 3.98762 5.22813C3.68293 5.07344 3.34543 4.97813 3.00012 4.97813ZM17.0001 4.97813C16.6548 4.97813 16.3173 5.07344 16.0126 5.22813C17.3548 5.97188 18.3954 6.97031 19.0001 8.14063C19.3939 7.32031 19.2517 6.32969 18.5626 5.64063C18.1392 5.21719 17.5845 4.97813 17.0001 4.97813ZM6.80012 8.20313C7.46262 8.20313 8.00012 8.74063 8.00012 9.40313C8.00012 10.0656 7.46262 10.6031 6.80012 10.6031C6.13762 10.6031 5.60012 10.0656 5.60012 9.40313C5.60012 8.74063 6.13762 8.20313 6.80012 8.20313ZM13.2001 8.20313C13.8626 8.20313 14.4001 8.74063 14.4001 9.40313C14.4001 10.0656 13.8626 10.6031 13.2001 10.6031C12.5376 10.6031 12.0001 10.0656 12.0001 9.40313C12.0001 8.74063 12.5376 8.20313 13.2001 8.20313ZM6.42512 12.6031C6.52512 12.6203 6.62355 12.6766 6.68762 12.7656C6.7298 12.825 7.66731 14.0781 10.0001 14.0781C12.3642 14.0781 13.3032 12.7906 13.3126 12.7781C13.4392 12.5984 13.6939 12.55 13.8751 12.6781C14.0548 12.8047 14.0892 13.0469 13.9626 13.2281C13.9157 13.2953 12.7751 14.8781 10.0001 14.8781C7.22355 14.8781 6.08449 13.2953 6.03762 13.2281C5.91105 13.0469 5.94387 12.8047 6.12512 12.6781C6.21574 12.6141 6.32512 12.5859 6.42512 12.6031Z"/>
</svg>
