<svg width="20" height="18" viewBox="0 0 20 18" fill="#889097" xmlns="http://www.w3.org/2000/svg">
    <path d="M18.7094 13.0344C16.3875 12.6516 15.3266 10.2469 15.2922 10.1687C15.2875 10.1547 15.2766 10.1297 15.2703 10.1156C15.2 9.975 15.1297 9.77656 15.1891 9.63594C15.2907 9.39531 15.7735 9.24219 16.0625 9.15C16.1641 9.11719 16.261 9.0875 16.336 9.05781C17.0375 8.77969 17.3875 8.41719 17.3797 7.97656C17.3735 7.62187 17.1016 7.29688 16.7016 7.15625C16.5625 7.09687 16.4032 7.06719 16.2422 7.06719C16.1328 7.06719 15.9672 7.08281 15.8078 7.15625C15.5407 7.28125 15.3063 7.34844 15.1391 7.35625C15.1032 7.35469 15.0719 7.35156 15.0453 7.34688L15.0625 7.07188C15.1407 5.82812 15.2391 4.27813 14.8188 3.33594C13.5782 0.559375 10.95 0.34375 10.1735 0.34375L9.82035 0.346875C9.04535 0.346875 6.42191 0.5625 5.18441 3.3375C4.7641 4.27969 4.86097 5.82812 4.94066 7.07344L4.94378 7.12031C4.94847 7.19688 4.95316 7.27344 4.95785 7.34688C4.78441 7.37813 4.44535 7.32031 4.09378 7.15625C3.61566 6.93281 2.75472 7.22813 2.63597 7.85313C2.58285 8.12969 2.64691 8.65469 3.66566 9.05625C3.74222 9.0875 3.83753 9.11719 3.94066 9.15C4.22816 9.24219 4.71097 9.39375 4.81253 9.63594C4.87191 9.77656 4.8016 9.975 4.71878 10.1453C4.67503 10.2469 3.62035 12.6516 1.29378 13.0344C0.996908 13.0828 0.78597 13.3453 0.801595 13.6484C0.806283 13.7281 0.826595 13.8078 0.859408 13.8859C1.07035 14.3813 1.83753 14.7219 3.26878 14.9547C3.29378 15.0391 3.32191 15.1641 3.33753 15.2328C3.36722 15.375 3.40003 15.5188 3.44378 15.6687C3.48597 15.8109 3.63128 16.1406 4.08441 16.1406C4.22191 16.1406 4.37191 16.1109 4.53285 16.0797C4.77035 16.0328 5.06722 15.975 5.44847 15.975C5.66097 15.975 5.87972 15.9938 6.10003 16.0297C6.50628 16.0969 6.87347 16.3578 7.30003 16.6578C7.96566 17.1297 8.72035 17.6625 9.89066 17.6625C9.92191 17.6625 9.95316 17.6609 9.98285 17.6594C10.025 17.6609 10.0688 17.6625 10.1125 17.6625C11.2828 17.6625 12.0375 17.1281 12.7047 16.6578C13.111 16.3687 13.4953 16.0984 13.9032 16.0297C14.1235 15.9938 14.3422 15.975 14.5547 15.975C14.9219 15.975 15.2125 16.0219 15.4719 16.0734C15.6563 16.1094 15.8032 16.1266 15.9391 16.1266C16.2422 16.1266 16.475 15.9531 16.5594 15.6625C16.6032 15.5156 16.6344 15.3734 16.6657 15.2297C16.6782 15.1766 16.7078 15.0422 16.7344 14.9531C18.1657 14.7203 18.9328 14.3797 19.1422 13.8891C19.1766 13.8109 19.1953 13.7297 19.2016 13.6453C19.2172 13.3469 19.0063 13.0844 18.7094 13.0344Z"/>
</svg>
