<svg width="16" height="16" viewBox="0 0 16 16" fill="#889097" xmlns="http://www.w3.org/2000/svg">
    <path d="M13.9998 0.664062H1.99984C1.26317 0.664062 0.666504 1.26073 0.666504 1.9974V13.9974C0.666504 14.7341 1.26317 15.3307 1.99984 15.3307H13.9998C14.7365 15.3307 15.3332 14.7341 15.3332 13.9974V1.9974C15.3332 1.26073 14.7358 0.664062 13.9998 0.664062ZM13.1258 6.98006C13.0392 6.98806 12.9518 6.9934 12.8638 6.9934C11.8672 6.9934 10.9912 6.4814 10.4812 5.70606C10.4812 7.73873 10.4812 10.0521 10.4812 10.0907C10.4812 11.8807 9.02984 13.3314 7.2405 13.3314C5.45117 13.3307 3.99984 11.8794 3.99984 10.0901C3.99984 8.30006 5.45117 6.8494 7.2405 6.8494C7.3085 6.8494 7.3745 6.8554 7.4405 6.8594V8.45673C7.37384 8.44873 7.30917 8.43673 7.2405 8.43673C6.32717 8.43673 5.5865 9.1774 5.5865 10.0907C5.5865 11.0041 6.3265 11.7447 7.2405 11.7447C8.1545 11.7447 8.96117 11.0247 8.96117 10.1114C8.96117 10.0747 8.97717 2.66473 8.97717 2.66473H10.5032C10.6465 4.0294 11.7485 5.10673 13.1258 5.2054V6.98006Z"
          />
</svg>
