<svg width="16" height="16" viewBox="0 0 16 16" fill="#889097" xmlns="http://www.w3.org/2000/svg">
    <path d="M13.9998 0.664062H1.99984C1.26317 0.664062 0.666504 1.26073 0.666504 1.9974V13.9974C0.666504 14.7341 1.26317 15.3307 1.99984 15.3307H13.9998C14.7365 15.3307 15.3332 14.7341 15.3332 13.9974V1.9974C15.3332 1.26073 14.7365 0.664062 13.9998 0.664062ZM11.3332 12.4734C11.3332 12.5101 11.3185 12.5467 11.2892 12.5687C11.2525 12.6054 10.2032 13.3307 8.28584 13.3307C5.98584 13.3307 5.99984 10.5774 5.99984 10.2834V7.23606H4.6085C4.5345 7.23606 4.47584 7.1774 4.47584 7.1034V5.8374C4.47584 5.77873 4.50584 5.73473 4.5565 5.71273C4.5785 5.7054 6.76117 4.74406 6.76117 2.7974C6.76184 2.72273 6.8205 2.66406 6.8945 2.66406H8.15384C8.22717 2.66406 8.28584 2.72273 8.28584 2.79673V5.71206H10.4392C10.5052 5.71206 10.5718 5.77073 10.5718 5.84473V7.10406C10.5718 7.1774 10.5058 7.23606 10.4392 7.23606H8.28584V10.2834C8.28584 10.3274 8.21584 11.2541 9.19984 11.2541C10.0085 11.2541 11.1198 10.9894 11.1272 10.9894C11.1712 10.9594 11.2225 10.9594 11.2598 10.9821C11.3032 11.0041 11.3332 11.0481 11.3332 11.0994V12.4734Z"/>
</svg>
