<svg width="18" height="16" viewBox="0 0 18 16" fill="#889097" xmlns="http://www.w3.org/2000/svg">
    <path d="M17.6665 2.62827C17.0285 2.9116 16.3432 3.10227 15.6239 3.18827C16.3585 2.74827 16.9219 2.0516 17.1872 1.22094C16.5005 1.62827 15.7392 1.92427 14.9285 2.08427C14.2799 1.39294 13.3559 0.960938 12.3332 0.960938C10.3692 0.960938 8.77719 2.5536 8.77719 4.51694C8.77719 4.7956 8.80919 5.0676 8.86919 5.32694C5.91385 5.17894 3.29385 3.76294 1.53919 1.61094C1.23385 2.13627 1.05852 2.74694 1.05852 3.3996C1.05852 4.63294 1.68585 5.7216 2.63985 6.35894C2.05719 6.34027 1.50852 6.18027 1.02919 5.91427C1.02919 5.9296 1.02919 5.9436 1.02919 5.95894C1.02919 7.68227 2.25452 9.1196 3.88185 9.4456C3.58385 9.52694 3.26919 9.57027 2.94452 9.57027C2.71585 9.57027 2.49252 9.5476 2.27585 9.50694C2.72852 10.9196 4.04185 11.9483 5.59785 11.9769C4.38119 12.9309 2.84785 13.4996 1.18119 13.4996C0.89452 13.4996 0.611186 13.4829 0.33252 13.4496C1.90652 14.4583 3.77519 15.0469 5.78385 15.0469C12.3252 15.0469 15.9012 9.62827 15.9012 4.92894C15.9012 4.77494 15.8979 4.6216 15.8912 4.46894C16.5865 3.96694 17.1899 3.34094 17.6665 2.62827Z"/>
</svg>
