<svg width="18" height="18" viewBox="0 0 18 18" fill="#889097" xmlns="http://www.w3.org/2000/svg">
    <path d="M16.8415 6.19652C16.8415 6.19652 16.8415 6.19652 16.8415 6.15486C16.2543 4.55171 15.1889 3.16759 13.7894 2.18974C12.3899 1.21189 10.7238 0.6875 9.01651 0.6875C7.30921 0.6875 5.64312 1.21189 4.2436 2.18974C2.84408 3.16759 1.77867 4.55171 1.1915 6.15486C1.1915 6.15486 1.1915 6.15486 1.1915 6.19652C0.535775 8.0056 0.535775 9.98744 1.1915 11.7965C1.1915 11.7965 1.1915 11.7965 1.1915 11.8382C1.77867 13.4413 2.84408 14.8255 4.2436 15.8033C5.64312 16.7812 7.30921 17.3055 9.01651 17.3055C10.7238 17.3055 12.3899 16.7812 13.7894 15.8033C15.1889 14.8255 16.2543 13.4413 16.8415 11.8382C16.8415 11.8382 16.8415 11.8382 16.8415 11.7965C17.4972 9.98744 17.4972 8.0056 16.8415 6.19652ZM2.54984 10.6632C2.26086 9.57087 2.26086 8.42218 2.54984 7.32986H4.09984C3.96653 8.43697 3.96653 9.55608 4.09984 10.6632H2.54984ZM3.23317 12.3299H4.39984C4.59544 13.0731 4.87501 13.7916 5.23317 14.4715C4.41592 13.9148 3.73275 13.1832 3.23317 12.3299ZM4.39984 5.66319H3.23317C3.72556 4.81243 4.4 4.08108 5.20817 3.52152C4.85863 4.20256 4.58746 4.92104 4.39984 5.66319ZM8.1665 15.4132C7.14298 14.6621 6.42413 13.5676 6.1415 12.3299H8.1665V15.4132ZM8.1665 10.6632H5.78317C5.62766 9.55752 5.62766 8.43553 5.78317 7.32986H8.1665V10.6632ZM8.1665 5.66319H6.1415C6.42413 4.4255 7.14298 3.33096 8.1665 2.57986V5.66319ZM14.7665 5.66319H13.5998C13.4042 4.91999 13.1247 4.20147 12.7665 3.52152C13.5838 4.07825 14.2669 4.80981 14.7665 5.66319ZM9.83317 2.57986C10.8567 3.33096 11.5755 4.4255 11.8582 5.66319H9.83317V2.57986ZM9.83317 15.4132V12.3299H11.8582C11.5755 13.5676 10.8567 14.6621 9.83317 15.4132ZM12.2165 10.6632H9.83317V7.32986H12.2165C12.372 8.43553 12.372 9.55752 12.2165 10.6632ZM12.7915 14.4715C13.1497 13.7916 13.4292 13.0731 13.6248 12.3299H14.7915C14.2919 13.1832 13.6088 13.9148 12.7915 14.4715ZM15.4498 10.6632H13.8998C13.9676 10.1102 14.001 9.55361 13.9998 8.99652C14.0008 8.43944 13.9674 7.88283 13.8998 7.32986H15.4498C15.7388 8.42218 15.7388 9.57087 15.4498 10.6632Z"
          />
</svg>
