<svg width="18" height="16" viewBox="0 0 18 16" fill="#889097" xmlns="http://www.w3.org/2000/svg">
    <path d="M9.00016 0.664062C6.2095 0.664062 2.5874 1.36328 2.5874 1.36328L2.57829 1.3737C1.30727 1.57697 0.333496 2.66915 0.333496 3.9974V7.9974V7.9987V11.9974V11.9987C0.334736 12.6331 0.562076 13.2462 0.974695 13.728C1.38731 14.2098 1.95818 14.5288 2.5848 14.6276L2.5874 14.6315C2.5874 14.6315 6.2095 15.332 9.00016 15.332C11.7908 15.332 15.4129 14.6315 15.4129 14.6315L15.4142 14.6302C16.0415 14.5316 16.613 14.2124 17.026 13.73C17.4389 13.2476 17.6662 12.6337 17.6668 11.9987V11.9974V7.9987V7.9974V3.9974C17.6659 3.36281 17.4387 2.74936 17.0261 2.26727C16.6134 1.78517 16.0424 1.46603 15.4155 1.36719L15.4129 1.36328C15.4129 1.36328 11.7908 0.664062 9.00016 0.664062ZM7.00016 4.92969L12.3335 7.9974L7.00016 11.0651V4.92969Z"/>
</svg>
