<svg width="24" height="24" viewBox="0 0 24 24" fill="none" xmlns="http://www.w3.org/2000/svg">
<path d="M18.3 3.81818H17.4V2.90909C17.4 2.66799 17.3052 2.43675 17.1364 2.26627C16.9676 2.09578 16.7387 2 16.5 2C16.2613 2 16.0324 2.09578 15.8636 2.26627C15.6948 2.43675 15.6 2.66799 15.6 2.90909V3.81818H8.4V2.90909C8.4 2.66799 8.30518 2.43675 8.1364 2.26627C7.96761 2.09578 7.73869 2 7.5 2C7.2613 2 7.03239 2.09578 6.8636 2.26627C6.69482 2.43675 6.6 2.66799 6.6 2.90909V3.81818H5.7C4.98392 3.81818 4.29716 4.10552 3.79081 4.61698C3.28446 5.12844 3 5.82214 3 6.54545V19.2727C3 19.996 3.28446 20.6897 3.79081 21.2012C4.29716 21.7127 4.98392 22 5.7 22H18.3C19.0161 22 19.7028 21.7127 20.2092 21.2012C20.7155 20.6897 21 19.996 21 19.2727V6.54545C21 5.82214 20.7155 5.12844 20.2092 4.61698C19.7028 4.10552 19.0161 3.81818 18.3 3.81818ZM19.2 19.2727C19.2 19.5138 19.1052 19.7451 18.9364 19.9156C18.7676 20.086 18.5387 20.1818 18.3 20.1818H5.7C5.46131 20.1818 5.23239 20.086 5.0636 19.9156C4.89482 19.7451 4.8 19.5138 4.8 19.2727V11.0909H19.2V19.2727ZM19.2 9.27273H4.8V6.54545C4.8 6.30435 4.89482 6.07312 5.0636 5.90263C5.23239 5.73214 5.46131 5.63636 5.7 5.63636H6.6V6.54545C6.6 6.78656 6.69482 7.01779 6.8636 7.18828C7.03239 7.35877 7.2613 7.45455 7.5 7.45455C7.73869 7.45455 7.96761 7.35877 8.1364 7.18828C8.30518 7.01779 8.4 6.78656 8.4 6.54545V5.63636H15.6V6.54545C15.6 6.78656 15.6948 7.01779 15.8636 7.18828C16.0324 7.35877 16.2613 7.45455 16.5 7.45455C16.7387 7.45455 16.9676 7.35877 17.1364 7.18828C17.3052 7.01779 17.4 6.78656 17.4 6.54545V5.63636H18.3C18.5387 5.63636 18.7676 5.73214 18.9364 5.90263C19.1052 6.07312 19.2 6.30435 19.2 6.54545V9.27273Z" fill="#AFAFAF"/>
</svg>
