<svg width="38" height="38" viewBox="0 0 38 38" fill="none" xmlns="http://www.w3.org/2000/svg">
<path d="M0 19C0 29.4934 8.50659 38 19 38C29.4934 38 38 29.4934 38 19C38 8.50659 29.4934 0 19 0C8.50659 0 0 8.50659 0 19Z" fill="#1877F2"/>
<path d="M28.5 19C28.5 13.775 24.225 9.5 19 9.5C13.775 9.5 9.5 13.775 9.5 19C9.5 23.75 12.9437 27.6687 17.4562 28.3813V21.7312H15.0812V19H17.4562V16.8625C17.4562 14.4875 18.8813 13.1813 21.0188 13.1813C22.0875 13.1813 23.1562 13.4188 23.1562 13.4188V15.7938H21.9688C20.7812 15.7938 20.425 16.5062 20.425 17.2188V19H23.0375L22.5625 21.7312H20.3063V28.5C25.0563 27.7875 28.5 23.75 28.5 19Z" fill="white"/>
</svg>
