<svg width="24" height="24" viewBox="0 0 24 24" fill="none" xmlns="http://www.w3.org/2000/svg">
<mask id="mask0_2814_19878" style="mask-type:alpha" maskUnits="userSpaceOnUse" x="0" y="0" width="24" height="24">
<rect width="24" height="24" fill="#D9D9D9"/>
</mask>
<g mask="url(#mask0_2814_19878)">
<path d="M5 12C5 12.2387 5.09482 12.4676 5.2636 12.6364C5.43239 12.8052 5.66131 12.9 5.9 12.9H12.731L10.661 14.961C10.5766 15.0447 10.5097 15.1442 10.464 15.2539C10.4183 15.3636 10.3948 15.4812 10.3948 15.6C10.3948 15.7188 10.4183 15.8364 10.464 15.9461C10.5097 16.0558 10.5766 16.1553 10.661 16.239C10.7447 16.3234 10.8442 16.3903 10.9539 16.436C11.0636 16.4817 11.1812 16.5052 11.3 16.5052C11.4188 16.5052 11.5364 16.4817 11.6461 16.436C11.7558 16.3903 11.8553 16.3234 11.939 16.239L15.539 12.639C15.6209 12.5534 15.6852 12.4525 15.728 12.342C15.818 12.1229 15.818 11.8771 15.728 11.658C15.6852 11.5475 15.6209 11.4466 15.539 11.361L11.939 7.761C11.8551 7.67709 11.7555 7.61052 11.6458 7.56511C11.5362 7.51969 11.4187 7.49632 11.3 7.49632C11.1813 7.49632 11.0638 7.51969 10.9542 7.56511C10.8445 7.61052 10.7449 7.67709 10.661 7.761C10.5771 7.84491 10.5105 7.94454 10.4651 8.05418C10.4197 8.16382 10.3963 8.28133 10.3963 8.4C10.3963 8.51867 10.4197 8.63618 10.4651 8.74582C10.5105 8.85546 10.5771 8.95509 10.661 9.039L12.731 11.1H5.9C5.66131 11.1 5.43239 11.1948 5.2636 11.3636C5.09482 11.5324 5 11.7613 5 12ZM16.7 3H7.7C6.98392 3 6.29716 3.28446 5.79081 3.79081C5.28446 4.29716 5 4.98392 5 5.7V8.4C5 8.63869 5.09482 8.86761 5.2636 9.0364C5.43239 9.20518 5.66131 9.3 5.9 9.3C6.13869 9.3 6.36761 9.20518 6.5364 9.0364C6.70518 8.86761 6.8 8.63869 6.8 8.4V5.7C6.8 5.46131 6.89482 5.23239 7.0636 5.0636C7.23239 4.89482 7.4613 4.8 7.7 4.8H16.7C16.9387 4.8 17.1676 4.89482 17.3364 5.0636C17.5052 5.23239 17.6 5.46131 17.6 5.7V18.3C17.6 18.5387 17.5052 18.7676 17.3364 18.9364C17.1676 19.1052 16.9387 19.2 16.7 19.2H7.7C7.4613 19.2 7.23239 19.1052 7.0636 18.9364C6.89482 18.7676 6.8 18.5387 6.8 18.3V15.6C6.8 15.3613 6.70518 15.1324 6.5364 14.9636C6.36761 14.7948 6.13869 14.7 5.9 14.7C5.66131 14.7 5.43239 14.7948 5.2636 14.9636C5.09482 15.1324 5 15.3613 5 15.6V18.3C5 19.0161 5.28446 19.7028 5.79081 20.2092C6.29716 20.7155 6.98392 21 7.7 21H16.7C17.4161 21 18.1028 20.7155 18.6092 20.2092C19.1155 19.7028 19.4 19.0161 19.4 18.3V5.7C19.4 4.98392 19.1155 4.29716 18.6092 3.79081C18.1028 3.28446 17.4161 3 16.7 3Z" fill="#3E5970"/>
</g>
</svg>
