<svg width="20" height="24" viewBox="0 0 20 24" fill="none" xmlns="http://www.w3.org/2000/svg">
<path d="M18.8461 7.97772C18.7115 8.08303 16.3342 9.43333 16.3342 12.4358C16.3342 15.9086 19.3592 17.1372 19.4497 17.1677C19.4358 17.2426 18.9692 18.8503 17.8548 20.4884C16.8612 21.93 15.8235 23.3692 14.2448 23.3692C12.6662 23.3692 12.2599 22.4448 10.4375 22.4448C8.66152 22.4448 8.03006 23.3996 6.58606 23.3996C5.14206 23.3996 4.13451 22.0657 2.97606 20.4276C1.63421 18.5039 0.550049 15.5155 0.550049 12.6792C0.550049 8.12984 3.48448 5.7171 6.37248 5.7171C7.90702 5.7171 9.18619 6.73274 10.1496 6.73274C11.0666 6.73274 12.4967 5.65625 14.2425 5.65625C14.9042 5.65625 17.2814 5.7171 18.8461 7.97772ZM13.4137 3.73027C14.1357 2.86674 14.6465 1.66856 14.6465 0.470379C14.6465 0.304225 14.6325 0.135731 14.6024 0C13.4277 0.0444637 12.0301 0.788646 11.1874 1.77387C10.5257 2.53209 9.90819 3.73027 9.90819 4.94483C9.90819 5.12737 9.93837 5.3099 9.9523 5.36841C10.0266 5.38245 10.1473 5.39883 10.268 5.39883C11.322 5.39883 12.6476 4.68741 13.4137 3.73027Z" fill="#4D5157"/>
</svg>
