<svg width="31" height="31" viewBox="0 0 31 31" fill="none" xmlns="http://www.w3.org/2000/svg">
<path d="M20.4595 6.20023L17.3595 3.10023L8.67951 11.7802C8.36951 12.0902 7.74951 12.0902 7.43951 11.7802L6.19951 10.5402L3.09951 13.6402L4.95951 15.5002C6.81951 17.3602 9.29951 17.3602 11.1595 15.5002L20.4595 6.20023Z" fill="#E93B04"/>
<path d="M24.7998 20.46L27.8998 17.36L19.2198 8.68C18.9098 8.37 18.9098 7.75 19.2198 7.44L20.4598 6.2L17.3598 3.1L15.4998 4.96C13.6398 6.82 13.6398 9.3 15.4998 11.16L24.7998 20.46Z" fill="#E93B04"/>
<path d="M10.5395 24.7998L13.6395 27.8998L22.3195 19.2198C22.6295 18.9098 23.2495 18.9098 23.5595 19.2198L24.7995 20.4598L27.8995 17.3598L26.0395 15.4998C24.1795 13.6398 21.6995 13.6398 19.8395 15.4998L10.5395 24.7998Z" fill="#E93B04"/>
<path fill-rule="evenodd" clip-rule="evenodd" d="M3.10023 13.64L6.20023 10.54L7.45106 11.7908C7.44746 11.7874 7.44389 11.7839 7.44037 11.7804L6.20037 10.5404L3.10049 13.6403L3.10023 13.64ZM4.99208 15.5318L11.7802 22.32C12.0902 22.63 12.0902 23.25 11.7802 23.56L10.5402 24.8L13.6402 27.9L15.5002 26.04C17.3602 24.18 17.3602 21.7 15.5002 19.84L11.1605 15.5003L11.1604 15.5004C9.31092 17.3498 6.84848 17.3603 4.99208 15.5318Z" fill="#E93B04"/>
</svg>
