<svg width="203" height="62" viewBox="0 0 203 62" fill="none" xmlns="http://www.w3.org/2000/svg">
<path d="M79.0824 19.3892H84.5733V43.1152H79.0824V19.3892ZM68.304 43.1152H62.8131V19.3892H68.304V43.1152ZM79.4891 33.3876H67.8973V28.744H79.4891V33.3876ZM99.4738 43.1152V39.5563L99.1348 38.7768V32.4046C99.1348 31.2748 98.7846 30.3936 98.0841 29.7609C97.4062 29.1282 96.3555 28.8118 94.9319 28.8118C93.9603 28.8118 93 28.97 92.0509 29.2864C91.1245 29.5801 90.3336 29.9868 89.6783 30.5065L87.7802 26.8121C88.7745 26.1116 89.9721 25.5693 91.373 25.1851C92.774 24.801 94.1976 24.6089 95.6437 24.6089C98.4231 24.6089 100.581 25.2642 102.118 26.5748C103.654 27.8854 104.422 29.9303 104.422 32.7097V43.1152H99.4738ZM93.9151 43.3864C92.4916 43.3864 91.2714 43.1491 90.2545 42.6746C89.2377 42.1775 88.4581 41.5109 87.9158 40.6748C87.3735 39.8388 87.1024 38.901 87.1024 37.8616C87.1024 36.777 87.3622 35.828 87.8819 35.0145C88.4242 34.201 89.2716 33.5683 90.424 33.1164C91.5764 32.6419 93.0791 32.4046 94.9319 32.4046H99.7788V35.489H95.5081C94.2654 35.489 93.4067 35.6924 92.9322 36.0991C92.4803 36.5058 92.2543 37.0143 92.2543 37.6244C92.2543 38.3022 92.5142 38.8446 93.0339 39.2513C93.5762 39.6354 94.3106 39.8275 95.237 39.8275C96.1182 39.8275 96.9091 39.6241 97.6096 39.2174C98.3101 38.7881 98.8185 38.1667 99.1348 37.3532L99.9483 39.7936C99.5642 40.9686 98.8637 41.8611 97.8469 42.4712C96.83 43.0813 95.5194 43.3864 93.9151 43.3864ZM113.817 43.3864C112.258 43.3864 110.756 43.2056 109.309 42.8441C107.886 42.4599 106.756 41.9854 105.92 41.4205L107.683 37.6244C108.519 38.1441 109.502 38.5734 110.631 38.9123C111.784 39.2287 112.914 39.3869 114.021 39.3869C115.241 39.3869 116.1 39.24 116.597 38.9462C117.116 38.6525 117.376 38.2458 117.376 37.726C117.376 37.2967 117.173 36.9804 116.766 36.777C116.382 36.551 115.862 36.3816 115.207 36.2686C114.552 36.1556 113.829 36.0426 113.038 35.9296C112.27 35.8167 111.49 35.6698 110.699 35.489C109.908 35.2856 109.185 34.9919 108.53 34.6078C107.875 34.2236 107.344 33.7039 106.937 33.0486C106.553 32.3933 106.361 31.546 106.361 30.5065C106.361 29.3541 106.688 28.3373 107.344 27.4561C108.022 26.5748 108.993 25.8856 110.259 25.3885C111.524 24.8688 113.038 24.6089 114.8 24.6089C116.043 24.6089 117.309 24.7445 118.597 25.0157C119.885 25.2868 120.958 25.6823 121.816 26.202L120.054 29.9642C119.173 29.4445 118.28 29.0943 117.376 28.9135C116.495 28.7101 115.636 28.6085 114.8 28.6085C113.625 28.6085 112.767 28.7666 112.224 29.083C111.682 29.3993 111.411 29.8061 111.411 30.3032C111.411 30.7551 111.603 31.094 111.987 31.32C112.394 31.546 112.925 31.7267 113.58 31.8623C114.235 31.9979 114.947 32.1222 115.716 32.2352C116.506 32.3255 117.297 32.4724 118.088 32.6758C118.879 32.8791 119.591 33.1729 120.223 33.557C120.879 33.9186 121.41 34.427 121.816 35.0823C122.223 35.715 122.427 36.551 122.427 37.5905C122.427 38.7203 122.088 39.7258 121.41 40.6071C120.732 41.4657 119.749 42.1436 118.461 42.6407C117.196 43.1378 115.648 43.3864 113.817 43.3864ZM135.247 24.6089C136.693 24.6089 137.981 24.9027 139.111 25.4902C140.263 26.0551 141.167 26.9363 141.823 28.1339C142.478 29.3089 142.806 30.8229 142.806 32.6758V43.1152H137.518V33.4892C137.518 32.0205 137.19 30.9359 136.535 30.2354C135.902 29.5349 134.999 29.1847 133.824 29.1847C132.987 29.1847 132.231 29.3654 131.553 29.727C130.897 30.0659 130.378 30.5969 129.993 31.32C129.632 32.0431 129.451 32.9695 129.451 34.0993V43.1152H124.164V17.9656H129.451V29.9303L128.265 28.4051C128.92 27.1849 129.858 26.2472 131.078 25.5919C132.298 24.9366 133.688 24.6089 135.247 24.6089ZM153.53 43.3864C151.383 43.3864 149.711 42.8441 148.514 41.7595C147.316 40.6522 146.717 39.014 146.717 36.8448V20.8467H152.005V36.777C152.005 37.5453 152.208 38.1441 152.615 38.5734C153.022 38.9801 153.575 39.1835 154.276 39.1835C155.112 39.1835 155.823 38.9575 156.411 38.5056L157.835 42.234C157.292 42.6181 156.637 42.9119 155.869 43.1152C155.123 43.296 154.343 43.3864 153.53 43.3864ZM143.904 29.3541V25.2868H156.547V29.3541H143.904ZM164.7 28.9474H176.123V33.2181H164.7V28.9474ZM165.107 38.709H178.021V43.1152H159.65V19.3892H177.58V23.7955H165.107V38.709ZM177.921 43.1152L188.124 29.0491V33.0486L178.362 19.3892H184.599L191.344 28.9135L188.734 28.9474L195.377 19.3892H201.342L191.649 32.8114V28.8796L201.919 43.1152H195.58L188.598 33.0486H191.106L184.226 43.1152H177.921Z" fill="#101010"/>
<path d="M40.7339 12.3438L34.562 6.17189L17.2807 23.4532C16.6635 24.0704 15.4291 24.0704 14.8119 23.4532L12.3432 20.9845L6.17127 27.1564L9.87442 30.8595C13.5776 34.5627 18.5151 34.5626 22.2182 30.8595L40.7339 12.3438Z" fill="#E93B04"/>
<path d="M49.3745 40.7344L55.5464 34.5625L38.265 17.2812C37.6478 16.664 37.6478 15.4296 38.265 14.8124L40.7338 12.3437L34.5619 6.17176L30.8588 9.8749C27.1556 13.578 27.1556 18.5156 30.8588 22.2187L49.3745 40.7344Z" fill="#E93B04"/>
<path d="M20.9838 49.375L27.1557 55.5469L44.4371 38.2655C45.0543 37.6483 46.2886 37.6483 46.9058 38.2655L49.3746 40.7343L55.5465 34.5624L51.8434 30.8592C48.1402 27.1561 43.2027 27.1561 39.4995 30.8592L20.9838 49.375Z" fill="#E93B04"/>
<path fill-rule="evenodd" clip-rule="evenodd" d="M6.17189 27.1562L6.17206 27.1561L9.87521 30.8592C13.5783 34.5623 18.5157 34.5623 22.2188 30.8594L30.8595 39.5C34.5626 43.2032 34.5627 48.1407 30.8595 51.8438L27.1564 55.547L20.9845 49.3751L23.4532 46.9063C24.0704 46.2891 24.0704 45.0548 23.4532 44.4376L6.17189 27.1562Z" fill="#E93B04"/>
</svg>
