<svg width="260" height="260" viewBox="0 0 260 260" fill="none" xmlns="http://www.w3.org/2000/svg">
<path fill-rule="evenodd" clip-rule="evenodd" d="M140.39 225.629C187.05 225.629 193.665 204.871 200.74 201.056C207.815 197.242 203.416 189.587 208.056 183.813C215.468 174.59 219.96 179.343 222.413 167.378C224.866 155.413 220.406 152.029 220.406 141.346C220.406 119.945 230.659 109.814 217.566 98.6158C204.474 87.418 182.61 88.7392 160.986 88.7392C120.851 88.7392 96.8063 33.7194 43.2749 50.2259C24.8268 55.9145 26.8657 63.6666 30.9193 91.0623C32.6796 102.959 19.389 118.084 21.695 131.603C25.9065 156.295 37.0296 152.945 58.0162 169.616C61.537 172.413 66.6721 172.384 70.5104 175.252C76.9453 180.061 77.3591 187.539 89.3893 192.583C108.788 200.715 107.142 225.629 140.39 225.629Z" fill="#E9FDEA"/>
<ellipse cx="51.1876" cy="161.894" rx="11.797" ry="11.0933" fill="white"/>
<path fill-rule="evenodd" clip-rule="evenodd" d="M46.5612 122.341C44.5501 117.318 46.3068 114.309 47.4328 110.381C48.3734 107.099 55.7291 101.769 59.1145 107.327C60.1104 108.962 59.7109 110.507 61.8876 111.944C67.1568 115.423 64.2823 108.206 64.4782 106.382C64.5738 105.492 63.8219 103.439 64.1018 102.581C64.3955 101.679 65.9611 100.399 65.9611 98.5309C65.9611 96.6628 62.7766 95.9433 61.8876 95.4844C53.9878 91.4056 48.9637 84.5931 51.4674 81.1356C54.9557 76.3185 68.6268 83.8977 72.7346 84.5931C72.7878 84.6021 73.5215 80.7723 74.1206 79.8954C75.3195 78.1409 76.6444 76.4377 78.225 75.0175C78.9331 74.3813 79.8928 73.9885 80.8361 73.8613C83.6592 73.4803 86.5473 73.168 89.375 73.513C90.3742 73.6349 96.3246 66.7481 98.6448 64.5266C116.446 47.4828 152.131 68.2524 132.68 96.4752C129.104 101.663 124.533 103.312 123.942 105.146C122.631 109.218 130.887 108.682 134.384 109.117C140.359 109.86 143.303 112.929 139.595 118.19C137.284 121.467 123.73 121.3 117.792 118.93C115.588 118.05 112.865 114.205 110.782 117.359C109.347 119.533 103.751 124.145 97.7491 126.753C95.0398 127.931 91.954 127.221 89.642 128.273C86.3877 129.753 76.7808 135.967 72.7346 135.966C68.6597 135.964 63.3865 131.061 62.7766 130.739C61.8467 130.249 54.6535 128.843 51.1 123.36C50.0255 121.702 47.2973 124.179 46.5612 122.341Z" fill="white"/>
<ellipse cx="115.75" cy="93.224" rx="1.24967" ry="1.23181" fill="#FFB61D"/>
<circle cx="106.6" cy="90.6528" r="1.21333" fill="#FFB61D"/>
<circle cx="195" cy="89.6132" r="16.4667" fill="white"/>
<ellipse cx="143.511" cy="183.029" rx="47.8486" ry="40.8966" fill="white"/>
<path fill-rule="evenodd" clip-rule="evenodd" d="M102.946 205.331L103.483 205.72C102.271 206.807 100.448 205.455 99.4257 204.187C97.7819 202.149 96.1136 199.983 95.6133 197.413C95.3287 195.95 95.4426 194.443 95.5576 192.958L96.0213 186.968C96.2268 184.314 96.4329 181.655 96.8924 179.033C98.1359 171.936 101.266 165.178 105.875 159.641L105.921 159.585C106.735 158.608 107.624 157.54 107.608 156.273C107.575 153.592 109.119 151.086 111.147 149.331C113.174 147.576 115.657 146.449 118.101 145.347C119.208 144.847 120.654 144.4 121.513 145.26C123.278 147.028 126.224 145.902 128.556 145.003C131.418 143.901 134.476 143.307 137.543 143.257C137.633 143.256 137.723 143.254 137.813 143.253C139.655 143.227 141.728 143.197 142.851 141.77C143.567 140.862 144.935 140.914 146.083 141.052L153.98 141.996C154.583 142.069 155.306 142.233 155.497 142.811C156.007 144.358 157.806 144.99 159.366 145.46C164.913 147.132 170.334 149.403 175.043 152.777C179.752 156.152 183.732 160.691 185.843 166.086C182.41 161.393 178.888 156.611 174.122 153.279C172.759 152.325 171.308 151.501 169.836 150.725C166.362 148.894 162.745 147.315 158.989 146.168C141.549 140.845 121.376 145.782 108.366 158.557C106.479 160.409 104.711 162.449 103.641 164.867L105.054 165.305C102.814 166.307 101.15 168.5 100.79 170.927C101.692 169.383 102.976 168.065 104.497 167.124C104.062 168.578 102.93 169.746 101.82 170.891C100.406 172.35 99.0287 173.772 99.1749 175.7C99.8462 173.938 101.537 172.609 103.408 172.372C100.441 175.27 97.2575 178.672 97.352 182.819C98.4341 180.425 100.272 178.378 102.536 177.045L99.2761 181.427C98.0431 183.084 96.7446 184.977 97.0265 187.023C98.0991 185.098 99.6327 183.432 101.462 182.204C100.581 184.208 99.3233 186.045 97.7738 187.591C99.2474 187.413 100.666 186.803 101.809 185.855C101.33 186.524 100.898 187.279 100.882 188.101C100.866 188.923 101.399 189.806 102.213 189.924C102.459 189.373 103.232 189.14 103.741 189.464C102.197 190.967 102.181 193.751 103.708 195.272C103.844 194.557 104.447 193.955 105.161 193.82C104.022 195.812 103.817 198.313 104.617 200.464C104.86 199.245 105.536 198.118 106.496 197.33C105.942 200.22 104.718 202.98 102.946 205.331ZM102.272 204.409C103.236 204.399 103.836 203.32 103.937 202.361C104.057 201.214 103.772 200.066 103.489 198.948L101.811 192.312C101.496 192.412 101.459 192.755 101.421 193.115C101.388 193.422 101.354 193.741 101.144 193.931C100.719 193.402 100.671 192.603 101.029 192.027C101.391 191.447 101.154 190.633 100.641 190.18C100.128 189.728 99.4145 189.574 98.7307 189.551C98.3611 189.539 97.968 189.568 97.6656 189.78C97.3632 189.993 97.2041 190.446 97.4189 190.746C98.0584 191.642 98.5394 192.651 98.8332 193.712C98.8551 193.791 98.8764 193.871 98.8978 193.952C99.0438 194.503 99.194 195.069 99.5969 195.462C99.9084 195.765 99.9878 196.228 100.051 196.659L100.564 200.146C100.657 200.78 100.75 201.428 100.643 202.06C100.537 202.693 100.195 203.32 99.6212 203.607L101.453 204.23C101.719 204.321 101.991 204.412 102.272 204.409ZM122.241 147.255C121.88 147.332 121.578 147.015 121.319 146.744L121.289 146.713C121.024 146.436 120.569 146.194 120.29 146.457C117.038 149.516 113.338 152.098 109.344 154.093C108.619 154.455 108.522 155.431 108.522 156.242C108.522 156.512 108.781 156.892 108.949 156.681C109.773 155.649 110.844 154.848 111.902 154.059C114.88 151.839 117.894 149.598 121.308 148.134C121.722 147.956 122.207 147.705 122.241 147.255ZM154.923 143.815C154.739 143.382 154.215 143.226 153.753 143.139C152.494 142.902 151.213 142.795 149.933 142.687C148.176 142.54 146.421 142.393 144.729 141.91C144.188 141.755 143.724 142.305 143.427 142.783C144.318 142.691 145.215 142.652 146.111 142.669C147.671 142.697 149.222 142.892 150.77 143.086C151.556 143.184 152.348 143.284 153.102 143.528C153.19 143.556 153.279 143.587 153.368 143.617C153.883 143.794 154.415 143.977 154.923 143.815ZM138.275 150.462C138.632 150.544 138.971 150.81 139.024 151.172C139.078 151.532 138.831 151.884 138.516 152.068C138.201 152.251 137.829 152.303 137.467 152.351L136.379 152.495C136.27 152.509 136.157 152.525 136.063 152.581C135.789 152.743 135.808 153.182 136.032 153.408C136.255 153.634 136.598 153.69 136.916 153.689C138.397 153.686 139.798 152.621 140.25 151.211C140.358 150.877 140.414 150.505 140.281 150.179C140.214 150.014 140.101 149.871 139.976 149.744C139.394 149.154 138.526 148.894 137.7 148.952C136.873 149.011 136.086 149.363 135.413 149.847C135.091 150.079 134.784 150.351 134.6 150.703C134.417 151.056 134.378 151.503 134.583 151.844C134.661 151.974 134.782 152.089 134.931 152.113C135.081 152.137 135.254 152.041 135.272 151.89C135.324 151.472 135.629 151.119 135.992 150.907C136.356 150.694 136.775 150.601 137.188 150.518C137.547 150.446 137.919 150.381 138.275 150.462ZM109.102 171.139C109.509 168.733 111.452 166.777 113.718 165.871C114.966 165.371 116.395 165.152 117.65 165.634C117.96 165.752 118.26 165.916 118.483 166.162C118.693 166.392 118.825 166.683 118.924 166.979C119.562 168.871 118.915 171.059 117.544 172.511C116.174 173.963 114.179 174.724 112.188 174.867C111.55 174.913 110.864 174.887 110.338 174.524C109.811 174.162 109.549 173.356 109.955 172.862C110.146 172.871 110.25 173.042 110.356 173.217C110.408 173.304 110.461 173.392 110.526 173.462C110.747 173.7 111.113 173.717 111.438 173.703C112.85 173.644 114.283 173.294 115.432 172.471C116.582 171.649 117.408 170.306 117.383 168.892C117.376 168.437 117.277 167.971 117.019 167.596C116.595 166.98 115.795 166.702 115.049 166.751C114.303 166.8 113.604 167.131 112.968 167.525C112.133 168.044 111.36 168.696 110.837 169.528C110.313 170.361 110.057 171.39 110.278 172.348C110.082 172.702 109.5 172.631 109.26 172.307C109.019 171.982 109.034 171.537 109.102 171.139ZM122.106 190.97C121.073 191.635 120.216 192.675 120.057 193.893C119.928 194.879 120.259 195.86 120.584 196.8C120.838 197.532 121.101 198.281 121.584 198.887C122.458 199.982 123.905 200.435 125.289 200.658C125.665 200.719 126.237 200.548 126.103 200.191C124.642 200.164 123.206 199.488 122.255 198.379C121.305 197.269 120.856 195.746 121.053 194.299C121.095 193.994 121.164 193.691 121.292 193.412C121.551 192.847 122.033 192.412 122.555 192.075C123.679 191.349 125.047 191.008 126.38 191.123C127.666 191.234 128.95 191.798 129.735 192.822C130.519 193.846 130.706 195.357 130.014 196.445C129.901 196.622 129.819 196.935 130.025 196.972C131.14 196.372 131.759 195.047 131.696 193.783C131.634 192.518 130.966 191.335 130.049 190.462C129.541 189.979 128.94 189.572 128.259 189.408C127.362 189.192 126.423 189.415 125.53 189.649C124.342 189.962 123.139 190.305 122.106 190.97ZM172.844 192.54C169.108 191.145 165.049 190.625 161.082 191.033C159.419 191.205 157.75 191.544 156.255 192.292C153.433 193.705 151.416 196.611 151.08 199.749C150.745 202.886 152.102 206.154 154.56 208.131C155.493 208.88 156.551 209.442 157.611 210.004C158.334 210.388 159.059 210.772 159.744 211.216C159.939 211.403 159.499 211.59 159.242 211.507C156.845 210.733 154.518 209.557 152.809 207.708C150.73 205.459 149.716 202.264 150.117 199.228C150.518 196.191 152.327 193.37 154.919 191.737C156.969 190.446 159.42 189.902 161.841 189.815C164.262 189.728 166.677 190.074 169.071 190.445C170.566 190.676 172.32 191.121 172.844 192.54ZM133.535 197.222C133.366 196.833 132.684 196.732 132.559 197.137C131.767 199.716 129.25 201.666 126.555 201.789C125.946 201.817 125.336 201.761 124.729 201.702C123.422 201.576 122.074 201.426 120.929 200.782C119.283 199.857 118.292 197.956 118.281 196.068C118.269 194.179 119.165 192.344 120.525 191.033C120.336 190.505 119.525 190.76 119.123 191.151C116.892 193.32 116.509 197.062 118.075 199.751C119.64 202.44 122.92 203.947 126.013 203.605C129.105 203.263 131.897 201.193 133.334 198.434C133.53 198.057 133.705 197.61 133.535 197.222ZM114.171 210.279C113.667 212.211 113.619 214.26 114.033 216.213C114.218 217.089 114.238 217.572 114.242 217.662L114.242 217.671L114.242 217.676L114.243 217.678C114.243 217.678 114.243 217.673 114.244 217.662C114.248 217.572 114.27 217.087 114.459 216.21C114.882 214.253 114.781 212.186 114.171 210.279ZM116.847 211.449C116.132 212.949 116.22 214.805 117.076 216.23C117.268 216.55 117.414 216.81 117.521 217.002C117.666 217.26 117.742 217.395 117.768 217.386C117.796 217.376 117.766 217.195 117.702 216.817C117.677 216.665 117.646 216.481 117.612 216.264L116.847 211.449ZM118.862 213.364C118.558 214.322 118.782 215.429 119.433 216.194C120.098 216.975 120.315 217.225 120.113 216.22C119.906 215.193 119.476 214.212 118.862 213.364ZM177.174 202.47C176.26 206.138 173.342 208.917 170.512 211.423C170.641 211.702 171.059 211.602 171.327 211.451C174.193 209.838 176.513 207.209 177.571 204.095C178.629 200.98 178.366 197.402 176.696 194.569C176.556 194.331 176.377 194.078 176.106 194.025C175.835 193.972 175.523 194.286 175.682 194.512C177.288 196.786 177.847 199.768 177.174 202.47ZM135.964 169.35C135.958 168.77 135.966 168.142 136.316 167.679C136.799 167.043 137.714 166.976 138.513 166.965C138.869 166.96 139.23 166.955 139.577 167.038C140.316 167.213 140.904 167.758 141.428 168.308C141.545 168.429 141.668 168.579 141.639 168.745C141.604 168.95 141.346 169.045 141.142 169.003C141.006 168.975 140.884 168.907 140.762 168.839C140.701 168.805 140.639 168.771 140.576 168.742C139.841 168.405 138.978 168.775 138.318 169.241C138.214 169.315 138.102 169.409 138.1 169.536C138.097 169.663 138.207 169.762 138.31 169.838C139.201 170.491 140.343 170.793 141.441 170.667C141.703 170.637 142.012 170.541 142.08 170.286C142.106 170.186 142.096 170.068 142.086 169.955C142.069 169.765 142.053 169.587 142.213 169.521C142.296 169.487 142.39 169.511 142.476 169.537C143.071 169.709 143.766 169.987 143.881 170.595C143.914 170.771 143.89 170.954 143.834 171.124C143.671 171.621 143.215 172.009 142.698 172.092C142.468 172.128 142.234 172.108 142.002 172.088C141.398 172.036 140.792 171.984 140.193 171.888C139.092 171.711 138.016 171.383 137.004 170.916C136.653 170.754 136.287 170.555 136.11 170.212C135.974 169.951 135.968 169.644 135.964 169.35ZM158.567 155.043C158.213 154.087 157.358 153.333 156.366 153.1C156.059 153.028 155.712 153.011 155.452 153.189C155.191 153.366 155.102 153.8 155.35 153.995C155.591 154.183 155.445 154.627 155.151 154.711C154.857 154.795 154.54 154.595 154.394 154.327C154.247 154.058 154.231 153.74 154.229 153.434C154.227 153.026 154.264 152.57 154.566 152.295C154.681 152.19 154.824 152.123 154.966 152.059C155.553 151.797 156.203 151.574 156.83 151.715C157.429 151.849 157.905 152.291 158.323 152.74C158.665 153.109 158.988 153.494 159.291 153.895C159.559 154.249 159.816 154.625 159.916 155.057C160.016 155.488 159.93 155.989 159.597 156.281C159.27 156.566 158.768 156.591 158.372 156.414C158.022 156.259 157.724 155.916 157.75 155.533C157.776 155.151 158.245 154.834 158.567 155.043ZM161.723 181.92C162.601 181.895 163.418 181.219 163.607 180.362C163.723 179.841 163.58 179.221 163.126 178.941C162.795 178.736 162.377 178.751 161.988 178.776C161.45 178.811 160.891 178.858 160.422 179.127C159.954 179.396 159.606 179.953 159.753 180.472C159.991 181.317 160.846 181.945 161.723 181.92ZM161.836 180.654C161.666 180.7 161.424 180.656 161.409 180.481C161.403 180.408 161.442 180.34 161.486 180.282C161.736 179.959 162.211 179.834 162.587 179.991C162.456 180.312 162.17 180.564 161.836 180.654ZM162.289 167.672C162.146 167.342 162.423 166.958 162.759 166.832C163.029 166.73 163.321 166.741 163.612 166.751C163.684 166.754 163.756 166.757 163.828 166.757C164.187 166.762 164.584 166.702 164.817 166.429C164.899 166.332 164.955 166.19 164.892 166.08C164.827 165.965 164.672 165.945 164.54 165.938C163.624 165.891 162.543 165.919 162.015 166.669C161.901 166.83 161.624 166.776 161.517 166.609C161.411 166.443 161.436 166.225 161.496 166.038C161.712 165.366 162.333 164.877 163.011 164.681C163.689 164.485 164.418 164.547 165.106 164.703C165.338 164.755 165.579 164.824 165.749 164.991C165.883 165.124 165.958 165.305 166.008 165.488C166.242 166.36 165.896 167.358 165.172 167.898C164.448 168.437 163.392 168.484 162.624 168.01C162.487 167.925 162.353 167.82 162.289 167.672ZM159.149 183.077C159.575 183.587 160.079 184.05 160.69 184.31C161.925 184.834 163.504 184.35 164.232 183.223C164.497 182.813 164.616 182.187 164.224 181.895C163.595 183.216 161.773 183.799 160.494 183.089C160.249 182.953 160.027 182.779 159.824 182.585C158.905 181.705 158.425 180.267 158.964 179.114C159.14 178.738 159.41 178.414 159.706 178.122C160.35 177.486 161.271 176.966 162.131 177.249C162.167 177.26 162.202 177.273 162.238 177.286C162.358 177.331 162.479 177.375 162.606 177.368C162.77 177.358 162.941 177.212 162.899 177.053C162.886 177.006 162.857 176.965 162.827 176.927C162.296 176.25 161.253 176.041 160.502 176.46C159.607 176.96 158.699 177.548 158.223 178.455C157.449 179.932 158.081 181.797 159.149 183.077ZM173.392 160.301C173.353 160.357 173.363 160.435 173.372 160.51C173.383 160.6 173.394 160.684 173.321 160.72C173.053 160.852 172.733 160.838 172.447 160.751C171.669 160.512 171.147 159.797 170.706 159.112C170.448 158.711 170.192 158.286 170.15 157.811C170.108 157.337 170.351 156.802 170.808 156.668C171.318 156.518 171.818 156.897 172.214 157.251C172.662 157.649 173.119 158.06 173.396 158.591C173.673 159.122 173.735 159.809 173.392 160.301ZM171.699 158.523C171.809 158.63 171.869 158.773 171.929 158.917C171.988 159.058 172.048 159.2 172.154 159.306C172.29 159.441 172.495 159.502 172.682 159.461C172.332 158.92 171.926 158.414 171.473 157.954C171.352 157.991 171.342 158.17 171.415 158.274C171.459 158.336 171.521 158.382 171.583 158.429L171.583 158.429C171.623 158.459 171.663 158.489 171.699 158.523ZM105.031 207.484C104.988 208.195 105.042 209.019 105.611 209.448C105.801 209.342 105.788 209.071 105.764 208.855C105.617 207.525 106.03 206.244 106.445 204.955C106.742 204.031 107.041 203.104 107.137 202.151C107.164 201.875 107.091 201.497 106.813 201.486C106.605 201.478 106.471 201.697 106.387 201.888C105.61 203.654 105.148 205.558 105.031 207.484ZM160.244 181.836C160.886 182.12 161.598 182.409 162.27 182.205C162.537 182.124 162.775 181.97 163.009 181.817C163.008 182.21 162.671 182.54 162.294 182.652C161.918 182.765 161.513 182.704 161.129 182.621C160.702 182.529 160.181 182.267 160.244 181.836ZM109.444 214.618C109.608 214.326 109.636 213.98 109.66 213.646L109.854 210.987C109.949 209.682 110.044 208.372 109.959 207.066C109.948 206.902 109.931 206.728 109.835 206.594C109.739 206.46 109.536 206.389 109.405 206.488C109.308 206.561 109.283 206.694 109.267 206.814C109.056 208.324 108.944 209.847 108.93 211.371C108.92 212.477 108.971 213.619 109.444 214.618ZM106.538 212.332C106.367 212.476 106.084 212.35 105.99 212.147C105.896 211.945 105.934 211.709 105.974 211.49C106.395 209.195 106.872 206.911 107.405 204.639C107.419 204.583 107.433 204.524 107.47 204.478C107.61 204.305 107.894 204.479 107.994 204.679C108.238 205.169 108.121 205.754 107.999 206.287L106.684 212.02C106.658 212.134 106.627 212.257 106.538 212.332ZM111.09 212.434C111.017 213.295 111.146 214.158 111.274 215.012C111.32 215.317 111.539 215.721 111.814 215.582L112.349 209.856C112.371 209.623 112.386 209.364 112.241 209.18C112.097 208.997 111.731 209.004 111.685 209.233L111.29 211.197C111.208 211.607 111.125 212.018 111.09 212.434ZM166.389 194.884C164.864 194.099 163.009 193.79 161.425 194.447C160.242 194.938 156.899 197.06 156.454 199.779C156.156 201.6 156.159 203.46 156.796 205.217L156.899 205.493C157.089 205.991 157.693 206.563 158.031 206.151C157.044 204.367 156.86 202.158 157.537 200.235C158.215 198.312 159.743 196.706 161.63 195.935C162.027 195.772 162.442 195.644 162.869 195.604C163.733 195.522 164.595 195.802 165.367 196.198C167.03 197.049 169.089 198.466 169.881 200.158C170.644 201.789 171.205 203.735 170.515 205.398C169.825 207.062 165.289 208.265 165.289 208.265L165.791 209.181C165.791 209.181 168.33 208.68 169.881 207.551C176.39 202.81 167.847 195.635 166.389 194.884Z" fill="#00160A"/>
<path fill-rule="evenodd" clip-rule="evenodd" d="M51.3237 171.475C49.0216 171.722 46.5833 171.19 44.7859 169.73C43.5129 168.697 42.6184 167.259 41.9907 165.744C41.3093 164.099 40.9175 162.335 40.8388 160.557C40.8091 159.887 40.825 159.205 41.0218 158.564C41.3456 157.51 42.1255 156.664 42.9216 155.9C44.6154 154.276 46.6061 152.794 48.9279 152.452C50.51 152.219 52.1193 152.537 53.6679 152.935C54.8842 153.248 56.0989 153.617 57.1929 154.234C59.6103 155.597 61.2855 158.197 61.5278 160.961C61.7702 163.726 61.472 165.557 57.7412 168.992C55.8026 170.258 53.6258 171.228 51.3237 171.475ZM55.3832 162.798C55.0098 162.915 54.6377 163.123 54.2522 163.056C53.4647 162.917 53.3238 161.837 53.4987 161.056C53.9992 158.823 55.5561 156.85 57.6121 155.845C57.1467 155.001 55.9103 154.938 55.0358 155.344C54.1613 155.75 53.4778 156.481 52.6321 156.944C52.2113 157.174 51.7125 157.337 51.2547 157.194C50.5014 156.958 50.2138 155.971 50.4605 155.221C50.7071 154.472 51.3226 153.912 51.9136 153.389C49.772 153.464 47.6529 154.106 45.8305 155.234C44.4038 156.116 43.0505 157.563 43.2398 159.23C44.4194 158.28 45.8044 157.587 47.2715 157.213C47.5827 157.133 47.9733 157.093 48.168 157.349C48.3155 157.542 48.2732 157.82 48.1786 158.044C47.7097 159.157 46.3306 159.53 45.4752 160.381C45.3629 160.493 45.2552 160.622 45.228 160.778C45.1747 161.084 45.4664 161.363 45.7727 161.415C46.0791 161.466 46.3867 161.354 46.6773 161.244C47.2808 161.017 47.8843 160.789 48.4879 160.561C48.9248 160.397 49.4435 160.239 49.8321 160.498C50.234 160.766 50.2719 161.376 50.0447 161.802C49.8176 162.228 49.4006 162.514 48.9993 162.783C48.032 163.432 47.0647 164.08 46.0975 164.728C45.2876 165.271 44.3803 166.003 44.4573 166.975C44.5298 167.889 45.5362 168.511 46.452 168.452C47.3677 168.394 48.1737 167.834 48.8496 167.213C49.5255 166.592 50.1355 165.883 50.9204 165.408C51.4326 165.098 52.1634 164.925 52.5795 165.356C52.9009 165.689 52.8699 166.224 52.7493 166.67C52.4016 167.958 51.4615 169.072 50.2511 169.631C51.2359 169.859 52.2628 169.901 53.2631 169.757C53.8336 169.675 54.4241 169.517 54.8367 169.114C55.2492 168.711 55.409 168.003 55.0511 167.551C54.5173 166.877 54.5385 165.891 54.8796 165.102C55.2206 164.313 55.8297 163.675 56.4265 163.056C56.2557 162.704 55.7566 162.68 55.3832 162.798ZM59.9425 164.327C60.4788 163.088 60.4983 161.686 60.3625 160.342C60.2123 158.856 59.6942 157.157 58.2942 156.636C56.2427 157.488 54.6595 159.387 54.1917 161.559C54.1524 161.741 54.1216 161.938 54.1934 162.11C54.2652 162.282 54.4785 162.408 54.6438 162.321C55.211 162.024 55.9086 161.855 56.4852 162.134C57.0618 162.412 57.3427 163.281 56.8757 163.72C56.3599 164.204 55.83 164.707 55.5517 165.358C55.2734 166.008 55.3135 166.85 55.8375 167.326C56.2313 167.683 56.2323 168.384 55.8396 168.743C56.9562 168.417 57.7518 167.456 58.4759 166.546C59.0294 165.85 59.5894 165.144 59.9425 164.327ZM47.088 157.917C45.9264 158.398 44.7989 158.962 43.7167 159.603C43.4593 159.755 43.1992 159.916 43.011 160.148C42.7569 160.462 42.6603 160.872 42.5818 161.268C42.3281 162.548 42.1973 163.925 42.7347 165.114C42.9063 165.494 43.1408 165.841 43.3741 166.186C43.4429 166.287 43.5211 166.396 43.6391 166.431C43.7572 166.465 43.913 166.37 43.8853 166.25C43.7999 165.881 44.0794 165.534 44.3551 165.274C45.9705 163.754 48.1466 162.881 49.5993 161.204C49.3789 160.943 48.9609 161.066 48.6467 161.2C47.8984 161.519 47.1268 161.784 46.34 161.992C45.9341 162.099 45.4818 162.186 45.1115 161.989C44.5694 161.7 44.4811 160.909 44.7675 160.365C45.0538 159.822 45.5981 159.471 46.1231 159.152C46.6481 158.833 47.1988 158.5 47.5138 157.973C47.4565 157.822 47.2364 157.855 47.088 157.917ZM51.0632 168.103C51.5766 167.69 52.1312 167.204 52.1872 166.548C52.2164 166.205 51.9964 165.785 51.6536 165.818C51.5483 165.828 51.4521 165.88 51.3612 165.934C49.8685 166.826 48.8861 168.57 47.2022 169.003C47.6781 169.216 48.1742 169.384 48.6818 169.503C48.8329 169.538 48.9903 169.57 49.1423 169.538C49.3191 169.502 49.4672 169.385 49.608 169.272C50.093 168.882 50.5781 168.492 51.0632 168.103ZM52.4515 153.848C52.1193 154.215 51.7871 154.583 51.455 154.95C51.1918 155.241 50.9096 155.625 51.056 155.989C51.1639 156.257 51.4826 156.393 51.7707 156.37C52.0589 156.348 52.3213 156.201 52.563 156.042C53.4241 155.477 54.1994 154.707 55.2043 154.482C54.5076 154.228 53.8108 153.974 53.114 153.72C52.9689 153.667 52.8071 153.614 52.6644 153.673C52.5787 153.709 52.5136 153.779 52.4515 153.848Z" fill="#00160A"/>
<path fill-rule="evenodd" clip-rule="evenodd" d="M65.4174 109.965C65.3305 111.706 63.9874 113.591 62.2565 113.385C61.4753 112.481 60.8639 111.36 60.2596 110.252C59.0991 108.123 57.965 106.043 55.7055 105.648C53.4863 105.26 51.4195 106.893 50.0373 108.672C48.0355 111.248 46.7419 114.37 46.3341 117.607C46.0943 119.51 46.8748 122.15 48.7816 121.94C50.9597 121.701 52.5086 123.414 54.0841 125.157C55.5422 126.769 57.023 128.407 59.0463 128.545C61.4554 128.71 63.4233 130.153 65.4152 131.614C66.7456 132.59 68.0868 133.574 69.5773 134.189C72.3814 135.348 75.6149 135.124 78.4771 134.118C81.3394 133.112 83.8867 131.379 86.2976 129.537L86.424 129.44C87.74 128.434 89.1176 127.38 90.7541 127.159C99.1219 126.025 106.905 121.117 111.534 114.054C118.096 119.3 127.272 121.093 135.327 118.704C136.694 118.298 138.069 117.755 139.083 116.752C140.096 115.75 140.671 114.193 140.173 112.857C139.628 111.397 138 110.615 136.452 110.426C135.604 110.323 134.749 110.354 133.893 110.384C133.188 110.409 132.482 110.435 131.78 110.385C127.525 110.084 123.982 107.15 120.76 104.354C125.428 102.922 129.213 99.326 131.712 95.1315C134.211 90.9371 135.55 86.1588 136.567 81.3836C137.103 78.8706 137.501 76.0397 136.065 73.9089C135.422 72.9552 134.48 72.2579 133.541 71.5631C132.484 70.7807 131.431 70.0013 130.815 68.8625C129.629 66.6718 127.318 65.3727 125.126 64.1893C119.391 61.0924 112.802 57.9051 106.62 59.9733C104.212 60.7789 102.132 62.3226 100.104 63.8505C96.7363 66.3875 93.1285 69.3636 92.4873 73.531C86.9769 71.0657 79.8478 73.0346 76.3836 77.9786C75.5912 79.1094 74.9829 80.3564 74.3753 81.6022C73.6598 83.0689 72.9453 84.5337 71.9322 85.8051C67.8633 83.9513 63.7176 82.2661 59.5092 80.7556C57.6433 80.0858 55.4145 79.494 53.8065 80.6534C52.5172 81.583 52.1217 83.4078 52.5002 84.9515C52.8786 86.4953 53.8889 87.804 54.9724 88.9671C57.3229 91.4902 60.1464 93.5713 63.2522 95.0697C63.3521 95.1179 63.4527 95.1658 63.5536 95.2139L63.5538 95.214L63.5539 95.2141L63.5545 95.2143C64.527 95.6776 65.5267 96.1538 66.1742 97.0042C66.8892 97.9431 66.9335 99.5141 65.9312 100.137C64.4508 101.057 64.1782 103.122 64.4817 104.838C64.5854 105.425 64.7376 106.006 64.8896 106.586C65.1825 107.704 65.4746 108.819 65.4174 109.965ZM105.609 119.143C101.879 123.06 96.6296 125.352 91.2622 126.022C85.8948 126.692 80.414 125.821 75.2868 124.098C76.666 124.097 77.6633 122.291 76.9296 121.123C74.1038 124.417 69.7959 125.96 65.6909 127.369C61.9823 128.642 57.5496 127.717 54.8254 124.897C52.1013 122.077 51.3642 117.45 53.2799 114.029C54.1126 112.542 55.5249 111.248 57.223 111.102C58.921 110.956 60.7494 112.364 60.592 114.061C59.6471 113.897 58.6527 114.699 58.6138 115.657C62.2692 115.264 65.7057 113.169 67.7308 110.1C68.4298 109.041 68.961 107.888 69.4926 106.733C69.8495 105.958 70.2067 105.182 70.615 104.434C71.6313 102.573 73.0907 100.798 75.1129 100.158C76.736 99.6448 78.4904 99.9297 80.168 100.219L87.6204 101.504C88.1782 101.022 87.2749 100.251 86.5536 100.1C84.2244 99.6134 81.8628 99.3135 79.501 99.0135H79.5009C77.3107 98.7354 75.1204 98.4573 72.9556 98.0302C68.4563 97.1425 63.9342 95.5188 60.6593 92.3084C62.8807 91.0304 64.5708 88.859 65.2643 86.3918C65.4046 85.8927 65.0703 85.0728 64.665 85.3961C64.2019 86.9977 63.6999 88.6681 62.5397 89.8653C61.3794 91.0625 59.3428 91.5884 58.0296 90.5613C56.3248 89.2279 54.5324 87.7734 53.8582 85.7168C53.184 83.6602 54.2505 80.8982 56.4001 80.6461C57.3649 80.5329 58.3081 80.9316 59.1979 81.3216L68.1741 85.2563C70.8457 86.4274 73.557 87.6101 76.4429 88.0351C78.4691 88.3334 80.5299 88.2497 82.5762 88.1653L88.3775 87.926C88.6147 87.9162 88.858 87.9051 89.0764 87.812C89.6592 87.5633 89.8569 86.8514 89.9855 86.2309C91.5423 78.7188 93.6339 70.7911 99.2924 65.6107C101.824 63.2926 104.979 61.6605 108.333 60.9324C111.64 60.2147 115.289 60.4257 118.136 62.2547C113.36 62.6062 108.722 64.6201 105.205 67.8701C103.727 66.2926 100.977 67.582 99.7985 69.3939C97.9714 72.2027 98.0046 76.1044 99.8792 78.8817C101.457 81.2194 102.042 84.0087 102.629 86.8046C103.168 89.374 103.708 91.949 105.021 94.1839C107.098 97.7195 110.966 99.989 115.006 100.693C119.046 101.396 123.234 100.661 127.074 99.2213C122.776 103.508 115.912 104.99 110.228 102.859C109.814 102.704 109.402 102.53 108.99 102.357L108.99 102.357L108.99 102.357L108.99 102.357L108.989 102.357C107.684 101.807 106.373 101.255 104.973 101.271C105.793 102.14 106.841 102.793 107.983 103.145C106.667 105.357 105.285 107.53 103.841 109.661C103.657 109.934 103.446 110.224 103.13 110.316C102.778 110.419 102.41 110.243 102.089 110.066C99.4344 108.599 97.055 106.635 95.1104 104.308L91.2201 109.04C93.2165 111.48 95.5506 113.644 98.1349 115.45C94.6952 119.699 89.484 122.467 84.0373 122.937C89.6754 123.224 95.3831 120.58 98.8093 116.093C100.978 117.311 103.257 118.333 105.609 119.143ZM123.439 77.5324C124.685 76.1739 125.147 74.2336 125.04 72.3934C124.934 70.5532 124.315 68.7835 123.63 67.0723C125.414 66.8607 127.227 67.534 128.649 68.6334C130.07 69.7328 131.138 71.2288 132.014 72.798C133.076 74.7002 133.89 76.7571 134.243 78.9067C135.075 83.9682 133.299 89.129 130.772 93.5924C130.281 94.4591 129.753 95.3198 129.036 96.0117C128.315 96.7084 127.427 97.2093 126.518 97.6318C122.765 99.3756 118.448 99.8788 114.394 99.045C116.982 96.8906 118.809 93.9225 119.973 90.7629C121.137 87.6034 121.67 84.2453 121.976 80.8922L121.978 80.8734C122.055 80.0279 122.137 79.1393 122.618 78.4411C122.778 78.2099 122.975 78.0095 123.173 77.809C123.263 77.7178 123.353 77.6265 123.439 77.5324ZM118.756 91.4991C117.64 94.1109 115.91 96.5091 113.565 98.112C113.29 98.2997 112.995 98.4808 112.665 98.5194C112.373 98.5535 112.081 98.4731 111.801 98.3847C109.807 97.7554 107.923 96.6398 106.644 94.9859C106.18 94.3858 105.801 93.7238 105.463 93.0445C103.001 88.0976 102.76 82.0956 104.817 76.9671C104.915 76.7221 105.056 76.447 105.315 76.3957C105.65 76.3292 105.907 76.6718 106.095 76.9567C107.631 79.2852 110.505 80.4641 113.292 80.5862C116.079 80.7082 118.821 79.9161 121.464 79.0227C120.982 80.2006 120.86 81.4839 120.738 82.755L120.738 82.7579C120.723 82.9169 120.708 83.0758 120.692 83.2343C120.408 86.0607 119.873 88.8873 118.756 91.4991ZM118.189 67.2347C119.615 66.9105 121.279 66.8213 122.369 67.7969C122.721 68.112 122.982 68.5161 123.198 68.9367C124.547 71.5744 124.019 75.0485 121.945 77.1654C119.549 79.6125 115.755 80.016 112.342 79.7255C111.117 79.6213 109.858 79.4328 108.812 78.7865C107.46 77.9503 106.658 76.4769 105.918 75.0696C109.206 71.3948 113.38 68.3279 118.189 67.2347ZM129.724 111.596C129.276 112.726 128.825 113.871 128.678 115.078C128.532 116.284 128.722 117.579 129.456 118.547C123.368 118.884 117.181 117.007 112.306 113.343C113.878 111.119 115.119 108.661 115.977 106.076C116.316 105.055 117.609 104.629 118.658 104.865C119.625 105.083 120.436 105.703 121.227 106.307L121.231 106.31C121.298 106.361 121.365 106.412 121.432 106.463C124.023 108.43 126.879 110.017 129.724 111.596ZM87.1795 127.026C86.2193 128.107 85.0717 129.004 83.8995 129.851C81.4527 131.617 78.7844 133.223 75.8104 133.736C71.452 134.489 66.7432 132.609 64.1011 129.062L73.6075 125.516C73.8351 125.431 74.0708 125.344 74.3134 125.358C74.4504 125.366 74.5822 125.405 74.7143 125.445L74.7143 125.445L74.7144 125.445L74.7145 125.445L74.7146 125.445C74.8024 125.471 74.8903 125.497 74.98 125.514C75.2852 125.572 75.5931 125.521 75.9023 125.47L75.9024 125.47C76.0948 125.439 76.2877 125.407 76.4808 125.401C77.1924 125.38 77.8463 125.705 78.4933 126.027L78.4934 126.027L78.4935 126.027L78.4935 126.027L78.4936 126.027C78.6577 126.108 78.8215 126.19 78.9856 126.265C81.5064 127.424 84.4129 127.237 87.1795 127.026ZM73.4532 86.3512C73.3862 86.2013 73.4568 86.0289 73.5276 85.8808C75.4744 81.8034 78.0498 78.027 81.1349 74.7259C83.3049 77.739 84.7491 81.271 85.3119 84.9413C85.4244 85.6749 85.3028 86.6895 84.5663 86.7813C81.036 87.2214 77.4438 87.1616 73.9301 86.6043C73.7443 86.5748 73.5299 86.5229 73.4532 86.3512ZM86.7497 86.1007C86.0227 82.1045 84.5137 78.2521 82.333 74.8254C84.1787 73.8536 86.3608 73.8377 88.4467 73.8443C89.7641 73.8484 91.2022 73.8948 92.2061 74.7478L89.6019 82.4318C89.1598 83.7363 88.7121 85.0774 88.7679 86.4536L87.1217 86.48C87.0631 86.4809 87.0025 86.4815 86.9484 86.4589C86.8167 86.4039 86.7752 86.2412 86.7497 86.1007ZM107.931 105.764C108.368 105.02 108.785 104.226 108.829 103.364C110.798 104.25 112.967 104.689 115.126 104.638C115.465 104.631 115.453 105.153 115.314 105.462C114.894 106.398 114.473 107.335 113.986 108.238C113.487 109.164 112.92 110.053 112.354 110.941L110.997 113.068C110.811 113.359 110.619 113.657 110.343 113.865C109.602 114.422 108.545 114.154 107.699 113.774C106.297 113.144 105.006 112.266 103.904 111.194C105.434 109.534 106.787 107.71 107.931 105.764ZM56.9996 107.603C57.6522 108.261 58.0787 109.104 58.4945 109.932L56.5368 110.211C55.8845 110.304 55.2157 110.403 54.6391 110.722C54.0782 111.032 53.6456 111.53 53.2649 112.045C51.6728 114.202 50.7903 116.874 50.7847 119.555C50.7827 120.524 49.6382 121.215 48.7015 120.969C47.7648 120.724 47.1285 119.793 46.9665 118.838C46.8046 117.884 47.0326 116.907 47.3186 115.982C48.3251 112.727 50.1255 109.652 52.7892 107.526C53.2981 107.12 53.8605 106.74 54.5034 106.637C55.4185 106.491 56.3471 106.945 56.9996 107.603ZM139.209 113.053C139.436 113.344 139.604 113.698 139.593 114.067C139.58 114.543 139.278 114.961 138.953 115.309C137.063 117.334 134.159 118.024 131.408 118.349C131.227 118.37 131.037 118.389 130.867 118.323C130.727 118.268 130.615 118.16 130.515 118.048C129.851 117.302 129.589 116.259 129.642 115.261C129.696 114.264 130.04 113.304 130.469 112.401C130.559 112.211 130.664 112.012 130.848 111.91C130.995 111.829 131.17 111.822 131.338 111.818L134.667 111.731C135.486 111.709 136.315 111.688 137.117 111.857C137.92 112.026 138.706 112.406 139.209 113.053ZM102.106 81.5966C100.75 79.0831 99.7348 76.3856 99.0982 73.6012L99.6462 72.1374C100.324 70.8248 101.179 69.6036 102.18 68.5171C102.588 68.0746 103.294 68.0257 103.857 68.2389C104.42 68.4521 104.872 68.8761 105.309 69.2899L107.275 71.152C107.333 71.2074 107.394 71.2672 107.414 71.3453C107.45 71.4923 107.329 71.627 107.219 71.7314C106.299 72.6065 105.481 73.5932 104.825 74.6808C103.834 76.3248 103.229 78.1671 102.632 79.9915L102.106 81.5966ZM107.13 67.4797C111.132 65.3363 115.509 63.3194 120.023 63.8017C122.383 64.0539 124.641 64.9928 126.606 66.3227C120.975 64.8752 114.698 66.2104 110.143 69.8246C109.44 70.3832 108.383 70.9899 107.757 70.3459C107.596 70.1805 107.49 69.9488 107.388 69.7231C107.224 69.3616 107.066 69.0153 106.698 68.9814C106.347 68.9491 106.191 68.473 106.34 68.1535C106.489 67.834 106.819 67.6461 107.13 67.4797ZM96.1359 106.683C96.9258 107.442 97.7956 108.112 98.6635 108.78L102.17 111.48C101.09 112.432 100.034 113.41 99.0017 114.413C96.5453 112.957 94.3527 111.058 92.5617 108.834C93.5421 107.813 94.4832 106.754 95.3823 105.66C95.5235 106.064 95.8277 106.386 96.1359 106.683ZM73.5926 99.3787C71.7465 100.821 69.8379 102.339 68.8224 104.45C68.624 104.863 68.4601 105.297 68.2964 105.731C67.9485 106.652 67.6018 107.57 66.9273 108.272C66.6283 108.184 66.5107 107.831 66.4379 107.528L65.7353 104.606C65.6406 104.212 65.5451 103.807 65.599 103.405C65.6526 103.005 65.8498 102.641 66.0436 102.286L68.1047 98.5198C68.1507 98.4358 68.1983 98.3497 68.272 98.2885C68.4543 98.1371 68.7241 98.1853 68.9544 98.2418L73.5926 99.3787ZM103.584 112.318C104.843 113.613 106.407 114.608 108.113 115.199C108.433 114.899 109.049 115.064 109.175 115.484C108.588 116.246 107.943 116.963 107.249 117.628C106.938 117.925 106.441 117.863 106.023 117.766C103.978 117.297 102.009 116.502 100.211 115.42C100.091 115.347 99.9558 115.244 99.9676 115.105C99.9756 115.01 100.05 114.937 100.119 114.873L102.643 112.549C102.907 112.306 103.333 112.06 103.584 112.318ZM135.801 79.8533C135.778 80.1381 135.738 80.4559 135.515 80.635C135.513 78.3981 134.958 76.1636 133.914 74.1855C133.724 73.8267 133.519 73.476 133.29 73.1408C133.261 73.0976 133.231 73.0545 133.201 73.0112C132.971 72.6785 132.735 72.338 132.679 71.9408L135.383 74.7654C135.632 75.0253 135.887 75.2964 136.005 75.6364C136.118 75.9643 136.091 76.3219 136.063 76.6677L135.801 79.8533ZM132.695 76.2627L132.082 75.4909C131.409 74.6418 130.582 73.7146 129.498 73.7134C128.869 73.7127 128.291 74.0348 127.745 74.3478L126.897 74.834C126.665 74.9668 126.428 75.1049 126.264 75.3161C125.793 75.9253 126.137 76.8154 126.582 77.4437C126.89 77.8785 127.259 78.2959 127.749 78.5052C128.383 78.7758 129.112 78.6561 129.776 78.4729C130.686 78.222 131.565 77.86 132.388 77.3976C132.651 77.2497 132.942 77.033 132.928 76.7316C132.921 76.554 132.805 76.4019 132.695 76.2627ZM127.345 76.8591C127.24 76.6914 127.131 76.5122 127.129 76.3141C127.126 75.9267 127.512 75.6668 127.853 75.4813L129.061 74.8221C129.244 74.7224 129.434 74.6205 129.642 74.6065C129.849 74.5925 130.08 74.6925 130.15 74.8886C130.356 75.4673 130.864 75.9289 131.46 76.0791C131.653 76.1277 131.715 76.3946 131.623 76.5714C131.532 76.7482 131.346 76.8515 131.168 76.9399C130.531 77.256 129.865 77.5137 129.181 77.7088C128.907 77.787 128.617 77.8555 128.339 77.7895C127.886 77.6817 127.593 77.2539 127.345 76.8591ZM118.748 82.8257C117.549 82.9653 117.321 85.1264 117.878 86.279C117.992 86.5162 118.172 86.7604 118.433 86.7935C118.88 86.8502 119.126 86.2991 119.225 85.8598L119.228 85.8496C119.358 85.2708 119.939 82.687 118.748 82.8257ZM112.566 85.66C112.806 85.1009 112.886 84.4744 112.794 83.873C112.751 83.5936 112.667 83.3099 112.481 83.0978C112.294 82.8856 111.985 82.7622 111.719 82.8579C111.479 82.9444 111.327 83.1799 111.214 83.4089C110.811 84.2174 110.651 85.1443 110.758 86.041C110.808 86.458 111.334 86.686 111.733 86.5541C112.132 86.4222 112.4 86.046 112.566 85.66ZM116.099 84.3802C116.286 84.226 116.52 84.5061 116.596 84.7356C116.844 85.49 117.049 86.2585 117.211 87.0361C117.313 87.5275 117.397 88.0381 117.288 88.528C117.135 89.2189 116.61 89.7808 116.001 90.1407C115.392 90.5006 114.698 90.6869 114.014 90.8692C113.834 90.9174 113.607 90.9517 113.49 90.8057C113.391 90.6817 113.44 90.4875 113.553 90.3758C113.663 90.2663 113.817 90.2158 113.965 90.1672L113.974 90.1643C115.04 89.8142 116.179 89.1822 116.427 88.0881C116.563 87.4865 116.397 86.8822 116.231 86.2753C116.079 85.7225 115.926 85.1677 116.001 84.6109C116.013 84.526 116.034 84.4348 116.099 84.3802ZM108.656 81.9196C108.375 81.5308 108.6 80.94 109.007 80.6865C109.414 80.433 109.929 80.4364 110.404 80.4978C110.972 80.5711 111.531 80.7155 112.063 80.9266C112.176 80.9715 112.298 81.0287 112.348 81.1399C112.44 81.3458 112.201 81.5713 111.975 81.5711C111.794 81.5709 111.629 81.4835 111.466 81.397C111.427 81.3761 111.388 81.3552 111.348 81.3357C110.46 80.8949 109.282 81.1504 108.656 81.9196ZM118.894 81.7851C119.316 81.7149 119.764 81.8123 120.118 82.0517C120.267 82.1518 120.479 81.9835 120.48 81.8046C120.48 81.6258 120.347 81.4753 120.207 81.3647C119.904 81.1265 119.527 80.9839 119.142 80.9622C118.894 80.9482 118.619 80.9962 118.459 81.1866C118.299 81.377 118.348 81.7344 118.587 81.8007C118.673 81.8243 118.763 81.8083 118.851 81.7926C118.865 81.79 118.88 81.7875 118.894 81.7851ZM113.655 92.7531C113.774 92.6861 113.931 92.8032 113.948 92.9385C113.966 93.0737 113.889 93.2031 113.801 93.3072C113.358 93.8296 112.595 93.9904 111.922 93.868C111.248 93.7455 110.644 93.3834 110.076 93.0014C109.809 92.8218 109.546 92.6362 109.287 92.445C109.018 92.2467 108.732 92.0041 108.7 91.6719C108.668 91.3398 109.094 91.005 109.337 91.2338C109.934 91.7961 110.544 92.3677 111.287 92.7156C112.03 93.0635 112.941 93.1562 113.655 92.7531ZM100.869 95.4158C98.3812 90.0079 97.3433 83.941 97.8919 78.0136C97.9013 77.9123 97.9141 77.8039 97.981 77.7272C98.0754 77.6192 98.2691 77.6237 98.3584 77.736C98.3265 80.9967 98.2961 84.2769 98.8284 87.494C99.3606 90.711 100.491 93.8938 102.554 96.4185C102.616 96.4939 102.678 96.5688 102.741 96.6439L102.741 96.6441L102.741 96.6442L102.741 96.6442C103.096 97.0699 103.454 97.4991 103.656 98.0124C102.314 97.9865 101.43 96.6351 100.869 95.4158ZM103.309 70.9949C103.263 70.9452 103.21 70.9012 103.148 70.8744C102.968 70.797 102.758 70.8764 102.601 70.9926C101.975 71.4562 101.972 72.5401 102.596 73.0065C102.901 72.7471 103.213 72.4776 103.392 72.1196C103.57 71.7617 103.581 71.2886 103.309 70.9949ZM108.709 76.707C109.383 77.2548 110.153 77.6863 110.972 77.9769C113.616 78.9144 116.587 78.3258 119.138 77.1596C119.528 76.9814 120.026 77.0753 120.324 77.3834C118.685 78.5508 116.678 79.1925 114.667 79.192C114.223 79.1919 113.78 79.1615 113.338 79.1229C112.434 79.0439 111.523 78.928 110.672 78.6114C109.822 78.2947 109.027 77.7589 108.546 76.9895L108.709 76.707ZM137.5 112.339C137.474 112.429 137.546 112.515 137.612 112.581L138.617 113.578C138.726 113.291 138.604 112.957 138.393 112.734C138.182 112.511 137.898 112.375 137.62 112.244C137.566 112.247 137.515 112.287 137.5 112.339Z" fill="#00160A"/>
<path fill-rule="evenodd" clip-rule="evenodd" d="M203.475 73.5611C204.706 73.9877 205.865 72.8778 206.925 72.1216C208.566 70.9516 210.707 70.5092 212.678 70.9329C213.004 71.0032 213.347 71.1087 213.562 71.3645C213.759 71.5984 213.815 71.9175 213.847 72.2216C214.041 74.0829 213.575 76.0063 212.552 77.573C212.054 78.3351 211.43 79.0138 210.985 79.8078C210.539 80.6019 210.285 81.5721 210.602 82.4254C212.488 87.4989 211.703 93.4831 208.572 97.8985C205.442 102.314 200.054 105.035 194.643 104.933C191.875 104.882 189.163 104.143 186.556 103.214C185.418 102.809 184.167 102.364 183.038 102.792C180.977 103.573 178.807 104.066 176.611 104.253C176.067 104.299 175.497 104.323 174.994 104.108C174.242 103.786 173.787 102.97 173.701 102.155C173.615 101.341 173.84 100.527 174.124 99.7589C174.981 97.4431 177.644 93.8256 179.255 92.9923C179.125 90.1802 179.139 87.3351 179.747 84.5865C180.355 81.8378 181.596 79.1707 183.631 77.2258C184.472 76.4225 185.434 75.7539 186.441 75.1737C191.538 72.2392 197.918 71.6352 203.475 73.5611ZM195.713 73.3326C191.816 73.4238 188.022 74.9894 184.975 77.4217C184.08 78.1359 183.24 78.9292 182.568 79.8563C182.039 80.5871 181.62 81.3934 181.271 82.2252C179.196 87.1608 179.669 93.0908 182.502 97.6343C182.563 97.7334 182.634 97.8384 182.744 97.8769C182.88 97.9243 183.027 97.8551 183.154 97.7874C192.05 93.0466 199.968 86.4808 206.274 78.6162C206.424 78.4289 206.582 78.2113 206.55 77.9735C206.525 77.795 206.398 77.6501 206.274 77.5198C203.583 74.6986 199.61 73.2414 195.713 73.3326ZM201.162 102.797C205.387 100.813 208.597 96.8932 209.969 92.4317C210.28 91.4215 210.503 90.3771 210.525 89.3203C210.544 88.4316 210.42 87.5468 210.296 86.6666C210.117 85.3905 209.937 84.1143 209.758 82.8381C209.71 82.4998 209.384 82.0532 209.146 82.2982C202.535 89.1019 195.316 95.3146 187.603 100.838C187.347 101.022 187.064 101.249 187.05 101.564C187.034 101.93 187.383 102.194 187.699 102.377C191.743 104.709 196.937 104.781 201.162 102.797ZM175.099 102.277C175.406 102.77 176.073 102.871 176.653 102.887C179.7 102.971 182.715 102.078 185.441 100.715C188.167 99.3512 190.635 97.5272 193.032 95.6453C196.231 93.1352 199.333 90.5045 202.357 87.7868C206.102 84.4211 209.781 80.8511 212.24 76.4571C212.716 75.6072 213.155 74.6752 213.08 73.7041C213.006 72.733 212.231 71.7526 211.258 71.7905C209.193 71.8711 207.162 72.6651 205.59 74.0069C205.277 74.2737 205.498 74.8418 205.883 74.9862C206.268 75.1306 206.697 74.9871 207.073 74.8212C207.449 74.6552 207.84 74.4611 208.249 74.5065C208.873 74.5759 209.316 75.2148 209.353 75.8416C209.391 76.4684 209.113 77.0709 208.787 77.6072C208.182 78.5997 207.393 79.4648 206.595 80.3099C199.505 87.8219 191.325 94.3044 182.393 99.4917C181.588 99.9589 180.774 100.417 179.909 100.758C179.454 100.936 178.934 101.079 178.491 100.875C177.764 100.541 177.706 99.5202 177.924 98.7504C178.251 97.5945 178.958 96.5496 179.91 95.8163C179.73 95.3085 179.549 94.8008 179.369 94.2931C177.02 95.7933 175.372 98.3452 174.97 101.103C174.912 101.501 174.886 101.936 175.099 102.277ZM181.777 98.7922C181.794 98.7398 181.764 98.6852 181.734 98.6387C181.431 98.1566 181.127 97.6745 180.824 97.1924C180.687 96.9743 180.421 96.7272 180.215 96.8822C179.474 97.4408 178.943 98.2728 178.748 99.1808C178.71 99.36 178.688 99.56 178.785 99.7151C178.967 100.004 179.401 99.9394 179.722 99.8244C180.406 99.5793 181.065 99.264 181.685 98.8853C181.723 98.8619 181.764 98.8349 181.777 98.7922ZM208.173 75.8435C208.142 75.7183 207.993 75.6639 207.864 75.6582C207.474 75.6412 207.065 75.9626 207.09 76.3531C207.114 76.7437 207.695 76.9896 207.938 76.6825C208.011 76.5898 208.042 76.4716 208.071 76.3571C208.1 76.2437 208.129 76.1303 208.158 76.0169C208.172 75.9601 208.187 75.9005 208.173 75.8435Z" fill="#00160A"/>
</svg>
