<svg width="20" height="20" viewBox="0 0 20 20" fill="none" xmlns="http://www.w3.org/2000/svg">
<path fill-rule="evenodd" clip-rule="evenodd" d="M11.8405 2.40565C11.0578 1.45595 9.61754 1.21064 8.54608 1.99638L4.20387 5.18067C2.79382 5.53573 1.75 6.81219 1.75 8.33245V14.9991C1.75 16.794 3.20507 18.2491 5 18.2491H15C16.7949 18.2491 18.25 16.794 18.25 14.9991V14.3805C19.2175 14.0649 19.9167 13.1553 19.9167 12.0824C19.9167 11.0096 19.2175 10.1 18.25 9.78442V8.33245C18.25 7.07228 17.5328 5.97964 16.4843 5.44042L15.6515 3.35853C15.0696 1.90361 13.2782 1.37874 12.0031 2.28953L11.8405 2.40565ZM6.87432 5.08245H8.09298L10.611 3.28387C10.3037 2.98912 9.80869 2.93057 9.43312 3.20599L6.87432 5.08245ZM12.8749 3.51013C13.3586 3.16466 14.0381 3.36375 14.2588 3.91561L14.7256 5.08245H10.6737L12.8749 3.51013ZM16.75 14.4991H15.8333C14.4986 14.4991 13.4167 13.4171 13.4167 12.0824C13.4167 10.7478 14.4986 9.66578 15.8333 9.66578H16.75V8.33245C16.75 7.36595 15.9665 6.58245 15 6.58245H5C4.0335 6.58245 3.25 7.36595 3.25 8.33245V14.9991C3.25 15.9656 4.0335 16.7491 5 16.7491H15C15.9665 16.7491 16.75 15.9656 16.75 14.9991V14.4991ZM15.8333 11.1658C15.3271 11.1658 14.9167 11.5762 14.9167 12.0824C14.9167 12.5887 15.3271 12.9991 15.8333 12.9991H17.5C18.0063 12.9991 18.4167 12.5887 18.4167 12.0824C18.4167 11.5762 18.0063 11.1658 17.5 11.1658H15.8333Z" fill="#03182A"/>
</svg>
