<svg width="20" height="20" viewBox="0 0 20 20" fill="none" xmlns="http://www.w3.org/2000/svg">
<path fill-rule="evenodd" clip-rule="evenodd" d="M9.16658 2.83398C8.08332 2.83398 7.18573 3.62895 7.02539 4.66732H12.9744C12.8141 3.62895 11.9165 2.83398 10.8332 2.83398H9.16658ZM9.16658 1.33398C7.2539 1.33398 5.68327 2.79848 5.51486 4.66732H4.5833C2.78964 4.66732 1.33779 6.12515 1.34486 7.9185L1.33972 12.16L1.33968 12.1925C1.33857 13.0994 1.33769 13.8257 1.38496 14.4128C1.43351 15.0157 1.53647 15.5376 1.78077 16.0181C2.17191 16.7873 2.79671 17.4129 3.5655 17.8049C4.04569 18.0498 4.56746 18.1534 5.17026 18.2027C5.75732 18.2507 6.48367 18.2507 7.39058 18.2507H7.42304H12.5833H12.6157C13.5216 18.2507 14.2472 18.2507 14.8337 18.2028C15.4359 18.1536 15.9572 18.0501 16.4371 17.8056C17.2054 17.4141 17.8301 16.7895 18.2215 16.0211C18.466 15.5413 18.5695 15.02 18.6187 14.4177C18.6666 13.8313 18.6666 13.1057 18.6666 12.1998V12.1673V7.91732C18.6666 6.12239 17.2115 4.66732 15.4166 4.66732H14.485C14.3166 2.79848 12.7459 1.33398 10.8332 1.33398H9.16658ZM2.84298 9.47082L2.83972 12.1618C2.83857 13.1086 2.83835 13.7736 2.88012 14.2924C2.92119 14.8025 2.99917 15.1048 3.11786 15.3382C3.36531 15.8249 3.7606 16.2206 4.24697 16.4687C4.48027 16.5877 4.78245 16.666 5.29247 16.7077C5.81123 16.7501 6.47622 16.7507 7.42304 16.7507H12.5833C13.5291 16.7507 14.1933 16.7501 14.7115 16.7078C15.221 16.6661 15.5229 16.5879 15.7561 16.4691C16.2422 16.2214 16.6374 15.8262 16.885 15.3402C17.0038 15.107 17.082 14.8051 17.1237 14.2956C17.166 13.7774 17.1666 13.1131 17.1666 12.1673V9.47348C14.8748 11.1358 12.459 11.9955 10.0062 11.9948C7.55262 11.9941 5.13591 11.1327 2.84298 9.47082ZM17.1372 7.59613C16.9864 6.78304 16.2734 6.16732 15.4166 6.16732H4.5833C3.72911 6.16732 3.01932 6.78322 2.87263 7.59439C5.22902 9.55564 7.64181 10.4942 10.0066 10.4948C12.3708 10.4954 14.7824 9.55869 17.1372 7.59613ZM10.7499 13.334C10.7499 12.9198 10.4141 12.584 9.99991 12.584C9.5857 12.584 9.24991 12.9198 9.24991 13.334V15.0007C9.24991 15.4149 9.5857 15.7507 9.99991 15.7507C10.4141 15.7507 10.7499 15.4149 10.7499 15.0007V13.334Z" fill="#03182A"/>
</svg>
