<svg width="20" height="20" viewBox="0 0 20 20" fill="none" xmlns="http://www.w3.org/2000/svg">
<path fill-rule="evenodd" clip-rule="evenodd" d="M10.0001 2.29492C9.17278 2.29492 8.57937 3.09248 8.81711 3.88494L8.84701 3.98462C9.0198 4.56059 8.63003 5.15427 8.07512 5.38594C7.52026 5.6176 6.84492 5.46226 6.55985 4.93285L6.51053 4.84124C6.11829 4.1128 5.13476 3.96845 4.54975 4.55346C3.96473 5.13847 4.10909 6.122 4.83753 6.51424L4.93077 6.56445C5.45961 6.8492 5.61493 7.5237 5.38365 8.07801C5.15226 8.63257 4.55901 9.02208 3.98345 8.84941L3.88197 8.81896C3.08953 8.58123 2.29199 9.17462 2.29199 10.002C2.29199 10.8293 3.08953 11.4227 3.88197 11.1849L3.98266 11.1547C4.55864 10.9819 5.15232 11.3717 5.38397 11.9267C5.61559 12.4815 5.46024 13.1568 4.93086 13.4418L4.8372 13.4923C4.10876 13.8845 3.96441 14.868 4.54942 15.4531C5.13443 16.0381 6.11796 15.8937 6.5102 15.1653L6.56074 15.0714C6.84577 14.5421 7.52097 14.3867 8.07579 14.6182C8.6308 14.8499 9.0207 15.4436 8.84789 16.0196L8.8173 16.1216C8.57957 16.9141 9.17296 17.7116 10.0003 17.7116C10.8276 17.7116 11.421 16.9141 11.1833 16.1216L11.1525 16.0191C10.9798 15.4433 11.3695 14.8498 11.9242 14.6183C12.4788 14.3869 13.1536 14.5422 13.4385 15.0713L13.4902 15.1673C13.8824 15.8957 14.8659 16.0401 15.4509 15.4551C16.0359 14.87 15.8916 13.8865 15.1632 13.4943L15.0693 13.4437C14.5395 13.1584 14.3841 12.4825 14.616 11.9272C14.8478 11.372 15.4419 10.9819 16.0182 11.1548L16.1187 11.1849C16.9111 11.4227 17.7087 10.8293 17.7087 10.002C17.7087 9.17462 16.9111 8.58123 16.1187 8.81896L16.0174 8.84935C15.4415 9.02212 14.8479 8.63235 14.6163 8.07748C14.3848 7.52275 14.5401 6.84765 15.0694 6.56266L15.163 6.51223C15.8915 6.12 16.0358 5.13646 15.4508 4.55145C14.8658 3.96644 13.8823 4.11079 13.49 4.83924L13.4396 4.93284C13.1547 5.46209 12.4795 5.61742 11.9248 5.38586C11.3701 5.15426 10.9804 4.56072 11.1531 3.98488L11.1831 3.8849C11.4209 3.09246 10.8275 2.29492 10.0001 2.29492ZM7.61983 4.24413C7.14148 2.64965 8.33545 1.04492 10.0001 1.04492C11.6648 1.04492 12.8587 2.64962 12.3804 4.24408C12.3788 4.24942 12.3863 4.25251 12.3889 4.2476L12.3894 4.24661C13.1787 2.78093 15.1576 2.49048 16.3347 3.66757C17.5118 4.84466 17.2213 6.82361 15.7557 7.61282C15.7505 7.61559 15.7539 7.62336 15.7595 7.62168C17.354 7.14334 18.9587 8.33729 18.9587 10.002C18.9587 11.6666 17.354 12.8606 15.7595 12.3822C15.7526 12.3802 15.7486 12.3898 15.7549 12.3932L15.7558 12.3937C17.2215 13.1829 17.5119 15.1618 16.3348 16.3389C15.1577 17.516 13.1788 17.2256 12.3896 15.7599L12.389 15.7589C12.3864 15.754 12.379 15.7571 12.3806 15.7624C12.8589 17.3569 11.6649 18.9616 10.0003 18.9616C8.33563 18.9616 7.14168 17.3569 7.62002 15.7624L7.62021 15.7618C7.62198 15.7559 7.61372 15.7525 7.61079 15.7579C6.82157 17.2236 4.84263 17.514 3.66554 16.3369C2.48845 15.1598 2.77889 13.1809 4.24458 12.3917C4.24991 12.3888 4.24695 12.3805 4.24115 12.3822C2.6467 12.8606 1.04199 11.6666 1.04199 10.002C1.04199 8.33729 2.6467 7.14334 4.24115 7.62168L4.24196 7.62192C4.24642 7.62326 4.249 7.61703 4.2449 7.61483C2.77922 6.82561 2.48877 4.84667 3.66586 3.66957C4.84295 2.49248 6.8219 2.78293 7.61111 4.24861C7.61389 4.25378 7.62175 4.25052 7.62006 4.24491L7.61983 4.24413ZM8.24992 10.0013C8.24992 9.0348 9.03342 8.2513 9.99992 8.2513C10.9664 8.2513 11.7499 9.0348 11.7499 10.0013C11.7499 10.9678 10.9664 11.7513 9.99992 11.7513C9.03342 11.7513 8.24992 10.9678 8.24992 10.0013ZM9.99992 6.7513C8.205 6.7513 6.74992 8.20638 6.74992 10.0013C6.74992 11.7962 8.205 13.2513 9.99992 13.2513C11.7948 13.2513 13.2499 11.7962 13.2499 10.0013C13.2499 8.20638 11.7948 6.7513 9.99992 6.7513Z" fill="#03182A"/>
</svg>
