<svg width="20" height="20" viewBox="0 0 20 20" fill="none" xmlns="http://www.w3.org/2000/svg">
<path d="M5.83333 13.3327C6.16485 13.3327 6.4828 13.201 6.71722 12.9666C6.95164 12.7321 7.08333 12.4142 7.08333 12.0827C7.0874 12.0411 7.0874 11.9993 7.08333 11.9577L9.40833 9.63268H9.6H9.79167L11.1333 10.9743C11.1333 10.9743 11.1333 11.016 11.1333 11.041C11.1333 11.3725 11.265 11.6905 11.4994 11.9249C11.7339 12.1593 12.0518 12.291 12.3833 12.291C12.7149 12.291 13.0328 12.1593 13.2672 11.9249C13.5016 11.6905 13.6333 11.3725 13.6333 11.041V10.9743L16.6667 7.91602C16.9139 7.91602 17.1556 7.8427 17.3611 7.70535C17.5667 7.568 17.7269 7.37278 17.8215 7.14437C17.9161 6.91596 17.9409 6.66463 17.8926 6.42215C17.8444 6.17968 17.7254 5.95695 17.5505 5.78213C17.3757 5.60732 17.153 5.48827 16.9105 5.44003C16.6681 5.3918 16.4167 5.41656 16.1883 5.51117C15.9599 5.60578 15.7647 5.76599 15.6273 5.97155C15.49 6.17711 15.4167 6.41879 15.4167 6.66602C15.4126 6.70758 15.4126 6.74945 15.4167 6.79102L12.4083 9.79935H12.275L10.8333 8.33268C10.8333 8.00116 10.7016 7.68322 10.4672 7.4488C10.2328 7.21438 9.91485 7.08268 9.58333 7.08268C9.25181 7.08268 8.93387 7.21438 8.69945 7.4488C8.46503 7.68322 8.33333 8.00116 8.33333 8.33268L5.83333 10.8327C5.50181 10.8327 5.18387 10.9644 4.94945 11.1988C4.71503 11.4332 4.58333 11.7512 4.58333 12.0827C4.58333 12.4142 4.71503 12.7321 4.94945 12.9666C5.18387 13.201 5.50181 13.3327 5.83333 13.3327ZM17.0833 16.666H2.91667V2.49935C2.91667 2.27834 2.82887 2.06637 2.67259 1.91009C2.51631 1.75381 2.30435 1.66602 2.08333 1.66602C1.86232 1.66602 1.65036 1.75381 1.49408 1.91009C1.3378 2.06637 1.25 2.27834 1.25 2.49935V17.4993C1.25 17.7204 1.3378 17.9323 1.49408 18.0886C1.65036 18.2449 1.86232 18.3327 2.08333 18.3327H17.0833C17.3043 18.3327 17.5163 18.2449 17.6726 18.0886C17.8289 17.9323 17.9167 17.7204 17.9167 17.4993C17.9167 17.2783 17.8289 17.0664 17.6726 16.9101C17.5163 16.7538 17.3043 16.666 17.0833 16.666Z" fill="#03182A"/>
</svg>
