<svg width="20" height="20" viewBox="0 0 20 20" fill="none" xmlns="http://www.w3.org/2000/svg">
<path d="M2.55225 11.6667L1.8151 11.8049L1.82637 11.865L1.84723 11.9225L2.55225 11.6667ZM17.4481 11.6667L18.1531 11.9225L18.1739 11.865L18.1852 11.8049L17.4481 11.6667ZM12.9016 12.9463L12.1725 12.7707L12.9016 12.9463ZM7.66147 15.7184L6.92859 15.8778L7.66147 15.7184ZM4.16241 16.1042L3.45739 16.3601L4.16241 16.1042ZM17.4775 11.5097L16.7403 11.3714L17.4775 11.5097ZM8.39434 15.5591L7.80197 12.8345L6.33621 13.1532L6.92859 15.8778L8.39434 15.5591ZM4.86743 15.8484L3.25728 11.4109L1.84723 11.9225L3.45739 16.3601L4.86743 15.8484ZM3.28941 11.5285L3.25997 11.3714L1.78566 11.6479L1.8151 11.8049L3.28941 11.5285ZM4.83922 10.6826L2.47711 10.9204L2.6274 12.4129L4.98951 12.175L4.83922 10.6826ZM12.9796 15.8248L13.6308 13.122L12.1725 12.7707L11.5214 15.4735L12.9796 15.8248ZM16.5548 16.3274L18.1531 11.9225L16.743 11.4109L15.1447 15.8158L16.5548 16.3274ZM18.1852 11.8049L18.2147 11.6479L16.7403 11.3714L16.7109 11.5285L18.1852 11.8049ZM14.9713 12.171L17.3729 12.4129L17.5232 10.9204L15.1215 10.6786L14.9713 12.171ZM13.6308 13.122C13.7771 12.5145 14.3496 12.1084 14.9713 12.171L15.1215 10.6786C13.7538 10.5409 12.4945 11.4343 12.1725 12.7707L13.6308 13.122ZM13.284 16.5151C13.0386 16.3798 12.914 16.0972 12.9796 15.8248L11.5214 15.4735C11.2974 16.4029 11.7227 17.3673 12.5599 17.8287L13.284 16.5151ZM12.5599 17.8287C14.07 18.6611 15.9666 17.9483 16.5548 16.3274L15.1447 15.8158C14.8708 16.5708 13.9874 16.9028 13.284 16.5151L12.5599 17.8287ZM7.80197 12.8345C7.50495 11.4684 6.23022 10.5425 4.83922 10.6826L4.98951 12.175C5.62178 12.1114 6.20121 12.5322 6.33621 13.1532L7.80197 12.8345ZM7.40061 17.8007C8.1846 17.3496 8.58651 16.443 8.39434 15.5591L6.92859 15.8778C6.98198 16.1233 6.87031 16.3752 6.65248 16.5006L7.40061 17.8007ZM6.65248 16.5006C5.98409 16.8852 5.13046 16.5733 4.86743 15.8484L3.45739 16.3601C4.03843 17.9614 5.92411 18.6503 7.40061 17.8007L6.65248 16.5006ZM10.0002 3.25C14.294 3.25 17.5317 7.15115 16.7403 11.3714L18.2147 11.6479C19.1791 6.50446 15.2332 1.75 10.0002 1.75V3.25ZM10.0002 1.75C4.76711 1.75 0.821264 6.50445 1.78566 11.6479L3.25997 11.3714C2.46866 7.15114 5.70632 3.25 10.0002 3.25V1.75Z" fill="#03182A"/>
</svg>
