<svg width="20" height="20" viewBox="0 0 20 20" fill="none" xmlns="http://www.w3.org/2000/svg">
<path fill-rule="evenodd" clip-rule="evenodd" d="M9.99984 2.41602C5.81168 2.41602 2.4165 5.81119 2.4165 9.99935C2.4165 11.5742 2.89595 13.0361 3.71757 14.2482C4.63696 12.9636 5.91565 11.9829 7.33671 11.4282C6.4671 10.6793 5.9165 9.5703 5.9165 8.33268C5.9165 6.07752 7.74467 4.24935 9.99984 4.24935C12.255 4.24935 14.0832 6.07752 14.0832 8.33268C14.0832 9.57029 13.5326 10.6793 12.663 11.4281C14.0841 11.9829 15.3627 12.9636 16.2821 14.2482C17.1037 13.036 17.5832 11.5741 17.5832 9.99935C17.5832 5.81119 14.188 2.41602 9.99984 2.41602ZM15.2788 15.4436C14.1052 13.5749 12.0347 12.416 9.99988 12.416C7.965 12.416 5.8945 13.575 4.72092 15.4436C6.08688 16.7684 7.94767 17.5827 9.99984 17.5827C12.052 17.5827 13.9128 16.7684 15.2788 15.4436ZM0.916504 9.99935C0.916504 4.98276 4.98325 0.916016 9.99984 0.916016C15.0164 0.916016 19.0832 4.98276 19.0832 9.99935C19.0832 12.4513 18.1107 14.6776 16.5319 16.3111C14.8812 18.0192 12.5641 19.0827 9.99984 19.0827C7.4356 19.0827 5.11847 18.0192 3.46773 16.3111C1.88901 14.6776 0.916504 12.4513 0.916504 9.99935ZM9.99984 5.74935C8.5731 5.74935 7.4165 6.90595 7.4165 8.33268C7.4165 9.75942 8.5731 10.916 9.99984 10.916C11.4266 10.916 12.5832 9.75942 12.5832 8.33268C12.5832 6.90595 11.4266 5.74935 9.99984 5.74935Z" fill="#03182A"/>
</svg>
