<svg width="20" height="20" viewBox="0 0 20 20" fill="none" xmlns="http://www.w3.org/2000/svg">
<path fill-rule="evenodd" clip-rule="evenodd" d="M5.38939 1.75H5.36665H5.36663C4.96595 1.74999 4.63144 1.74999 4.35624 1.76694C4.06998 1.78458 3.79891 1.82255 3.53337 1.92075C2.78031 2.19927 2.18658 2.793 1.90806 3.54607C1.8096 3.81228 1.77179 4.08509 1.75422 4.37302C1.73729 4.65043 1.7373 4.98838 1.7373 5.39399V5.39401V5.41667V5.43933V5.43934C1.7373 5.84496 1.73729 6.18291 1.75422 6.46031C1.77179 6.74824 1.8096 7.02105 1.90806 7.28727C2.18658 8.04033 2.78031 8.63406 3.53337 8.91258C3.79891 9.01079 4.06998 9.04876 4.35624 9.06639C4.63143 9.08334 4.96592 9.08334 5.36658 9.08333H5.36665H5.38939H5.41213H5.41219C5.81285 9.08334 6.14735 9.08334 6.42254 9.06639C6.70879 9.04876 6.97987 9.01079 7.2454 8.91258C7.99847 8.63406 8.5922 8.04033 8.87072 7.28727C8.96918 7.02105 9.00699 6.74824 9.02456 6.46031C9.04148 6.18291 9.04148 5.84497 9.04147 5.43937V5.43934V5.41667V5.394V5.39396C9.04148 4.98836 9.04148 4.65042 9.02456 4.37302C9.00699 4.08509 8.96918 3.81228 8.87072 3.54607C8.5922 2.793 7.99847 2.19927 7.2454 1.92075C6.97987 1.82255 6.70879 1.78458 6.42254 1.76694C6.14734 1.74999 5.81283 1.74999 5.41215 1.75H5.41213H5.38939ZM4.0537 3.32762C4.12394 3.30164 4.23076 3.27752 4.44847 3.2641C4.67205 3.25033 4.96012 3.25 5.38939 3.25C5.81865 3.25 6.10673 3.25033 6.33031 3.2641C6.54802 3.27752 6.65484 3.30164 6.72508 3.32762C7.06738 3.45422 7.33726 3.72409 7.46386 4.06639C7.48958 4.13595 7.51386 4.24347 7.52734 4.46437C7.54115 4.69064 7.54147 4.9826 7.54147 5.41667C7.54147 5.85073 7.54115 6.14269 7.52734 6.36896C7.51386 6.58987 7.48958 6.69738 7.46386 6.76694C7.33726 7.10924 7.06738 7.37912 6.72508 7.50572C6.65484 7.5317 6.54802 7.55582 6.33031 7.56923C6.10673 7.583 5.81865 7.58333 5.38939 7.58333C4.96012 7.58333 4.67205 7.583 4.44847 7.56923C4.23076 7.55582 4.12394 7.5317 4.0537 7.50572C3.7114 7.37912 3.44152 7.10924 3.31492 6.76694C3.2892 6.69738 3.26491 6.58987 3.25144 6.36896C3.23763 6.14269 3.23731 5.85073 3.23731 5.41667C3.23731 4.9826 3.23763 4.69064 3.25144 4.46437C3.26491 4.24347 3.2892 4.13595 3.31492 4.06639C3.44152 3.72409 3.7114 3.45422 4.0537 3.32762ZM14.5102 1.75H14.4875H14.4875C14.0868 1.74999 13.7523 1.74999 13.4771 1.76694C13.1908 1.78458 12.9197 1.82255 12.6542 1.92075C11.9011 2.19927 11.3074 2.793 11.0289 3.54607C10.9304 3.81228 10.8926 4.08509 10.8751 4.37302C10.8581 4.65043 10.8581 4.98839 10.8581 5.39401V5.41667V5.43933C10.8581 5.84495 10.8581 6.1829 10.8751 6.46031C10.8926 6.74824 10.9304 7.02105 11.0289 7.28727C11.3074 8.04033 11.9011 8.63406 12.6542 8.91258C12.9197 9.01079 13.1908 9.04876 13.4771 9.06639C13.7523 9.08334 14.0868 9.08334 14.4874 9.08333H14.4875H14.5102H14.533H14.533C14.9337 9.08334 15.2682 9.08334 15.5434 9.06639C15.8296 9.04876 16.1007 9.01079 16.3662 8.91258C17.1193 8.63406 17.713 8.04033 17.9916 7.28727C18.09 7.02105 18.1278 6.74824 18.1454 6.46031C18.1623 6.18297 18.1623 5.8451 18.1623 5.43961V5.43957V5.43952V5.43934V5.41667V5.394V5.39382V5.39377V5.39372C18.1623 4.98823 18.1623 4.65037 18.1454 4.37302C18.1278 4.08509 18.09 3.81228 17.9916 3.54607C17.713 2.793 17.1193 2.19927 16.3662 1.92075C16.1007 1.82255 15.8296 1.78458 15.5434 1.76694C15.2682 1.74999 14.9337 1.74999 14.533 1.75H14.533H14.5102ZM13.1745 3.32762C13.2448 3.30164 13.3516 3.27752 13.5693 3.2641C13.7929 3.25033 14.081 3.25 14.5102 3.25C14.9395 3.25 15.2276 3.25033 15.4511 3.2641C15.6688 3.27752 15.7757 3.30164 15.8459 3.32762C16.1882 3.45422 16.4581 3.72409 16.5847 4.06639C16.6104 4.13595 16.6347 4.24347 16.6482 4.46437C16.662 4.69064 16.6623 4.9826 16.6623 5.41667C16.6623 5.85073 16.662 6.14269 16.6482 6.36896C16.6347 6.58987 16.6104 6.69738 16.5847 6.76694C16.4581 7.10924 16.1882 7.37912 15.8459 7.50572C15.7757 7.5317 15.6688 7.55582 15.4511 7.56923C15.2276 7.583 14.9395 7.58333 14.5102 7.58333C14.081 7.58333 13.7929 7.583 13.5693 7.56923C13.3516 7.55582 13.2448 7.5317 13.1745 7.50572C12.8322 7.37912 12.5624 7.10924 12.4358 6.76694C12.41 6.69738 12.3857 6.58987 12.3723 6.36896C12.3585 6.14269 12.3581 5.85073 12.3581 5.41667C12.3581 4.9826 12.3585 4.69064 12.3723 4.46437C12.3857 4.24347 12.41 4.13595 12.4358 4.06639C12.5624 3.72409 12.8322 3.45422 13.1745 3.32762ZM5.36665 10.9167H5.38939H5.41213C5.81282 10.9167 6.14733 10.9167 6.42254 10.9336C6.70879 10.9512 6.97987 10.9892 7.2454 11.0874C7.99847 11.3659 8.5922 11.9597 8.87072 12.7127C8.96918 12.9789 9.00699 13.2518 9.02456 13.5397C9.04148 13.8171 9.04148 14.155 9.04147 14.5606V14.5607V14.5833V14.606V14.606C9.04148 15.0116 9.04148 15.3496 9.02456 15.627C9.00699 15.9149 8.96918 16.1877 8.87072 16.4539C8.5922 17.207 7.99847 17.8007 7.2454 18.0792C6.97987 18.1775 6.70879 18.2154 6.42254 18.2331C6.14736 18.25 5.81289 18.25 5.41226 18.25H5.41219H5.41213H5.38939H5.36665H5.36658H5.36651C4.96589 18.25 4.63141 18.25 4.35624 18.2331C4.06998 18.2154 3.79891 18.1775 3.53337 18.0792C2.78031 17.8007 2.18658 17.207 1.90806 16.4539C1.8096 16.1877 1.77179 15.9149 1.75422 15.627C1.73729 15.3496 1.7373 15.0116 1.7373 14.606V14.606V14.5833V14.5607V14.5607C1.7373 14.155 1.73729 13.8171 1.75422 13.5397C1.77179 13.2518 1.8096 12.9789 1.90806 12.7127C2.18658 11.9597 2.78031 11.3659 3.53337 11.0874C3.79891 10.9892 4.06998 10.9512 4.35624 10.9336C4.63144 10.9167 4.96596 10.9167 5.36665 10.9167ZM4.44847 12.4308C4.23076 12.4442 4.12394 12.4683 4.0537 12.4943C3.7114 12.6209 3.44152 12.8908 3.31492 13.2331C3.2892 13.3026 3.26491 13.4101 3.25144 13.631C3.23763 13.8573 3.23731 14.1493 3.23731 14.5833C3.23731 15.0174 3.23763 15.3094 3.25144 15.5356C3.26491 15.7565 3.2892 15.864 3.31492 15.9336C3.44152 16.2759 3.7114 16.5458 4.0537 16.6724C4.12394 16.6984 4.23076 16.7225 4.44847 16.7359C4.67205 16.7497 4.96012 16.75 5.38939 16.75C5.81865 16.75 6.10673 16.7497 6.33031 16.7359C6.54802 16.7225 6.65484 16.6984 6.72508 16.6724C7.06738 16.5458 7.33726 16.2759 7.46386 15.9336C7.48958 15.864 7.51386 15.7565 7.52734 15.5356C7.54115 15.3094 7.54147 15.0174 7.54147 14.5833C7.54147 14.1493 7.54115 13.8573 7.52734 13.631C7.51386 13.4101 7.48958 13.3026 7.46386 13.2331C7.33726 12.8908 7.06738 12.6209 6.72508 12.4943C6.65484 12.4683 6.54802 12.4442 6.33031 12.4308C6.10673 12.417 5.81865 12.4167 5.38939 12.4167C4.96012 12.4167 4.67205 12.417 4.44847 12.4308ZM14.5102 10.9167H14.4875C14.0868 10.9167 13.7523 10.9167 13.4771 10.9336C13.1908 10.9512 12.9197 10.9892 12.6542 11.0874C11.9011 11.3659 11.3074 11.9597 11.0289 12.7127C10.9304 12.9789 10.8926 13.2518 10.8751 13.5397C10.8581 13.8171 10.8581 14.1551 10.8581 14.5607V14.5833V14.606C10.8581 15.0116 10.8581 15.3496 10.8751 15.627C10.8926 15.9149 10.9304 16.1877 11.0289 16.4539C11.3074 17.207 11.9011 17.8007 12.6542 18.0792C12.9197 18.1775 13.1908 18.2154 13.4771 18.2331C13.7523 18.25 14.0868 18.25 14.4874 18.25H14.4875H14.5102H14.533H14.533C14.9337 18.25 15.2682 18.25 15.5434 18.2331C15.8296 18.2154 16.1007 18.1775 16.3662 18.0792C17.1193 17.8007 17.713 17.207 17.9916 16.4539C18.09 16.1877 18.1278 15.9149 18.1454 15.627C18.1623 15.3496 18.1623 15.0117 18.1623 14.6062V14.606V14.5833V14.5607V14.5605C18.1623 14.1549 18.1623 13.8171 18.1454 13.5397C18.1278 13.2518 18.09 12.9789 17.9916 12.7127C17.713 11.9597 17.1193 11.3659 16.3662 11.0874C16.1007 10.9892 15.8296 10.9512 15.5434 10.9336C15.2682 10.9167 14.9336 10.9167 14.533 10.9167H14.5102ZM13.1745 12.4943C13.2448 12.4683 13.3516 12.4442 13.5693 12.4308C13.7929 12.417 14.081 12.4167 14.5102 12.4167C14.9395 12.4167 15.2276 12.417 15.4511 12.4308C15.6688 12.4442 15.7757 12.4683 15.8459 12.4943C16.1882 12.6209 16.4581 12.8908 16.5847 13.2331C16.6104 13.3026 16.6347 13.4101 16.6482 13.631C16.662 13.8573 16.6623 14.1493 16.6623 14.5833C16.6623 15.0174 16.662 15.3094 16.6482 15.5356C16.6347 15.7565 16.6104 15.864 16.5847 15.9336C16.4581 16.2759 16.1882 16.5458 15.8459 16.6724C15.7757 16.6984 15.6688 16.7225 15.4511 16.7359C15.2276 16.7497 14.9395 16.75 14.5102 16.75C14.081 16.75 13.7929 16.7497 13.5693 16.7359C13.3516 16.7225 13.2448 16.6984 13.1745 16.6724C12.8322 16.5458 12.5624 16.2759 12.4358 15.9336C12.41 15.864 12.3857 15.7565 12.3723 15.5356C12.3585 15.3094 12.3581 15.0174 12.3581 14.5833C12.3581 14.1493 12.3585 13.8573 12.3723 13.631C12.3857 13.4101 12.41 13.3026 12.4358 13.2331C12.5624 12.8908 12.8322 12.6209 13.1745 12.4943Z" fill="#03182A"/>
<path d="M3 17V12.5V12H8V17H3Z" fill="#03182A"/>
<path d="M12 17V12.5V12H17V17H12Z" fill="#03182A"/>
<path d="M3 8V3.5V3H8V8H3Z" fill="#03182A"/>
</svg>
