<svg width="16" height="16" viewBox="0 0 16 16" fill="none" xmlns="http://www.w3.org/2000/svg">
<path d="M8.00004 7.33398C7.82323 7.33398 7.65366 7.40422 7.52864 7.52925C7.40361 7.65427 7.33338 7.82384 7.33338 8.00065V10.6673C7.33338 10.8441 7.40361 11.0137 7.52864 11.1387C7.65366 11.2637 7.82323 11.334 8.00004 11.334C8.17685 11.334 8.34642 11.2637 8.47145 11.1387C8.59647 11.0137 8.66671 10.8441 8.66671 10.6673V8.00065C8.66671 7.82384 8.59647 7.65427 8.47145 7.52925C8.34642 7.40422 8.17685 7.33398 8.00004 7.33398ZM8.25338 4.72065C8.09107 4.65397 7.90902 4.65397 7.74671 4.72065C7.66488 4.75238 7.59011 4.79996 7.52671 4.86065C7.46782 4.92545 7.42047 4.99986 7.38671 5.08065C7.34939 5.15977 7.33112 5.24653 7.33338 5.33398C7.33287 5.42172 7.34969 5.5087 7.38286 5.58992C7.41604 5.67115 7.46492 5.74502 7.52671 5.80732C7.59151 5.86621 7.66592 5.91356 7.74671 5.94732C7.84771 5.98881 7.95735 6.00486 8.06601 5.99406C8.17466 5.98326 8.279 5.94593 8.36985 5.88536C8.4607 5.8248 8.53529 5.74284 8.58705 5.6467C8.63881 5.55056 8.66617 5.44317 8.66671 5.33398C8.66425 5.15747 8.5952 4.98841 8.47338 4.86065C8.40997 4.79996 8.33521 4.75238 8.25338 4.72065ZM8.00004 1.33398C6.6815 1.33398 5.39257 1.72498 4.29624 2.45752C3.19991 3.19006 2.34543 4.23125 1.84085 5.44943C1.33626 6.6676 1.20424 8.00805 1.46148 9.30125C1.71871 10.5945 2.35365 11.7823 3.286 12.7147C4.21835 13.647 5.40623 14.282 6.69944 14.5392C7.99265 14.7965 9.33309 14.6644 10.5513 14.1598C11.7694 13.6553 12.8106 12.8008 13.5432 11.7045C14.2757 10.6081 14.6667 9.31919 14.6667 8.00065C14.6667 7.12517 14.4943 6.25827 14.1592 5.44943C13.8242 4.64059 13.3331 3.90566 12.7141 3.28661C12.095 2.66755 11.3601 2.17649 10.5513 1.84145C9.74243 1.50642 8.87552 1.33398 8.00004 1.33398ZM8.00004 13.334C6.94521 13.334 5.91406 13.0212 5.037 12.4352C4.15994 11.8491 3.47635 11.0162 3.07269 10.0416C2.66902 9.06709 2.5634 7.99474 2.76919 6.96017C2.97498 5.9256 3.48293 4.9753 4.22881 4.22941C4.97469 3.48354 5.925 2.97558 6.95956 2.7698C7.99413 2.56401 9.06648 2.66963 10.041 3.07329C11.0156 3.47696 11.8485 4.16055 12.4345 5.03761C13.0206 5.91467 13.3334 6.94582 13.3334 8.00065C13.3334 9.41514 12.7715 10.7717 11.7713 11.7719C10.7711 12.7721 9.41453 13.334 8.00004 13.334Z" fill="#767676"/>
</svg>
