<svg width="62" height="27" viewBox="0 0 62 27" fill="none" xmlns="http://www.w3.org/2000/svg">
<path fill-rule="evenodd" clip-rule="evenodd" d="M61.7393 13.6202C61.7393 9.22987 59.6127 5.76562 55.5483 5.76562C51.4666 5.76562 48.9971 9.22987 48.9971 13.5859C48.9971 18.748 51.9125 21.3547 56.0971 21.3547C58.1379 21.3547 59.6813 20.8917 60.8475 20.24V16.81C59.6813 17.3931 58.3437 17.7533 56.6458 17.7533C54.9823 17.7533 53.5074 17.1702 53.3188 15.1465H61.705C61.705 14.9236 61.7393 14.0318 61.7393 13.6202ZM53.2673 11.991C53.2673 10.0531 54.4507 9.24702 55.5311 9.24702C56.5772 9.24702 57.692 10.0531 57.692 11.991H53.2673Z" fill="#635BFF"/>
<path fill-rule="evenodd" clip-rule="evenodd" d="M42.3768 5.76562C40.6961 5.76562 39.6157 6.55451 39.0154 7.1033L38.7925 6.04002H35.0195V26.0366L39.307 25.1277L39.3241 20.2743C39.9415 20.7202 40.8504 21.3547 42.3596 21.3547C45.4294 21.3547 48.2248 18.8852 48.2248 13.4487C48.2077 8.47528 45.378 5.76562 42.3768 5.76562ZM41.3478 17.5818C40.3359 17.5818 39.7357 17.2216 39.3241 16.7757L39.307 10.4132C39.7529 9.91586 40.3702 9.57286 41.3478 9.57286C42.9084 9.57286 43.9888 11.3221 43.9888 13.5687C43.9888 15.8668 42.9255 17.5818 41.3478 17.5818Z" fill="#635BFF"/>
<path fill-rule="evenodd" clip-rule="evenodd" d="M29.1201 4.75318L33.4247 3.8271V0.345703L29.1201 1.25464V4.75318Z" fill="#635BFF"/>
<path d="M33.4247 6.05664H29.1201V21.0626H33.4247V6.05664Z" fill="#635BFF"/>
<path fill-rule="evenodd" clip-rule="evenodd" d="M24.5071 7.32525L24.2327 6.05618H20.5283V21.0622H24.8157V10.8924C25.8276 9.57187 27.5426 9.81196 28.0742 10.0006V6.05618C27.5254 5.85038 25.5189 5.47308 24.5071 7.32525Z" fill="#635BFF"/>
<path fill-rule="evenodd" clip-rule="evenodd" d="M15.9321 2.33594L11.7476 3.22772L11.7305 16.9646C11.7305 19.5028 13.6341 21.3721 16.1722 21.3721C17.5785 21.3721 18.6075 21.1149 19.1734 20.8062V17.3248C18.6247 17.5477 15.915 18.3366 15.915 15.7985V9.71032H19.1734V6.05743H15.915L15.9321 2.33594Z" fill="#635BFF"/>
<path fill-rule="evenodd" clip-rule="evenodd" d="M4.33888 10.4132C4.33888 9.74436 4.88767 9.48711 5.7966 9.48711C7.09998 9.48711 8.74635 9.88156 10.0497 10.5847V6.55451C8.62631 5.98857 7.22003 5.76562 5.7966 5.76562C2.31521 5.76562 0 7.5835 0 10.619C0 15.3523 6.51689 14.5977 6.51689 16.6385C6.51689 17.4274 5.8309 17.6847 4.87052 17.6847C3.44709 17.6847 1.62922 17.1016 0.188647 16.3127V20.3943C1.78357 21.0803 3.39564 21.3719 4.87052 21.3719C8.43766 21.3719 10.8901 19.6054 10.8901 16.5356C10.8729 11.425 4.33888 12.334 4.33888 10.4132Z" fill="#635BFF"/>
</svg>
