<svg width="48" height="55" viewBox="0 0 48 55" fill="none" xmlns="http://www.w3.org/2000/svg">
<path d="M24.5158 54.2105L24.4854 54.2275C24.1807 54.3984 23.8193 54.3984 23.5146 54.2275L23.4842 54.2105C15.4011 49.6784 0.254936 41.1859 0.00317843 11.2587C-0.000544114 10.8161 0.288091 10.4148 0.711325 10.2856C6.98146 8.37095 19.0409 4.06901 23.2028 0.283017C23.399 0.10455 23.649 0 23.9142 0H24.0858C24.351 0 24.601 0.10455 24.7972 0.283017C28.9591 4.06901 41.0185 8.37095 47.2887 10.2856C47.7119 10.4148 48.0005 10.8161 47.9968 11.2587C47.7451 41.1859 32.5989 49.6784 24.5158 54.2105Z" fill="#4694DC"/>
<path d="M42.4961 15.0368C42.254 38.3999 30.7378 45.1322 24.497 48.7146C24.1878 48.892 23.8122 48.892 23.503 48.7146C17.2622 45.1322 5.74599 38.3999 5.50388 15.0368C5.49932 14.5967 5.78423 14.1985 6.20408 14.0664C11.0548 12.5399 20.1221 9.21145 23.3384 6.26677C23.5202 6.10034 23.7535 6 24 6C24.2465 6 24.4798 6.10034 24.6616 6.26677C27.8779 9.21145 36.9452 12.5399 41.7959 14.0664C42.2158 14.1985 42.5007 14.5967 42.4961 15.0368Z" fill="#4694DC" stroke="white" stroke-width="2"/>
<path d="M16.2929 23.7071L17.7071 22.2929C17.8946 22.1054 18.149 22 18.4142 22H19V17.4142C19 17.149 19.1054 16.8946 19.2929 16.7071L20.7071 15.2929C20.8946 15.1054 21.149 15 21.4142 15H26.5858C26.851 15 27.1054 15.1054 27.2929 15.2929L28.7071 16.7071C28.8946 16.8946 29 17.149 29 17.4142V22H29.5858C29.851 22 30.1054 22.1054 30.2929 22.2929L31.7071 23.7071C31.8946 23.8946 32 24.149 32 24.4142V35.5858C32 35.851 31.8946 36.1054 31.7071 36.2929L30.2929 37.7071C30.1054 37.8946 29.851 38 29.5858 38H18.4142C18.149 38 17.8946 37.8946 17.7071 37.7071L16.2929 36.2929C16.1054 36.1054 16 35.851 16 35.5858V24.4142C16 24.149 16.1054 23.8946 16.2929 23.7071Z" fill="#4694DC"/>
<path d="M19 22H18.4142C18.149 22 17.8946 22.1054 17.7071 22.2929L16.2929 23.7071C16.1054 23.8946 16 24.149 16 24.4142V35.5858C16 35.851 16.1054 36.1054 16.2929 36.2929L17.7071 37.7071C17.8946 37.8946 18.149 38 18.4142 38H29.5858C29.851 38 30.1054 37.8946 30.2929 37.7071L31.7071 36.2929C31.8946 36.1054 32 35.851 32 35.5858V24.4142C32 24.149 31.8946 23.8946 31.7071 23.7071L30.2929 22.2929C30.1054 22.1054 29.851 22 29.5858 22H29M19 22V17.4142C19 17.149 19.1054 16.8946 19.2929 16.7071L20.7071 15.2929C20.8946 15.1054 21.149 15 21.4142 15H26.5858C26.851 15 27.1054 15.1054 27.2929 15.2929L28.7071 16.7071C28.8946 16.8946 29 17.149 29 17.4142V22M19 22H29M24 34.5C24 32.9379 24 30.5 24 30.5M24 30.5H24.5858C24.851 30.5 25.1054 30.3946 25.2929 30.2071L25.7071 29.7929C25.8946 29.6054 26 29.351 26 29.0858V27.9142C26 27.649 25.8946 27.3946 25.7071 27.2071L25.2929 26.7929C25.1054 26.6054 24.851 26.5 24.5858 26.5H23.4142C23.149 26.5 22.8946 26.6054 22.7071 26.7929L22.2929 27.2071C22.1054 27.3946 22 27.649 22 27.9142V29.0858C22 29.351 22.1054 29.6054 22.2929 29.7929L22.7071 30.2071C22.8946 30.3946 23.149 30.5 23.4142 30.5H24Z" stroke="white" stroke-width="2"/>
</svg>
