<svg width="20" height="20" viewBox="0 0 20 20" fill="#AFAFAF" xmlns="http://www.w3.org/2000/svg">
    <path d="M15.8333 6.66602H15V4.16602C15 3.50297 14.7366 2.86709 14.2677 2.39825C13.7989 1.92941 13.163 1.66602 12.5 1.66602H4.16663C3.50358 1.66602 2.8677 1.92941 2.39886 2.39825C1.93002 2.86709 1.66663 3.50297 1.66663 4.16602V14.166C1.66745 14.3305 1.71695 14.4911 1.80889 14.6276C1.90084 14.764 2.03111 14.8702 2.18329 14.9327C2.28219 14.9793 2.39065 15.0022 2.49996 14.9993C2.60963 15 2.71835 14.979 2.81988 14.9375C2.92141 14.896 3.01376 14.8349 3.09163 14.7577L5.43329 12.4077H6.66663V13.6077C6.66663 14.2707 6.93002 14.9066 7.39886 15.3754C7.8677 15.8443 8.50358 16.1077 9.16663 16.1077H14.9333L16.9083 18.091C16.9862 18.1682 17.0785 18.2294 17.18 18.2708C17.2816 18.3123 17.3903 18.3333 17.5 18.3327C17.6093 18.3355 17.7177 18.3127 17.8166 18.266C17.9688 18.2035 18.0991 18.0973 18.191 17.9609C18.283 17.8245 18.3325 17.6639 18.3333 17.4993V9.16602C18.3333 8.50297 18.0699 7.86709 17.6011 7.39825C17.1322 6.92941 16.4963 6.66602 15.8333 6.66602ZM6.66663 9.16602V10.741H5.09163C4.98195 10.7404 4.87323 10.7614 4.7717 10.8029C4.67017 10.8443 4.57783 10.9054 4.49996 10.9827L3.33329 12.1577V4.16602C3.33329 3.945 3.42109 3.73304 3.57737 3.57676C3.73365 3.42048 3.94561 3.33268 4.16663 3.33268H12.5C12.721 3.33268 12.9329 3.42048 13.0892 3.57676C13.2455 3.73304 13.3333 3.945 13.3333 4.16602V6.66602H9.16663C8.50358 6.66602 7.8677 6.92941 7.39886 7.39825C6.93002 7.86709 6.66663 8.50297 6.66663 9.16602ZM16.6666 15.491L15.8333 14.6577C15.7561 14.5789 15.6641 14.5163 15.5625 14.4734C15.461 14.4305 15.3519 14.4081 15.2416 14.4077H9.16663C8.94561 14.4077 8.73365 14.3199 8.57737 14.1636C8.42109 14.0073 8.33329 13.7954 8.33329 13.5743V9.16602C8.33329 8.945 8.42109 8.73304 8.57737 8.57676C8.73365 8.42048 8.94561 8.33268 9.16663 8.33268H15.8333C16.0543 8.33268 16.2663 8.42048 16.4225 8.57676C16.5788 8.73304 16.6666 8.945 16.6666 9.16602V15.491Z"
          />
</svg>
