<svg width="20" height="20" viewBox="0 0 20 20" fill="none" xmlns="http://www.w3.org/2000/svg">
<path d="M12.3416 10.2327C12.8691 9.66622 13.1663 8.92333 13.175 8.14935C13.175 7.31392 12.8431 6.5127 12.2523 5.92196C11.6616 5.33122 10.8604 4.99935 10.025 4.99935C9.18953 4.99935 8.38831 5.33122 7.79757 5.92196C7.20683 6.5127 6.87496 7.31392 6.87496 8.14935C6.88366 8.92333 7.18081 9.66622 7.70829 10.2327C6.97384 10.5984 6.34181 11.141 5.86906 11.8115C5.3963 12.4821 5.09765 13.2597 4.99996 14.0743C4.97565 14.2954 5.04013 14.517 5.17922 14.6905C5.31831 14.8639 5.52061 14.975 5.74163 14.9993C5.96264 15.0237 6.18426 14.9592 6.35773 14.8201C6.5312 14.681 6.64231 14.4787 6.66663 14.2577C6.76607 13.4503 7.15733 12.7071 7.7667 12.1682C8.37607 11.6293 9.16147 11.3318 9.97496 11.3318C10.7884 11.3318 11.5739 11.6293 12.1832 12.1682C12.7926 12.7071 13.1838 13.4503 13.2833 14.2577C13.3065 14.4714 13.4113 14.6678 13.5759 14.806C13.7405 14.9442 13.9522 15.0135 14.1666 14.9993H14.2583C14.4767 14.9742 14.6764 14.8638 14.8138 14.6921C14.9511 14.5204 15.0151 14.3013 14.9916 14.0827C14.9012 13.2723 14.6119 12.4969 14.1496 11.8252C13.6873 11.1536 13.0663 10.6065 12.3416 10.2327ZM9.99996 9.63268C9.70658 9.63268 9.4198 9.54569 9.17586 9.3827C8.93193 9.2197 8.74181 8.98804 8.62954 8.717C8.51727 8.44595 8.48789 8.1477 8.54513 7.85997C8.60236 7.57223 8.74364 7.30792 8.95108 7.10047C9.15853 6.89303 9.42284 6.75175 9.71058 6.69452C9.99831 6.63728 10.2966 6.66666 10.5676 6.77893C10.8387 6.8912 11.0703 7.08132 11.2333 7.32525C11.3963 7.56919 11.4833 7.85597 11.4833 8.14935C11.4833 8.54275 11.327 8.92005 11.0488 9.19822C10.7707 9.4764 10.3934 9.63268 9.99996 9.63268ZM15.8333 1.66602H4.16663C3.50358 1.66602 2.8677 1.92941 2.39886 2.39825C1.93002 2.86709 1.66663 3.50297 1.66663 4.16602V15.8327C1.66663 16.4957 1.93002 17.1316 2.39886 17.6005C2.8677 18.0693 3.50358 18.3327 4.16663 18.3327H15.8333C16.4963 18.3327 17.1322 18.0693 17.6011 17.6005C18.0699 17.1316 18.3333 16.4957 18.3333 15.8327V4.16602C18.3333 3.50297 18.0699 2.86709 17.6011 2.39825C17.1322 1.92941 16.4963 1.66602 15.8333 1.66602ZM16.6666 15.8327C16.6666 16.0537 16.5788 16.2657 16.4225 16.4219C16.2663 16.5782 16.0543 16.666 15.8333 16.666H4.16663C3.94561 16.666 3.73365 16.5782 3.57737 16.4219C3.42109 16.2657 3.33329 16.0537 3.33329 15.8327V4.16602C3.33329 3.945 3.42109 3.73304 3.57737 3.57676C3.73365 3.42048 3.94561 3.33268 4.16663 3.33268H15.8333C16.0543 3.33268 16.2663 3.42048 16.4225 3.57676C16.5788 3.73304 16.6666 3.945 16.6666 4.16602V15.8327Z" fill="#C4C4C4"/>
</svg>
