<svg width="24" height="24" viewBox="0 0 24 24" fill="none" xmlns="http://www.w3.org/2000/svg">
<mask id="mask0_3153_53494" style="mask-type:alpha" maskUnits="userSpaceOnUse" x="0" y="0" width="24" height="24">
<rect width="24" height="24" fill="#D9D9D9"/>
</mask>
<g mask="url(#mask0_3153_53494)">
<path d="M18.1667 9H17.3333V6.5C17.3333 5.83696 17.0699 5.20107 16.6011 4.73223C16.1323 4.26339 15.4964 4 14.8333 4H6.5C5.83696 4 5.20107 4.26339 4.73223 4.73223C4.26339 5.20107 4 5.83696 4 6.5V16.5C4.00082 16.6645 4.05032 16.8251 4.14227 16.9616C4.23421 17.098 4.36448 17.2041 4.51667 17.2667C4.61557 17.3133 4.72402 17.3362 4.83333 17.3333C4.94301 17.334 5.05172 17.3129 5.15326 17.2715C5.25479 17.23 5.34713 17.1689 5.425 17.0917L7.76667 14.7417H9V15.9417C9 16.6047 9.26339 17.2406 9.73223 17.7094C10.2011 18.1783 10.837 18.4417 11.5 18.4417H17.2667L19.2417 20.425C19.3195 20.5022 19.4119 20.5633 19.5134 20.6048C19.6149 20.6463 19.7237 20.6673 19.8333 20.6667C19.9426 20.6695 20.0511 20.6467 20.15 20.6C20.3022 20.5375 20.4325 20.4313 20.5244 20.2949C20.6163 20.1585 20.6658 19.9979 20.6667 19.8333V11.5C20.6667 10.837 20.4033 10.2011 19.9344 9.73223C19.4656 9.26339 18.8297 9 18.1667 9ZM9 11.5V13.075H7.425C7.31533 13.0744 7.20661 13.0954 7.10508 13.1369C7.00355 13.1783 6.9112 13.2394 6.83333 13.3167L5.66667 14.4917V6.5C5.66667 6.27899 5.75446 6.06702 5.91074 5.91074C6.06702 5.75446 6.27899 5.66667 6.5 5.66667H14.8333C15.0543 5.66667 15.2663 5.75446 15.4226 5.91074C15.5789 6.06702 15.6667 6.27899 15.6667 6.5V9H11.5C10.837 9 10.2011 9.26339 9.73223 9.73223C9.26339 10.2011 9 10.837 9 11.5ZM19 17.825L18.1667 16.9917C18.0895 16.9129 17.9975 16.8503 17.8959 16.8074C17.7943 16.7645 17.6853 16.7421 17.575 16.7417H11.5C11.279 16.7417 11.067 16.6539 10.9107 16.4976C10.7545 16.3413 10.6667 16.1293 10.6667 15.9083V11.5C10.6667 11.279 10.7545 11.067 10.9107 10.9107C11.067 10.7545 11.279 10.6667 11.5 10.6667H18.1667C18.3877 10.6667 18.5996 10.7545 18.7559 10.9107C18.9122 11.067 19 11.279 19 11.5V17.825Z" fill="#E93B04"/>
</g>
</svg>
