<svg width="24" height="24" viewBox="0 0 24 24" fill="none" xmlns="http://www.w3.org/2000/svg">
<circle cx="12" cy="12" r="11" fill="#F2994A"/>
<mask id="mask0_4776_85837" style="mask-type:alpha" maskUnits="userSpaceOnUse" x="0" y="0" width="24" height="24">
<rect width="24" height="24" fill="#C4C4C4"/>
</mask>
<g mask="url(#mask0_4776_85837)">
<path fill-rule="evenodd" clip-rule="evenodd" d="M16.597 9.90882C16.4543 8.42837 15.1763 7.93204 13.5627 7.79068L13.5627 5.73704L12.3123 5.73725L12.3124 7.73676C11.9841 7.73672 11.6482 7.74321 11.3144 7.74987L11.3146 5.73712L10.0653 5.73709L10.0648 7.79014C9.79417 7.79566 9.52839 7.80069 9.26923 7.80086L9.26907 7.79449L7.54497 7.79391L7.5453 9.12898C7.5453 9.12898 8.4684 9.11138 8.45306 9.12838C8.95939 9.12854 9.12451 9.4224 9.17211 9.67614L9.17222 12.0157C9.20716 12.0159 9.25274 12.0173 9.30435 12.0244L9.17264 12.0245L9.17199 15.302C9.14977 15.4613 9.0561 15.7154 8.70235 15.716C8.71834 15.7302 7.79367 15.7158 7.79367 15.7158L7.54538 17.209L9.17246 17.2088C9.35618 17.209 9.53812 17.211 9.71805 17.213C9.8346 17.2142 9.95031 17.2155 10.0651 17.2163L10.0657 19.2936L11.3144 19.2938L11.3147 17.2387C11.6572 17.2458 11.989 17.2486 12.313 17.2483L12.3124 19.2939L13.5625 19.2937L13.5628 17.2204C15.6644 17.0998 17.1356 16.5703 17.3177 14.5973C17.4652 13.0082 16.718 12.299 15.5249 12.0122C16.2495 11.6425 16.7026 10.9923 16.5966 9.90891L16.597 9.90882ZM14.8478 14.3546C14.8481 15.7793 12.6097 15.7479 11.5864 15.7335C11.4948 15.7322 11.4129 15.7311 11.3432 15.7311L11.3435 12.9792C11.4287 12.9792 11.5321 12.9768 11.6493 12.974L11.6493 12.974C12.6981 12.9493 14.8473 12.8985 14.8481 14.3545L14.8478 14.3546ZM11.5492 11.7221C12.4035 11.7361 14.2657 11.7666 14.2661 10.4722C14.2662 9.14809 12.4747 9.19569 11.5998 9.21893C11.5014 9.22155 11.4146 9.22385 11.3433 9.22387L11.3432 11.7197C11.4021 11.7197 11.4715 11.7209 11.5492 11.7221Z" fill="white"/>
</g>
</svg>
