<svg width="24" height="24" viewBox="0 0 24 24" fill="none" xmlns="http://www.w3.org/2000/svg">
<circle cx="12" cy="12" r="11" fill="#003070"/>
<mask id="mask0_4978_86376" style="mask-type:alpha" maskUnits="userSpaceOnUse" x="0" y="0" width="24" height="24">
<rect width="24" height="24" fill="#C4C4C4"/>
</mask>
<g mask="url(#mask0_4978_86376)">
<path d="M12.1253 5L12.0352 5.30623V14.1924L12.1253 14.2823L16.2501 11.8441L12.1253 5Z" fill="white"/>
<path d="M12.1249 5L8 11.8441L12.1249 14.2824V9.96928V5Z" fill="white"/>
<path d="M12.125 15.6238L12.0742 15.6857V18.8511L12.125 18.9994L16.2523 13.1868L12.125 15.6238Z" fill="white"/>
<path d="M12.1249 18.9994V15.6238L8 13.1868L12.1249 18.9994Z" fill="white"/>
<path d="M12.125 14.2832L16.2498 11.8451L12.125 9.97021V14.2832Z" fill="white"/>
<path d="M8 11.8451L12.1248 14.2833V9.97021L8 11.8451Z" fill="white"/>
</g>
</svg>
