<svg width="24" height="24" viewBox="0 0 24 24" fill="none" xmlns="http://www.w3.org/2000/svg">
<mask id="mask0_4776_85831" style="mask-type:alpha" maskUnits="userSpaceOnUse" x="0" y="0" width="24" height="24">
<rect width="24" height="24" fill="#C4C4C4"/>
</mask>
<g mask="url(#mask0_4776_85831)">
<circle cx="12" cy="12" r="11" fill="#40C277"/>
<path d="M13.0947 5V7.03027H12.0352V5H13.0947ZM12.9648 16.1631V17.9951H11.9121V16.1631H12.9648ZM13.8535 13.9346C13.8535 13.6748 13.8034 13.4492 13.7031 13.2578C13.6074 13.0664 13.4456 12.8955 13.2178 12.7451C12.9945 12.5947 12.6937 12.4512 12.3154 12.3145C11.7275 12.1003 11.2126 11.8656 10.7705 11.6104C10.3285 11.3506 9.98438 11.0293 9.73828 10.6465C9.49674 10.2637 9.37598 9.7806 9.37598 9.19727C9.37598 8.63672 9.50586 8.15137 9.76562 7.74121C10.0299 7.3265 10.3968 7.00749 10.8662 6.78418C11.3356 6.55632 11.8802 6.44238 12.5 6.44238C12.9831 6.44238 13.416 6.5153 13.7988 6.66113C14.1862 6.80241 14.5166 7.00977 14.79 7.2832C15.068 7.55664 15.2799 7.89388 15.4258 8.29492C15.5762 8.69141 15.6514 9.14486 15.6514 9.65527H13.8467C13.8467 9.37272 13.8148 9.12207 13.751 8.90332C13.6872 8.68457 13.596 8.5 13.4775 8.34961C13.359 8.19466 13.2155 8.07845 13.0469 8.00098C12.8828 7.9235 12.696 7.88477 12.4863 7.88477C12.1855 7.88477 11.9372 7.94173 11.7412 8.05566C11.5498 8.1696 11.4085 8.32454 11.3174 8.52051C11.2308 8.71647 11.1875 8.94206 11.1875 9.19727C11.1875 9.44336 11.2331 9.65983 11.3242 9.84668C11.4199 10.029 11.5794 10.1953 11.8027 10.3457C12.0306 10.4961 12.3428 10.6488 12.7393 10.8037C13.3317 11.0225 13.8467 11.264 14.2842 11.5283C14.7217 11.7881 15.0612 12.1071 15.3027 12.4854C15.5443 12.8636 15.665 13.3421 15.665 13.9209C15.665 14.5133 15.5283 15.0146 15.2549 15.4248C14.986 15.835 14.6077 16.1471 14.1201 16.3613C13.6325 16.5755 13.0651 16.6826 12.418 16.6826C12.0033 16.6826 11.5931 16.6279 11.1875 16.5186C10.7819 16.4092 10.4128 16.2314 10.0801 15.9854C9.75195 15.7347 9.48991 15.4043 9.29395 14.9941C9.09798 14.5794 9 14.0713 9 13.4697H10.8115C10.8115 13.8161 10.8571 14.1032 10.9482 14.3311C11.0394 14.5589 11.1624 14.7412 11.3174 14.8779C11.4723 15.0101 11.6455 15.1035 11.8369 15.1582C12.0283 15.2129 12.222 15.2402 12.418 15.2402C12.737 15.2402 13.0013 15.1855 13.2109 15.0762C13.4251 14.9668 13.5846 14.8141 13.6895 14.6182C13.7988 14.4176 13.8535 14.1898 13.8535 13.9346Z" fill="white"/>
</g>
</svg>
